%TF.GenerationSoftware,KiCad,Pcbnew,10.0.2*%
%TF.CreationDate,2026-06-25T20:04:08-07:00*%
%TF.ProjectId,Aero32,4165726f-3332-42e6-9b69-6361645f7063,rev?*%
%TF.SameCoordinates,Original*%
%TF.FileFunction,Copper,L6,Bot*%
%TF.FilePolarity,Positive*%
%FSLAX46Y46*%
G04 Gerber Fmt 4.6, Leading zero omitted, Abs format (unit mm)*
G04 Created by KiCad (PCBNEW 10.0.2) date 2026-06-25 20:04:08*
%MOMM*%
%LPD*%
G01*
G04 APERTURE LIST*
G04 Aperture macros list*
%AMRotRect*
0 Rectangle, with rotation*
0 The origin of the aperture is its center*
0 $1 length*
0 $2 width*
0 $3 Rotation angle, in degrees counterclockwise*
0 Add horizontal line*
21,1,$1,$2,0,0,$3*%
G04 Aperture macros list end*
%TA.AperFunction,ComponentPad*%
%ADD10C,2.500000*%
%TD*%
%TA.AperFunction,ComponentPad*%
%ADD11C,1.800000*%
%TD*%
%TA.AperFunction,ComponentPad*%
%ADD12C,0.800000*%
%TD*%
%TA.AperFunction,ComponentPad*%
%ADD13C,6.400000*%
%TD*%
%TA.AperFunction,ComponentPad*%
%ADD14C,0.700000*%
%TD*%
%TA.AperFunction,ComponentPad*%
%ADD15O,2.100000X1.000000*%
%TD*%
%TA.AperFunction,ComponentPad*%
%ADD16O,1.600000X1.000000*%
%TD*%
%TA.AperFunction,SMDPad,CuDef*%
%ADD17R,0.800000X0.900000*%
%TD*%
%TA.AperFunction,SMDPad,CuDef*%
%ADD18R,0.566000X0.540000*%
%TD*%
%TA.AperFunction,SMDPad,CuDef*%
%ADD19R,0.500000X0.540000*%
%TD*%
%TA.AperFunction,SMDPad,CuDef*%
%ADD20R,0.900000X0.800000*%
%TD*%
%TA.AperFunction,SMDPad,CuDef*%
%ADD21R,1.350000X1.410000*%
%TD*%
%TA.AperFunction,SMDPad,CuDef*%
%ADD22O,0.600000X0.200000*%
%TD*%
%TA.AperFunction,SMDPad,CuDef*%
%ADD23R,0.900000X1.700000*%
%TD*%
%TA.AperFunction,SMDPad,CuDef*%
%ADD24RotRect,0.806000X0.864000X135.000000*%
%TD*%
%TA.AperFunction,SMDPad,CuDef*%
%ADD25R,0.864000X0.806000*%
%TD*%
%TA.AperFunction,SMDPad,CuDef*%
%ADD26R,0.540000X0.566000*%
%TD*%
%TA.AperFunction,SMDPad,CuDef*%
%ADD27R,0.806000X0.864000*%
%TD*%
%TA.AperFunction,SMDPad,CuDef*%
%ADD28R,1.100000X0.600000*%
%TD*%
%TA.AperFunction,SMDPad,CuDef*%
%ADD29RotRect,0.800000X0.900000X135.000000*%
%TD*%
%TA.AperFunction,SMDPad,CuDef*%
%ADD30R,1.500000X2.300000*%
%TD*%
%TA.AperFunction,SMDPad,CuDef*%
%ADD31R,1.410000X1.350000*%
%TD*%
%TA.AperFunction,SMDPad,CuDef*%
%ADD32R,5.300000X2.000000*%
%TD*%
%TA.AperFunction,ViaPad*%
%ADD33C,0.600000*%
%TD*%
%TA.AperFunction,ViaPad*%
%ADD34C,0.450000*%
%TD*%
%TA.AperFunction,ViaPad*%
%ADD35C,0.500000*%
%TD*%
%TA.AperFunction,Conductor*%
%ADD36C,0.254000*%
%TD*%
%TA.AperFunction,Conductor*%
%ADD37C,0.500000*%
%TD*%
%TA.AperFunction,Conductor*%
%ADD38C,1.000000*%
%TD*%
%TA.AperFunction,Conductor*%
%ADD39C,0.300000*%
%TD*%
%TA.AperFunction,Conductor*%
%ADD40C,0.170000*%
%TD*%
G04 APERTURE END LIST*
D10*
%TO.P,CN1,1,-_1*%
%TO.N,GND*%
X142900000Y-120100000D03*
%TO.P,CN1,2,+_2*%
%TO.N,+BATT*%
X147900000Y-120100000D03*
D11*
%TO.P,CN1,3,3_3*%
%TO.N,GND*%
X150900000Y-130100000D03*
%TO.P,CN1,4,4_4*%
X139900000Y-130100000D03*
%TD*%
D12*
%TO.P,REF\u002A\u002A,1*%
%TO.N,N/C*%
X133100000Y-63625000D03*
X132397056Y-65322056D03*
X132397056Y-61927944D03*
X130700000Y-66025000D03*
D13*
X130700000Y-63625000D03*
D12*
X130700000Y-61225000D03*
X129002944Y-65322056D03*
X129002944Y-61927944D03*
X128300000Y-63625000D03*
%TD*%
%TO.P,REF\u002A\u002A,1*%
%TO.N,N/C*%
X162600000Y-63625000D03*
X161897056Y-65322056D03*
X161897056Y-61927944D03*
X160200000Y-66025000D03*
D13*
X160200000Y-63625000D03*
D12*
X160200000Y-61225000D03*
X158502944Y-65322056D03*
X158502944Y-61927944D03*
X157800000Y-63625000D03*
%TD*%
D14*
%TO.P,USB1,*%
%TO.N,*%
X131780000Y-112655000D03*
X131780000Y-118435000D03*
D15*
%TO.P,USB1,1,SHELL_1*%
%TO.N,GND*%
X132280000Y-111225000D03*
%TO.P,USB1,2,SHELL_2*%
X132280000Y-119865000D03*
D16*
%TO.P,USB1,3,SHELL_3*%
X128100000Y-119865000D03*
%TO.P,USB1,4,SHELL_4*%
X128100000Y-111225000D03*
%TD*%
D12*
%TO.P,REF\u002A\u002A,1*%
%TO.N,N/C*%
X157800000Y-128125000D03*
X158502944Y-126427944D03*
X158502944Y-129822056D03*
X160200000Y-125725000D03*
D13*
X160200000Y-128125000D03*
D12*
X160200000Y-130525000D03*
X161897056Y-126427944D03*
X161897056Y-129822056D03*
X162600000Y-128125000D03*
%TD*%
%TO.P,REF\u002A\u002A,1*%
%TO.N,N/C*%
X128300000Y-128125000D03*
X129002944Y-126427944D03*
X129002944Y-129822056D03*
X130700000Y-125725000D03*
D13*
X130700000Y-128125000D03*
D12*
X130700000Y-130525000D03*
X132397056Y-126427944D03*
X132397056Y-129822056D03*
X133100000Y-128125000D03*
%TD*%
D17*
%TO.P,C84,1,1_1*%
%TO.N,GND*%
X138825000Y-91340000D03*
%TO.P,C84,2,2_2*%
%TO.N,VDDIO*%
X140225000Y-91340000D03*
%TD*%
D18*
%TO.P,R23,1,1_1*%
%TO.N,/CAM_SDA*%
X140435000Y-61190000D03*
%TO.P,R23,2,2_2*%
%TO.N,VDDIO*%
X141295000Y-61190000D03*
%TD*%
D19*
%TO.P,C33,1,1_1*%
%TO.N,/3V3_FB*%
X134700000Y-69450000D03*
%TO.P,C33,2,2_2*%
%TO.N,VDD3V3*%
X133860000Y-69450000D03*
%TD*%
D20*
%TO.P,C78,1,1_1*%
%TO.N,GND*%
X153575000Y-90340000D03*
%TO.P,C78,2,2_2*%
%TO.N,VDDIO*%
X153575000Y-88940000D03*
%TD*%
%TO.P,C75,1,1_1*%
%TO.N,GND*%
X145900000Y-79000000D03*
%TO.P,C75,2,2_2*%
%TO.N,VDDCORE*%
X145900000Y-80400000D03*
%TD*%
%TO.P,C65,1,1_1*%
%TO.N,GND*%
X142000000Y-91215000D03*
%TO.P,C65,2,2_2*%
%TO.N,VDDIO*%
X142000000Y-89815000D03*
%TD*%
D21*
%TO.P,C40,1,1_1*%
%TO.N,GND*%
X126850000Y-75000000D03*
%TO.P,C40,2,2_2*%
%TO.N,VDD3V3*%
X126850000Y-73000000D03*
%TD*%
D20*
%TO.P,C69,1,1_1*%
%TO.N,GND*%
X155300000Y-90340000D03*
%TO.P,C69,2,2_2*%
%TO.N,VDDIO*%
X155300000Y-88940000D03*
%TD*%
D22*
%TO.P,U9,1,FB_1*%
%TO.N,/3V3_FB*%
X135750000Y-72000000D03*
%TO.P,U9,2,PG_2*%
%TO.N,unconnected-(U9-PG-Pad2)*%
X135750000Y-72500000D03*
%TO.P,U9,3,VIN_3*%
%TO.N,VCC*%
X135750000Y-73000000D03*
%TO.P,U9,4,PGND_4*%
%TO.N,GND*%
X135750000Y-73500000D03*
%TO.P,U9,5,NC_5*%
%TO.N,unconnected-(U9-NC-Pad5)*%
X133850000Y-73500000D03*
%TO.P,U9,6,LX_6*%
%TO.N,Net-(U9-LX)*%
X133850000Y-73000000D03*
%TO.P,U9,7,EN_7*%
%TO.N,/PWR_ON*%
X133850000Y-72500000D03*
%TO.P,U9,8,SGND_8*%
%TO.N,GND*%
X133850000Y-72000000D03*
D23*
%TO.P,U9,9,EP_9*%
X134800000Y-72750000D03*
%TD*%
D24*
%TO.P,R34,1,1_1*%
%TO.N,/FLASH_CS*%
X134335660Y-85450660D03*
%TO.P,R34,2,2_2*%
%TO.N,VDDA1V8*%
X133275000Y-84390000D03*
%TD*%
D17*
%TO.P,C73,1,1_1*%
%TO.N,GND*%
X151270000Y-89650000D03*
%TO.P,C73,2,2_2*%
%TO.N,VDDA1V8*%
X149870000Y-89650000D03*
%TD*%
D25*
%TO.P,R16,1,1_1*%
%TO.N,/V_ADC2*%
X158250000Y-96100000D03*
%TO.P,R16,2,2_2*%
%TO.N,GND*%
X158250000Y-97600000D03*
%TD*%
D17*
%TO.P,C61,1,1_1*%
%TO.N,GND*%
X144575000Y-92965000D03*
%TO.P,C61,2,2_2*%
%TO.N,VDDIO*%
X145975000Y-92965000D03*
%TD*%
%TO.P,C46,1,1_1*%
%TO.N,Net-(U10-SW)*%
X153525000Y-97470984D03*
%TO.P,C46,2,2_2*%
%TO.N,Net-(U10-CB)*%
X154925000Y-97470984D03*
%TD*%
%TO.P,C70,1,1_1*%
%TO.N,GND*%
X151750000Y-85215000D03*
%TO.P,C70,2,2_2*%
%TO.N,VDDCORE*%
X150350000Y-85215000D03*
%TD*%
D20*
%TO.P,C72,1,1_1*%
%TO.N,GND*%
X143300000Y-86115000D03*
%TO.P,C72,2,2_2*%
%TO.N,VDDCORE*%
X143300000Y-84715000D03*
%TD*%
D21*
%TO.P,C47,1,1_1*%
%TO.N,GND*%
X157215000Y-103150000D03*
%TO.P,C47,2,2_2*%
%TO.N,+3V3*%
X157215000Y-101150000D03*
%TD*%
D26*
%TO.P,R21,1,1_1*%
%TO.N,/SDA1*%
X160975000Y-91500000D03*
%TO.P,R21,2,2_2*%
%TO.N,VDDIO*%
X160975000Y-90640000D03*
%TD*%
D27*
%TO.P,R29,1,1_1*%
%TO.N,Net-(U11B-CSI_REXT)*%
X148650000Y-81240000D03*
%TO.P,R29,2,2_2*%
%TO.N,GND*%
X150150000Y-81240000D03*
%TD*%
D17*
%TO.P,C80,1,1_1*%
%TO.N,GND*%
X139925000Y-86040000D03*
%TO.P,C80,2,2_2*%
%TO.N,VDDCORE*%
X141325000Y-86040000D03*
%TD*%
D28*
%TO.P,U10,1,CB_1*%
%TO.N,Net-(U10-CB)*%
X155575000Y-99245984D03*
%TO.P,U10,2,GND_2*%
%TO.N,GND*%
X155575000Y-100195984D03*
%TO.P,U10,3,FB_3*%
%TO.N,+3V3*%
X155575000Y-101145984D03*
%TO.P,U10,4,EN_4*%
%TO.N,+BATT*%
X152875000Y-101145984D03*
%TO.P,U10,5,VIN_5*%
X152875000Y-100195984D03*
%TO.P,U10,6,SW_6*%
%TO.N,Net-(U10-SW)*%
X152875000Y-99245984D03*
%TD*%
D17*
%TO.P,C71,1,1_1*%
%TO.N,GND*%
X154925000Y-87165000D03*
%TO.P,C71,2,2_2*%
%TO.N,VDDIO*%
X153525000Y-87165000D03*
%TD*%
D25*
%TO.P,R27,1,1_1*%
%TO.N,VDDIO*%
X128900000Y-94325000D03*
%TO.P,R27,2,2_2*%
%TO.N,/CS*%
X128900000Y-95825000D03*
%TD*%
D29*
%TO.P,C67,1,1_1*%
%TO.N,GND*%
X149664950Y-87804950D03*
%TO.P,C67,2,2_2*%
%TO.N,VDDIO*%
X148675000Y-86815000D03*
%TD*%
D17*
%TO.P,C66,1,1_1*%
%TO.N,GND*%
X147150000Y-76940000D03*
%TO.P,C66,2,2_2*%
%TO.N,VDDCORE*%
X145750000Y-76940000D03*
%TD*%
D20*
%TO.P,C91,1,1_1*%
%TO.N,GND*%
X145550000Y-73590000D03*
%TO.P,C91,2,2_2*%
%TO.N,VDDA1V8*%
X145550000Y-74990000D03*
%TD*%
D17*
%TO.P,C44,1,1_1*%
%TO.N,GND*%
X145220000Y-86100000D03*
%TO.P,C44,2,2_2*%
%TO.N,VDDA1V8_AON*%
X146620000Y-86100000D03*
%TD*%
D25*
%TO.P,R28,1,1_1*%
%TO.N,Net-(U11B-OTG1_TXRTUNE)*%
X147850000Y-90040000D03*
%TO.P,R28,2,2_2*%
%TO.N,GND*%
X147850000Y-88540000D03*
%TD*%
D30*
%TO.P,L4,1,1_1*%
%TO.N,Net-(U9-LX)*%
X132350000Y-73000000D03*
%TO.P,L4,2,2_2*%
%TO.N,VDD3V3*%
X128650000Y-73000000D03*
%TD*%
D20*
%TO.P,C36,1,1_1*%
%TO.N,GND*%
X159850000Y-97550000D03*
%TO.P,C36,2,2_2*%
%TO.N,/V_ADC2*%
X159850000Y-96150000D03*
%TD*%
%TO.P,C88,1,1_1*%
%TO.N,GND*%
X145050000Y-91115000D03*
%TO.P,C88,2,2_2*%
%TO.N,VDDIO*%
X145050000Y-89715000D03*
%TD*%
D17*
%TO.P,C68,1,1_1*%
%TO.N,GND*%
X139925000Y-84340000D03*
%TO.P,C68,2,2_2*%
%TO.N,VDDA1V8*%
X141325000Y-84340000D03*
%TD*%
%TO.P,C60,1,1_1*%
%TO.N,GND*%
X151525000Y-82990000D03*
%TO.P,C60,2,2_2*%
%TO.N,VDDA1V8*%
X150125000Y-82990000D03*
%TD*%
%TO.P,C45,1,1_1*%
%TO.N,GND*%
X154275000Y-102745984D03*
%TO.P,C45,2,2_2*%
%TO.N,+BATT*%
X152875000Y-102745984D03*
%TD*%
D21*
%TO.P,C21,1,1_1*%
%TO.N,GND*%
X137500000Y-76000000D03*
%TO.P,C21,2,2_2*%
%TO.N,VCC*%
X137500000Y-74000000D03*
%TD*%
D25*
%TO.P,R30,1,1_1*%
%TO.N,/BOOT0*%
X161700000Y-99100000D03*
%TO.P,R30,2,2_2*%
%TO.N,GND*%
X161700000Y-100600000D03*
%TD*%
D31*
%TO.P,C43,1,1_1*%
%TO.N,GND*%
X130650000Y-69600000D03*
%TO.P,C43,2,2_2*%
%TO.N,VDD3V3*%
X128650000Y-69600000D03*
%TD*%
D27*
%TO.P,R19,1,1_1*%
%TO.N,/3V3_FB*%
X135050000Y-70800000D03*
%TO.P,R19,2,2_2*%
%TO.N,VDD3V3*%
X133550000Y-70800000D03*
%TD*%
D26*
%TO.P,R22,1,1_1*%
%TO.N,/SDA2*%
X162150000Y-73040000D03*
%TO.P,R22,2,2_2*%
%TO.N,VDDIO*%
X162150000Y-73900000D03*
%TD*%
%TO.P,R24,1,1_1*%
%TO.N,/SCL1*%
X162175000Y-91500000D03*
%TO.P,R24,2,2_2*%
%TO.N,VDDIO*%
X162175000Y-90640000D03*
%TD*%
%TO.P,R25,1,1_1*%
%TO.N,/SCL2*%
X160975000Y-73040000D03*
%TO.P,R25,2,2_2*%
%TO.N,VDDIO*%
X160975000Y-73900000D03*
%TD*%
D27*
%TO.P,R20,1,1_1*%
%TO.N,GND*%
X138050000Y-70800000D03*
%TO.P,R20,2,2_2*%
%TO.N,/3V3_FB*%
X136550000Y-70800000D03*
%TD*%
D17*
%TO.P,C92,1,1_1*%
%TO.N,GND*%
X143075000Y-87940000D03*
%TO.P,C92,2,2_2*%
%TO.N,VDDIO*%
X144475000Y-87940000D03*
%TD*%
%TO.P,C74,1,1_1*%
%TO.N,GND*%
X138825000Y-89640000D03*
%TO.P,C74,2,2_2*%
%TO.N,VDDIO*%
X140225000Y-89640000D03*
%TD*%
%TO.P,C77,1,1_1*%
%TO.N,GND*%
X146610000Y-84380000D03*
%TO.P,C77,2,2_2*%
%TO.N,VDDA1V8*%
X145210000Y-84380000D03*
%TD*%
D18*
%TO.P,R26,1,1_1*%
%TO.N,/CAM_SCL*%
X140450000Y-62390000D03*
%TO.P,R26,2,2_2*%
%TO.N,VDDIO*%
X141310000Y-62390000D03*
%TD*%
D17*
%TO.P,C63,1,1_1*%
%TO.N,GND*%
X139925000Y-87740000D03*
%TO.P,C63,2,2_2*%
%TO.N,VDDCORE*%
X141325000Y-87740000D03*
%TD*%
D32*
%TO.P,L5,1,1_1*%
%TO.N,Net-(U10-SW)*%
X149125000Y-99195984D03*
%TO.P,L5,2,2_2*%
%TO.N,+3V3*%
X149125000Y-102795984D03*
%TD*%
D25*
%TO.P,R15,1,1_1*%
%TO.N,/V_ADC2*%
X156750000Y-96100000D03*
%TO.P,R15,2,2_2*%
%TO.N,+BATT*%
X156750000Y-97600000D03*
%TD*%
D17*
%TO.P,C62,1,1_1*%
%TO.N,GND*%
X143800000Y-94690000D03*
%TO.P,C62,2,2_2*%
%TO.N,VDDIO*%
X145200000Y-94690000D03*
%TD*%
D20*
%TO.P,C57,1,1_1*%
%TO.N,GND*%
X150675000Y-92727500D03*
%TO.P,C57,2,2_2*%
%TO.N,VDDIO*%
X150675000Y-91327500D03*
%TD*%
D33*
%TO.N,GND*%
X137600000Y-103735000D03*
X163600000Y-109675000D03*
D34*
X153500000Y-79015000D03*
X147850000Y-84440000D03*
X128750000Y-81090000D03*
X147425000Y-93165000D03*
X143300000Y-98750000D03*
X144350000Y-70690000D03*
D33*
X132860000Y-112345000D03*
D34*
X155350000Y-61240000D03*
X148600000Y-104250000D03*
D33*
X160100000Y-120775000D03*
D34*
X152175000Y-94915000D03*
X160400000Y-113400000D03*
X162690000Y-94950000D03*
X130850000Y-80240000D03*
X140165000Y-106245000D03*
X129000000Y-101600000D03*
X136550000Y-61240000D03*
X159550000Y-99675000D03*
X135975000Y-102175000D03*
X149450000Y-64040000D03*
X128750000Y-85565000D03*
D35*
X142250000Y-68740000D03*
D34*
X141430000Y-114300000D03*
X157840000Y-69990000D03*
X147050000Y-87640000D03*
X135550000Y-61240000D03*
X137680000Y-91800000D03*
X137475000Y-115165000D03*
X163310000Y-104625000D03*
X136525000Y-87725000D03*
X162690000Y-89550000D03*
X143625000Y-93390000D03*
X137200000Y-90500000D03*
X156700000Y-98875000D03*
D33*
X130625000Y-74775000D03*
X159500000Y-109675000D03*
X150500000Y-109625000D03*
X142450000Y-106575000D03*
D34*
X147850000Y-86040000D03*
X140250000Y-83215000D03*
X129500000Y-106750000D03*
X132500000Y-100700000D03*
X134800000Y-72750000D03*
X136300000Y-97050000D03*
D33*
X139790000Y-109710000D03*
X153620000Y-116345000D03*
D34*
X152450000Y-62715000D03*
X148925000Y-93225000D03*
X162700000Y-82900000D03*
X127550000Y-89375000D03*
X137500000Y-76000000D03*
X144175000Y-87015000D03*
X149275000Y-96525000D03*
X144730000Y-116600000D03*
X146220000Y-97790000D03*
X143850000Y-82040000D03*
D33*
X156370000Y-116345000D03*
D34*
X135550000Y-60240000D03*
X146800000Y-69500000D03*
D33*
X162200000Y-120775000D03*
D34*
X154225000Y-75815000D03*
X154350000Y-60240000D03*
X126500000Y-70125000D03*
X148650000Y-82040000D03*
X153900000Y-94915000D03*
X162690000Y-75000000D03*
X155950000Y-75790000D03*
X133500000Y-71700000D03*
X154350000Y-61240000D03*
X156285000Y-79015000D03*
X163300000Y-97725000D03*
X129525000Y-77175000D03*
X136300000Y-95025000D03*
X144925000Y-72365000D03*
X144650000Y-82840000D03*
X136550000Y-60240000D03*
X145220000Y-86100000D03*
X151850000Y-78840000D03*
X133100000Y-68450000D03*
X137050000Y-65940000D03*
X142650000Y-94275000D03*
D35*
X147325000Y-75015000D03*
D34*
X145800000Y-104100000D03*
X157420000Y-73180000D03*
X141770000Y-101200000D03*
X155450000Y-84015000D03*
X155110000Y-94530000D03*
X162690000Y-76250000D03*
X141350000Y-72690000D03*
D33*
X158150000Y-122025000D03*
D34*
X158250000Y-97600000D03*
D33*
X154800000Y-121325000D03*
D34*
X147400000Y-95815000D03*
D33*
X143250000Y-112675000D03*
D34*
X155580000Y-94210000D03*
X140400000Y-95075000D03*
X132850000Y-83240000D03*
D33*
X163450000Y-116825000D03*
D34*
X156490000Y-82290000D03*
X151850000Y-86840000D03*
X152375000Y-83290000D03*
D33*
X135000000Y-111295000D03*
D34*
X151050000Y-87640000D03*
X127900000Y-106700000D03*
X156250000Y-91215000D03*
X152450000Y-75470000D03*
X143450000Y-64040000D03*
X156050000Y-87315000D03*
X144725000Y-106475000D03*
X137020000Y-101790000D03*
X150950000Y-105550000D03*
X162690000Y-69600000D03*
X136375000Y-78890000D03*
X146625000Y-94265000D03*
X146610000Y-84380000D03*
D33*
X132860000Y-118745000D03*
X141850000Y-103675000D03*
D34*
X162690000Y-81650000D03*
D33*
X161550000Y-109675000D03*
D34*
X136050000Y-60740000D03*
X154850000Y-60740000D03*
D33*
X137505000Y-120095000D03*
D34*
X146450000Y-64040000D03*
X159850000Y-97550000D03*
X134850000Y-82240000D03*
X140200000Y-93475000D03*
D33*
X135700000Y-109175000D03*
X148450000Y-109625000D03*
D34*
X155350000Y-60240000D03*
X139490000Y-88790000D03*
X126850000Y-75000000D03*
X156300000Y-90015000D03*
X152450000Y-77190000D03*
X137900000Y-69550000D03*
X156530000Y-69000000D03*
X146250000Y-82840000D03*
X151100000Y-84440000D03*
X146700000Y-97460000D03*
X127550000Y-97775000D03*
X162700000Y-88300000D03*
D33*
X158800000Y-116825000D03*
D34*
X161700000Y-100600000D03*
D33*
X134755000Y-119895000D03*
D34*
X145450000Y-82040000D03*
%TO.N,VDDIO*%
X146250000Y-87640000D03*
X151850000Y-88440000D03*
X145025000Y-97350000D03*
X150675000Y-91240000D03*
X141310000Y-62390000D03*
X140225000Y-89640000D03*
X152975000Y-84865000D03*
X137200000Y-89100000D03*
X154725000Y-104925000D03*
X146250000Y-88440000D03*
%TO.N,+5V*%
X137300000Y-112675000D03*
X138037500Y-108837500D03*
X137700000Y-109175000D03*
X147800000Y-107625000D03*
X148450000Y-107625000D03*
X147200000Y-107625000D03*
%TO.N,/MOSI*%
X131100000Y-94325000D03*
X143500000Y-91225000D03*
%TO.N,/CS*%
X131100000Y-95825000D03*
X141060000Y-88850000D03*
%TO.N,VDDA1V8*%
X128750000Y-82490000D03*
X134850000Y-81240000D03*
X131850000Y-83265000D03*
X143675000Y-75765000D03*
X148650000Y-80440000D03*
X151050000Y-78840000D03*
X144350000Y-71690000D03*
X148650000Y-82840000D03*
X130325000Y-87190000D03*
X137225000Y-85615000D03*
X142250000Y-82040000D03*
X147700000Y-100950000D03*
X131900000Y-77165000D03*
X145210000Y-84380000D03*
X131850000Y-80265000D03*
X147325000Y-73615000D03*
X149870000Y-89650000D03*
X147325000Y-71890000D03*
X154225000Y-77215000D03*
X149900000Y-68000000D03*
%TO.N,VDDCORE*%
X153500000Y-80415000D03*
X154050000Y-84015000D03*
X141875000Y-88825000D03*
X143850000Y-81240000D03*
X140400000Y-97075000D03*
X143050000Y-83640000D03*
X146250000Y-82040000D03*
X148275000Y-83940000D03*
X149450000Y-80440000D03*
%TO.N,/LED3*%
X147850000Y-80440000D03*
X152530000Y-69000000D03*
%TO.N,/SCL1*%
X159330000Y-93000000D03*
X143850000Y-90040000D03*
%TO.N,/SDA1*%
X159330000Y-91500000D03*
X143850000Y-89240000D03*
%TO.N,VDD3V3*%
X149450000Y-91640000D03*
X150937500Y-101012500D03*
X138450000Y-67640000D03*
X126330000Y-91540000D03*
%TO.N,/LED2*%
X152520000Y-70700000D03*
X147850000Y-81240000D03*
%TO.N,+BATT*%
X152875000Y-100225000D03*
D33*
X153580000Y-117705000D03*
D34*
X156750000Y-97600000D03*
X152875000Y-101125000D03*
X152875000Y-102725000D03*
D33*
X156420000Y-117705000D03*
D34*
X152875000Y-101925000D03*
%TO.N,VBUS*%
X135110000Y-116025000D03*
X144725000Y-108475000D03*
D33*
X132860000Y-117945000D03*
X132860000Y-113145000D03*
X144750000Y-112675000D03*
X141800000Y-112725000D03*
D34*
%TO.N,VCC*%
X134300000Y-95025000D03*
X135600000Y-76300000D03*
X134300000Y-97050000D03*
X134300000Y-97550000D03*
X134170000Y-106300000D03*
X134300000Y-96550000D03*
X134170000Y-106800000D03*
X134170000Y-107300000D03*
%TO.N,VDDA1V8_AON*%
X146620000Y-86100000D03*
X151850000Y-91640000D03*
X147850000Y-82040000D03*
X147850000Y-87640000D03*
%TO.N,/OCTOSPI_CLK*%
X140650000Y-81240000D03*
X133850000Y-83240000D03*
X141350000Y-73690000D03*
%TO.N,/FLASH_CS*%
X134335660Y-85450660D03*
X139050000Y-80440000D03*
X133850000Y-82240000D03*
%TO.N,/OCTOSPI_DQS*%
X143350000Y-80040000D03*
X141790000Y-81677000D03*
%TO.N,/OCTOSPI_IO1*%
X133850000Y-81240000D03*
X140650000Y-80440000D03*
D35*
X143350000Y-73690000D03*
D34*
%TO.N,/OCTOSPI_IO0*%
X143350000Y-72690000D03*
X132850000Y-81240000D03*
X141918000Y-77622000D03*
%TO.N,/OCTOSPI_IO3*%
X143350000Y-71690000D03*
X131850000Y-81240000D03*
X139850000Y-80440000D03*
%TO.N,/OCTOSPI_IO4*%
X130850000Y-81240000D03*
X143350000Y-70690000D03*
X139850000Y-81240000D03*
%TO.N,/OCTOSPI_IO7*%
X144350000Y-74690000D03*
X140175000Y-78515000D03*
%TO.N,/OCTOSPI_IO6*%
X144350000Y-73690000D03*
X141170000Y-77000000D03*
%TO.N,/OCTOSPI_IO5*%
X140650000Y-79640000D03*
X132850000Y-80240000D03*
X144350000Y-72690000D03*
%TO.N,/V_ADC*%
X131000000Y-105250000D03*
X145050000Y-79340000D03*
%TO.N,/D-*%
X139065000Y-114385000D03*
X148709529Y-91981837D03*
%TO.N,/D+*%
X149000000Y-91200000D03*
X137910000Y-115620000D03*
%TO.N,Net-(U11B-OTG1_TXRTUNE)*%
X147850000Y-90040000D03*
%TO.N,/UART_TX2*%
X146600000Y-89700000D03*
X159340000Y-84850000D03*
%TO.N,/PWR_ON*%
X149570000Y-104350000D03*
X150650000Y-90400000D03*
X133850000Y-72500000D03*
X131500000Y-99450000D03*
%TO.N,/UART_TX1*%
X152490000Y-79900000D03*
X138539000Y-87700000D03*
X159330000Y-78200000D03*
%TO.N,/NRST*%
X134225000Y-87215000D03*
X150250000Y-86840000D03*
X132025000Y-74775000D03*
%TO.N,/BOOT0*%
X157525000Y-99075000D03*
X150625000Y-88075000D03*
%TO.N,/UART_RX1*%
X138060000Y-88060000D03*
X159330000Y-79700000D03*
%TO.N,Net-(U11B-CSI_REXT)*%
X148650000Y-81240000D03*
%TO.N,/CAM_SDA*%
X139450000Y-64040000D03*
X147050000Y-81240000D03*
%TO.N,/V_ADC2*%
X145750000Y-81500000D03*
X158250000Y-96100000D03*
X152900000Y-85600000D03*
%TO.N,/SDA2*%
X159330000Y-71550000D03*
X145025000Y-80900000D03*
%TO.N,/UART_RX2*%
X159340000Y-86350000D03*
X145025000Y-80100000D03*
%TO.N,/CAM_D1_P*%
X149050000Y-79265000D03*
X147450000Y-64040000D03*
%TO.N,/CAM_D0_P*%
X148405000Y-79395000D03*
X150450000Y-64040000D03*
%TO.N,/CAM_D1_N*%
X149205000Y-78595000D03*
X148450000Y-64040000D03*
%TO.N,/CAM_D0_N*%
X148050000Y-78290000D03*
X151450000Y-64040000D03*
%TO.N,/CAM_SCL*%
X140450000Y-64040000D03*
%TO.N,/LED1*%
X152520000Y-72370000D03*
X144800000Y-77700000D03*
%TO.N,/SCL2*%
X159330000Y-73050000D03*
X143850000Y-78840000D03*
%TO.N,+3V3*%
X159550000Y-101175000D03*
X158950000Y-101175000D03*
X160150000Y-101175000D03*
%TD*%
%TO.N,GND*%
D36*
X143065000Y-94690000D02*
X142650000Y-94275000D01*
X150187500Y-93215000D02*
X148935000Y-93215000D01*
X144575000Y-92965000D02*
X144050000Y-92965000D01*
X155300000Y-90340000D02*
X155975000Y-90340000D01*
X148929900Y-88540000D02*
X147850000Y-88540000D01*
X148935000Y-93215000D02*
X148925000Y-93225000D01*
X151750000Y-85215000D02*
X151750000Y-86740000D01*
X130650000Y-69600000D02*
X131800000Y-68450000D01*
X140250000Y-83215000D02*
X140200000Y-83265000D01*
X156700000Y-99475000D02*
X155979016Y-100195984D01*
X143075000Y-87940000D02*
X143075000Y-86340000D01*
X150150000Y-81240000D02*
X150810000Y-81240000D01*
X155450000Y-84015000D02*
X155450000Y-86640000D01*
X151960000Y-90340000D02*
X151270000Y-89650000D01*
X139925000Y-87740000D02*
X139925000Y-86040000D01*
X140200000Y-93475000D02*
X140200000Y-93450000D01*
X145550000Y-73590000D02*
X145550000Y-72990000D01*
X153575000Y-90340000D02*
X151960000Y-90340000D01*
X145205000Y-86115000D02*
X145220000Y-86100000D01*
X140200000Y-93450000D02*
X142000000Y-91650000D01*
X143075000Y-86340000D02*
X143300000Y-86115000D01*
X133850000Y-72000000D02*
X133800000Y-72000000D01*
X156700000Y-98875000D02*
X156700000Y-99475000D01*
X158550000Y-104625000D02*
X163310000Y-104625000D01*
X157215000Y-103150000D02*
X157215000Y-103290000D01*
X138825000Y-89640000D02*
X138825000Y-91340000D01*
X154804016Y-100195984D02*
X155575000Y-100195984D01*
X131800000Y-68450000D02*
X133100000Y-68450000D01*
X139490000Y-88790000D02*
X139490000Y-88175000D01*
X147150000Y-76940000D02*
X147150000Y-75190000D01*
X154275000Y-102745984D02*
X154275000Y-100725000D01*
X151750000Y-86740000D02*
X151850000Y-86840000D01*
X135750000Y-73500000D02*
X135550000Y-73500000D01*
X138050000Y-69700000D02*
X137900000Y-69550000D01*
X155979016Y-100195984D02*
X155575000Y-100195984D01*
X140200000Y-84065000D02*
X139925000Y-84340000D01*
X139925000Y-86040000D02*
X139925000Y-84340000D01*
X149664950Y-87804950D02*
X148929900Y-88540000D01*
X151525000Y-82990000D02*
X152075000Y-82990000D01*
X147150000Y-77350000D02*
X145900000Y-78600000D01*
X153575000Y-90340000D02*
X155300000Y-90340000D01*
X157215000Y-103290000D02*
X158550000Y-104625000D01*
X144050000Y-92965000D02*
X143625000Y-93390000D01*
X154275000Y-100725000D02*
X154804016Y-100195984D01*
X140200000Y-83265000D02*
X140200000Y-84065000D01*
X147850000Y-88540000D02*
X147850000Y-88440000D01*
X143300000Y-86115000D02*
X145205000Y-86115000D01*
X138825000Y-91340000D02*
X138040000Y-91340000D01*
X138040000Y-91340000D02*
X137200000Y-90500000D01*
X147850000Y-88440000D02*
X147050000Y-87640000D01*
X139490000Y-88175000D02*
X139925000Y-87740000D01*
X147150000Y-75190000D02*
X147325000Y-75015000D01*
X143800000Y-94690000D02*
X143065000Y-94690000D01*
X152075000Y-82990000D02*
X152375000Y-83290000D01*
X155450000Y-86640000D02*
X154925000Y-87165000D01*
X151850000Y-80200000D02*
X151850000Y-78840000D01*
X138050000Y-70800000D02*
X138050000Y-69700000D01*
X135550000Y-73500000D02*
X134800000Y-72750000D01*
X133800000Y-72000000D02*
X133500000Y-71700000D01*
X150810000Y-81240000D02*
X151850000Y-80200000D01*
X147150000Y-76940000D02*
X147150000Y-77350000D01*
X145050000Y-91115000D02*
X145050000Y-91200000D01*
X145900000Y-78600000D02*
X145900000Y-79000000D01*
X155975000Y-90340000D02*
X156300000Y-90015000D01*
X145550000Y-72990000D02*
X144925000Y-72365000D01*
X150675000Y-92727500D02*
X150187500Y-93215000D01*
X144575000Y-91590000D02*
X145050000Y-91115000D01*
X142000000Y-91650000D02*
X142000000Y-91215000D01*
X144575000Y-92965000D02*
X144575000Y-91590000D01*
X133100000Y-68450000D02*
X133125000Y-68450000D01*
%TO.N,VDDIO*%
X153525000Y-87165000D02*
X153125000Y-87165000D01*
X145950000Y-87940000D02*
X146250000Y-87640000D01*
X131375000Y-89100000D02*
X137200000Y-89100000D01*
X159275000Y-88940000D02*
X160975000Y-90640000D01*
X141310000Y-61205000D02*
X141295000Y-61190000D01*
X155300000Y-88940000D02*
X153575000Y-88940000D01*
X153550000Y-85440000D02*
X152975000Y-84865000D01*
X155300000Y-88940000D02*
X159275000Y-88940000D01*
X140225000Y-91340000D02*
X140225000Y-89640000D01*
X153575000Y-88940000D02*
X152350000Y-88940000D01*
X140400000Y-89815000D02*
X140225000Y-89640000D01*
X153550000Y-87140000D02*
X153550000Y-85440000D01*
X145975000Y-92965000D02*
X145975000Y-93915000D01*
X145050000Y-89715000D02*
X145050000Y-89640000D01*
X128900000Y-94325000D02*
X128900000Y-91575000D01*
X145975000Y-90640000D02*
X145050000Y-89715000D01*
X153525000Y-87165000D02*
X153550000Y-87140000D01*
X162175000Y-90640000D02*
X160975000Y-90640000D01*
X145975000Y-93915000D02*
X145200000Y-94690000D01*
X141310000Y-62390000D02*
X141310000Y-61205000D01*
X144475000Y-87940000D02*
X145950000Y-87940000D01*
X145975000Y-92965000D02*
X145975000Y-90640000D01*
X162150000Y-73900000D02*
X160975000Y-73900000D01*
X148675000Y-86815000D02*
X147075000Y-86815000D01*
X152350000Y-88940000D02*
X151850000Y-88440000D01*
X153125000Y-87165000D02*
X151850000Y-88440000D01*
X142000000Y-89815000D02*
X140400000Y-89815000D01*
X128900000Y-91575000D02*
X131375000Y-89100000D01*
X160975000Y-73900000D02*
X160975000Y-90640000D01*
X145050000Y-89640000D02*
X146250000Y-88440000D01*
X147075000Y-86815000D02*
X146250000Y-87640000D01*
%TO.N,+5V*%
D37*
X137300000Y-112675000D02*
X137300000Y-109575000D01*
X137300000Y-109575000D02*
X137700000Y-109175000D01*
%TO.N,/CS*%
D36*
X128900000Y-95825000D02*
X131100000Y-95825000D01*
%TO.N,VDDA1V8*%
X131850000Y-83265000D02*
X130325000Y-84790000D01*
X144350000Y-71690000D02*
X147125000Y-71690000D01*
X147075000Y-73615000D02*
X147325000Y-73615000D01*
X133275000Y-84390000D02*
X132975000Y-84390000D01*
X148800000Y-82990000D02*
X148650000Y-82840000D01*
X141325000Y-84340000D02*
X142250000Y-83415000D01*
X142250000Y-83415000D02*
X142250000Y-82040000D01*
X145550000Y-74990000D02*
X145700000Y-74990000D01*
X148650000Y-80440000D02*
X150250000Y-78840000D01*
X145700000Y-74990000D02*
X147075000Y-73615000D01*
X144375000Y-71715000D02*
X144350000Y-71690000D01*
X130325000Y-84790000D02*
X130325000Y-87190000D01*
X131850000Y-80265000D02*
X131371000Y-80744000D01*
X132975000Y-84390000D02*
X131850000Y-83265000D01*
X144775000Y-75765000D02*
X143675000Y-75765000D01*
X145550000Y-74990000D02*
X144775000Y-75765000D01*
X131371000Y-82786000D02*
X131850000Y-83265000D01*
X147125000Y-71690000D02*
X147325000Y-71890000D01*
X150125000Y-82990000D02*
X148800000Y-82990000D01*
X131371000Y-80744000D02*
X131371000Y-82786000D01*
X150250000Y-78840000D02*
X151050000Y-78840000D01*
%TO.N,VDDCORE*%
X141325000Y-86040000D02*
X141500000Y-86040000D01*
X143850000Y-79517409D02*
X143850000Y-81240000D01*
X146250000Y-82040000D02*
X146250000Y-80750000D01*
D37*
X141875000Y-88290000D02*
X141325000Y-87740000D01*
D36*
X142200000Y-85340000D02*
X142200000Y-84490000D01*
X141500000Y-86040000D02*
X142200000Y-85340000D01*
X145750000Y-76940000D02*
X145750000Y-77617409D01*
X150350000Y-84462591D02*
X150851591Y-83961000D01*
X142200000Y-84490000D02*
X143050000Y-83640000D01*
X141325000Y-87740000D02*
X141325000Y-86040000D01*
X146250000Y-80750000D02*
X145900000Y-80400000D01*
X150350000Y-85215000D02*
X149550000Y-85215000D01*
D37*
X141875000Y-88825000D02*
X141875000Y-88290000D01*
D36*
X145750000Y-77617409D02*
X143850000Y-79517409D01*
X143300000Y-84715000D02*
X143300000Y-83890000D01*
X153996000Y-83961000D02*
X154050000Y-84015000D01*
X149550000Y-85215000D02*
X148275000Y-83940000D01*
X150350000Y-85215000D02*
X150350000Y-84462591D01*
X150851591Y-83961000D02*
X153996000Y-83961000D01*
X143300000Y-83890000D02*
X143050000Y-83640000D01*
%TO.N,/LED3*%
X153100000Y-73917409D02*
X153100000Y-69570000D01*
X147850000Y-79167409D02*
X153100000Y-73917409D01*
X147850000Y-80440000D02*
X147850000Y-79167409D01*
X153100000Y-69570000D02*
X152530000Y-69000000D01*
%TO.N,/SCL1*%
X160675000Y-93000000D02*
X159330000Y-93000000D01*
X162175000Y-91500000D02*
X160675000Y-93000000D01*
%TO.N,/SDA1*%
X160975000Y-91500000D02*
X159330000Y-91500000D01*
%TO.N,VDD3V3*%
D37*
X133550000Y-69760000D02*
X133860000Y-69450000D01*
X130610000Y-67640000D02*
X138450000Y-67640000D01*
X133550000Y-70800000D02*
X133550000Y-69760000D01*
X126330000Y-81030000D02*
X126330000Y-91540000D01*
X126850000Y-73000000D02*
X128650000Y-73000000D01*
X131800000Y-70800000D02*
X129600000Y-73000000D01*
X129600000Y-73000000D02*
X128650000Y-73000000D01*
X133550000Y-70800000D02*
X131800000Y-70800000D01*
X128650000Y-69600000D02*
X128650000Y-73000000D01*
X128650000Y-78710000D02*
X126330000Y-81030000D01*
X128650000Y-73000000D02*
X128650000Y-78710000D01*
X128650000Y-69600000D02*
X130610000Y-67640000D01*
%TO.N,/LED2*%
D36*
X149500000Y-75948000D02*
X149500000Y-72100000D01*
X149500000Y-72100000D02*
X150900000Y-70700000D01*
X147371000Y-78077000D02*
X149500000Y-75948000D01*
X147850000Y-81240000D02*
X147371000Y-80761000D01*
X147371000Y-80761000D02*
X147371000Y-78077000D01*
X150900000Y-70700000D02*
X152520000Y-70700000D01*
%TO.N,+BATT*%
D37*
X152875000Y-100195984D02*
X152875000Y-100225000D01*
D38*
X151100000Y-117725000D02*
X151120000Y-117705000D01*
D37*
X152875000Y-101925000D02*
X152875000Y-101145984D01*
X152875000Y-101125000D02*
X152875000Y-101145984D01*
D38*
X150275000Y-117725000D02*
X151100000Y-117725000D01*
D37*
X152875000Y-102745984D02*
X152875000Y-102725000D01*
D38*
X147900000Y-120100000D02*
X150275000Y-117725000D01*
X156420000Y-117705000D02*
X153580000Y-117705000D01*
D37*
X152875000Y-100225000D02*
X152875000Y-101125000D01*
D38*
X151120000Y-117705000D02*
X153580000Y-117705000D01*
D37*
X152875000Y-102725000D02*
X152875000Y-101925000D01*
%TO.N,VBUS*%
D39*
X135075000Y-116025000D02*
X134525000Y-116025000D01*
D37*
X144750000Y-108500000D02*
X144725000Y-108475000D01*
X144750000Y-112675000D02*
X144750000Y-108500000D01*
X133175000Y-113460000D02*
X141065000Y-113460000D01*
D39*
X134525000Y-116025000D02*
X132860000Y-117690000D01*
D37*
X132860000Y-113145000D02*
X133175000Y-113460000D01*
X141065000Y-113460000D02*
X141800000Y-112725000D01*
D39*
X132860000Y-117690000D02*
X132860000Y-117945000D01*
%TO.N,VCC*%
D36*
X136500000Y-73000000D02*
X135750000Y-73000000D01*
D37*
X136700000Y-74000000D02*
X135600000Y-75100000D01*
X135600000Y-75100000D02*
X135600000Y-76300000D01*
D36*
X137500000Y-74000000D02*
X136500000Y-73000000D01*
D37*
X137500000Y-74000000D02*
X136700000Y-74000000D01*
%TO.N,/OCTOSPI_CLK*%
D40*
X137274350Y-84848000D02*
X137214950Y-84848000D01*
X136977350Y-84240000D02*
X136917950Y-84240000D01*
X140650000Y-81765000D02*
X138175000Y-84240000D01*
X138175000Y-84240000D02*
X137511950Y-84240000D01*
X137096150Y-84729200D02*
X137096150Y-84358800D01*
X134850000Y-84240000D02*
X133850000Y-83240000D01*
X137393150Y-84358800D02*
X137393150Y-84729200D01*
X136917950Y-84240000D02*
X136737611Y-84240000D01*
X140650000Y-81765000D02*
X140650000Y-81240000D01*
X136737611Y-84240000D02*
X134850000Y-84240000D01*
X137511950Y-84240000D02*
G75*
G03*
X137393200Y-84358800I50J-118800D01*
G01*
X137096150Y-84358800D02*
G75*
G03*
X136977350Y-84239950I-118850J0D01*
G01*
X137214950Y-84848000D02*
G75*
G02*
X137096200Y-84729200I50J118800D01*
G01*
X137393150Y-84729200D02*
G75*
G02*
X137274350Y-84848050I-118850J0D01*
G01*
%TO.N,/FLASH_CS*%
X136333206Y-81790000D02*
X136333206Y-82016200D01*
X135374801Y-81790000D02*
X134300000Y-81790000D01*
X135917406Y-81445000D02*
X135858006Y-81445000D01*
X135561006Y-81790000D02*
X135374801Y-81790000D01*
X137700000Y-81790000D02*
X137046006Y-81790000D01*
X136036206Y-81790000D02*
X136036206Y-81671200D01*
X136927206Y-81908800D02*
X136927206Y-82016200D01*
X139050000Y-80440000D02*
X137700000Y-81790000D01*
X136808406Y-82135000D02*
X136749006Y-82135000D01*
X136630206Y-81790000D02*
X136630206Y-81563800D01*
X136511406Y-81445000D02*
X136452006Y-81445000D01*
X135620406Y-81790000D02*
X135561006Y-81790000D01*
X136630206Y-81908800D02*
X136630206Y-81790000D01*
X136630206Y-82016200D02*
X136630206Y-81908800D01*
X136333206Y-81563800D02*
X136333206Y-81790000D01*
X135739206Y-81563800D02*
X135739206Y-81671200D01*
X136036206Y-81671200D02*
X136036206Y-81563800D01*
X136036206Y-82016200D02*
X136036206Y-81790000D01*
X134300000Y-81790000D02*
X133850000Y-82240000D01*
X136214406Y-82135000D02*
X136155006Y-82135000D01*
X136036206Y-81563800D02*
G75*
G03*
X135917406Y-81444994I-118806J0D01*
G01*
X136333206Y-82016200D02*
G75*
G02*
X136214406Y-82135006I-118806J0D01*
G01*
X136927206Y-82016200D02*
G75*
G02*
X136808406Y-82135006I-118806J0D01*
G01*
X136452006Y-81445000D02*
G75*
G03*
X136333200Y-81563800I-6J-118800D01*
G01*
X135858006Y-81445000D02*
G75*
G03*
X135739200Y-81563800I-6J-118800D01*
G01*
X137046006Y-81790000D02*
G75*
G03*
X136927200Y-81908800I-6J-118800D01*
G01*
X136749006Y-82135000D02*
G75*
G02*
X136630200Y-82016200I-6J118800D01*
G01*
X135739206Y-81671200D02*
G75*
G02*
X135620406Y-81790006I-118806J0D01*
G01*
X136630206Y-81563800D02*
G75*
G03*
X136511406Y-81444994I-118806J0D01*
G01*
X136155006Y-82135000D02*
G75*
G02*
X136036200Y-82016200I-6J118800D01*
G01*
%TO.N,/OCTOSPI_IO1*%
X142598800Y-76981911D02*
X142921200Y-76981911D01*
X142480000Y-78763911D02*
X142921200Y-78763911D01*
X142480000Y-78466911D02*
X142038800Y-78466911D01*
X141920000Y-78942111D02*
X141920000Y-78882711D01*
X142598800Y-78169911D02*
X142921200Y-78169911D01*
X142480000Y-79360000D02*
X142480000Y-79179711D01*
X142038800Y-78763911D02*
X142361200Y-78763911D01*
X142480000Y-76506711D02*
X142480000Y-76330136D01*
X142921200Y-78466911D02*
X142480000Y-78466911D01*
X142480000Y-76330136D02*
X142480000Y-74560000D01*
X142480000Y-78169911D02*
X142598800Y-78169911D01*
X143040000Y-78051111D02*
X143040000Y-77991711D01*
X142480000Y-77754111D02*
X142480000Y-77694711D01*
X142361200Y-78763911D02*
X142480000Y-78763911D01*
X142921200Y-77872911D02*
X142598800Y-77872911D01*
X142598800Y-77575911D02*
X142921200Y-77575911D01*
X142361200Y-79060911D02*
X142038800Y-79060911D01*
X141920000Y-78348111D02*
X141920000Y-78288711D01*
X142038800Y-78169911D02*
X142480000Y-78169911D01*
X140650000Y-80440000D02*
X141400000Y-80440000D01*
X141400000Y-80440000D02*
X142480000Y-79360000D01*
X142921200Y-77278911D02*
X142598800Y-77278911D01*
X143040000Y-76863111D02*
X143040000Y-76803711D01*
X143040000Y-78645111D02*
X143040000Y-78585711D01*
X142921200Y-76684911D02*
X142598800Y-76684911D01*
X142480000Y-77160111D02*
X142480000Y-77100711D01*
X143040000Y-77457111D02*
X143040000Y-77397711D01*
X142480000Y-74560000D02*
X143350000Y-73690000D01*
X142480000Y-76566111D02*
X142480000Y-76506711D01*
X142038800Y-79060911D02*
G75*
G02*
X141919989Y-78942111I0J118811D01*
G01*
X142598800Y-76684911D02*
G75*
G02*
X142479989Y-76566111I0J118811D01*
G01*
X142921200Y-76981911D02*
G75*
G03*
X143040011Y-76863111I0J118811D01*
G01*
X143040000Y-77991711D02*
G75*
G03*
X142921200Y-77872900I-118800J11D01*
G01*
X141920000Y-78288711D02*
G75*
G02*
X142038800Y-78169900I118800J11D01*
G01*
X142598800Y-77278911D02*
G75*
G02*
X142479989Y-77160111I0J118811D01*
G01*
X142038800Y-78466911D02*
G75*
G02*
X141919989Y-78348111I0J118811D01*
G01*
X142921200Y-77575911D02*
G75*
G03*
X143040011Y-77457111I0J118811D01*
G01*
X142921200Y-78763911D02*
G75*
G03*
X143040011Y-78645111I0J118811D01*
G01*
X143040000Y-76803711D02*
G75*
G03*
X142921200Y-76684900I-118800J11D01*
G01*
X142480000Y-79179711D02*
G75*
G03*
X142361200Y-79060900I-118800J11D01*
G01*
X142480000Y-77694711D02*
G75*
G02*
X142598800Y-77575900I118800J11D01*
G01*
X142598800Y-77872911D02*
G75*
G02*
X142479989Y-77754111I0J118811D01*
G01*
X141920000Y-78882711D02*
G75*
G02*
X142038800Y-78763900I118800J11D01*
G01*
X143040000Y-78585711D02*
G75*
G03*
X142921200Y-78466900I-118800J11D01*
G01*
X142921200Y-78169911D02*
G75*
G03*
X143040011Y-78051111I0J118811D01*
G01*
X142480000Y-77100711D02*
G75*
G02*
X142598800Y-76981900I118800J11D01*
G01*
X143040000Y-77397711D02*
G75*
G03*
X142921200Y-77278900I-118800J11D01*
G01*
%TO.N,/OCTOSPI_IO0*%
X141918000Y-77622000D02*
X141918000Y-76466751D01*
X141918000Y-74122000D02*
X142127767Y-73912233D01*
X141918000Y-74684751D02*
X141918000Y-74122000D01*
X141268000Y-75635151D02*
X141268000Y-75575751D01*
X141268000Y-76229151D02*
X141268000Y-76169751D01*
X142127767Y-73744225D02*
X141915353Y-73531810D01*
X141268000Y-75041151D02*
X141268000Y-74981751D01*
X141799200Y-75159951D02*
X141386800Y-75159951D01*
X142547788Y-73492212D02*
X142645171Y-73394829D01*
X142125362Y-73321800D02*
X142337777Y-73534214D01*
X142505785Y-73534215D02*
X142547788Y-73492212D01*
X141799200Y-76347951D02*
X141386800Y-76347951D01*
X141386800Y-76050951D02*
X141799200Y-76050951D01*
X141918000Y-74744151D02*
X141918000Y-74684751D01*
X141799200Y-75753951D02*
X141386800Y-75753951D01*
X142645171Y-73394829D02*
X143350000Y-72690000D01*
X141386800Y-75456951D02*
X141799200Y-75456951D01*
X141918000Y-75338151D02*
X141918000Y-75278751D01*
X141915352Y-73363802D02*
X141957354Y-73321800D01*
X141386800Y-74862951D02*
X141799200Y-74862951D01*
X141918000Y-75932151D02*
X141918000Y-75872751D01*
X141918000Y-76466751D02*
G75*
G03*
X141799200Y-76348000I-118800J-49D01*
G01*
X141799200Y-76050951D02*
G75*
G03*
X141917951Y-75932151I0J118751D01*
G01*
X141386800Y-75753951D02*
G75*
G02*
X141268049Y-75635151I0J118751D01*
G01*
X141386800Y-76347951D02*
G75*
G02*
X141268049Y-76229151I0J118751D01*
G01*
X141915353Y-73531810D02*
G75*
G02*
X141915347Y-73363797I84047J84010D01*
G01*
X141268000Y-75575751D02*
G75*
G02*
X141386800Y-75457000I118800J-49D01*
G01*
X141268000Y-76169751D02*
G75*
G02*
X141386800Y-76051000I118800J-49D01*
G01*
X141918000Y-75872751D02*
G75*
G03*
X141799200Y-75754000I-118800J-49D01*
G01*
X141918000Y-75278751D02*
G75*
G03*
X141799200Y-75160000I-118800J-49D01*
G01*
X142127767Y-73912233D02*
G75*
G03*
X142127796Y-73744196I-83967J84033D01*
G01*
X141799200Y-75456951D02*
G75*
G03*
X141917951Y-75338151I0J118751D01*
G01*
X141957354Y-73321800D02*
G75*
G02*
X142125362Y-73321800I84004J-84003D01*
G01*
X141799200Y-74862951D02*
G75*
G03*
X141917951Y-74744151I0J118751D01*
G01*
X141268000Y-74981751D02*
G75*
G02*
X141386800Y-74863000I118800J-49D01*
G01*
X142337777Y-73534214D02*
G75*
G03*
X142505803Y-73534234I84023J84014D01*
G01*
X141386800Y-75159951D02*
G75*
G02*
X141268049Y-75041151I0J118751D01*
G01*
%TO.N,/OCTOSPI_IO5*%
X140470000Y-79460000D02*
X140650000Y-79640000D01*
X132850000Y-80240000D02*
X133630000Y-79460000D01*
X133630000Y-79460000D02*
X140470000Y-79460000D01*
%TO.N,/BOOT0*%
D36*
X161700000Y-99100000D02*
X157550000Y-99100000D01*
X157550000Y-99100000D02*
X157525000Y-99075000D01*
%TO.N,/CAM_SDA*%
X139450000Y-62015000D02*
X139450000Y-64040000D01*
X140435000Y-61190000D02*
X140275000Y-61190000D01*
X140275000Y-61190000D02*
X139450000Y-62015000D01*
%TO.N,/V_ADC2*%
X159850000Y-96150000D02*
X158300000Y-96150000D01*
X158300000Y-96150000D02*
X158250000Y-96100000D01*
X156750000Y-96100000D02*
X158250000Y-96100000D01*
X159800000Y-96100000D02*
X159850000Y-96150000D01*
%TO.N,/SDA2*%
X160660000Y-71550000D02*
X159330000Y-71550000D01*
X162150000Y-73040000D02*
X160660000Y-71550000D01*
%TO.N,/CAM_SCL*%
X140450000Y-62390000D02*
X140450000Y-64040000D01*
%TO.N,/SCL2*%
X159340000Y-73040000D02*
X159330000Y-73050000D01*
X160975000Y-73040000D02*
X159340000Y-73040000D01*
%TO.N,+3V3*%
D37*
X150504016Y-104175000D02*
X154495984Y-104175000D01*
X155575000Y-103095984D02*
X155575000Y-101145984D01*
X157210984Y-101145984D02*
X157215000Y-101150000D01*
X160125000Y-101150000D02*
X160150000Y-101175000D01*
X154495984Y-104175000D02*
X155575000Y-103095984D01*
X155575000Y-101145984D02*
X157210984Y-101145984D01*
X157215000Y-101150000D02*
X160125000Y-101150000D01*
X149125000Y-102795984D02*
X150504016Y-104175000D01*
%TO.N,/3V3_FB*%
D36*
X135750000Y-72000000D02*
X135750000Y-71500000D01*
X136550000Y-70800000D02*
X135050000Y-70800000D01*
X135050000Y-69800000D02*
X134700000Y-69450000D01*
X135750000Y-71500000D02*
X135050000Y-70800000D01*
X135050000Y-70800000D02*
X135050000Y-69800000D01*
%TO.N,Net-(U9-LX)*%
X133850000Y-73000000D02*
X132350000Y-73000000D01*
%TO.N,Net-(U10-SW)*%
X152875000Y-98120984D02*
X153525000Y-97470984D01*
X152875000Y-99245984D02*
X152875000Y-98120984D01*
D37*
X149175000Y-99245984D02*
X149125000Y-99195984D01*
X152875000Y-99245984D02*
X149175000Y-99245984D01*
%TO.N,Net-(U10-CB)*%
D36*
X155575000Y-99245984D02*
X155575000Y-98120984D01*
X155575000Y-98120984D02*
X154925000Y-97470984D01*
%TD*%
%TA.AperFunction,Conductor*%
%TO.N,VCC*%
G36*
X138143039Y-72819685D02*
G01*
X138188794Y-72872489D01*
X138200000Y-72924000D01*
X138200000Y-74576000D01*
X138180315Y-74643039D01*
X138127511Y-74688794D01*
X138076000Y-74700000D01*
X136924000Y-74700000D01*
X136856961Y-74680315D01*
X136811206Y-74627511D01*
X136800000Y-74576000D01*
X136800000Y-73700000D01*
X136300000Y-73200000D01*
X136001486Y-73200000D01*
X136000807Y-73199998D01*
X135991224Y-73199945D01*
X135989562Y-73199500D01*
X135909890Y-73199500D01*
X135909525Y-73199498D01*
X135909004Y-73199342D01*
X135878110Y-73195275D01*
X135876411Y-73194819D01*
X135876410Y-73194819D01*
X135793116Y-73172500D01*
X135793115Y-73172500D01*
X135791906Y-73172176D01*
X135732245Y-73135810D01*
X135701717Y-73072963D01*
X135700000Y-73052401D01*
X135700000Y-72924500D01*
X135719685Y-72857461D01*
X135772489Y-72811706D01*
X135824000Y-72800500D01*
X135993857Y-72800500D01*
X136001486Y-72800000D01*
X138076000Y-72800000D01*
X138143039Y-72819685D01*
G37*
%TD.AperFunction*%
%TD*%
%TA.AperFunction,Conductor*%
%TO.N,+BATT*%
G36*
X153418039Y-99915669D02*
G01*
X153463794Y-99968473D01*
X153475000Y-100019984D01*
X153475000Y-103096984D01*
X153455315Y-103164023D01*
X153402511Y-103209778D01*
X153351000Y-103220984D01*
X152399000Y-103220984D01*
X152331961Y-103201299D01*
X152286206Y-103148495D01*
X152275000Y-103096984D01*
X152275000Y-100019984D01*
X152294685Y-99952945D01*
X152347489Y-99907190D01*
X152399000Y-99895984D01*
X153351000Y-99895984D01*
X153418039Y-99915669D01*
G37*
%TD.AperFunction*%
%TD*%
M02*
