%TF.GenerationSoftware,KiCad,Pcbnew,10.0.2*%
%TF.CreationDate,2026-06-25T20:04:08-07:00*%
%TF.ProjectId,Aero32,4165726f-3332-42e6-9b69-6361645f7063,rev?*%
%TF.SameCoordinates,Original*%
%TF.FileFunction,Legend,Top*%
%TF.FilePolarity,Positive*%
%FSLAX46Y46*%
G04 Gerber Fmt 4.6, Leading zero omitted, Abs format (unit mm)*
G04 Created by KiCad (PCBNEW 10.0.2) date 2026-06-25 20:04:08*
%MOMM*%
%LPD*%
G01*
G04 APERTURE LIST*
%ADD10C,0.300000*%
%ADD11C,0.250000*%
%ADD12C,0.060000*%
%ADD13C,0.150000*%
%ADD14C,0.200000*%
%ADD15C,0.130000*%
%ADD16C,0.100000*%
%ADD17C,0.000000*%
%ADD18C,0.120000*%
%ADD19C,0.400000*%
%ADD20C,0.080000*%
G04 APERTURE END LIST*
D10*
G36*
X141199232Y-67029000D02*
G01*
X141199232Y-65774177D01*
X141511270Y-65774177D01*
X141864665Y-66527087D01*
X142217584Y-65774177D01*
X142529623Y-65774177D01*
X142529623Y-67029000D01*
X142267672Y-67029000D01*
X142267672Y-66236083D01*
X141973415Y-66865320D01*
X141755519Y-66865320D01*
X141461182Y-66236083D01*
X141461182Y-67029000D01*
X141199232Y-67029000D01*
G37*
G36*
X142828722Y-67029000D02*
G01*
X142828722Y-65774177D01*
X143090673Y-65774177D01*
X143090673Y-67029000D01*
X142828722Y-67029000D01*
G37*
G36*
X144085754Y-65781366D02*
G01*
X144153754Y-65801040D01*
X144206863Y-65831442D01*
X144247923Y-65872387D01*
X144278374Y-65925279D01*
X144298061Y-65992924D01*
X144305250Y-66079231D01*
X144305250Y-66322606D01*
X144298061Y-66408913D01*
X144278374Y-66476559D01*
X144247923Y-66529450D01*
X144206863Y-66570395D01*
X144153754Y-66600797D01*
X144085754Y-66620471D01*
X143998927Y-66627660D01*
X143650771Y-66627660D01*
X143650771Y-67029000D01*
X143388820Y-67029000D01*
X143388820Y-66391190D01*
X143650771Y-66391190D01*
X143989084Y-66391190D01*
X144019794Y-66384823D01*
X144036858Y-66367706D01*
X144043220Y-66336815D01*
X144043220Y-66065022D01*
X144036858Y-66034131D01*
X144019794Y-66017014D01*
X143989084Y-66010647D01*
X143650771Y-66010647D01*
X143650771Y-66391190D01*
X143388820Y-66391190D01*
X143388820Y-65774177D01*
X143998927Y-65774177D01*
X144085754Y-65781366D01*
G37*
G36*
X144549658Y-67029000D02*
G01*
X144549658Y-65774177D01*
X144811608Y-65774177D01*
X144811608Y-67029000D01*
X144549658Y-67029000D01*
G37*
G36*
X145527209Y-66723470D02*
G01*
X145527209Y-66079707D01*
X145534403Y-65993231D01*
X145554100Y-65925463D01*
X145584559Y-65872489D01*
X145625621Y-65831493D01*
X145678717Y-65801061D01*
X145746683Y-65781371D01*
X145833453Y-65774177D01*
X146318299Y-65774177D01*
X146440305Y-65868797D01*
X146440305Y-66010647D01*
X145843772Y-66010647D01*
X145812761Y-66017048D01*
X145795562Y-66034230D01*
X145789159Y-66065181D01*
X145789159Y-66737996D01*
X145795562Y-66768947D01*
X145812761Y-66786129D01*
X145843772Y-66792530D01*
X146440305Y-66792530D01*
X146440305Y-66934380D01*
X146318299Y-67029000D01*
X145833453Y-67029000D01*
X145746683Y-67021806D01*
X145678717Y-67002116D01*
X145625621Y-66971684D01*
X145584559Y-66930688D01*
X145554100Y-66877714D01*
X145534403Y-66809946D01*
X145527209Y-66723470D01*
G37*
G36*
X146626290Y-66934380D02*
G01*
X146626290Y-66792530D01*
X147190118Y-66792530D01*
X147220837Y-66786127D01*
X147237943Y-66768878D01*
X147244334Y-66737679D01*
X147244334Y-66606069D01*
X147238782Y-66574531D01*
X147224052Y-66555561D01*
X147199088Y-66545741D01*
X146844502Y-66473188D01*
X146776524Y-66452401D01*
X146723524Y-66421529D01*
X146682715Y-66380783D01*
X146652630Y-66328931D01*
X146633306Y-66263458D01*
X146626290Y-66180836D01*
X146626290Y-66079231D01*
X146633478Y-65992919D01*
X146653162Y-65925271D01*
X146683607Y-65872379D01*
X146724658Y-65831437D01*
X146777754Y-65801037D01*
X146845733Y-65781365D01*
X146932534Y-65774177D01*
X147348400Y-65774177D01*
X147469929Y-65868797D01*
X147469929Y-66010647D01*
X146942853Y-66010647D01*
X146911842Y-66017048D01*
X146894643Y-66034230D01*
X146888240Y-66065181D01*
X146888240Y-66183376D01*
X146893665Y-66213629D01*
X146908317Y-66232664D01*
X146933407Y-66243386D01*
X147287992Y-66312763D01*
X147355948Y-66333605D01*
X147408954Y-66364561D01*
X147449788Y-66405432D01*
X147479905Y-66457464D01*
X147499256Y-66523187D01*
X147506284Y-66606148D01*
X147506284Y-66722835D01*
X147499083Y-66809532D01*
X147479369Y-66877458D01*
X147448890Y-66930541D01*
X147407815Y-66971609D01*
X147354718Y-67002085D01*
X147286770Y-67021799D01*
X147200040Y-67029000D01*
X146748216Y-67029000D01*
X146626290Y-66934380D01*
G37*
G36*
X147750216Y-67029000D02*
G01*
X147750216Y-65774177D01*
X148012166Y-65774177D01*
X148012166Y-67029000D01*
X147750216Y-67029000D01*
G37*
G36*
X148233792Y-66578127D02*
G01*
X148233792Y-66363487D01*
X148779443Y-66363487D01*
X148779443Y-66578127D01*
X148233792Y-66578127D01*
G37*
G36*
X148946456Y-67029000D02*
G01*
X148946456Y-66619960D01*
X148953477Y-66537250D01*
X148972811Y-66471707D01*
X149002911Y-66419800D01*
X149043737Y-66379011D01*
X149096755Y-66348104D01*
X149164748Y-66327290D01*
X149501156Y-66259738D01*
X149526553Y-66248984D01*
X149541337Y-66229934D01*
X149546799Y-66199728D01*
X149546799Y-66065181D01*
X149540396Y-66034230D01*
X149523197Y-66017048D01*
X149492186Y-66010647D01*
X148982812Y-66010647D01*
X148982812Y-65868797D01*
X149104817Y-65774177D01*
X149502506Y-65774177D01*
X149589270Y-65781372D01*
X149657234Y-65801065D01*
X149710331Y-65831502D01*
X149751394Y-65872508D01*
X149781856Y-65925495D01*
X149801555Y-65993282D01*
X149808750Y-66079786D01*
X149808750Y-66197982D01*
X149801727Y-66280755D01*
X149782388Y-66346341D01*
X149752284Y-66398276D01*
X149711456Y-66439081D01*
X149658442Y-66469995D01*
X149590457Y-66490810D01*
X149254050Y-66558362D01*
X149228654Y-66569072D01*
X149213870Y-66588093D01*
X149208407Y-66618293D01*
X149208407Y-66792530D01*
X149808750Y-66792530D01*
X149808750Y-67029000D01*
X148946456Y-67029000D01*
G37*
%TO.C,C54*%
D11*
X136490000Y-89520000D02*
X136490000Y-88720000D01*
X136490000Y-90080000D02*
X136490000Y-90880000D01*
X136800000Y-88410000D02*
X137600000Y-88410000D01*
X137600000Y-91190000D02*
X136800000Y-91190000D01*
X137910000Y-89520000D02*
X137910000Y-88720000D01*
X137910000Y-90080000D02*
X137910000Y-90880000D01*
X136490000Y-88720000D02*
G75*
G02*
X136800000Y-88410000I310000J0D01*
G01*
X136800000Y-91190000D02*
G75*
G02*
X136490000Y-90880000I0J310000D01*
G01*
X137600000Y-88410000D02*
G75*
G02*
X137910000Y-88720000I0J-310000D01*
G01*
X137910000Y-90880000D02*
G75*
G02*
X137600000Y-91190000I-310000J0D01*
G01*
D12*
X137630000Y-90600000D02*
G75*
G02*
X137570000Y-90600000I-30000J0D01*
G01*
X137570000Y-90600000D02*
G75*
G02*
X137630000Y-90600000I30000J0D01*
G01*
%TO.C,C31*%
D13*
X158600000Y-106865000D02*
X158600000Y-108275000D01*
X158600000Y-110485000D02*
X158600000Y-109075000D01*
X160250000Y-106715000D02*
X158750000Y-106715000D01*
X160250000Y-110635000D02*
X158750000Y-110635000D01*
X160400000Y-108275000D02*
X160400000Y-106865000D01*
X160400000Y-109075000D02*
X160400000Y-110485000D01*
X158600000Y-106865000D02*
G75*
G02*
X158750000Y-106715000I150000J0D01*
G01*
X158750000Y-110635000D02*
G75*
G02*
X158600000Y-110485000I0J150000D01*
G01*
X160250000Y-106715000D02*
G75*
G02*
X160400000Y-106865000I0J-150000D01*
G01*
X160400000Y-110485000D02*
G75*
G02*
X160250000Y-110635000I-150000J0D01*
G01*
D12*
X160160000Y-109675000D02*
G75*
G02*
X160100000Y-109675000I-30000J0D01*
G01*
X160100000Y-109675000D02*
G75*
G02*
X160160000Y-109675000I30000J0D01*
G01*
%TO.C,CN7*%
D11*
X125600000Y-89075000D02*
X126360000Y-89075000D01*
X125600000Y-98075000D02*
X125600000Y-89075000D01*
X125600000Y-98075000D02*
X126360000Y-98075000D01*
X130900000Y-89805000D02*
X131860000Y-89805000D01*
X130900000Y-90745000D02*
X130900000Y-89805000D01*
X130900000Y-92245000D02*
X130900000Y-91905000D01*
X130900000Y-93745000D02*
X130900000Y-93405000D01*
X130900000Y-95245000D02*
X130900000Y-94905000D01*
X130900000Y-96405000D02*
X130900000Y-97345000D01*
X130900000Y-97345000D02*
X131860000Y-97345000D01*
X131860000Y-88955000D02*
X128690000Y-88955000D01*
X131860000Y-89805000D02*
X131860000Y-88955000D01*
X131860000Y-97345000D02*
X131860000Y-98195000D01*
X131860000Y-98195000D02*
X128690000Y-98195000D01*
X131480000Y-90285000D02*
G75*
G02*
X131300000Y-90285000I-90000J0D01*
G01*
X131300000Y-90285000D02*
G75*
G02*
X131480000Y-90285000I90000J0D01*
G01*
D12*
X132130000Y-89075000D02*
G75*
G02*
X132070000Y-89075000I-30000J0D01*
G01*
X132070000Y-89075000D02*
G75*
G02*
X132130000Y-89075000I30000J0D01*
G01*
%TO.C,C79*%
D11*
X136515000Y-86035000D02*
X136515000Y-85235000D01*
X136515000Y-86595000D02*
X136515000Y-87395000D01*
X136825000Y-84925000D02*
X137625000Y-84925000D01*
X137625000Y-87705000D02*
X136825000Y-87705000D01*
X137935000Y-86035000D02*
X137935000Y-85235000D01*
X137935000Y-86595000D02*
X137935000Y-87395000D01*
X136515000Y-85235000D02*
G75*
G02*
X136825000Y-84925000I310000J0D01*
G01*
X136825000Y-87705000D02*
G75*
G02*
X136515000Y-87395000I0J310000D01*
G01*
X137625000Y-84925000D02*
G75*
G02*
X137935000Y-85235000I0J-310000D01*
G01*
X137935000Y-87395000D02*
G75*
G02*
X137625000Y-87705000I-310000J0D01*
G01*
D12*
X137655000Y-87115000D02*
G75*
G02*
X137595000Y-87115000I-30000J0D01*
G01*
X137595000Y-87115000D02*
G75*
G02*
X137655000Y-87115000I30000J0D01*
G01*
%TO.C,C25*%
D13*
X139475000Y-98390000D02*
X139475000Y-99800000D01*
X139475000Y-102010000D02*
X139475000Y-100600000D01*
X141125000Y-98240000D02*
X139625000Y-98240000D01*
X141125000Y-102160000D02*
X139625000Y-102160000D01*
X141275000Y-99800000D02*
X141275000Y-98390000D01*
X141275000Y-100600000D02*
X141275000Y-102010000D01*
X139475000Y-98390000D02*
G75*
G02*
X139625000Y-98240000I150000J0D01*
G01*
X139625000Y-102160000D02*
G75*
G02*
X139475000Y-102010000I0J150000D01*
G01*
X141125000Y-98240000D02*
G75*
G02*
X141275000Y-98390000I0J-150000D01*
G01*
X141275000Y-102010000D02*
G75*
G02*
X141125000Y-102160000I-150000J0D01*
G01*
D12*
X141035000Y-101200000D02*
G75*
G02*
X140975000Y-101200000I-30000J0D01*
G01*
X140975000Y-101200000D02*
G75*
G02*
X141035000Y-101200000I30000J0D01*
G01*
%TO.C,R36*%
D13*
X152020000Y-68500000D02*
X152020000Y-69500000D01*
X152020000Y-69500000D02*
X152730000Y-69500000D01*
X152730000Y-68500000D02*
X152020000Y-68500000D01*
X153190000Y-68500000D02*
X153900000Y-68500000D01*
X153900000Y-68500000D02*
X153900000Y-69500000D01*
X153900000Y-69500000D02*
X153190000Y-69500000D01*
D12*
X153490000Y-68750000D02*
G75*
G02*
X153430000Y-68750000I-30000J0D01*
G01*
X153430000Y-68750000D02*
G75*
G02*
X153490000Y-68750000I30000J0D01*
G01*
%TO.C,C51*%
D13*
X153525000Y-92265700D02*
X153525000Y-91565700D01*
X153675000Y-91415700D02*
X154175000Y-91415700D01*
X154175000Y-92415700D02*
X153675000Y-92415700D01*
X154615000Y-91415700D02*
X155115000Y-91415700D01*
X155115000Y-92415700D02*
X154615000Y-92415700D01*
X155265000Y-91565700D02*
X155265000Y-92265700D01*
X153525000Y-91565700D02*
G75*
G02*
X153675000Y-91415700I150000J0D01*
G01*
X153675000Y-92415700D02*
G75*
G02*
X153525000Y-92265700I0J150000D01*
G01*
X155115000Y-91415700D02*
G75*
G02*
X155265000Y-91565700I0J-150000D01*
G01*
X155265000Y-92265700D02*
G75*
G02*
X155115000Y-92415700I-150000J0D01*
G01*
D12*
X154925000Y-91665700D02*
G75*
G02*
X154865000Y-91665700I-30000J0D01*
G01*
X154865000Y-91665700D02*
G75*
G02*
X154925000Y-91665700I30000J0D01*
G01*
%TO.C,CN2*%
D11*
X158780000Y-89250000D02*
X160290000Y-89250000D01*
X158780000Y-89750000D02*
X158780000Y-89250000D01*
X158780000Y-94750000D02*
X160290000Y-94750000D01*
X158780000Y-95250000D02*
X158780000Y-94750000D01*
X160290000Y-89250000D02*
X160290000Y-89750000D01*
X160290000Y-89750000D02*
X158780000Y-89750000D01*
X160290000Y-94750000D02*
X160290000Y-95250000D01*
X160290000Y-95250000D02*
X158780000Y-95250000D01*
X160350000Y-89200000D02*
X160350000Y-90920000D01*
X160350000Y-92080000D02*
X160350000Y-92420000D01*
X160350000Y-93580000D02*
X160350000Y-95300000D01*
X160350000Y-95300000D02*
X161450000Y-95300000D01*
X161450000Y-89200000D02*
X160350000Y-89200000D01*
X163820000Y-95300000D02*
X165300000Y-95300000D01*
X165300000Y-89200000D02*
X163820000Y-89200000D01*
X165300000Y-95300000D02*
X165300000Y-89200000D01*
D12*
X158610000Y-95250000D02*
G75*
G02*
X158550000Y-95250000I-30000J0D01*
G01*
X158550000Y-95250000D02*
G75*
G02*
X158610000Y-95250000I30000J0D01*
G01*
D11*
X159140000Y-93990000D02*
G75*
G02*
X158640000Y-93990000I-250000J0D01*
G01*
X158640000Y-93990000D02*
G75*
G02*
X159140000Y-93990000I250000J0D01*
G01*
%TO.C,C83*%
X150360000Y-77590000D02*
X150360000Y-76790000D01*
X151470000Y-76480000D02*
X150670000Y-76480000D01*
X151470000Y-77900000D02*
X150670000Y-77900000D01*
X152030000Y-76480000D02*
X152830000Y-76480000D01*
X152030000Y-77900000D02*
X152830000Y-77900000D01*
X153140000Y-76790000D02*
X153140000Y-77590000D01*
X150360000Y-76790000D02*
G75*
G02*
X150670000Y-76480000I310000J0D01*
G01*
X150670000Y-77900000D02*
G75*
G02*
X150360000Y-77590000I0J310000D01*
G01*
X152830000Y-76480000D02*
G75*
G02*
X153140000Y-76790000I0J-310000D01*
G01*
X153140000Y-77590000D02*
G75*
G02*
X152830000Y-77900000I-310000J0D01*
G01*
D12*
X152580000Y-76790000D02*
G75*
G02*
X152520000Y-76790000I-30000J0D01*
G01*
X152520000Y-76790000D02*
G75*
G02*
X152580000Y-76790000I30000J0D01*
G01*
%TO.C,C4*%
D13*
X150037500Y-101552500D02*
X150037500Y-102962500D01*
X150037500Y-105172500D02*
X150037500Y-103762500D01*
X151687500Y-101402500D02*
X150187500Y-101402500D01*
X151687500Y-105322500D02*
X150187500Y-105322500D01*
X151837500Y-102962500D02*
X151837500Y-101552500D01*
X151837500Y-103762500D02*
X151837500Y-105172500D01*
X150037500Y-101552500D02*
G75*
G02*
X150187500Y-101402500I150000J0D01*
G01*
X150187500Y-105322500D02*
G75*
G02*
X150037500Y-105172500I0J150000D01*
G01*
X151687500Y-101402500D02*
G75*
G02*
X151837500Y-101552500I0J-150000D01*
G01*
X151837500Y-105172500D02*
G75*
G02*
X151687500Y-105322500I-150000J0D01*
G01*
D12*
X151597500Y-104362500D02*
G75*
G02*
X151537500Y-104362500I-30000J0D01*
G01*
X151537500Y-104362500D02*
G75*
G02*
X151597500Y-104362500I30000J0D01*
G01*
%TO.C,R33*%
D13*
X152010000Y-70200000D02*
X152010000Y-71200000D01*
X152010000Y-71200000D02*
X152720000Y-71200000D01*
X152720000Y-70200000D02*
X152010000Y-70200000D01*
X153180000Y-70200000D02*
X153890000Y-70200000D01*
X153890000Y-70200000D02*
X153890000Y-71200000D01*
X153890000Y-71200000D02*
X153180000Y-71200000D01*
D12*
X153480000Y-70450000D02*
G75*
G02*
X153420000Y-70450000I-30000J0D01*
G01*
X153420000Y-70450000D02*
G75*
G02*
X153480000Y-70450000I30000J0D01*
G01*
%TO.C,R2*%
D13*
X142590000Y-110535000D02*
X142590000Y-111495000D01*
X142590000Y-113315000D02*
X142590000Y-112355000D01*
X143910000Y-110535000D02*
X142590000Y-110535000D01*
X143910000Y-111495000D02*
X143910000Y-110535000D01*
X143910000Y-112355000D02*
X143910000Y-113315000D01*
X143910000Y-113315000D02*
X142590000Y-113315000D01*
D12*
X143680000Y-112725000D02*
G75*
G02*
X143620000Y-112725000I-30000J0D01*
G01*
X143620000Y-112725000D02*
G75*
G02*
X143680000Y-112725000I30000J0D01*
G01*
%TO.C,U7*%
D13*
X153150000Y-115905000D02*
X153150000Y-115965000D01*
X153150000Y-117075000D02*
X153150000Y-117325000D01*
X153150000Y-118085000D02*
X153150000Y-118475000D01*
X153150000Y-120455000D02*
X153150000Y-120605000D01*
X153150000Y-120605000D02*
X153220000Y-120605000D01*
X153240000Y-115905000D02*
X153150000Y-115905000D01*
X154620000Y-115905000D02*
X154410000Y-115905000D01*
X155590000Y-115905000D02*
X155380000Y-115905000D01*
X156780000Y-120605000D02*
X156850000Y-120605000D01*
X156850000Y-115905000D02*
X156760000Y-115905000D01*
X156850000Y-115965000D02*
X156850000Y-115905000D01*
X156850000Y-117325000D02*
X156850000Y-117075000D01*
X156850000Y-118475000D02*
X156850000Y-118085000D01*
X156850000Y-120605000D02*
X156850000Y-120455000D01*
D14*
X152700000Y-116455000D02*
G75*
G02*
X152500000Y-116455000I-100000J0D01*
G01*
X152500000Y-116455000D02*
G75*
G02*
X152700000Y-116455000I100000J0D01*
G01*
X152700000Y-116455000D02*
G75*
G02*
X152500000Y-116455000I-100000J0D01*
G01*
X152500000Y-116455000D02*
G75*
G02*
X152700000Y-116455000I100000J0D01*
G01*
D12*
X153280000Y-116005000D02*
G75*
G02*
X153220000Y-116005000I-30000J0D01*
G01*
X153220000Y-116005000D02*
G75*
G02*
X153280000Y-116005000I30000J0D01*
G01*
%TO.C,R35*%
D13*
X142760000Y-114600000D02*
X143470000Y-114600000D01*
X142760000Y-115600000D02*
X142760000Y-114600000D01*
X143470000Y-115600000D02*
X142760000Y-115600000D01*
X143930000Y-115600000D02*
X144640000Y-115600000D01*
X144640000Y-114600000D02*
X143930000Y-114600000D01*
X144640000Y-115600000D02*
X144640000Y-114600000D01*
D12*
X143230000Y-115350000D02*
G75*
G02*
X143170000Y-115350000I-30000J0D01*
G01*
X143170000Y-115350000D02*
G75*
G02*
X143230000Y-115350000I30000J0D01*
G01*
%TO.C,L1*%
D14*
X133775000Y-98200000D02*
X136775000Y-98200000D01*
X133775000Y-101200000D02*
X136775000Y-101200000D01*
D12*
X133805000Y-101200000D02*
G75*
G02*
X133745000Y-101200000I-30000J0D01*
G01*
X133745000Y-101200000D02*
G75*
G02*
X133805000Y-101200000I30000J0D01*
G01*
%TO.C,C90*%
D11*
X128040000Y-81510000D02*
X128040000Y-80710000D01*
X128040000Y-82070000D02*
X128040000Y-82870000D01*
X128350000Y-80400000D02*
X129150000Y-80400000D01*
X129150000Y-83180000D02*
X128350000Y-83180000D01*
X129460000Y-81510000D02*
X129460000Y-80710000D01*
X129460000Y-82070000D02*
X129460000Y-82870000D01*
X128040000Y-80710000D02*
G75*
G02*
X128350000Y-80400000I310000J0D01*
G01*
X128350000Y-83180000D02*
G75*
G02*
X128040000Y-82870000I0J310000D01*
G01*
X129150000Y-80400000D02*
G75*
G02*
X129460000Y-80710000I0J-310000D01*
G01*
X129460000Y-82870000D02*
G75*
G02*
X129150000Y-83180000I-310000J0D01*
G01*
D12*
X128380000Y-80990000D02*
G75*
G02*
X128320000Y-80990000I-30000J0D01*
G01*
X128320000Y-80990000D02*
G75*
G02*
X128380000Y-80990000I30000J0D01*
G01*
%TO.C,C29*%
D11*
X149940000Y-113595000D02*
X149940000Y-112795000D01*
X149940000Y-114155000D02*
X149940000Y-114955000D01*
X150250000Y-112485000D02*
X151050000Y-112485000D01*
X151050000Y-115265000D02*
X150250000Y-115265000D01*
X151360000Y-113595000D02*
X151360000Y-112795000D01*
X151360000Y-114155000D02*
X151360000Y-114955000D01*
X149940000Y-112795000D02*
G75*
G02*
X150250000Y-112485000I310000J0D01*
G01*
X150250000Y-115265000D02*
G75*
G02*
X149940000Y-114955000I0J310000D01*
G01*
X151050000Y-112485000D02*
G75*
G02*
X151360000Y-112795000I0J-310000D01*
G01*
X151360000Y-114955000D02*
G75*
G02*
X151050000Y-115265000I-310000J0D01*
G01*
D12*
X151080000Y-114675000D02*
G75*
G02*
X151020000Y-114675000I-30000J0D01*
G01*
X151020000Y-114675000D02*
G75*
G02*
X151080000Y-114675000I30000J0D01*
G01*
%TO.C,D1*%
D15*
X134255000Y-119795000D02*
X134255000Y-118495000D01*
D16*
X134525000Y-119145000D02*
X135005000Y-119145000D01*
D15*
X135255000Y-119795000D02*
X135255000Y-118495000D01*
D12*
X135185000Y-119945000D02*
G75*
G02*
X135125000Y-119945000I-30000J0D01*
G01*
X135125000Y-119945000D02*
G75*
G02*
X135185000Y-119945000I30000J0D01*
G01*
D17*
G36*
X134755000Y-119145000D02*
G01*
X134475600Y-118916400D01*
X135034400Y-118916400D01*
X134755000Y-119145000D01*
G37*
G36*
X135034400Y-119373600D02*
G01*
X134475600Y-119373600D01*
X134755000Y-119145000D01*
X135034400Y-119373600D01*
G37*
%TO.C,C94*%
D11*
X146615000Y-70910000D02*
X146615000Y-70110000D01*
X146615000Y-71470000D02*
X146615000Y-72270000D01*
X146925000Y-69800000D02*
X147725000Y-69800000D01*
X147725000Y-72580000D02*
X146925000Y-72580000D01*
X148035000Y-70910000D02*
X148035000Y-70110000D01*
X148035000Y-71470000D02*
X148035000Y-72270000D01*
X146615000Y-70110000D02*
G75*
G02*
X146925000Y-69800000I310000J0D01*
G01*
X146925000Y-72580000D02*
G75*
G02*
X146615000Y-72270000I0J310000D01*
G01*
X147725000Y-69800000D02*
G75*
G02*
X148035000Y-70110000I0J-310000D01*
G01*
X148035000Y-72270000D02*
G75*
G02*
X147725000Y-72580000I-310000J0D01*
G01*
D12*
X146955000Y-70390000D02*
G75*
G02*
X146895000Y-70390000I-30000J0D01*
G01*
X146895000Y-70390000D02*
G75*
G02*
X146955000Y-70390000I30000J0D01*
G01*
%TO.C,R11*%
D13*
X141190000Y-103035000D02*
X142510000Y-103035000D01*
X141190000Y-103995000D02*
X141190000Y-103035000D01*
X141190000Y-104855000D02*
X141190000Y-105815000D01*
X141190000Y-105815000D02*
X142510000Y-105815000D01*
X142510000Y-103035000D02*
X142510000Y-103995000D01*
X142510000Y-105815000D02*
X142510000Y-104855000D01*
D12*
X141480000Y-103625000D02*
G75*
G02*
X141420000Y-103625000I-30000J0D01*
G01*
X141420000Y-103625000D02*
G75*
G02*
X141480000Y-103625000I30000J0D01*
G01*
%TO.C,C81*%
D11*
X155240000Y-76210000D02*
X155240000Y-75410000D01*
X155240000Y-76770000D02*
X155240000Y-77570000D01*
X155550000Y-75100000D02*
X156350000Y-75100000D01*
X156350000Y-77880000D02*
X155550000Y-77880000D01*
X156660000Y-76210000D02*
X156660000Y-75410000D01*
X156660000Y-76770000D02*
X156660000Y-77570000D01*
X155240000Y-75410000D02*
G75*
G02*
X155550000Y-75100000I310000J0D01*
G01*
X155550000Y-77880000D02*
G75*
G02*
X155240000Y-77570000I0J310000D01*
G01*
X156350000Y-75100000D02*
G75*
G02*
X156660000Y-75410000I0J-310000D01*
G01*
X156660000Y-77570000D02*
G75*
G02*
X156350000Y-77880000I-310000J0D01*
G01*
D12*
X155580000Y-75690000D02*
G75*
G02*
X155520000Y-75690000I-30000J0D01*
G01*
X155520000Y-75690000D02*
G75*
G02*
X155580000Y-75690000I30000J0D01*
G01*
%TO.C,U2*%
D13*
X146000000Y-96800000D02*
X146000000Y-96860000D01*
X146000000Y-97410000D02*
X146000000Y-97510000D01*
X146000000Y-98060000D02*
X146000000Y-98120000D01*
X147400000Y-96800000D02*
X146000000Y-96800000D01*
X147400000Y-96800000D02*
X147400000Y-96860000D01*
X147400000Y-97410000D02*
X147400000Y-97510000D01*
X147400000Y-98060000D02*
X147400000Y-98120000D01*
X147400000Y-98120000D02*
X146000000Y-98120000D01*
X146230000Y-96560000D02*
G75*
G02*
X146070000Y-96560000I-80000J0D01*
G01*
X146070000Y-96560000D02*
G75*
G02*
X146230000Y-96560000I80000J0D01*
G01*
D12*
X146230000Y-96960000D02*
G75*
G02*
X146170000Y-96960000I-30000J0D01*
G01*
X146170000Y-96960000D02*
G75*
G02*
X146230000Y-96960000I30000J0D01*
G01*
%TO.C,C13*%
D11*
X151465000Y-93935000D02*
X151465000Y-93135000D01*
X151465000Y-94495000D02*
X151465000Y-95295000D01*
X151775000Y-92825000D02*
X152575000Y-92825000D01*
X152575000Y-95605000D02*
X151775000Y-95605000D01*
X152885000Y-93935000D02*
X152885000Y-93135000D01*
X152885000Y-94495000D02*
X152885000Y-95295000D01*
X151465000Y-93135000D02*
G75*
G02*
X151775000Y-92825000I310000J0D01*
G01*
X151775000Y-95605000D02*
G75*
G02*
X151465000Y-95295000I0J310000D01*
G01*
X152575000Y-92825000D02*
G75*
G02*
X152885000Y-93135000I0J-310000D01*
G01*
X152885000Y-95295000D02*
G75*
G02*
X152575000Y-95605000I-310000J0D01*
G01*
D12*
X152605000Y-95015000D02*
G75*
G02*
X152545000Y-95015000I-30000J0D01*
G01*
X152545000Y-95015000D02*
G75*
G02*
X152605000Y-95015000I30000J0D01*
G01*
%TO.C,C16*%
D11*
X153190000Y-93935000D02*
X153190000Y-93135000D01*
X153190000Y-94495000D02*
X153190000Y-95295000D01*
X153500000Y-92825000D02*
X154300000Y-92825000D01*
X154300000Y-95605000D02*
X153500000Y-95605000D01*
X154610000Y-93935000D02*
X154610000Y-93135000D01*
X154610000Y-94495000D02*
X154610000Y-95295000D01*
X153190000Y-93135000D02*
G75*
G02*
X153500000Y-92825000I310000J0D01*
G01*
X153500000Y-95605000D02*
G75*
G02*
X153190000Y-95295000I0J310000D01*
G01*
X154300000Y-92825000D02*
G75*
G02*
X154610000Y-93135000I0J-310000D01*
G01*
X154610000Y-95295000D02*
G75*
G02*
X154300000Y-95605000I-310000J0D01*
G01*
D12*
X154330000Y-95015000D02*
G75*
G02*
X154270000Y-95015000I-30000J0D01*
G01*
X154270000Y-95015000D02*
G75*
G02*
X154330000Y-95015000I30000J0D01*
G01*
%TO.C,C30*%
D13*
X147550000Y-106815000D02*
X147550000Y-108225000D01*
X147550000Y-110435000D02*
X147550000Y-109025000D01*
X149200000Y-106665000D02*
X147700000Y-106665000D01*
X149200000Y-110585000D02*
X147700000Y-110585000D01*
X149350000Y-108225000D02*
X149350000Y-106815000D01*
X149350000Y-109025000D02*
X149350000Y-110435000D01*
X147550000Y-106815000D02*
G75*
G02*
X147700000Y-106665000I150000J0D01*
G01*
X147700000Y-110585000D02*
G75*
G02*
X147550000Y-110435000I0J150000D01*
G01*
X149200000Y-106665000D02*
G75*
G02*
X149350000Y-106815000I0J-150000D01*
G01*
X149350000Y-110435000D02*
G75*
G02*
X149200000Y-110585000I-150000J0D01*
G01*
D12*
X149110000Y-109625000D02*
G75*
G02*
X149050000Y-109625000I-30000J0D01*
G01*
X149050000Y-109625000D02*
G75*
G02*
X149110000Y-109625000I30000J0D01*
G01*
%TO.C,U1*%
D16*
X155500000Y-93710000D02*
X155380000Y-93710000D01*
X155500000Y-94710000D02*
X155380000Y-94710000D01*
X155790000Y-93710000D02*
X155660000Y-93710000D01*
X155790000Y-94710000D02*
X155660000Y-94710000D01*
X155070000Y-93580000D02*
G75*
G02*
X154970000Y-93580000I-50000J0D01*
G01*
X154970000Y-93580000D02*
G75*
G02*
X155070000Y-93580000I50000J0D01*
G01*
D12*
X155110000Y-93710000D02*
G75*
G02*
X155050000Y-93710000I-30000J0D01*
G01*
X155050000Y-93710000D02*
G75*
G02*
X155110000Y-93710000I30000J0D01*
G01*
%TO.C,C59*%
D11*
X153360000Y-84415000D02*
X153360000Y-83615000D01*
X154470000Y-83305000D02*
X153670000Y-83305000D01*
X154470000Y-84725000D02*
X153670000Y-84725000D01*
X155030000Y-83305000D02*
X155830000Y-83305000D01*
X155030000Y-84725000D02*
X155830000Y-84725000D01*
X156140000Y-83615000D02*
X156140000Y-84415000D01*
X153360000Y-83615000D02*
G75*
G02*
X153670000Y-83305000I310000J0D01*
G01*
X153670000Y-84725000D02*
G75*
G02*
X153360000Y-84415000I0J310000D01*
G01*
X155830000Y-83305000D02*
G75*
G02*
X156140000Y-83615000I0J-310000D01*
G01*
X156140000Y-84415000D02*
G75*
G02*
X155830000Y-84725000I-310000J0D01*
G01*
D12*
X155580000Y-83615000D02*
G75*
G02*
X155520000Y-83615000I-30000J0D01*
G01*
X155520000Y-83615000D02*
G75*
G02*
X155580000Y-83615000I30000J0D01*
G01*
%TO.C,R32*%
D13*
X160590000Y-111400000D02*
X160590000Y-112400000D01*
X160590000Y-112400000D02*
X161300000Y-112400000D01*
X161300000Y-111400000D02*
X160590000Y-111400000D01*
X161760000Y-111400000D02*
X162470000Y-111400000D01*
X162470000Y-111400000D02*
X162470000Y-112400000D01*
X162470000Y-112400000D02*
X161760000Y-112400000D01*
D12*
X162060000Y-111650000D02*
G75*
G02*
X162000000Y-111650000I-30000J0D01*
G01*
X162000000Y-111650000D02*
G75*
G02*
X162060000Y-111650000I30000J0D01*
G01*
%TO.C,C11*%
D13*
X134740000Y-109925000D02*
X134740000Y-108425000D01*
X134890000Y-108275000D02*
X136300000Y-108275000D01*
X136300000Y-110075000D02*
X134890000Y-110075000D01*
X137100000Y-110075000D02*
X138510000Y-110075000D01*
X138510000Y-108275000D02*
X137100000Y-108275000D01*
X138660000Y-109925000D02*
X138660000Y-108425000D01*
X134740000Y-108425000D02*
G75*
G02*
X134890000Y-108275000I150000J0D01*
G01*
X134890000Y-110075000D02*
G75*
G02*
X134740000Y-109925000I0J150000D01*
G01*
X138510000Y-108275000D02*
G75*
G02*
X138660000Y-108425000I0J-150000D01*
G01*
X138660000Y-109925000D02*
G75*
G02*
X138510000Y-110075000I-150000J0D01*
G01*
D12*
X135730000Y-109805000D02*
G75*
G02*
X135670000Y-109805000I-30000J0D01*
G01*
X135670000Y-109805000D02*
G75*
G02*
X135730000Y-109805000I30000J0D01*
G01*
%TO.C,CN1*%
D11*
X138750000Y-128680000D02*
X138750000Y-131580000D01*
X138750000Y-128680000D02*
X140320000Y-128680000D01*
X138750000Y-131580000D02*
X140320000Y-131580000D01*
X140320000Y-123960000D02*
X140320000Y-125050000D01*
X140320000Y-129050000D02*
X140320000Y-125050000D01*
X140320000Y-131580000D02*
X140350000Y-133250000D01*
X140350000Y-133250000D02*
X150480000Y-133190000D01*
X141590000Y-122050000D02*
X141590000Y-123960000D01*
X141590000Y-123960000D02*
X140320000Y-123960000D01*
X141970000Y-121420000D02*
X141970000Y-122050000D01*
X141970000Y-122050000D02*
X141590000Y-122050000D01*
X143880000Y-121290000D02*
X143880000Y-122050000D01*
X143880000Y-122050000D02*
X144260000Y-122050000D01*
X144260000Y-122050000D02*
X144260000Y-124080000D01*
X144260000Y-124080000D02*
X146670000Y-124080000D01*
X146670000Y-122050000D02*
X146920000Y-122050000D01*
X146670000Y-124080000D02*
X146670000Y-122050000D01*
X146920000Y-122050000D02*
X146920000Y-121290000D01*
X148830000Y-121420000D02*
X148830000Y-122050000D01*
X148830000Y-122050000D02*
X149210000Y-122050000D01*
X149210000Y-122050000D02*
X149210000Y-124080000D01*
X149210000Y-124080000D02*
X150480000Y-124080000D01*
X150480000Y-124080000D02*
X150480000Y-125050000D01*
X150480000Y-128660000D02*
X152050000Y-128660000D01*
X150480000Y-129050000D02*
X150480000Y-125050000D01*
X150480000Y-131650000D02*
X152050000Y-131650000D01*
X150480000Y-133190000D02*
X150480000Y-131650000D01*
X152050000Y-128660000D02*
X152050000Y-131650000D01*
%TO.C,C49*%
D13*
X148425000Y-93425000D02*
X148425000Y-92925000D01*
X148425000Y-94365000D02*
X148425000Y-93865000D01*
X148575000Y-92775000D02*
X149275000Y-92775000D01*
X149275000Y-94515000D02*
X148575000Y-94515000D01*
X149425000Y-92925000D02*
X149425000Y-93425000D01*
X149425000Y-93865000D02*
X149425000Y-94365000D01*
X148425000Y-92925000D02*
G75*
G02*
X148575000Y-92775000I150000J0D01*
G01*
X148575000Y-94515000D02*
G75*
G02*
X148425000Y-94365000I0J150000D01*
G01*
X149275000Y-92775000D02*
G75*
G02*
X149425000Y-92925000I0J-150000D01*
G01*
X149425000Y-94365000D02*
G75*
G02*
X149275000Y-94515000I-150000J0D01*
G01*
D12*
X148705000Y-93145000D02*
G75*
G02*
X148645000Y-93145000I-30000J0D01*
G01*
X148645000Y-93145000D02*
G75*
G02*
X148705000Y-93145000I30000J0D01*
G01*
%TO.C,C24*%
D13*
X132590000Y-102865000D02*
X132590000Y-104495000D01*
X132590000Y-107685000D02*
X132590000Y-106055000D01*
X135600000Y-102715000D02*
X132740000Y-102715000D01*
X135600000Y-107835000D02*
X132740000Y-107835000D01*
X135750000Y-104495000D02*
X135750000Y-102865000D01*
X135750000Y-106055000D02*
X135750000Y-107685000D01*
X132590000Y-102865000D02*
G75*
G02*
X132740000Y-102715000I150000J0D01*
G01*
X132740000Y-107835000D02*
G75*
G02*
X132590000Y-107685000I0J150000D01*
G01*
X135600000Y-102715000D02*
G75*
G02*
X135750000Y-102865000I0J-150000D01*
G01*
X135750000Y-107685000D02*
G75*
G02*
X135600000Y-107835000I-150000J0D01*
G01*
D12*
X135450000Y-106875000D02*
G75*
G02*
X135390000Y-106875000I-30000J0D01*
G01*
X135390000Y-106875000D02*
G75*
G02*
X135450000Y-106875000I30000J0D01*
G01*
%TO.C,U12*%
D13*
X129770000Y-78160000D02*
X135930000Y-78160000D01*
X129770000Y-86320000D02*
X129770000Y-78160000D01*
X135930000Y-78160000D02*
X135930000Y-86320000D01*
X135930000Y-86320000D02*
X129770000Y-86320000D01*
X136150000Y-85520000D02*
X136150000Y-86540000D01*
X136150000Y-86540000D02*
X135130000Y-86540000D01*
D12*
X135880000Y-86240000D02*
G75*
G02*
X135820000Y-86240000I-30000J0D01*
G01*
X135820000Y-86240000D02*
G75*
G02*
X135880000Y-86240000I30000J0D01*
G01*
D17*
G36*
X135926194Y-86316192D02*
G01*
X135126195Y-86316192D01*
X135926194Y-85516193D01*
X135926194Y-86316192D01*
G37*
G36*
X135926194Y-86316192D02*
G01*
X135126196Y-86316192D01*
X135926194Y-85516194D01*
X135926194Y-86316192D01*
G37*
%TO.C,R13*%
D13*
X130340000Y-104610000D02*
X131660000Y-104610000D01*
X130340000Y-105570000D02*
X130340000Y-104610000D01*
X130340000Y-106430000D02*
X130340000Y-107390000D01*
X130340000Y-107390000D02*
X131660000Y-107390000D01*
X131660000Y-104610000D02*
X131660000Y-105570000D01*
X131660000Y-107390000D02*
X131660000Y-106430000D01*
D12*
X130630000Y-105200000D02*
G75*
G02*
X130570000Y-105200000I-30000J0D01*
G01*
X130570000Y-105200000D02*
G75*
G02*
X130630000Y-105200000I30000J0D01*
G01*
%TO.C,C64*%
D11*
X150360000Y-75870000D02*
X150360000Y-75070000D01*
X151470000Y-74760000D02*
X150670000Y-74760000D01*
X151470000Y-76180000D02*
X150670000Y-76180000D01*
X152030000Y-74760000D02*
X152830000Y-74760000D01*
X152030000Y-76180000D02*
X152830000Y-76180000D01*
X153140000Y-75070000D02*
X153140000Y-75870000D01*
X150360000Y-75070000D02*
G75*
G02*
X150670000Y-74760000I310000J0D01*
G01*
X150670000Y-76180000D02*
G75*
G02*
X150360000Y-75870000I0J310000D01*
G01*
X152830000Y-74760000D02*
G75*
G02*
X153140000Y-75070000I0J-310000D01*
G01*
X153140000Y-75870000D02*
G75*
G02*
X152830000Y-76180000I-310000J0D01*
G01*
D12*
X152580000Y-75070000D02*
G75*
G02*
X152520000Y-75070000I-30000J0D01*
G01*
X152520000Y-75070000D02*
G75*
G02*
X152580000Y-75070000I30000J0D01*
G01*
%TO.C,R1*%
D13*
X144090000Y-110535000D02*
X145410000Y-110535000D01*
X144090000Y-111495000D02*
X144090000Y-110535000D01*
X144090000Y-112355000D02*
X144090000Y-113315000D01*
X144090000Y-113315000D02*
X145410000Y-113315000D01*
X145410000Y-110535000D02*
X145410000Y-111495000D01*
X145410000Y-113315000D02*
X145410000Y-112355000D01*
D12*
X144380000Y-111125000D02*
G75*
G02*
X144320000Y-111125000I-30000J0D01*
G01*
X144320000Y-111125000D02*
G75*
G02*
X144380000Y-111125000I30000J0D01*
G01*
%TO.C,U6*%
D14*
X139920000Y-106875000D02*
X139920000Y-107375000D01*
X139920000Y-106875000D02*
X139970000Y-106875000D01*
X139920000Y-108865000D02*
X139920000Y-109375000D01*
X139920000Y-109375000D02*
X139970000Y-109375000D01*
X142070000Y-106875000D02*
X142120000Y-106875000D01*
X142070000Y-109375000D02*
X142120000Y-109375000D01*
X142120000Y-106875000D02*
X142120000Y-107385000D01*
X142120000Y-108865000D02*
X142120000Y-109375000D01*
X139620000Y-107625000D02*
G75*
G02*
X139420000Y-107625000I-100000J0D01*
G01*
X139420000Y-107625000D02*
G75*
G02*
X139620000Y-107625000I100000J0D01*
G01*
D12*
X140050000Y-106875000D02*
G75*
G02*
X139990000Y-106875000I-30000J0D01*
G01*
X139990000Y-106875000D02*
G75*
G02*
X140050000Y-106875000I30000J0D01*
G01*
%TO.C,R8*%
D13*
X136585000Y-117335000D02*
X138425000Y-117335000D01*
X136585000Y-118615000D02*
X136585000Y-117335000D01*
X136585000Y-119575000D02*
X136585000Y-120855000D01*
X136585000Y-120855000D02*
X138425000Y-120855000D01*
X138425000Y-117335000D02*
X138425000Y-118615000D01*
X138425000Y-120855000D02*
X138425000Y-119575000D01*
D12*
X136895000Y-118095000D02*
G75*
G02*
X136835000Y-118095000I-30000J0D01*
G01*
X136835000Y-118095000D02*
G75*
G02*
X136895000Y-118095000I30000J0D01*
G01*
%TO.C,C23*%
D13*
X137475000Y-98390000D02*
X137475000Y-99800000D01*
X137475000Y-102010000D02*
X137475000Y-100600000D01*
X139125000Y-98240000D02*
X137625000Y-98240000D01*
X139125000Y-102160000D02*
X137625000Y-102160000D01*
X139275000Y-99800000D02*
X139275000Y-98390000D01*
X139275000Y-100600000D02*
X139275000Y-102010000D01*
X137475000Y-98390000D02*
G75*
G02*
X137625000Y-98240000I150000J0D01*
G01*
X137625000Y-102160000D02*
G75*
G02*
X137475000Y-102010000I0J150000D01*
G01*
X139125000Y-98240000D02*
G75*
G02*
X139275000Y-98390000I0J-150000D01*
G01*
X139275000Y-102010000D02*
G75*
G02*
X139125000Y-102160000I-150000J0D01*
G01*
D12*
X139035000Y-101200000D02*
G75*
G02*
X138975000Y-101200000I-30000J0D01*
G01*
X138975000Y-101200000D02*
G75*
G02*
X139035000Y-101200000I30000J0D01*
G01*
%TO.C,U11*%
D13*
X138370000Y-78160000D02*
X152530000Y-78160000D01*
X138370000Y-92320000D02*
X138370000Y-78160000D01*
X152530000Y-78160000D02*
X152530000Y-92320000D01*
X152530000Y-92320000D02*
X138370000Y-92320000D01*
X152750000Y-91840000D02*
X152750000Y-92540000D01*
X152750000Y-92540000D02*
X152050000Y-92540000D01*
D12*
X152480000Y-92240000D02*
G75*
G02*
X152420000Y-92240000I-30000J0D01*
G01*
X152420000Y-92240000D02*
G75*
G02*
X152480000Y-92240000I30000J0D01*
G01*
D16*
X153080000Y-91640000D02*
G75*
G02*
X152980000Y-91640000I-50000J0D01*
G01*
X152980000Y-91640000D02*
G75*
G02*
X153080000Y-91640000I50000J0D01*
G01*
D17*
G36*
X152526186Y-92316186D02*
G01*
X152046187Y-92316186D01*
X152526186Y-91836187D01*
X152526186Y-92316186D01*
G37*
%TO.C,C50*%
D13*
X153525000Y-87665700D02*
X153525000Y-86965700D01*
X153675000Y-86815700D02*
X154175000Y-86815700D01*
X154175000Y-87815700D02*
X153675000Y-87815700D01*
X154615000Y-86815700D02*
X155115000Y-86815700D01*
X155115000Y-87815700D02*
X154615000Y-87815700D01*
X155265000Y-86965700D02*
X155265000Y-87665700D01*
X153525000Y-86965700D02*
G75*
G02*
X153675000Y-86815700I150000J0D01*
G01*
X153675000Y-87815700D02*
G75*
G02*
X153525000Y-87665700I0J150000D01*
G01*
X155115000Y-86815700D02*
G75*
G02*
X155265000Y-86965700I0J-150000D01*
G01*
X155265000Y-87665700D02*
G75*
G02*
X155115000Y-87815700I-150000J0D01*
G01*
D12*
X154925000Y-87065700D02*
G75*
G02*
X154865000Y-87065700I-30000J0D01*
G01*
X154865000Y-87065700D02*
G75*
G02*
X154925000Y-87065700I30000J0D01*
G01*
%TO.C,C3*%
D11*
X147715000Y-97770000D02*
X147715000Y-96970000D01*
X147715000Y-98330000D02*
X147715000Y-99130000D01*
X148025000Y-96660000D02*
X148825000Y-96660000D01*
X148825000Y-99440000D02*
X148025000Y-99440000D01*
X149135000Y-97770000D02*
X149135000Y-96970000D01*
X149135000Y-98330000D02*
X149135000Y-99130000D01*
X147715000Y-96970000D02*
G75*
G02*
X148025000Y-96660000I310000J0D01*
G01*
X148025000Y-99440000D02*
G75*
G02*
X147715000Y-99130000I0J310000D01*
G01*
X148825000Y-96660000D02*
G75*
G02*
X149135000Y-96970000I0J-310000D01*
G01*
X149135000Y-99130000D02*
G75*
G02*
X148825000Y-99440000I-310000J0D01*
G01*
D12*
X148055000Y-97250000D02*
G75*
G02*
X147995000Y-97250000I-30000J0D01*
G01*
X147995000Y-97250000D02*
G75*
G02*
X148055000Y-97250000I30000J0D01*
G01*
%TO.C,C18*%
D13*
X139500000Y-95675000D02*
X139500000Y-94265000D01*
X139500000Y-96475000D02*
X139500000Y-97885000D01*
X139650000Y-94115000D02*
X141150000Y-94115000D01*
X139650000Y-98035000D02*
X141150000Y-98035000D01*
X141300000Y-94265000D02*
X141300000Y-95675000D01*
X141300000Y-97885000D02*
X141300000Y-96475000D01*
X139500000Y-94265000D02*
G75*
G02*
X139650000Y-94115000I150000J0D01*
G01*
X139650000Y-98035000D02*
G75*
G02*
X139500000Y-97885000I0J150000D01*
G01*
X141150000Y-94115000D02*
G75*
G02*
X141300000Y-94265000I0J-150000D01*
G01*
X141300000Y-97885000D02*
G75*
G02*
X141150000Y-98035000I-150000J0D01*
G01*
D12*
X139800000Y-95075000D02*
G75*
G02*
X139740000Y-95075000I-30000J0D01*
G01*
X139740000Y-95075000D02*
G75*
G02*
X139800000Y-95075000I30000J0D01*
G01*
%TO.C,C8*%
D11*
X161360000Y-117225000D02*
X161360000Y-116425000D01*
X162470000Y-116115000D02*
X161670000Y-116115000D01*
X162470000Y-117535000D02*
X161670000Y-117535000D01*
X163030000Y-116115000D02*
X163830000Y-116115000D01*
X163030000Y-117535000D02*
X163830000Y-117535000D01*
X164140000Y-116425000D02*
X164140000Y-117225000D01*
X161360000Y-116425000D02*
G75*
G02*
X161670000Y-116115000I310000J0D01*
G01*
X161670000Y-117535000D02*
G75*
G02*
X161360000Y-117225000I0J310000D01*
G01*
X163830000Y-116115000D02*
G75*
G02*
X164140000Y-116425000I0J-310000D01*
G01*
X164140000Y-117225000D02*
G75*
G02*
X163830000Y-117535000I-310000J0D01*
G01*
D12*
X163580000Y-116425000D02*
G75*
G02*
X163520000Y-116425000I-30000J0D01*
G01*
X163520000Y-116425000D02*
G75*
G02*
X163580000Y-116425000I30000J0D01*
G01*
%TO.C,R6*%
D13*
X138140000Y-110535000D02*
X138140000Y-111495000D01*
X138140000Y-113315000D02*
X138140000Y-112355000D01*
X139460000Y-110535000D02*
X138140000Y-110535000D01*
X139460000Y-111495000D02*
X139460000Y-110535000D01*
X139460000Y-112355000D02*
X139460000Y-113315000D01*
X139460000Y-113315000D02*
X138140000Y-113315000D01*
D12*
X139230000Y-112725000D02*
G75*
G02*
X139170000Y-112725000I-30000J0D01*
G01*
X139170000Y-112725000D02*
G75*
G02*
X139230000Y-112725000I30000J0D01*
G01*
%TO.C,C19*%
D11*
X139490000Y-104145000D02*
X139490000Y-103345000D01*
X139490000Y-104705000D02*
X139490000Y-105505000D01*
X139800000Y-103035000D02*
X140600000Y-103035000D01*
X140600000Y-105815000D02*
X139800000Y-105815000D01*
X140910000Y-104145000D02*
X140910000Y-103345000D01*
X140910000Y-104705000D02*
X140910000Y-105505000D01*
X139490000Y-103345000D02*
G75*
G02*
X139800000Y-103035000I310000J0D01*
G01*
X139800000Y-105815000D02*
G75*
G02*
X139490000Y-105505000I0J310000D01*
G01*
X140600000Y-103035000D02*
G75*
G02*
X140910000Y-103345000I0J-310000D01*
G01*
X140910000Y-105505000D02*
G75*
G02*
X140600000Y-105815000I-310000J0D01*
G01*
D12*
X139830000Y-103625000D02*
G75*
G02*
X139770000Y-103625000I-30000J0D01*
G01*
X139770000Y-103625000D02*
G75*
G02*
X139830000Y-103625000I30000J0D01*
G01*
%TO.C,C37*%
D11*
X136360000Y-68040000D02*
X136360000Y-67240000D01*
X137470000Y-66930000D02*
X136670000Y-66930000D01*
X137470000Y-68350000D02*
X136670000Y-68350000D01*
X138030000Y-66930000D02*
X138830000Y-66930000D01*
X138030000Y-68350000D02*
X138830000Y-68350000D01*
X139140000Y-67240000D02*
X139140000Y-68040000D01*
X136360000Y-67240000D02*
G75*
G02*
X136670000Y-66930000I310000J0D01*
G01*
X136670000Y-68350000D02*
G75*
G02*
X136360000Y-68040000I0J310000D01*
G01*
X138830000Y-66930000D02*
G75*
G02*
X139140000Y-67240000I0J-310000D01*
G01*
X139140000Y-68040000D02*
G75*
G02*
X138830000Y-68350000I-310000J0D01*
G01*
D12*
X136980000Y-68040000D02*
G75*
G02*
X136920000Y-68040000I-30000J0D01*
G01*
X136920000Y-68040000D02*
G75*
G02*
X136980000Y-68040000I30000J0D01*
G01*
%TO.C,X2*%
D13*
X146125000Y-92615000D02*
X146125000Y-94815000D01*
X146125000Y-94815000D02*
X147875000Y-94815000D01*
X147525000Y-95065000D02*
X147525000Y-95065000D01*
X147525000Y-95065000D02*
X148175000Y-95065000D01*
X147875000Y-94815000D02*
X147925000Y-94815000D01*
X147925000Y-92615000D02*
X146125000Y-92615000D01*
X147925000Y-94815000D02*
X147925000Y-92615000D01*
X148175000Y-95065000D02*
X148175000Y-94365000D01*
D12*
X147655000Y-94515000D02*
G75*
G02*
X147595000Y-94515000I-30000J0D01*
G01*
X147595000Y-94515000D02*
G75*
G02*
X147655000Y-94515000I30000J0D01*
G01*
%TO.C,C41*%
D11*
X153360000Y-86115000D02*
X153360000Y-85315000D01*
X154470000Y-85005000D02*
X153670000Y-85005000D01*
X154470000Y-86425000D02*
X153670000Y-86425000D01*
X155030000Y-85005000D02*
X155830000Y-85005000D01*
X155030000Y-86425000D02*
X155830000Y-86425000D01*
X156140000Y-85315000D02*
X156140000Y-86115000D01*
X153360000Y-85315000D02*
G75*
G02*
X153670000Y-85005000I310000J0D01*
G01*
X153670000Y-86425000D02*
G75*
G02*
X153360000Y-86115000I0J310000D01*
G01*
X155830000Y-85005000D02*
G75*
G02*
X156140000Y-85315000I0J-310000D01*
G01*
X156140000Y-86115000D02*
G75*
G02*
X155830000Y-86425000I-310000J0D01*
G01*
D12*
X155580000Y-85315000D02*
G75*
G02*
X155520000Y-85315000I-30000J0D01*
G01*
X155520000Y-85315000D02*
G75*
G02*
X155580000Y-85315000I30000J0D01*
G01*
%TO.C,L2*%
D11*
X151700000Y-106745000D02*
X152840000Y-106745000D01*
X151700000Y-113985000D02*
X151700000Y-106745000D01*
X152840000Y-113985000D02*
X151700000Y-113985000D01*
X157160000Y-106865000D02*
X158300000Y-106865000D01*
X158300000Y-106865000D02*
X158300000Y-114105000D01*
X158300000Y-114105000D02*
X157160000Y-114105000D01*
D12*
X158330000Y-113975000D02*
G75*
G02*
X158270000Y-113975000I-30000J0D01*
G01*
X158270000Y-113975000D02*
G75*
G02*
X158330000Y-113975000I30000J0D01*
G01*
%TO.C,C93*%
D11*
X128040000Y-84585000D02*
X128040000Y-83785000D01*
X128040000Y-85145000D02*
X128040000Y-85945000D01*
X128350000Y-83475000D02*
X129150000Y-83475000D01*
X129150000Y-86255000D02*
X128350000Y-86255000D01*
X129460000Y-84585000D02*
X129460000Y-83785000D01*
X129460000Y-85145000D02*
X129460000Y-85945000D01*
X128040000Y-83785000D02*
G75*
G02*
X128350000Y-83475000I310000J0D01*
G01*
X128350000Y-86255000D02*
G75*
G02*
X128040000Y-85945000I0J310000D01*
G01*
X129150000Y-83475000D02*
G75*
G02*
X129460000Y-83785000I0J-310000D01*
G01*
X129460000Y-85945000D02*
G75*
G02*
X129150000Y-86255000I-310000J0D01*
G01*
D12*
X129180000Y-85665000D02*
G75*
G02*
X129120000Y-85665000I-30000J0D01*
G01*
X129120000Y-85665000D02*
G75*
G02*
X129180000Y-85665000I30000J0D01*
G01*
%TO.C,C38*%
D13*
X149600000Y-106815000D02*
X149600000Y-108225000D01*
X149600000Y-110435000D02*
X149600000Y-109025000D01*
X151250000Y-106665000D02*
X149750000Y-106665000D01*
X151250000Y-110585000D02*
X149750000Y-110585000D01*
X151400000Y-108225000D02*
X151400000Y-106815000D01*
X151400000Y-109025000D02*
X151400000Y-110435000D01*
X149600000Y-106815000D02*
G75*
G02*
X149750000Y-106665000I150000J0D01*
G01*
X149750000Y-110585000D02*
G75*
G02*
X149600000Y-110435000I0J150000D01*
G01*
X151250000Y-106665000D02*
G75*
G02*
X151400000Y-106815000I0J-150000D01*
G01*
X151400000Y-110435000D02*
G75*
G02*
X151250000Y-110585000I-150000J0D01*
G01*
D12*
X151160000Y-109625000D02*
G75*
G02*
X151100000Y-109625000I-30000J0D01*
G01*
X151100000Y-109625000D02*
G75*
G02*
X151160000Y-109625000I30000J0D01*
G01*
%TO.C,C53*%
D11*
X129935000Y-75175000D02*
X129935000Y-74375000D01*
X131045000Y-74065000D02*
X130245000Y-74065000D01*
X131045000Y-75485000D02*
X130245000Y-75485000D01*
X131605000Y-74065000D02*
X132405000Y-74065000D01*
X131605000Y-75485000D02*
X132405000Y-75485000D01*
X132715000Y-74375000D02*
X132715000Y-75175000D01*
X129935000Y-74375000D02*
G75*
G02*
X130245000Y-74065000I310000J0D01*
G01*
X130245000Y-75485000D02*
G75*
G02*
X129935000Y-75175000I0J310000D01*
G01*
X132405000Y-74065000D02*
G75*
G02*
X132715000Y-74375000I0J-310000D01*
G01*
X132715000Y-75175000D02*
G75*
G02*
X132405000Y-75485000I-310000J0D01*
G01*
D12*
X130555000Y-75175000D02*
G75*
G02*
X130495000Y-75175000I-30000J0D01*
G01*
X130495000Y-75175000D02*
G75*
G02*
X130555000Y-75175000I30000J0D01*
G01*
%TO.C,C85*%
D11*
X154515000Y-79435000D02*
X154515000Y-78635000D01*
X154515000Y-79995000D02*
X154515000Y-80795000D01*
X154825000Y-78325000D02*
X155625000Y-78325000D01*
X155625000Y-81105000D02*
X154825000Y-81105000D01*
X155935000Y-79435000D02*
X155935000Y-78635000D01*
X155935000Y-79995000D02*
X155935000Y-80795000D01*
X154515000Y-78635000D02*
G75*
G02*
X154825000Y-78325000I310000J0D01*
G01*
X154825000Y-81105000D02*
G75*
G02*
X154515000Y-80795000I0J310000D01*
G01*
X155625000Y-78325000D02*
G75*
G02*
X155935000Y-78635000I0J-310000D01*
G01*
X155935000Y-80795000D02*
G75*
G02*
X155625000Y-81105000I-310000J0D01*
G01*
D12*
X154855000Y-78915000D02*
G75*
G02*
X154795000Y-78915000I-30000J0D01*
G01*
X154795000Y-78915000D02*
G75*
G02*
X154855000Y-78915000I30000J0D01*
G01*
%TO.C,R14*%
D13*
X128840000Y-104610000D02*
X130160000Y-104610000D01*
X128840000Y-105570000D02*
X128840000Y-104610000D01*
X128840000Y-106430000D02*
X128840000Y-107390000D01*
X128840000Y-107390000D02*
X130160000Y-107390000D01*
X130160000Y-104610000D02*
X130160000Y-105570000D01*
X130160000Y-107390000D02*
X130160000Y-106430000D01*
D12*
X129130000Y-105200000D02*
G75*
G02*
X129070000Y-105200000I-30000J0D01*
G01*
X129070000Y-105200000D02*
G75*
G02*
X129130000Y-105200000I30000J0D01*
G01*
%TO.C,R4*%
D13*
X139640000Y-110535000D02*
X139640000Y-111495000D01*
X139640000Y-113315000D02*
X139640000Y-112355000D01*
X140960000Y-110535000D02*
X139640000Y-110535000D01*
X140960000Y-111495000D02*
X140960000Y-110535000D01*
X140960000Y-112355000D02*
X140960000Y-113315000D01*
X140960000Y-113315000D02*
X139640000Y-113315000D01*
D12*
X140730000Y-112725000D02*
G75*
G02*
X140670000Y-112725000I-30000J0D01*
G01*
X140670000Y-112725000D02*
G75*
G02*
X140730000Y-112725000I30000J0D01*
G01*
%TO.C,C56*%
D11*
X153360000Y-82690000D02*
X153360000Y-81890000D01*
X154470000Y-81580000D02*
X153670000Y-81580000D01*
X154470000Y-83000000D02*
X153670000Y-83000000D01*
X155030000Y-81580000D02*
X155830000Y-81580000D01*
X155030000Y-83000000D02*
X155830000Y-83000000D01*
X156140000Y-81890000D02*
X156140000Y-82690000D01*
X153360000Y-81890000D02*
G75*
G02*
X153670000Y-81580000I310000J0D01*
G01*
X153670000Y-83000000D02*
G75*
G02*
X153360000Y-82690000I0J310000D01*
G01*
X155830000Y-81580000D02*
G75*
G02*
X156140000Y-81890000I0J-310000D01*
G01*
X156140000Y-82690000D02*
G75*
G02*
X155830000Y-83000000I-310000J0D01*
G01*
D12*
X155580000Y-81890000D02*
G75*
G02*
X155520000Y-81890000I-30000J0D01*
G01*
X155520000Y-81890000D02*
G75*
G02*
X155580000Y-81890000I30000J0D01*
G01*
%TO.C,R5*%
D13*
X136640000Y-110535000D02*
X136640000Y-111495000D01*
X136640000Y-113315000D02*
X136640000Y-112355000D01*
X137960000Y-110535000D02*
X136640000Y-110535000D01*
X137960000Y-111495000D02*
X137960000Y-110535000D01*
X137960000Y-112355000D02*
X137960000Y-113315000D01*
X137960000Y-113315000D02*
X136640000Y-113315000D01*
D12*
X137730000Y-112725000D02*
G75*
G02*
X137670000Y-112725000I-30000J0D01*
G01*
X137670000Y-112725000D02*
G75*
G02*
X137730000Y-112725000I30000J0D01*
G01*
%TO.C,LED2*%
D11*
X159450000Y-113000000D02*
X159450000Y-113800000D01*
X159450000Y-113800000D02*
X159750000Y-114100000D01*
X159750000Y-112700000D02*
X159450000Y-113000000D01*
X159750000Y-114100000D02*
X160850000Y-114100000D01*
X160850000Y-112700000D02*
X159750000Y-112700000D01*
X161240000Y-113000000D02*
X161240000Y-113780000D01*
X161240000Y-113400000D02*
X161030000Y-113400000D01*
X161350000Y-112700000D02*
X162620000Y-112700000D01*
X162620000Y-112700000D02*
X162620000Y-114100000D01*
X162620000Y-114100000D02*
X161350000Y-114100000D01*
D16*
X162000000Y-113000000D02*
G75*
G02*
X161900000Y-113000000I-50000J0D01*
G01*
X161900000Y-113000000D02*
G75*
G02*
X162000000Y-113000000I50000J0D01*
G01*
%TO.C,C12*%
D13*
X159200000Y-117965000D02*
X159200000Y-119375000D01*
X159200000Y-121585000D02*
X159200000Y-120175000D01*
X160850000Y-117815000D02*
X159350000Y-117815000D01*
X160850000Y-121735000D02*
X159350000Y-121735000D01*
X161000000Y-119375000D02*
X161000000Y-117965000D01*
X161000000Y-120175000D02*
X161000000Y-121585000D01*
X159200000Y-117965000D02*
G75*
G02*
X159350000Y-117815000I150000J0D01*
G01*
X159350000Y-121735000D02*
G75*
G02*
X159200000Y-121585000I0J150000D01*
G01*
X160850000Y-117815000D02*
G75*
G02*
X161000000Y-117965000I0J-150000D01*
G01*
X161000000Y-121585000D02*
G75*
G02*
X160850000Y-121735000I-150000J0D01*
G01*
D12*
X160760000Y-120775000D02*
G75*
G02*
X160700000Y-120775000I-30000J0D01*
G01*
X160700000Y-120775000D02*
G75*
G02*
X160760000Y-120775000I30000J0D01*
G01*
%TO.C,C52*%
D13*
X146110000Y-96165000D02*
X146110000Y-95465000D01*
X146260000Y-95315000D02*
X146760000Y-95315000D01*
X146760000Y-96315000D02*
X146260000Y-96315000D01*
X147200000Y-95315000D02*
X147700000Y-95315000D01*
X147700000Y-96315000D02*
X147200000Y-96315000D01*
X147850000Y-95465000D02*
X147850000Y-96165000D01*
X146110000Y-95465000D02*
G75*
G02*
X146260000Y-95315000I150000J0D01*
G01*
X146260000Y-96315000D02*
G75*
G02*
X146110000Y-96165000I0J150000D01*
G01*
X147700000Y-95315000D02*
G75*
G02*
X147850000Y-95465000I0J-150000D01*
G01*
X147850000Y-96165000D02*
G75*
G02*
X147700000Y-96315000I-150000J0D01*
G01*
D12*
X147510000Y-95565000D02*
G75*
G02*
X147450000Y-95565000I-30000J0D01*
G01*
X147450000Y-95565000D02*
G75*
G02*
X147510000Y-95565000I30000J0D01*
G01*
%TO.C,R37*%
D13*
X129685000Y-86530000D02*
X129685000Y-87850000D01*
X129685000Y-87850000D02*
X130645000Y-87850000D01*
X130645000Y-86530000D02*
X129685000Y-86530000D01*
X131505000Y-86530000D02*
X132465000Y-86530000D01*
X132465000Y-86530000D02*
X132465000Y-87850000D01*
X132465000Y-87850000D02*
X131505000Y-87850000D01*
D12*
X131905000Y-86790000D02*
G75*
G02*
X131845000Y-86790000I-30000J0D01*
G01*
X131845000Y-86790000D02*
G75*
G02*
X131905000Y-86790000I30000J0D01*
G01*
%TO.C,R12*%
D13*
X150890000Y-119135000D02*
X152210000Y-119135000D01*
X150890000Y-120095000D02*
X150890000Y-119135000D01*
X150890000Y-120955000D02*
X150890000Y-121915000D01*
X150890000Y-121915000D02*
X152210000Y-121915000D01*
X152210000Y-119135000D02*
X152210000Y-120095000D01*
X152210000Y-121915000D02*
X152210000Y-120955000D01*
D12*
X151180000Y-119725000D02*
G75*
G02*
X151120000Y-119725000I-30000J0D01*
G01*
X151120000Y-119725000D02*
G75*
G02*
X151180000Y-119725000I30000J0D01*
G01*
%TO.C,U5*%
D13*
X135455000Y-116215000D02*
X135455000Y-115055000D01*
X137055000Y-115055000D02*
X137055000Y-116215000D01*
D12*
X135565000Y-116135000D02*
G75*
G02*
X135505000Y-116135000I-30000J0D01*
G01*
X135505000Y-116135000D02*
G75*
G02*
X135565000Y-116135000I30000J0D01*
G01*
D14*
X135845000Y-116655000D02*
G75*
G02*
X135645000Y-116655000I-100000J0D01*
G01*
X135645000Y-116655000D02*
G75*
G02*
X135845000Y-116655000I100000J0D01*
G01*
%TO.C,C55*%
D11*
X142935000Y-93790000D02*
X142935000Y-92990000D01*
X144045000Y-92680000D02*
X143245000Y-92680000D01*
X144045000Y-94100000D02*
X143245000Y-94100000D01*
X144605000Y-92680000D02*
X145405000Y-92680000D01*
X144605000Y-94100000D02*
X145405000Y-94100000D01*
X145715000Y-92990000D02*
X145715000Y-93790000D01*
X142935000Y-92990000D02*
G75*
G02*
X143245000Y-92680000I310000J0D01*
G01*
X143245000Y-94100000D02*
G75*
G02*
X142935000Y-93790000I0J310000D01*
G01*
X145405000Y-92680000D02*
G75*
G02*
X145715000Y-92990000I0J-310000D01*
G01*
X145715000Y-93790000D02*
G75*
G02*
X145405000Y-94100000I-310000J0D01*
G01*
D12*
X143555000Y-93790000D02*
G75*
G02*
X143495000Y-93790000I-30000J0D01*
G01*
X143495000Y-93790000D02*
G75*
G02*
X143555000Y-93790000I30000J0D01*
G01*
%TO.C,C9*%
D13*
X143825000Y-107075000D02*
X143825000Y-105665000D01*
X143825000Y-107875000D02*
X143825000Y-109285000D01*
X143975000Y-105515000D02*
X145475000Y-105515000D01*
X143975000Y-109435000D02*
X145475000Y-109435000D01*
X145625000Y-105665000D02*
X145625000Y-107075000D01*
X145625000Y-109285000D02*
X145625000Y-107875000D01*
X143825000Y-105665000D02*
G75*
G02*
X143975000Y-105515000I150000J0D01*
G01*
X143975000Y-109435000D02*
G75*
G02*
X143825000Y-109285000I0J150000D01*
G01*
X145475000Y-105515000D02*
G75*
G02*
X145625000Y-105665000I0J-150000D01*
G01*
X145625000Y-109285000D02*
G75*
G02*
X145475000Y-109435000I-150000J0D01*
G01*
D12*
X144125000Y-106475000D02*
G75*
G02*
X144065000Y-106475000I-30000J0D01*
G01*
X144065000Y-106475000D02*
G75*
G02*
X144125000Y-106475000I30000J0D01*
G01*
%TO.C,C89*%
D11*
X152790000Y-79435000D02*
X152790000Y-78635000D01*
X152790000Y-79995000D02*
X152790000Y-80795000D01*
X153100000Y-78325000D02*
X153900000Y-78325000D01*
X153900000Y-81105000D02*
X153100000Y-81105000D01*
X154210000Y-79435000D02*
X154210000Y-78635000D01*
X154210000Y-79995000D02*
X154210000Y-80795000D01*
X152790000Y-78635000D02*
G75*
G02*
X153100000Y-78325000I310000J0D01*
G01*
X153100000Y-81105000D02*
G75*
G02*
X152790000Y-80795000I0J310000D01*
G01*
X153900000Y-78325000D02*
G75*
G02*
X154210000Y-78635000I0J-310000D01*
G01*
X154210000Y-80795000D02*
G75*
G02*
X153900000Y-81105000I-310000J0D01*
G01*
D12*
X153130000Y-78915000D02*
G75*
G02*
X153070000Y-78915000I-30000J0D01*
G01*
X153070000Y-78915000D02*
G75*
G02*
X153130000Y-78915000I30000J0D01*
G01*
%TO.C,C2*%
D13*
X133340000Y-94275000D02*
X133340000Y-95775000D01*
X133490000Y-95925000D02*
X134900000Y-95925000D01*
X134900000Y-94125000D02*
X133490000Y-94125000D01*
X135700000Y-94125000D02*
X137110000Y-94125000D01*
X137110000Y-95925000D02*
X135700000Y-95925000D01*
X137260000Y-94275000D02*
X137260000Y-95775000D01*
X133340000Y-94275000D02*
G75*
G02*
X133490000Y-94125000I150000J0D01*
G01*
X133490000Y-95925000D02*
G75*
G02*
X133340000Y-95775000I0J150000D01*
G01*
X137110000Y-94125000D02*
G75*
G02*
X137260000Y-94275000I0J-150000D01*
G01*
X137260000Y-95775000D02*
G75*
G02*
X137110000Y-95925000I-150000J0D01*
G01*
D12*
X136330000Y-94395000D02*
G75*
G02*
X136270000Y-94395000I-30000J0D01*
G01*
X136270000Y-94395000D02*
G75*
G02*
X136330000Y-94395000I30000J0D01*
G01*
%TO.C,C86*%
D11*
X129810000Y-77565000D02*
X129810000Y-76765000D01*
X130920000Y-76455000D02*
X130120000Y-76455000D01*
X130920000Y-77875000D02*
X130120000Y-77875000D01*
X131480000Y-76455000D02*
X132280000Y-76455000D01*
X131480000Y-77875000D02*
X132280000Y-77875000D01*
X132590000Y-76765000D02*
X132590000Y-77565000D01*
X129810000Y-76765000D02*
G75*
G02*
X130120000Y-76455000I310000J0D01*
G01*
X130120000Y-77875000D02*
G75*
G02*
X129810000Y-77565000I0J310000D01*
G01*
X132280000Y-76455000D02*
G75*
G02*
X132590000Y-76765000I0J-310000D01*
G01*
X132590000Y-77565000D02*
G75*
G02*
X132280000Y-77875000I-310000J0D01*
G01*
D12*
X130430000Y-77565000D02*
G75*
G02*
X130370000Y-77565000I-30000J0D01*
G01*
X130370000Y-77565000D02*
G75*
G02*
X130430000Y-77565000I30000J0D01*
G01*
%TO.C,C14*%
D11*
X142590000Y-97770000D02*
X142590000Y-96970000D01*
X142590000Y-98330000D02*
X142590000Y-99130000D01*
X142900000Y-96660000D02*
X143700000Y-96660000D01*
X143700000Y-99440000D02*
X142900000Y-99440000D01*
X144010000Y-97770000D02*
X144010000Y-96970000D01*
X144010000Y-98330000D02*
X144010000Y-99130000D01*
X142590000Y-96970000D02*
G75*
G02*
X142900000Y-96660000I310000J0D01*
G01*
X142900000Y-99440000D02*
G75*
G02*
X142590000Y-99130000I0J310000D01*
G01*
X143700000Y-96660000D02*
G75*
G02*
X144010000Y-96970000I0J-310000D01*
G01*
X144010000Y-99130000D02*
G75*
G02*
X143700000Y-99440000I-310000J0D01*
G01*
D12*
X143730000Y-98850000D02*
G75*
G02*
X143670000Y-98850000I-30000J0D01*
G01*
X143670000Y-98850000D02*
G75*
G02*
X143730000Y-98850000I30000J0D01*
G01*
%TO.C,LED5*%
D13*
X154390000Y-69760000D02*
X154390000Y-68280000D01*
X155540000Y-68260000D02*
X154390000Y-68260000D01*
X155540000Y-69760000D02*
X154390000Y-69760000D01*
X155560000Y-68680000D02*
X155570000Y-68680000D01*
X155560000Y-69010000D02*
X155900000Y-69010000D01*
X155560000Y-69350000D02*
X155900000Y-69010000D01*
X155560000Y-69360000D02*
X155560000Y-68680000D01*
X155560000Y-69360000D02*
X155560000Y-69350000D01*
X155570000Y-68680000D02*
X155900000Y-69010000D01*
X155920000Y-68250000D02*
X156970000Y-68250000D01*
X155920000Y-69750000D02*
X156970000Y-69750000D01*
X157270000Y-68550000D02*
X156970000Y-68250000D01*
X157270000Y-68650000D02*
X157270000Y-68550000D01*
X157270000Y-69350000D02*
X157270000Y-68650000D01*
X157270000Y-69350000D02*
X157270000Y-69450000D01*
X157270000Y-69450000D02*
X156970000Y-69750000D01*
D12*
X156610000Y-68600000D02*
G75*
G02*
X156550000Y-68600000I-30000J0D01*
G01*
X156550000Y-68600000D02*
G75*
G02*
X156610000Y-68600000I30000J0D01*
G01*
%TO.C,C1*%
D11*
X155540000Y-91635000D02*
X155540000Y-90835000D01*
X155540000Y-92195000D02*
X155540000Y-92995000D01*
X155850000Y-90525000D02*
X156650000Y-90525000D01*
X156650000Y-93305000D02*
X155850000Y-93305000D01*
X156960000Y-91635000D02*
X156960000Y-90835000D01*
X156960000Y-92195000D02*
X156960000Y-92995000D01*
X155540000Y-90835000D02*
G75*
G02*
X155850000Y-90525000I310000J0D01*
G01*
X155850000Y-93305000D02*
G75*
G02*
X155540000Y-92995000I0J310000D01*
G01*
X156650000Y-90525000D02*
G75*
G02*
X156960000Y-90835000I0J-310000D01*
G01*
X156960000Y-92995000D02*
G75*
G02*
X156650000Y-93305000I-310000J0D01*
G01*
D12*
X155880000Y-91115000D02*
G75*
G02*
X155820000Y-91115000I-30000J0D01*
G01*
X155820000Y-91115000D02*
G75*
G02*
X155880000Y-91115000I30000J0D01*
G01*
%TO.C,C82*%
D11*
X146615000Y-74035000D02*
X146615000Y-73235000D01*
X146615000Y-74595000D02*
X146615000Y-75395000D01*
X146925000Y-72925000D02*
X147725000Y-72925000D01*
X147725000Y-75705000D02*
X146925000Y-75705000D01*
X148035000Y-74035000D02*
X148035000Y-73235000D01*
X148035000Y-74595000D02*
X148035000Y-75395000D01*
X146615000Y-73235000D02*
G75*
G02*
X146925000Y-72925000I310000J0D01*
G01*
X146925000Y-75705000D02*
G75*
G02*
X146615000Y-75395000I0J310000D01*
G01*
X147725000Y-72925000D02*
G75*
G02*
X148035000Y-73235000I0J-310000D01*
G01*
X148035000Y-75395000D02*
G75*
G02*
X147725000Y-75705000I-310000J0D01*
G01*
D12*
X147755000Y-75115000D02*
G75*
G02*
X147695000Y-75115000I-30000J0D01*
G01*
X147695000Y-75115000D02*
G75*
G02*
X147755000Y-75115000I30000J0D01*
G01*
%TO.C,D2*%
D18*
X132945000Y-86715000D02*
X134745000Y-86715000D01*
X132945000Y-87715000D02*
X132945000Y-86715000D01*
X134645000Y-87715000D02*
X134645000Y-86715000D01*
X134745000Y-86715000D02*
X134745000Y-86715000D01*
X134745000Y-86715000D02*
X134745000Y-86815000D01*
X134745000Y-86815000D02*
X134745000Y-87715000D01*
X134745000Y-87015000D02*
X134745000Y-86815000D01*
X134745000Y-87715000D02*
X132945000Y-87715000D01*
X134745000Y-87715000D02*
X134845000Y-87715000D01*
X134845000Y-86715000D02*
X134745000Y-86715000D01*
X134845000Y-87715000D02*
X134845000Y-86715000D01*
D12*
X134335000Y-86915000D02*
G75*
G02*
X134275000Y-86915000I-30000J0D01*
G01*
X134275000Y-86915000D02*
G75*
G02*
X134335000Y-86915000I30000J0D01*
G01*
%TO.C,C15*%
D13*
X146337500Y-101552500D02*
X146337500Y-102962500D01*
X146337500Y-105172500D02*
X146337500Y-103762500D01*
X147987500Y-101402500D02*
X146487500Y-101402500D01*
X147987500Y-105322500D02*
X146487500Y-105322500D01*
X148137500Y-102962500D02*
X148137500Y-101552500D01*
X148137500Y-103762500D02*
X148137500Y-105172500D01*
X146337500Y-101552500D02*
G75*
G02*
X146487500Y-101402500I150000J0D01*
G01*
X146487500Y-105322500D02*
G75*
G02*
X146337500Y-105172500I0J150000D01*
G01*
X147987500Y-101402500D02*
G75*
G02*
X148137500Y-101552500I0J-150000D01*
G01*
X148137500Y-105172500D02*
G75*
G02*
X147987500Y-105322500I-150000J0D01*
G01*
D12*
X147897500Y-104362500D02*
G75*
G02*
X147837500Y-104362500I-30000J0D01*
G01*
X147837500Y-104362500D02*
G75*
G02*
X147897500Y-104362500I30000J0D01*
G01*
%TO.C,C28*%
D13*
X136020000Y-102845000D02*
X136020000Y-104475000D01*
X136020000Y-107665000D02*
X136020000Y-106035000D01*
X139030000Y-102695000D02*
X136170000Y-102695000D01*
X139030000Y-107815000D02*
X136170000Y-107815000D01*
X139180000Y-104475000D02*
X139180000Y-102845000D01*
X139180000Y-106035000D02*
X139180000Y-107665000D01*
X136020000Y-102845000D02*
G75*
G02*
X136170000Y-102695000I150000J0D01*
G01*
X136170000Y-107815000D02*
G75*
G02*
X136020000Y-107665000I0J150000D01*
G01*
X139030000Y-102695000D02*
G75*
G02*
X139180000Y-102845000I0J-150000D01*
G01*
X139180000Y-107665000D02*
G75*
G02*
X139030000Y-107815000I-150000J0D01*
G01*
D12*
X138880000Y-106855000D02*
G75*
G02*
X138820000Y-106855000I-30000J0D01*
G01*
X138820000Y-106855000D02*
G75*
G02*
X138880000Y-106855000I30000J0D01*
G01*
%TO.C,C58*%
D11*
X142935000Y-95515000D02*
X142935000Y-94715000D01*
X144045000Y-94405000D02*
X143245000Y-94405000D01*
X144045000Y-95825000D02*
X143245000Y-95825000D01*
X144605000Y-94405000D02*
X145405000Y-94405000D01*
X144605000Y-95825000D02*
X145405000Y-95825000D01*
X145715000Y-94715000D02*
X145715000Y-95515000D01*
X142935000Y-94715000D02*
G75*
G02*
X143245000Y-94405000I310000J0D01*
G01*
X143245000Y-95825000D02*
G75*
G02*
X142935000Y-95515000I0J310000D01*
G01*
X145405000Y-94405000D02*
G75*
G02*
X145715000Y-94715000I0J-310000D01*
G01*
X145715000Y-95515000D02*
G75*
G02*
X145405000Y-95825000I-310000J0D01*
G01*
D12*
X143555000Y-95515000D02*
G75*
G02*
X143495000Y-95515000I-30000J0D01*
G01*
X143495000Y-95515000D02*
G75*
G02*
X143555000Y-95515000I30000J0D01*
G01*
%TO.C,R10*%
D13*
X128340000Y-99460000D02*
X128340000Y-100420000D01*
X128340000Y-102240000D02*
X128340000Y-101280000D01*
X129660000Y-99460000D02*
X128340000Y-99460000D01*
X129660000Y-100420000D02*
X129660000Y-99460000D01*
X129660000Y-101280000D02*
X129660000Y-102240000D01*
X129660000Y-102240000D02*
X128340000Y-102240000D01*
D12*
X129430000Y-101650000D02*
G75*
G02*
X129370000Y-101650000I-30000J0D01*
G01*
X129370000Y-101650000D02*
G75*
G02*
X129430000Y-101650000I30000J0D01*
G01*
%TO.C,CN6*%
D11*
X159250000Y-103625000D02*
X159250000Y-103625000D01*
X159250000Y-103625000D02*
X160250000Y-103625000D01*
X159250000Y-104875000D02*
X159250000Y-103625000D01*
X159300000Y-97425000D02*
X159300000Y-98675000D01*
X159300000Y-97425000D02*
X161970000Y-97425000D01*
X159300000Y-98675000D02*
X159300000Y-98675000D01*
X159300000Y-98675000D02*
X160300000Y-98675000D01*
X159300000Y-103675000D02*
X159300000Y-103675000D01*
X159300000Y-103675000D02*
X160300000Y-103675000D01*
X159300000Y-104925000D02*
X159300000Y-103675000D01*
X159300000Y-104925000D02*
X161980000Y-104925000D01*
X160300000Y-104925000D02*
X160300000Y-103285000D01*
X160360000Y-99075000D02*
X160360000Y-97435000D01*
X164630000Y-97425000D02*
X165300000Y-97425000D01*
X164640000Y-104925000D02*
X165300000Y-104925000D01*
X165300000Y-97425000D02*
X165300000Y-104925000D01*
D19*
X158890000Y-103725000D02*
G75*
G02*
X158490000Y-103725000I-200000J0D01*
G01*
X158490000Y-103725000D02*
G75*
G02*
X158890000Y-103725000I200000J0D01*
G01*
D12*
X158830000Y-104925000D02*
G75*
G02*
X158770000Y-104925000I-30000J0D01*
G01*
X158770000Y-104925000D02*
G75*
G02*
X158830000Y-104925000I30000J0D01*
G01*
%TO.C,C35*%
D11*
X136360000Y-66340000D02*
X136360000Y-65540000D01*
X137470000Y-65230000D02*
X136670000Y-65230000D01*
X137470000Y-66650000D02*
X136670000Y-66650000D01*
X138030000Y-65230000D02*
X138830000Y-65230000D01*
X138030000Y-66650000D02*
X138830000Y-66650000D01*
X139140000Y-65540000D02*
X139140000Y-66340000D01*
X136360000Y-65540000D02*
G75*
G02*
X136670000Y-65230000I310000J0D01*
G01*
X136670000Y-66650000D02*
G75*
G02*
X136360000Y-66340000I0J310000D01*
G01*
X138830000Y-65230000D02*
G75*
G02*
X139140000Y-65540000I0J-310000D01*
G01*
X139140000Y-66340000D02*
G75*
G02*
X138830000Y-66650000I-310000J0D01*
G01*
D12*
X136980000Y-66340000D02*
G75*
G02*
X136920000Y-66340000I-30000J0D01*
G01*
X136920000Y-66340000D02*
G75*
G02*
X136980000Y-66340000I30000J0D01*
G01*
%TO.C,R7*%
D13*
X134080000Y-110535000D02*
X134080000Y-111815000D01*
X134080000Y-114055000D02*
X134080000Y-112775000D01*
X135920000Y-110535000D02*
X134080000Y-110535000D01*
X135920000Y-111815000D02*
X135920000Y-110535000D01*
X135920000Y-112775000D02*
X135920000Y-114055000D01*
X135920000Y-114055000D02*
X134080000Y-114055000D01*
D12*
X135670000Y-113295000D02*
G75*
G02*
X135610000Y-113295000I-30000J0D01*
G01*
X135610000Y-113295000D02*
G75*
G02*
X135670000Y-113295000I30000J0D01*
G01*
%TO.C,U4*%
D16*
X131715000Y-99040000D02*
X132625000Y-99040000D01*
X131715000Y-100360000D02*
X131715000Y-99040000D01*
X132625000Y-99040000D02*
X132625000Y-100360000D01*
X132625000Y-100360000D02*
X131715000Y-100360000D01*
D20*
X131625000Y-99210000D02*
G75*
G02*
X131545000Y-99210000I-40000J0D01*
G01*
X131545000Y-99210000D02*
G75*
G02*
X131625000Y-99210000I40000J0D01*
G01*
D12*
X131805000Y-99100000D02*
G75*
G02*
X131745000Y-99100000I-30000J0D01*
G01*
X131745000Y-99100000D02*
G75*
G02*
X131805000Y-99100000I30000J0D01*
G01*
%TO.C,SW2*%
D11*
X127600000Y-70685000D02*
X127600000Y-71765000D01*
X128420000Y-72775000D02*
X131180000Y-72775000D01*
X129290000Y-70205000D02*
X130310000Y-70205000D01*
X129290000Y-72245000D02*
X130310000Y-72245000D01*
X131170000Y-69705000D02*
X128430000Y-69705000D01*
X132000000Y-70685000D02*
X132000000Y-71765000D01*
X129290000Y-72245000D02*
G75*
G02*
X129290000Y-70205000I0J1020000D01*
G01*
X130310000Y-70205000D02*
G75*
G02*
X130310000Y-72245000I0J-1020000D01*
G01*
D12*
X127280000Y-69625000D02*
G75*
G02*
X127220000Y-69625000I-30000J0D01*
G01*
X127220000Y-69625000D02*
G75*
G02*
X127280000Y-69625000I30000J0D01*
G01*
%TO.C,C7*%
D11*
X158110000Y-117225000D02*
X158110000Y-116425000D01*
X159220000Y-116115000D02*
X158420000Y-116115000D01*
X159220000Y-117535000D02*
X158420000Y-117535000D01*
X159780000Y-116115000D02*
X160580000Y-116115000D01*
X159780000Y-117535000D02*
X160580000Y-117535000D01*
X160890000Y-116425000D02*
X160890000Y-117225000D01*
X158110000Y-116425000D02*
G75*
G02*
X158420000Y-116115000I310000J0D01*
G01*
X158420000Y-117535000D02*
G75*
G02*
X158110000Y-117225000I0J310000D01*
G01*
X160580000Y-116115000D02*
G75*
G02*
X160890000Y-116425000I0J-310000D01*
G01*
X160890000Y-117225000D02*
G75*
G02*
X160580000Y-117535000I-310000J0D01*
G01*
D12*
X158730000Y-117225000D02*
G75*
G02*
X158670000Y-117225000I-30000J0D01*
G01*
X158670000Y-117225000D02*
G75*
G02*
X158730000Y-117225000I30000J0D01*
G01*
%TO.C,C17*%
D11*
X144315000Y-97770000D02*
X144315000Y-96970000D01*
X144315000Y-98330000D02*
X144315000Y-99130000D01*
X144625000Y-96660000D02*
X145425000Y-96660000D01*
X145425000Y-99440000D02*
X144625000Y-99440000D01*
X145735000Y-97770000D02*
X145735000Y-96970000D01*
X145735000Y-98330000D02*
X145735000Y-99130000D01*
X144315000Y-96970000D02*
G75*
G02*
X144625000Y-96660000I310000J0D01*
G01*
X144625000Y-99440000D02*
G75*
G02*
X144315000Y-99130000I0J310000D01*
G01*
X145425000Y-96660000D02*
G75*
G02*
X145735000Y-96970000I0J-310000D01*
G01*
X145735000Y-99130000D02*
G75*
G02*
X145425000Y-99440000I-310000J0D01*
G01*
D12*
X145455000Y-98850000D02*
G75*
G02*
X145395000Y-98850000I-30000J0D01*
G01*
X145395000Y-98850000D02*
G75*
G02*
X145455000Y-98850000I30000J0D01*
G01*
%TO.C,C10*%
D11*
X157440000Y-121045000D02*
X157440000Y-120245000D01*
X157440000Y-121605000D02*
X157440000Y-122405000D01*
X157750000Y-119935000D02*
X158550000Y-119935000D01*
X158550000Y-122715000D02*
X157750000Y-122715000D01*
X158860000Y-121045000D02*
X158860000Y-120245000D01*
X158860000Y-121605000D02*
X158860000Y-122405000D01*
X157440000Y-120245000D02*
G75*
G02*
X157750000Y-119935000I310000J0D01*
G01*
X157750000Y-122715000D02*
G75*
G02*
X157440000Y-122405000I0J310000D01*
G01*
X158550000Y-119935000D02*
G75*
G02*
X158860000Y-120245000I0J-310000D01*
G01*
X158860000Y-122405000D02*
G75*
G02*
X158550000Y-122715000I-310000J0D01*
G01*
D12*
X158580000Y-122125000D02*
G75*
G02*
X158520000Y-122125000I-30000J0D01*
G01*
X158520000Y-122125000D02*
G75*
G02*
X158580000Y-122125000I30000J0D01*
G01*
%TO.C,USB1*%
D11*
X125500000Y-111045000D02*
X125500000Y-120045000D01*
X125500000Y-111045000D02*
X127090000Y-111045000D01*
X125500000Y-120045000D02*
X127090000Y-120045000D01*
X129110000Y-111045000D02*
X131020000Y-111045000D01*
X129110000Y-120045000D02*
X131020000Y-120045000D01*
D12*
X133110000Y-111075000D02*
G75*
G02*
X133050000Y-111075000I-30000J0D01*
G01*
X133050000Y-111075000D02*
G75*
G02*
X133110000Y-111075000I30000J0D01*
G01*
%TO.C,FPC1*%
D11*
X136110000Y-62120000D02*
X136110000Y-63620000D01*
X136110000Y-63620000D02*
X136660000Y-63620000D01*
X136120000Y-58480000D02*
X136120000Y-59450000D01*
X136650000Y-64870000D02*
X136650000Y-63620000D01*
X154250000Y-64870000D02*
X136750000Y-64870000D01*
X154250000Y-64870000D02*
X154250000Y-63680000D01*
X154780000Y-58480000D02*
X136150000Y-58480000D01*
X154780000Y-59450000D02*
X154780000Y-58480000D01*
X154780000Y-62120000D02*
X154780000Y-63690000D01*
X154780000Y-63690000D02*
X154250000Y-63690000D01*
D12*
X155380000Y-64080000D02*
G75*
G02*
X155320000Y-64080000I-30000J0D01*
G01*
X155320000Y-64080000D02*
G75*
G02*
X155380000Y-64080000I30000J0D01*
G01*
D17*
%TO.C,C6*%
D13*
X133340000Y-96300000D02*
X133340000Y-97800000D01*
X133490000Y-97950000D02*
X134900000Y-97950000D01*
X134900000Y-96150000D02*
X133490000Y-96150000D01*
X135700000Y-96150000D02*
X137110000Y-96150000D01*
X137110000Y-97950000D02*
X135700000Y-97950000D01*
X137260000Y-96300000D02*
X137260000Y-97800000D01*
X133340000Y-96300000D02*
G75*
G02*
X133490000Y-96150000I150000J0D01*
G01*
X133490000Y-97950000D02*
G75*
G02*
X133340000Y-97800000I0J150000D01*
G01*
X137110000Y-96150000D02*
G75*
G02*
X137260000Y-96300000I0J-150000D01*
G01*
X137260000Y-97800000D02*
G75*
G02*
X137110000Y-97950000I-150000J0D01*
G01*
D12*
X136330000Y-96420000D02*
G75*
G02*
X136270000Y-96420000I-30000J0D01*
G01*
X136270000Y-96420000D02*
G75*
G02*
X136330000Y-96420000I30000J0D01*
G01*
%TO.C,R31*%
D13*
X152010000Y-71870000D02*
X152010000Y-72870000D01*
X152010000Y-72870000D02*
X152720000Y-72870000D01*
X152720000Y-71870000D02*
X152010000Y-71870000D01*
X153180000Y-71870000D02*
X153890000Y-71870000D01*
X153890000Y-71870000D02*
X153890000Y-72870000D01*
X153890000Y-72870000D02*
X153180000Y-72870000D01*
D12*
X153480000Y-72120000D02*
G75*
G02*
X153420000Y-72120000I-30000J0D01*
G01*
X153420000Y-72120000D02*
G75*
G02*
X153480000Y-72120000I30000J0D01*
G01*
%TO.C,CN3*%
D11*
X158780000Y-69300000D02*
X160290000Y-69300000D01*
X158780000Y-69800000D02*
X158780000Y-69300000D01*
X158780000Y-74800000D02*
X160290000Y-74800000D01*
X158780000Y-75300000D02*
X158780000Y-74800000D01*
X160290000Y-69300000D02*
X160290000Y-69800000D01*
X160290000Y-69800000D02*
X158780000Y-69800000D01*
X160290000Y-74800000D02*
X160290000Y-75300000D01*
X160290000Y-75300000D02*
X158780000Y-75300000D01*
X160350000Y-69250000D02*
X160350000Y-70970000D01*
X160350000Y-72130000D02*
X160350000Y-72470000D01*
X160350000Y-73630000D02*
X160350000Y-75350000D01*
X160350000Y-75350000D02*
X161450000Y-75350000D01*
X161450000Y-69250000D02*
X160350000Y-69250000D01*
X163820000Y-75350000D02*
X165300000Y-75350000D01*
X165300000Y-69250000D02*
X163820000Y-69250000D01*
X165300000Y-75350000D02*
X165300000Y-69250000D01*
D12*
X158610000Y-75300000D02*
G75*
G02*
X158550000Y-75300000I-30000J0D01*
G01*
X158550000Y-75300000D02*
G75*
G02*
X158610000Y-75300000I30000J0D01*
G01*
D11*
X159140000Y-74040000D02*
G75*
G02*
X158640000Y-74040000I-250000J0D01*
G01*
X158640000Y-74040000D02*
G75*
G02*
X159140000Y-74040000I250000J0D01*
G01*
%TO.C,C26*%
D13*
X162700000Y-106865000D02*
X162700000Y-108275000D01*
X162700000Y-110485000D02*
X162700000Y-109075000D01*
X164350000Y-106715000D02*
X162850000Y-106715000D01*
X164350000Y-110635000D02*
X162850000Y-110635000D01*
X164500000Y-108275000D02*
X164500000Y-106865000D01*
X164500000Y-109075000D02*
X164500000Y-110485000D01*
X162700000Y-106865000D02*
G75*
G02*
X162850000Y-106715000I150000J0D01*
G01*
X162850000Y-110635000D02*
G75*
G02*
X162700000Y-110485000I0J150000D01*
G01*
X164350000Y-106715000D02*
G75*
G02*
X164500000Y-106865000I0J-150000D01*
G01*
X164500000Y-110485000D02*
G75*
G02*
X164350000Y-110635000I-150000J0D01*
G01*
D12*
X164260000Y-109675000D02*
G75*
G02*
X164200000Y-109675000I-30000J0D01*
G01*
X164200000Y-109675000D02*
G75*
G02*
X164260000Y-109675000I30000J0D01*
G01*
%TO.C,R9*%
D13*
X129840000Y-99460000D02*
X131160000Y-99460000D01*
X129840000Y-100420000D02*
X129840000Y-99460000D01*
X129840000Y-101280000D02*
X129840000Y-102240000D01*
X129840000Y-102240000D02*
X131160000Y-102240000D01*
X131160000Y-99460000D02*
X131160000Y-100420000D01*
X131160000Y-102240000D02*
X131160000Y-101280000D01*
D12*
X130130000Y-100050000D02*
G75*
G02*
X130070000Y-100050000I-30000J0D01*
G01*
X130070000Y-100050000D02*
G75*
G02*
X130130000Y-100050000I30000J0D01*
G01*
%TO.C,C27*%
D11*
X127190000Y-105720000D02*
X127190000Y-104920000D01*
X127190000Y-106280000D02*
X127190000Y-107080000D01*
X127500000Y-104610000D02*
X128300000Y-104610000D01*
X128300000Y-107390000D02*
X127500000Y-107390000D01*
X128610000Y-105720000D02*
X128610000Y-104920000D01*
X128610000Y-106280000D02*
X128610000Y-107080000D01*
X127190000Y-104920000D02*
G75*
G02*
X127500000Y-104610000I310000J0D01*
G01*
X127500000Y-107390000D02*
G75*
G02*
X127190000Y-107080000I0J310000D01*
G01*
X128300000Y-104610000D02*
G75*
G02*
X128610000Y-104920000I0J-310000D01*
G01*
X128610000Y-107080000D02*
G75*
G02*
X128300000Y-107390000I-310000J0D01*
G01*
D12*
X128330000Y-106800000D02*
G75*
G02*
X128270000Y-106800000I-30000J0D01*
G01*
X128270000Y-106800000D02*
G75*
G02*
X128330000Y-106800000I30000J0D01*
G01*
%TO.C,C76*%
D11*
X153515000Y-76235000D02*
X153515000Y-75435000D01*
X153515000Y-76795000D02*
X153515000Y-77595000D01*
X153825000Y-75125000D02*
X154625000Y-75125000D01*
X154625000Y-77905000D02*
X153825000Y-77905000D01*
X154935000Y-76235000D02*
X154935000Y-75435000D01*
X154935000Y-76795000D02*
X154935000Y-77595000D01*
X153515000Y-75435000D02*
G75*
G02*
X153825000Y-75125000I310000J0D01*
G01*
X153825000Y-77905000D02*
G75*
G02*
X153515000Y-77595000I0J310000D01*
G01*
X154625000Y-75125000D02*
G75*
G02*
X154935000Y-75435000I0J-310000D01*
G01*
X154935000Y-77595000D02*
G75*
G02*
X154625000Y-77905000I-310000J0D01*
G01*
D12*
X153855000Y-75715000D02*
G75*
G02*
X153795000Y-75715000I-30000J0D01*
G01*
X153795000Y-75715000D02*
G75*
G02*
X153855000Y-75715000I30000J0D01*
G01*
%TO.C,C5*%
D13*
X161300000Y-117965000D02*
X161300000Y-119375000D01*
X161300000Y-121585000D02*
X161300000Y-120175000D01*
X162950000Y-117815000D02*
X161450000Y-117815000D01*
X162950000Y-121735000D02*
X161450000Y-121735000D01*
X163100000Y-119375000D02*
X163100000Y-117965000D01*
X163100000Y-120175000D02*
X163100000Y-121585000D01*
X161300000Y-117965000D02*
G75*
G02*
X161450000Y-117815000I150000J0D01*
G01*
X161450000Y-121735000D02*
G75*
G02*
X161300000Y-121585000I0J150000D01*
G01*
X162950000Y-117815000D02*
G75*
G02*
X163100000Y-117965000I0J-150000D01*
G01*
X163100000Y-121585000D02*
G75*
G02*
X162950000Y-121735000I-150000J0D01*
G01*
D12*
X162860000Y-120775000D02*
G75*
G02*
X162800000Y-120775000I-30000J0D01*
G01*
X162800000Y-120775000D02*
G75*
G02*
X162860000Y-120775000I30000J0D01*
G01*
%TO.C,CN5*%
D11*
X158790000Y-82600000D02*
X160300000Y-82600000D01*
X158790000Y-83100000D02*
X158790000Y-82600000D01*
X158790000Y-88100000D02*
X160300000Y-88100000D01*
X158790000Y-88600000D02*
X158790000Y-88100000D01*
X160300000Y-82600000D02*
X160300000Y-83100000D01*
X160300000Y-83100000D02*
X158790000Y-83100000D01*
X160300000Y-88100000D02*
X160300000Y-88600000D01*
X160300000Y-88600000D02*
X158790000Y-88600000D01*
X160360000Y-82550000D02*
X160360000Y-84270000D01*
X160360000Y-85430000D02*
X160360000Y-85770000D01*
X160360000Y-86930000D02*
X160360000Y-88650000D01*
X160360000Y-88650000D02*
X161460000Y-88650000D01*
X161460000Y-82550000D02*
X160360000Y-82550000D01*
X163830000Y-88650000D02*
X165310000Y-88650000D01*
X165310000Y-82550000D02*
X163830000Y-82550000D01*
X165310000Y-88650000D02*
X165310000Y-82550000D01*
D12*
X158620000Y-88600000D02*
G75*
G02*
X158560000Y-88600000I-30000J0D01*
G01*
X158560000Y-88600000D02*
G75*
G02*
X158620000Y-88600000I30000J0D01*
G01*
D11*
X159150000Y-87340000D02*
G75*
G02*
X158650000Y-87340000I-250000J0D01*
G01*
X158650000Y-87340000D02*
G75*
G02*
X159150000Y-87340000I250000J0D01*
G01*
%TO.C,LED4*%
X142510000Y-115900000D02*
X143780000Y-115900000D01*
X142510000Y-117300000D02*
X142510000Y-115900000D01*
X143780000Y-117300000D02*
X142510000Y-117300000D01*
X143890000Y-116600000D02*
X144100000Y-116600000D01*
X143890000Y-117000000D02*
X143890000Y-116220000D01*
X144280000Y-117300000D02*
X145380000Y-117300000D01*
X145380000Y-115900000D02*
X144280000Y-115900000D01*
X145380000Y-117300000D02*
X145680000Y-117000000D01*
X145680000Y-116200000D02*
X145380000Y-115900000D01*
X145680000Y-117000000D02*
X145680000Y-116200000D01*
D16*
X143230000Y-117000000D02*
G75*
G02*
X143130000Y-117000000I-50000J0D01*
G01*
X143130000Y-117000000D02*
G75*
G02*
X143230000Y-117000000I50000J0D01*
G01*
%TO.C,C22*%
D13*
X137500000Y-95675000D02*
X137500000Y-94265000D01*
X137500000Y-96475000D02*
X137500000Y-97885000D01*
X137650000Y-94115000D02*
X139150000Y-94115000D01*
X137650000Y-98035000D02*
X139150000Y-98035000D01*
X139300000Y-94265000D02*
X139300000Y-95675000D01*
X139300000Y-97885000D02*
X139300000Y-96475000D01*
X137500000Y-94265000D02*
G75*
G02*
X137650000Y-94115000I150000J0D01*
G01*
X137650000Y-98035000D02*
G75*
G02*
X137500000Y-97885000I0J150000D01*
G01*
X139150000Y-94115000D02*
G75*
G02*
X139300000Y-94265000I0J-150000D01*
G01*
X139300000Y-97885000D02*
G75*
G02*
X139150000Y-98035000I-150000J0D01*
G01*
D12*
X137800000Y-95075000D02*
G75*
G02*
X137740000Y-95075000I-30000J0D01*
G01*
X137740000Y-95075000D02*
G75*
G02*
X137800000Y-95075000I30000J0D01*
G01*
%TO.C,C48*%
D11*
X149740000Y-93935000D02*
X149740000Y-93135000D01*
X149740000Y-94495000D02*
X149740000Y-95295000D01*
X150050000Y-92825000D02*
X150850000Y-92825000D01*
X150850000Y-95605000D02*
X150050000Y-95605000D01*
X151160000Y-93935000D02*
X151160000Y-93135000D01*
X151160000Y-94495000D02*
X151160000Y-95295000D01*
X149740000Y-93135000D02*
G75*
G02*
X150050000Y-92825000I310000J0D01*
G01*
X150050000Y-95605000D02*
G75*
G02*
X149740000Y-95295000I0J310000D01*
G01*
X150850000Y-92825000D02*
G75*
G02*
X151160000Y-93135000I0J-310000D01*
G01*
X151160000Y-95295000D02*
G75*
G02*
X150850000Y-95605000I-310000J0D01*
G01*
D12*
X150880000Y-95015000D02*
G75*
G02*
X150820000Y-95015000I-30000J0D01*
G01*
X150820000Y-95015000D02*
G75*
G02*
X150880000Y-95015000I30000J0D01*
G01*
%TO.C,C87*%
D11*
X140160000Y-69140000D02*
X140160000Y-68340000D01*
X141270000Y-68030000D02*
X140470000Y-68030000D01*
X141270000Y-69450000D02*
X140470000Y-69450000D01*
X141830000Y-68030000D02*
X142630000Y-68030000D01*
X141830000Y-69450000D02*
X142630000Y-69450000D01*
X142940000Y-68340000D02*
X142940000Y-69140000D01*
X140160000Y-68340000D02*
G75*
G02*
X140470000Y-68030000I310000J0D01*
G01*
X140470000Y-69450000D02*
G75*
G02*
X140160000Y-69140000I0J310000D01*
G01*
X142630000Y-68030000D02*
G75*
G02*
X142940000Y-68340000I0J-310000D01*
G01*
X142940000Y-69140000D02*
G75*
G02*
X142630000Y-69450000I-310000J0D01*
G01*
D12*
X142380000Y-68340000D02*
G75*
G02*
X142320000Y-68340000I-30000J0D01*
G01*
X142320000Y-68340000D02*
G75*
G02*
X142380000Y-68340000I30000J0D01*
G01*
%TO.C,LED1*%
D13*
X154390000Y-73130000D02*
X154390000Y-71650000D01*
X155540000Y-71630000D02*
X154390000Y-71630000D01*
X155540000Y-73130000D02*
X154390000Y-73130000D01*
X155560000Y-72050000D02*
X155570000Y-72050000D01*
X155560000Y-72380000D02*
X155900000Y-72380000D01*
X155560000Y-72720000D02*
X155900000Y-72380000D01*
X155560000Y-72730000D02*
X155560000Y-72050000D01*
X155560000Y-72730000D02*
X155560000Y-72720000D01*
X155570000Y-72050000D02*
X155900000Y-72380000D01*
X155920000Y-71620000D02*
X156970000Y-71620000D01*
X155920000Y-73120000D02*
X156970000Y-73120000D01*
X157270000Y-71920000D02*
X156970000Y-71620000D01*
X157270000Y-72020000D02*
X157270000Y-71920000D01*
X157270000Y-72720000D02*
X157270000Y-72020000D01*
X157270000Y-72720000D02*
X157270000Y-72820000D01*
X157270000Y-72820000D02*
X156970000Y-73120000D01*
D12*
X156610000Y-71970000D02*
G75*
G02*
X156550000Y-71970000I-30000J0D01*
G01*
X156550000Y-71970000D02*
G75*
G02*
X156610000Y-71970000I30000J0D01*
G01*
%TO.C,U3*%
D16*
X149002500Y-102857500D02*
X148882500Y-102857500D01*
X149002500Y-103857500D02*
X148882500Y-103857500D01*
X149292500Y-102857500D02*
X149162500Y-102857500D01*
X149292500Y-103857500D02*
X149162500Y-103857500D01*
X148572500Y-102727500D02*
G75*
G02*
X148472500Y-102727500I-50000J0D01*
G01*
X148472500Y-102727500D02*
G75*
G02*
X148572500Y-102727500I50000J0D01*
G01*
D12*
X148612500Y-102857500D02*
G75*
G02*
X148552500Y-102857500I-30000J0D01*
G01*
X148552500Y-102857500D02*
G75*
G02*
X148612500Y-102857500I30000J0D01*
G01*
%TO.C,C34*%
D13*
X160650000Y-106865000D02*
X160650000Y-108275000D01*
X160650000Y-110485000D02*
X160650000Y-109075000D01*
X162300000Y-106715000D02*
X160800000Y-106715000D01*
X162300000Y-110635000D02*
X160800000Y-110635000D01*
X162450000Y-108275000D02*
X162450000Y-106865000D01*
X162450000Y-109075000D02*
X162450000Y-110485000D01*
X160650000Y-106865000D02*
G75*
G02*
X160800000Y-106715000I150000J0D01*
G01*
X160800000Y-110635000D02*
G75*
G02*
X160650000Y-110485000I0J150000D01*
G01*
X162300000Y-106715000D02*
G75*
G02*
X162450000Y-106865000I0J-150000D01*
G01*
X162450000Y-110485000D02*
G75*
G02*
X162300000Y-110635000I-150000J0D01*
G01*
D12*
X162210000Y-109675000D02*
G75*
G02*
X162150000Y-109675000I-30000J0D01*
G01*
X162150000Y-109675000D02*
G75*
G02*
X162210000Y-109675000I30000J0D01*
G01*
%TO.C,SW1*%
D11*
X154305000Y-101355000D02*
X154305000Y-104095000D01*
X154805000Y-103235000D02*
X154805000Y-102215000D01*
X155285000Y-100525000D02*
X156365000Y-100525000D01*
X155285000Y-104925000D02*
X156365000Y-104925000D01*
X156845000Y-103235000D02*
X156845000Y-102215000D01*
X157375000Y-104105000D02*
X157375000Y-101345000D01*
X154805000Y-102215000D02*
G75*
G02*
X156845000Y-102215000I1020000J0D01*
G01*
X156845000Y-103235000D02*
G75*
G02*
X154805000Y-103235000I-1020000J0D01*
G01*
D12*
X154255000Y-105275000D02*
G75*
G02*
X154195000Y-105275000I-30000J0D01*
G01*
X154195000Y-105275000D02*
G75*
G02*
X154255000Y-105275000I30000J0D01*
G01*
%TO.C,CN4*%
D11*
X158780000Y-75950000D02*
X160290000Y-75950000D01*
X158780000Y-76450000D02*
X158780000Y-75950000D01*
X158780000Y-81450000D02*
X160290000Y-81450000D01*
X158780000Y-81950000D02*
X158780000Y-81450000D01*
X160290000Y-75950000D02*
X160290000Y-76450000D01*
X160290000Y-76450000D02*
X158780000Y-76450000D01*
X160290000Y-81450000D02*
X160290000Y-81950000D01*
X160290000Y-81950000D02*
X158780000Y-81950000D01*
X160350000Y-75900000D02*
X160350000Y-77620000D01*
X160350000Y-78780000D02*
X160350000Y-79120000D01*
X160350000Y-80280000D02*
X160350000Y-82000000D01*
X160350000Y-82000000D02*
X161450000Y-82000000D01*
X161450000Y-75900000D02*
X160350000Y-75900000D01*
X163820000Y-82000000D02*
X165300000Y-82000000D01*
X165300000Y-75900000D02*
X163820000Y-75900000D01*
X165300000Y-82000000D02*
X165300000Y-75900000D01*
D12*
X158610000Y-81950000D02*
G75*
G02*
X158550000Y-81950000I-30000J0D01*
G01*
X158550000Y-81950000D02*
G75*
G02*
X158610000Y-81950000I30000J0D01*
G01*
D11*
X159140000Y-80690000D02*
G75*
G02*
X158640000Y-80690000I-250000J0D01*
G01*
X158640000Y-80690000D02*
G75*
G02*
X159140000Y-80690000I250000J0D01*
G01*
%TO.C,U13*%
D13*
X138030000Y-75230000D02*
X138030000Y-75990000D01*
X138030000Y-75990000D02*
X138670000Y-75990000D01*
X138350000Y-69690000D02*
X146350000Y-69690000D01*
X138350000Y-75360000D02*
X138670000Y-75690000D01*
X138350000Y-75690000D02*
X138350000Y-69690000D01*
X146350000Y-69690000D02*
X146350000Y-75690000D01*
X146350000Y-75690000D02*
X138350000Y-75690000D01*
D12*
X138380000Y-75690000D02*
G75*
G02*
X138320000Y-75690000I-30000J0D01*
G01*
X138320000Y-75690000D02*
G75*
G02*
X138380000Y-75690000I30000J0D01*
G01*
%TO.C,R3*%
D13*
X141140000Y-110535000D02*
X141140000Y-111495000D01*
X141140000Y-113315000D02*
X141140000Y-112355000D01*
X142460000Y-110535000D02*
X141140000Y-110535000D01*
X142460000Y-111495000D02*
X142460000Y-110535000D01*
X142460000Y-112355000D02*
X142460000Y-113315000D01*
X142460000Y-113315000D02*
X141140000Y-113315000D01*
D12*
X142230000Y-112725000D02*
G75*
G02*
X142170000Y-112725000I-30000J0D01*
G01*
X142170000Y-112725000D02*
G75*
G02*
X142230000Y-112725000I30000J0D01*
G01*
%TO.C,LED3*%
D13*
X154390000Y-71450000D02*
X154390000Y-69970000D01*
X155540000Y-69950000D02*
X154390000Y-69950000D01*
X155540000Y-71450000D02*
X154390000Y-71450000D01*
X155560000Y-70370000D02*
X155570000Y-70370000D01*
X155560000Y-70700000D02*
X155900000Y-70700000D01*
X155560000Y-71040000D02*
X155900000Y-70700000D01*
X155560000Y-71050000D02*
X155560000Y-70370000D01*
X155560000Y-71050000D02*
X155560000Y-71040000D01*
X155570000Y-70370000D02*
X155900000Y-70700000D01*
X155920000Y-69940000D02*
X156970000Y-69940000D01*
X155920000Y-71440000D02*
X156970000Y-71440000D01*
X157270000Y-70240000D02*
X156970000Y-69940000D01*
X157270000Y-70340000D02*
X157270000Y-70240000D01*
X157270000Y-71040000D02*
X157270000Y-70340000D01*
X157270000Y-71040000D02*
X157270000Y-71140000D01*
X157270000Y-71140000D02*
X156970000Y-71440000D01*
D12*
X156610000Y-70290000D02*
G75*
G02*
X156550000Y-70290000I-30000J0D01*
G01*
X156550000Y-70290000D02*
G75*
G02*
X156610000Y-70290000I30000J0D01*
G01*
%TD*%
M02*
