%TF.GenerationSoftware,KiCad,Pcbnew,10.0.2*%
%TF.CreationDate,2026-06-25T20:04:08-07:00*%
%TF.ProjectId,Aero32,4165726f-3332-42e6-9b69-6361645f7063,rev?*%
%TF.SameCoordinates,Original*%
%TF.FileFunction,Soldermask,Bot*%
%TF.FilePolarity,Negative*%
%FSLAX46Y46*%
G04 Gerber Fmt 4.6, Leading zero omitted, Abs format (unit mm)*
G04 Created by KiCad (PCBNEW 10.0.2) date 2026-06-25 20:04:08*
%MOMM*%
%LPD*%
G01*
G04 APERTURE LIST*
G04 Aperture macros list*
%AMRotRect*
0 Rectangle, with rotation*
0 The origin of the aperture is its center*
0 $1 length*
0 $2 width*
0 $3 Rotation angle, in degrees counterclockwise*
0 Add horizontal line*
21,1,$1,$2,0,0,$3*%
G04 Aperture macros list end*
%ADD10C,2.500000*%
%ADD11C,1.800000*%
%ADD12C,0.800000*%
%ADD13C,6.400000*%
%ADD14C,0.700000*%
%ADD15O,2.100000X1.000000*%
%ADD16O,1.600000X1.000000*%
%ADD17R,0.800000X0.900000*%
%ADD18R,0.566000X0.540000*%
%ADD19R,0.500000X0.540000*%
%ADD20R,0.900000X0.800000*%
%ADD21R,1.350000X1.410000*%
%ADD22O,0.600000X0.200000*%
%ADD23R,0.900000X1.700000*%
%ADD24RotRect,0.806000X0.864000X135.000000*%
%ADD25R,0.864000X0.806000*%
%ADD26R,0.540000X0.566000*%
%ADD27R,0.806000X0.864000*%
%ADD28R,1.100000X0.600000*%
%ADD29RotRect,0.800000X0.900000X135.000000*%
%ADD30R,1.500000X2.300000*%
%ADD31R,1.410000X1.350000*%
%ADD32R,5.300000X2.000000*%
G04 APERTURE END LIST*
D10*
%TO.C,CN1*%
X142900000Y-120100000D03*
X147900000Y-120100000D03*
D11*
X150900000Y-130100000D03*
X139900000Y-130100000D03*
%TD*%
D12*
%TO.C,REF\u002A\u002A*%
X133100000Y-63625000D03*
X132397056Y-65322056D03*
X132397056Y-61927944D03*
X130700000Y-66025000D03*
D13*
X130700000Y-63625000D03*
D12*
X130700000Y-61225000D03*
X129002944Y-65322056D03*
X129002944Y-61927944D03*
X128300000Y-63625000D03*
%TD*%
%TO.C,REF\u002A\u002A*%
X162600000Y-63625000D03*
X161897056Y-65322056D03*
X161897056Y-61927944D03*
X160200000Y-66025000D03*
D13*
X160200000Y-63625000D03*
D12*
X160200000Y-61225000D03*
X158502944Y-65322056D03*
X158502944Y-61927944D03*
X157800000Y-63625000D03*
%TD*%
D14*
%TO.C,USB1*%
X131780000Y-112655000D03*
X131780000Y-118435000D03*
D15*
X132280000Y-111225000D03*
X132280000Y-119865000D03*
D16*
X128100000Y-119865000D03*
X128100000Y-111225000D03*
%TD*%
D12*
%TO.C,REF\u002A\u002A*%
X157800000Y-128125000D03*
X158502944Y-126427944D03*
X158502944Y-129822056D03*
X160200000Y-125725000D03*
D13*
X160200000Y-128125000D03*
D12*
X160200000Y-130525000D03*
X161897056Y-126427944D03*
X161897056Y-129822056D03*
X162600000Y-128125000D03*
%TD*%
%TO.C,REF\u002A\u002A*%
X128300000Y-128125000D03*
X129002944Y-126427944D03*
X129002944Y-129822056D03*
X130700000Y-125725000D03*
D13*
X130700000Y-128125000D03*
D12*
X130700000Y-130525000D03*
X132397056Y-126427944D03*
X132397056Y-129822056D03*
X133100000Y-128125000D03*
%TD*%
D17*
%TO.C,C84*%
X138825000Y-91340000D03*
X140225000Y-91340000D03*
%TD*%
D18*
%TO.C,R23*%
X140435000Y-61190000D03*
X141295000Y-61190000D03*
%TD*%
D19*
%TO.C,C33*%
X134700000Y-69450000D03*
X133860000Y-69450000D03*
%TD*%
D20*
%TO.C,C78*%
X153575000Y-90340000D03*
X153575000Y-88940000D03*
%TD*%
%TO.C,C75*%
X145900000Y-79000000D03*
X145900000Y-80400000D03*
%TD*%
%TO.C,C65*%
X142000000Y-91215000D03*
X142000000Y-89815000D03*
%TD*%
D21*
%TO.C,C40*%
X126850000Y-75000000D03*
X126850000Y-73000000D03*
%TD*%
D20*
%TO.C,C69*%
X155300000Y-90340000D03*
X155300000Y-88940000D03*
%TD*%
D22*
%TO.C,U9*%
X135750000Y-72000000D03*
X135750000Y-72500000D03*
X135750000Y-73000000D03*
X135750000Y-73500000D03*
X133850000Y-73500000D03*
X133850000Y-73000000D03*
X133850000Y-72500000D03*
X133850000Y-72000000D03*
D23*
X134800000Y-72750000D03*
%TD*%
D24*
%TO.C,R34*%
X134335660Y-85450660D03*
X133275000Y-84390000D03*
%TD*%
D17*
%TO.C,C73*%
X151270000Y-89650000D03*
X149870000Y-89650000D03*
%TD*%
D25*
%TO.C,R16*%
X158250000Y-96100000D03*
X158250000Y-97600000D03*
%TD*%
D17*
%TO.C,C61*%
X144575000Y-92965000D03*
X145975000Y-92965000D03*
%TD*%
%TO.C,C46*%
X153525000Y-97470984D03*
X154925000Y-97470984D03*
%TD*%
%TO.C,C70*%
X151750000Y-85215000D03*
X150350000Y-85215000D03*
%TD*%
D20*
%TO.C,C72*%
X143300000Y-86115000D03*
X143300000Y-84715000D03*
%TD*%
D21*
%TO.C,C47*%
X157215000Y-103150000D03*
X157215000Y-101150000D03*
%TD*%
D26*
%TO.C,R21*%
X160975000Y-91500000D03*
X160975000Y-90640000D03*
%TD*%
D27*
%TO.C,R29*%
X148650000Y-81240000D03*
X150150000Y-81240000D03*
%TD*%
D17*
%TO.C,C80*%
X139925000Y-86040000D03*
X141325000Y-86040000D03*
%TD*%
D28*
%TO.C,U10*%
X155575000Y-99245984D03*
X155575000Y-100195984D03*
X155575000Y-101145984D03*
X152875000Y-101145984D03*
X152875000Y-100195984D03*
X152875000Y-99245984D03*
%TD*%
D17*
%TO.C,C71*%
X154925000Y-87165000D03*
X153525000Y-87165000D03*
%TD*%
D25*
%TO.C,R27*%
X128900000Y-94325000D03*
X128900000Y-95825000D03*
%TD*%
D29*
%TO.C,C67*%
X149664950Y-87804950D03*
X148675000Y-86815000D03*
%TD*%
D17*
%TO.C,C66*%
X147150000Y-76940000D03*
X145750000Y-76940000D03*
%TD*%
D20*
%TO.C,C91*%
X145550000Y-73590000D03*
X145550000Y-74990000D03*
%TD*%
D17*
%TO.C,C44*%
X145220000Y-86100000D03*
X146620000Y-86100000D03*
%TD*%
D25*
%TO.C,R28*%
X147850000Y-90040000D03*
X147850000Y-88540000D03*
%TD*%
D30*
%TO.C,L4*%
X132350000Y-73000000D03*
X128650000Y-73000000D03*
%TD*%
D20*
%TO.C,C36*%
X159850000Y-97550000D03*
X159850000Y-96150000D03*
%TD*%
%TO.C,C88*%
X145050000Y-91115000D03*
X145050000Y-89715000D03*
%TD*%
D17*
%TO.C,C68*%
X139925000Y-84340000D03*
X141325000Y-84340000D03*
%TD*%
%TO.C,C60*%
X151525000Y-82990000D03*
X150125000Y-82990000D03*
%TD*%
%TO.C,C45*%
X154275000Y-102745984D03*
X152875000Y-102745984D03*
%TD*%
D21*
%TO.C,C21*%
X137500000Y-76000000D03*
X137500000Y-74000000D03*
%TD*%
D25*
%TO.C,R30*%
X161700000Y-99100000D03*
X161700000Y-100600000D03*
%TD*%
D31*
%TO.C,C43*%
X130650000Y-69600000D03*
X128650000Y-69600000D03*
%TD*%
D27*
%TO.C,R19*%
X135050000Y-70800000D03*
X133550000Y-70800000D03*
%TD*%
D26*
%TO.C,R22*%
X162150000Y-73040000D03*
X162150000Y-73900000D03*
%TD*%
%TO.C,R24*%
X162175000Y-91500000D03*
X162175000Y-90640000D03*
%TD*%
%TO.C,R25*%
X160975000Y-73040000D03*
X160975000Y-73900000D03*
%TD*%
D27*
%TO.C,R20*%
X138050000Y-70800000D03*
X136550000Y-70800000D03*
%TD*%
D17*
%TO.C,C92*%
X143075000Y-87940000D03*
X144475000Y-87940000D03*
%TD*%
%TO.C,C74*%
X138825000Y-89640000D03*
X140225000Y-89640000D03*
%TD*%
%TO.C,C77*%
X146610000Y-84380000D03*
X145210000Y-84380000D03*
%TD*%
D18*
%TO.C,R26*%
X140450000Y-62390000D03*
X141310000Y-62390000D03*
%TD*%
D17*
%TO.C,C63*%
X139925000Y-87740000D03*
X141325000Y-87740000D03*
%TD*%
D32*
%TO.C,L5*%
X149125000Y-99195984D03*
X149125000Y-102795984D03*
%TD*%
D25*
%TO.C,R15*%
X156750000Y-96100000D03*
X156750000Y-97600000D03*
%TD*%
D17*
%TO.C,C62*%
X143800000Y-94690000D03*
X145200000Y-94690000D03*
%TD*%
D20*
%TO.C,C57*%
X150675000Y-92727500D03*
X150675000Y-91327500D03*
%TD*%
M02*
