%TF.GenerationSoftware,KiCad,Pcbnew,10.0.2*%
%TF.CreationDate,2026-06-25T20:04:08-07:00*%
%TF.ProjectId,Aero32,4165726f-3332-42e6-9b69-6361645f7063,rev?*%
%TF.SameCoordinates,Original*%
%TF.FileFunction,Copper,L2,Inr*%
%TF.FilePolarity,Positive*%
%FSLAX46Y46*%
G04 Gerber Fmt 4.6, Leading zero omitted, Abs format (unit mm)*
G04 Created by KiCad (PCBNEW 10.0.2) date 2026-06-25 20:04:08*
%MOMM*%
%LPD*%
G01*
G04 APERTURE LIST*
%TA.AperFunction,ComponentPad*%
%ADD10C,2.500000*%
%TD*%
%TA.AperFunction,ComponentPad*%
%ADD11C,1.800000*%
%TD*%
%TA.AperFunction,ComponentPad*%
%ADD12C,0.800000*%
%TD*%
%TA.AperFunction,ComponentPad*%
%ADD13C,6.400000*%
%TD*%
%TA.AperFunction,ComponentPad*%
%ADD14C,0.700000*%
%TD*%
%TA.AperFunction,ComponentPad*%
%ADD15O,2.100000X1.000000*%
%TD*%
%TA.AperFunction,ComponentPad*%
%ADD16O,1.600000X1.000000*%
%TD*%
%TA.AperFunction,ViaPad*%
%ADD17C,0.600000*%
%TD*%
%TA.AperFunction,ViaPad*%
%ADD18C,0.450000*%
%TD*%
%TA.AperFunction,ViaPad*%
%ADD19C,0.500000*%
%TD*%
%TA.AperFunction,Conductor*%
%ADD20C,0.254000*%
%TD*%
%TA.AperFunction,Conductor*%
%ADD21C,0.170000*%
%TD*%
G04 APERTURE END LIST*
D10*
%TO.N,GND*%
%TO.C,CN1*%
X142900000Y-120100000D03*
%TO.N,+BATT*%
X147900000Y-120100000D03*
D11*
%TO.N,GND*%
X150900000Y-130100000D03*
X139900000Y-130100000D03*
%TD*%
D12*
%TO.N,N/C*%
%TO.C,REF\u002A\u002A*%
X133100000Y-63625000D03*
X132397056Y-65322056D03*
X132397056Y-61927944D03*
X130700000Y-66025000D03*
D13*
X130700000Y-63625000D03*
D12*
X130700000Y-61225000D03*
X129002944Y-65322056D03*
X129002944Y-61927944D03*
X128300000Y-63625000D03*
%TD*%
%TO.N,N/C*%
%TO.C,REF\u002A\u002A*%
X162600000Y-63625000D03*
X161897056Y-65322056D03*
X161897056Y-61927944D03*
X160200000Y-66025000D03*
D13*
X160200000Y-63625000D03*
D12*
X160200000Y-61225000D03*
X158502944Y-65322056D03*
X158502944Y-61927944D03*
X157800000Y-63625000D03*
%TD*%
D14*
%TO.N,*%
%TO.C,USB1*%
X131780000Y-112655000D03*
X131780000Y-118435000D03*
D15*
%TO.N,GND*%
X132280000Y-111225000D03*
X132280000Y-119865000D03*
D16*
X128100000Y-119865000D03*
X128100000Y-111225000D03*
%TD*%
D12*
%TO.N,N/C*%
%TO.C,REF\u002A\u002A*%
X157800000Y-128125000D03*
X158502944Y-126427944D03*
X158502944Y-129822056D03*
X160200000Y-125725000D03*
D13*
X160200000Y-128125000D03*
D12*
X160200000Y-130525000D03*
X161897056Y-126427944D03*
X161897056Y-129822056D03*
X162600000Y-128125000D03*
%TD*%
%TO.N,N/C*%
%TO.C,REF\u002A\u002A*%
X128300000Y-128125000D03*
X129002944Y-126427944D03*
X129002944Y-129822056D03*
X130700000Y-125725000D03*
D13*
X130700000Y-128125000D03*
D12*
X130700000Y-130525000D03*
X132397056Y-126427944D03*
X132397056Y-129822056D03*
X133100000Y-128125000D03*
%TD*%
D17*
%TO.N,GND*%
X137600000Y-103735000D03*
X163600000Y-109675000D03*
D18*
X153500000Y-79015000D03*
X147850000Y-84440000D03*
X128750000Y-81090000D03*
X147425000Y-93165000D03*
X143300000Y-98750000D03*
X144350000Y-70690000D03*
D17*
X132860000Y-112345000D03*
D18*
X155350000Y-61240000D03*
X148600000Y-104250000D03*
D17*
X160100000Y-120775000D03*
D18*
X152175000Y-94915000D03*
X160400000Y-113400000D03*
X162690000Y-94950000D03*
X130850000Y-80240000D03*
X140165000Y-106245000D03*
X129000000Y-101600000D03*
X136550000Y-61240000D03*
X159550000Y-99675000D03*
X135975000Y-102175000D03*
X149450000Y-64040000D03*
X128750000Y-85565000D03*
D19*
X142250000Y-68740000D03*
D18*
X141430000Y-114300000D03*
X157840000Y-69990000D03*
X147050000Y-87640000D03*
X135550000Y-61240000D03*
X137680000Y-91800000D03*
X137475000Y-115165000D03*
X163310000Y-104625000D03*
X136525000Y-87725000D03*
X162690000Y-89550000D03*
X143625000Y-93390000D03*
X137200000Y-90500000D03*
X156700000Y-98875000D03*
D17*
X130625000Y-74775000D03*
X159500000Y-109675000D03*
X150500000Y-109625000D03*
X142450000Y-106575000D03*
D18*
X147850000Y-86040000D03*
X140250000Y-83215000D03*
X129500000Y-106750000D03*
X132500000Y-100700000D03*
X134800000Y-72750000D03*
X136300000Y-97050000D03*
D17*
X139790000Y-109710000D03*
X153620000Y-116345000D03*
D18*
X152450000Y-62715000D03*
X148925000Y-93225000D03*
X162700000Y-82900000D03*
X127550000Y-89375000D03*
X137500000Y-76000000D03*
X144175000Y-87015000D03*
X149275000Y-96525000D03*
X144730000Y-116600000D03*
X146220000Y-97790000D03*
X143850000Y-82040000D03*
D17*
X156370000Y-116345000D03*
D18*
X135550000Y-60240000D03*
X146800000Y-69500000D03*
D17*
X162200000Y-120775000D03*
D18*
X154225000Y-75815000D03*
X154350000Y-60240000D03*
X126500000Y-70125000D03*
X148650000Y-82040000D03*
X153900000Y-94915000D03*
X162690000Y-75000000D03*
X155950000Y-75790000D03*
X133500000Y-71700000D03*
X154350000Y-61240000D03*
X156285000Y-79015000D03*
X163300000Y-97725000D03*
X129525000Y-77175000D03*
X136300000Y-95025000D03*
X144925000Y-72365000D03*
X144650000Y-82840000D03*
X136550000Y-60240000D03*
X145220000Y-86100000D03*
X151850000Y-78840000D03*
X133100000Y-68450000D03*
X137050000Y-65940000D03*
X142650000Y-94275000D03*
D19*
X147325000Y-75015000D03*
D18*
X145800000Y-104100000D03*
X157420000Y-73180000D03*
X141770000Y-101200000D03*
X155450000Y-84015000D03*
X155110000Y-94530000D03*
X162690000Y-76250000D03*
X141350000Y-72690000D03*
D17*
X158150000Y-122025000D03*
D18*
X158250000Y-97600000D03*
D17*
X154800000Y-121325000D03*
D18*
X147400000Y-95815000D03*
D17*
X143250000Y-112675000D03*
D18*
X155580000Y-94210000D03*
X140400000Y-95075000D03*
X132850000Y-83240000D03*
D17*
X163450000Y-116825000D03*
D18*
X156490000Y-82290000D03*
X151850000Y-86840000D03*
X152375000Y-83290000D03*
D17*
X135000000Y-111295000D03*
D18*
X151050000Y-87640000D03*
X127900000Y-106700000D03*
X156250000Y-91215000D03*
X152450000Y-75470000D03*
X143450000Y-64040000D03*
X156050000Y-87315000D03*
X144725000Y-106475000D03*
X137020000Y-101790000D03*
X150950000Y-105550000D03*
X162690000Y-69600000D03*
X136375000Y-78890000D03*
X146625000Y-94265000D03*
X146610000Y-84380000D03*
D17*
X132860000Y-118745000D03*
X141850000Y-103675000D03*
D18*
X162690000Y-81650000D03*
D17*
X161550000Y-109675000D03*
D18*
X136050000Y-60740000D03*
X154850000Y-60740000D03*
D17*
X137505000Y-120095000D03*
D18*
X146450000Y-64040000D03*
X159850000Y-97550000D03*
X134850000Y-82240000D03*
X140200000Y-93475000D03*
D17*
X135700000Y-109175000D03*
X148450000Y-109625000D03*
D18*
X155350000Y-60240000D03*
X139490000Y-88790000D03*
X126850000Y-75000000D03*
X156300000Y-90015000D03*
X152450000Y-77190000D03*
X137900000Y-69550000D03*
X156530000Y-69000000D03*
X146250000Y-82840000D03*
X151100000Y-84440000D03*
X146700000Y-97460000D03*
X127550000Y-97775000D03*
X162700000Y-88300000D03*
D17*
X158800000Y-116825000D03*
D18*
X161700000Y-100600000D03*
D17*
X134755000Y-119895000D03*
D18*
X145450000Y-82040000D03*
%TO.N,VDDIO*%
X146250000Y-87640000D03*
X151850000Y-88440000D03*
X145025000Y-97350000D03*
X150675000Y-91240000D03*
X141310000Y-62390000D03*
X140225000Y-89640000D03*
X152975000Y-84865000D03*
X137200000Y-89100000D03*
X154725000Y-104925000D03*
X146250000Y-88440000D03*
%TO.N,+5V*%
X137300000Y-112675000D03*
X138037500Y-108837500D03*
X137700000Y-109175000D03*
X147800000Y-107625000D03*
X148450000Y-107625000D03*
X147200000Y-107625000D03*
%TO.N,/MOSI*%
X131100000Y-94325000D03*
X143500000Y-91225000D03*
%TO.N,/CS*%
X131100000Y-95825000D03*
X141060000Y-88850000D03*
%TO.N,VDDA1V8*%
X128750000Y-82490000D03*
X134850000Y-81240000D03*
X131850000Y-83265000D03*
X143675000Y-75765000D03*
X148650000Y-80440000D03*
X151050000Y-78840000D03*
X144350000Y-71690000D03*
X148650000Y-82840000D03*
X130325000Y-87190000D03*
X137225000Y-85615000D03*
X142250000Y-82040000D03*
X147700000Y-100950000D03*
X131900000Y-77165000D03*
X145210000Y-84380000D03*
X131850000Y-80265000D03*
X147325000Y-73615000D03*
X149870000Y-89650000D03*
X147325000Y-71890000D03*
X154225000Y-77215000D03*
X149900000Y-68000000D03*
%TO.N,VDDCORE*%
X153500000Y-80415000D03*
X154050000Y-84015000D03*
X141875000Y-88825000D03*
X143850000Y-81240000D03*
X140400000Y-97075000D03*
X143050000Y-83640000D03*
X146250000Y-82040000D03*
X148275000Y-83940000D03*
X149450000Y-80440000D03*
%TO.N,/LED3*%
X147850000Y-80440000D03*
X152530000Y-69000000D03*
%TO.N,/SCL1*%
X159330000Y-93000000D03*
X143850000Y-90040000D03*
%TO.N,/SDA1*%
X159330000Y-91500000D03*
X143850000Y-89240000D03*
%TO.N,VDD3V3*%
X149450000Y-91640000D03*
X150937500Y-101012500D03*
X138450000Y-67640000D03*
X126330000Y-91540000D03*
%TO.N,/LED2*%
X152520000Y-70700000D03*
X147850000Y-81240000D03*
%TO.N,+BATT*%
X152875000Y-100225000D03*
D17*
X153580000Y-117705000D03*
D18*
X156750000Y-97600000D03*
X152875000Y-101125000D03*
X152875000Y-102725000D03*
D17*
X156420000Y-117705000D03*
D18*
X152875000Y-101925000D03*
%TO.N,VBUS*%
X135110000Y-116025000D03*
X144725000Y-108475000D03*
D17*
X132860000Y-117945000D03*
X132860000Y-113145000D03*
X144750000Y-112675000D03*
X141800000Y-112725000D03*
D18*
%TO.N,VCC*%
X134300000Y-95025000D03*
X135600000Y-76300000D03*
X134300000Y-97050000D03*
X134300000Y-97550000D03*
X134170000Y-106300000D03*
X134300000Y-96550000D03*
X134170000Y-106800000D03*
X134170000Y-107300000D03*
%TO.N,VDDA1V8_AON*%
X146620000Y-86100000D03*
X151850000Y-91640000D03*
X147850000Y-82040000D03*
X147850000Y-87640000D03*
%TO.N,/OCTOSPI_CLK*%
X140650000Y-81240000D03*
X133850000Y-83240000D03*
X141350000Y-73690000D03*
%TO.N,/FLASH_CS*%
X134335660Y-85450660D03*
X139050000Y-80440000D03*
X133850000Y-82240000D03*
%TO.N,/OCTOSPI_DQS*%
X143350000Y-80040000D03*
X141790000Y-81677000D03*
%TO.N,/OCTOSPI_IO1*%
X133850000Y-81240000D03*
X140650000Y-80440000D03*
D19*
X143350000Y-73690000D03*
D18*
%TO.N,/OCTOSPI_IO0*%
X143350000Y-72690000D03*
X132850000Y-81240000D03*
X141918000Y-77622000D03*
%TO.N,/OCTOSPI_IO3*%
X143350000Y-71690000D03*
X131850000Y-81240000D03*
X139850000Y-80440000D03*
%TO.N,/OCTOSPI_IO4*%
X130850000Y-81240000D03*
X143350000Y-70690000D03*
X139850000Y-81240000D03*
%TO.N,/OCTOSPI_IO7*%
X144350000Y-74690000D03*
X140175000Y-78515000D03*
%TO.N,/OCTOSPI_IO6*%
X144350000Y-73690000D03*
X141170000Y-77000000D03*
%TO.N,/OCTOSPI_IO5*%
X140650000Y-79640000D03*
X132850000Y-80240000D03*
X144350000Y-72690000D03*
%TO.N,/V_ADC*%
X131000000Y-105250000D03*
X145050000Y-79340000D03*
%TO.N,/D-*%
X139065000Y-114385000D03*
X148709529Y-91981837D03*
%TO.N,/D+*%
X149000000Y-91200000D03*
X137910000Y-115620000D03*
%TO.N,Net-(U11B-OTG1_TXRTUNE)*%
X147850000Y-90040000D03*
%TO.N,/UART_TX2*%
X146600000Y-89700000D03*
X159340000Y-84850000D03*
%TO.N,/PWR_ON*%
X149570000Y-104350000D03*
X150650000Y-90400000D03*
X133850000Y-72500000D03*
X131500000Y-99450000D03*
%TO.N,/UART_TX1*%
X152490000Y-79900000D03*
X138539000Y-87700000D03*
X159330000Y-78200000D03*
%TO.N,/NRST*%
X134225000Y-87215000D03*
X150250000Y-86840000D03*
X132025000Y-74775000D03*
%TO.N,/BOOT0*%
X157525000Y-99075000D03*
X150625000Y-88075000D03*
%TO.N,/UART_RX1*%
X138060000Y-88060000D03*
X159330000Y-79700000D03*
%TO.N,Net-(U11B-CSI_REXT)*%
X148650000Y-81240000D03*
%TO.N,/CAM_SDA*%
X139450000Y-64040000D03*
X147050000Y-81240000D03*
%TO.N,/V_ADC2*%
X145750000Y-81500000D03*
X158250000Y-96100000D03*
X152900000Y-85600000D03*
%TO.N,/SDA2*%
X159330000Y-71550000D03*
X145025000Y-80900000D03*
%TO.N,/UART_RX2*%
X159340000Y-86350000D03*
X145025000Y-80100000D03*
%TO.N,/CAM_D1_P*%
X149050000Y-79265000D03*
X147450000Y-64040000D03*
%TO.N,/CAM_D0_P*%
X148405000Y-79395000D03*
X150450000Y-64040000D03*
%TO.N,/CAM_D1_N*%
X149205000Y-78595000D03*
X148450000Y-64040000D03*
%TO.N,/CAM_D0_N*%
X148050000Y-78290000D03*
X151450000Y-64040000D03*
%TO.N,/CAM_SCL*%
X140450000Y-64040000D03*
%TO.N,/LED1*%
X152520000Y-72370000D03*
X144800000Y-77700000D03*
%TO.N,/SCL2*%
X159330000Y-73050000D03*
X143850000Y-78840000D03*
%TO.N,+3V3*%
X159550000Y-101175000D03*
X158950000Y-101175000D03*
X160150000Y-101175000D03*
%TD*%
%TO.N,VDDIO*%
D20*
X154725000Y-104925000D02*
X148325000Y-104925000D01*
X151090000Y-62390000D02*
X155100000Y-66400000D01*
X145025000Y-101625000D02*
X145025000Y-97350000D01*
X152975000Y-84412591D02*
X152975000Y-84865000D01*
X148325000Y-104925000D02*
X145025000Y-101625000D01*
X155100000Y-66400000D02*
X155100000Y-82287591D01*
X155100000Y-82287591D02*
X152975000Y-84412591D01*
X141310000Y-62390000D02*
X151090000Y-62390000D01*
%TO.N,/CS*%
X141060000Y-88850000D02*
X141060000Y-91740000D01*
X136975000Y-95825000D02*
X131100000Y-95825000D01*
X141060000Y-91740000D02*
X136975000Y-95825000D01*
%TO.N,VDDCORE*%
X153475000Y-80440000D02*
X153500000Y-80415000D01*
%TO.N,/SCL1*%
X155312591Y-93800000D02*
X147050000Y-93800000D01*
X158530000Y-93800000D02*
X155847409Y-93800000D01*
X155847409Y-93800000D02*
X155778409Y-93731000D01*
X143850000Y-90600000D02*
X143850000Y-90040000D01*
X147050000Y-93800000D02*
X143850000Y-90600000D01*
X155381591Y-93731000D02*
X155312591Y-93800000D01*
X155778409Y-93731000D02*
X155381591Y-93731000D01*
X159330000Y-93000000D02*
X158530000Y-93800000D01*
%TO.N,/SDA1*%
X159330000Y-91500000D02*
X158190000Y-92640000D01*
X158190000Y-92640000D02*
X147250000Y-92640000D01*
X147250000Y-92640000D02*
X143850000Y-89240000D01*
%TO.N,/FLASH_CS*%
X134335660Y-82725660D02*
X134335660Y-85450660D01*
X133850000Y-82240000D02*
X134335660Y-82725660D01*
%TO.N,/OCTOSPI_IO1*%
D21*
X136900000Y-79990000D02*
X136150000Y-80740000D01*
X137353043Y-79990000D02*
X136900000Y-79990000D01*
X137919814Y-80108800D02*
X137919814Y-79871200D01*
X138216814Y-80108800D02*
X138216814Y-80416200D01*
X140650000Y-80280000D02*
X140360000Y-79990000D01*
X140360000Y-79990000D02*
X138335614Y-79990000D01*
X137444614Y-79990000D02*
X137353043Y-79990000D01*
X136150000Y-80740000D02*
X134060000Y-80740000D01*
X137504014Y-79990000D02*
X137444614Y-79990000D01*
X137919814Y-80416200D02*
X137919814Y-80108800D01*
X137919814Y-79871200D02*
X137919814Y-79563800D01*
X134060000Y-80740000D02*
X133850000Y-80950000D01*
X138098014Y-80535000D02*
X138038614Y-80535000D01*
X137801014Y-79445000D02*
X137741614Y-79445000D01*
X137622814Y-79563800D02*
X137622814Y-79871200D01*
X140650000Y-80440000D02*
X140650000Y-80280000D01*
X133850000Y-80950000D02*
X133850000Y-81240000D01*
X138335614Y-79990000D02*
G75*
G03*
X138216800Y-80108800I-14J-118800D01*
G01*
X138216814Y-80416200D02*
G75*
G02*
X138098014Y-80535014I-118814J0D01*
G01*
X137919814Y-79563800D02*
G75*
G03*
X137801014Y-79444986I-118814J0D01*
G01*
X138038614Y-80535000D02*
G75*
G02*
X137919800Y-80416200I-14J118800D01*
G01*
X137741614Y-79445000D02*
G75*
G03*
X137622800Y-79563800I-14J-118800D01*
G01*
X137622814Y-79871200D02*
G75*
G02*
X137504014Y-79990014I-118814J0D01*
G01*
%TO.N,/OCTOSPI_IO7*%
X144981800Y-75601179D02*
X145381200Y-75601179D01*
X144981800Y-76195179D02*
X145500000Y-76195179D01*
X145050000Y-78190000D02*
X145500000Y-77740000D01*
X144863000Y-75779379D02*
X144863000Y-75719979D01*
X145500000Y-75482379D02*
X145500000Y-75422979D01*
X145500000Y-75422979D02*
X145500000Y-75175558D01*
X144863000Y-76967379D02*
X144863000Y-76907979D01*
X145618800Y-77086179D02*
X145500000Y-77086179D01*
X145500000Y-75175558D02*
X145500000Y-75160000D01*
X140500000Y-78190000D02*
X145050000Y-78190000D01*
X145500000Y-76195179D02*
X146018200Y-76195179D01*
X145500000Y-76492179D02*
X144981800Y-76492179D01*
X146137000Y-76076379D02*
X146137000Y-76016979D01*
X144863000Y-76373379D02*
X144863000Y-76313979D01*
X146018200Y-76492179D02*
X145500000Y-76492179D01*
X145500000Y-76789179D02*
X146018200Y-76789179D01*
X145500000Y-75160000D02*
X145030000Y-74690000D01*
X145381200Y-75898179D02*
X144981800Y-75898179D01*
X145030000Y-74690000D02*
X144350000Y-74690000D01*
X145500000Y-75898179D02*
X145381200Y-75898179D01*
X146018200Y-77086179D02*
X145618800Y-77086179D01*
X146018200Y-75898179D02*
X145500000Y-75898179D01*
X145500000Y-77086179D02*
X144981800Y-77086179D01*
X140175000Y-78515000D02*
X140500000Y-78190000D01*
X146137000Y-77264379D02*
X146137000Y-77204979D01*
X145500000Y-77740000D02*
X145500000Y-77501979D01*
X144981800Y-76789179D02*
X145500000Y-76789179D01*
X146137000Y-76670379D02*
X146137000Y-76610979D01*
X145618800Y-77383179D02*
X146018200Y-77383179D01*
X145381200Y-75601179D02*
G75*
G03*
X145499979Y-75482379I0J118779D01*
G01*
X146018200Y-76789179D02*
G75*
G03*
X146136979Y-76670379I0J118779D01*
G01*
X144981800Y-75898179D02*
G75*
G02*
X144863021Y-75779379I0J118779D01*
G01*
X145500000Y-77501979D02*
G75*
G02*
X145618800Y-77383200I118800J-21D01*
G01*
X144981800Y-77086179D02*
G75*
G02*
X144863021Y-76967379I0J118779D01*
G01*
X144863000Y-76313979D02*
G75*
G02*
X144981800Y-76195200I118800J-21D01*
G01*
X146137000Y-77204979D02*
G75*
G03*
X146018200Y-77086200I-118800J-21D01*
G01*
X146137000Y-76016979D02*
G75*
G03*
X146018200Y-75898200I-118800J-21D01*
G01*
X144863000Y-76907979D02*
G75*
G02*
X144981800Y-76789200I118800J-21D01*
G01*
X146137000Y-76610979D02*
G75*
G03*
X146018200Y-76492200I-118800J-21D01*
G01*
X144863000Y-75719979D02*
G75*
G02*
X144981800Y-75601200I118800J-21D01*
G01*
X146018200Y-76195179D02*
G75*
G03*
X146136979Y-76076379I0J118779D01*
G01*
X144981800Y-76492179D02*
G75*
G02*
X144863021Y-76373379I0J118779D01*
G01*
X146018200Y-77383179D02*
G75*
G03*
X146136979Y-77264379I0J118779D01*
G01*
%TO.N,/OCTOSPI_IO6*%
X143685649Y-74204351D02*
X144200000Y-73690000D01*
X141768829Y-75240116D02*
X141810831Y-75198114D01*
X141579328Y-76478680D02*
X141851846Y-76751199D01*
X143259401Y-74798608D02*
X143531920Y-75071127D01*
X141705333Y-76184666D02*
X141705334Y-76184666D01*
X141789338Y-76268671D02*
X141705333Y-76184666D01*
X143741930Y-74861117D02*
X143469411Y-74588599D01*
X142019855Y-76751199D02*
X142061857Y-76709197D01*
X141180000Y-76990000D02*
X141180000Y-76710000D01*
X142061857Y-76541189D02*
X141789338Y-76268671D01*
X142439874Y-76331181D02*
X142481876Y-76289179D01*
X142755379Y-75134621D02*
X143111902Y-75491145D01*
X142545370Y-75344630D02*
X142188845Y-74988108D01*
X142335361Y-75554639D02*
X142691884Y-75911163D01*
X141348811Y-75660134D02*
X141390813Y-75618132D01*
X143321912Y-75281135D02*
X142965388Y-74924612D01*
X142481876Y-76121171D02*
X142125352Y-75764648D01*
X143279910Y-75491145D02*
X143321912Y-75449143D01*
X142398857Y-74778096D02*
X142755379Y-75134621D01*
X142965388Y-74924612D02*
X142608863Y-74568090D01*
X143175397Y-74714603D02*
X143259401Y-74798608D01*
X141978839Y-75198114D02*
X142335361Y-75554639D01*
X141705334Y-76184666D02*
X141348809Y-75828144D01*
X143511414Y-74378586D02*
X143685649Y-74204351D01*
X143469411Y-74420590D02*
X143511414Y-74378586D01*
X142818875Y-74358078D02*
X143175397Y-74714603D01*
X141170000Y-77000000D02*
X141180000Y-76990000D01*
X142188847Y-74820098D02*
X142230849Y-74778096D01*
X142125352Y-75764648D02*
X141768827Y-75408126D01*
X142901894Y-75701153D02*
X142545370Y-75344630D01*
X144200000Y-73690000D02*
X144350000Y-73690000D01*
X143699928Y-75071127D02*
X143741930Y-75029125D01*
X141180000Y-76710000D02*
X141411320Y-76478680D01*
X142608865Y-74400080D02*
X142650867Y-74358078D01*
X141558821Y-75618132D02*
X141915343Y-75974657D01*
X141915343Y-75974657D02*
X142271866Y-76331181D01*
X142859892Y-75911163D02*
X142901894Y-75869161D01*
X142061857Y-76709197D02*
G75*
G03*
X142061850Y-76541196I-83957J83997D01*
G01*
X142230849Y-74778096D02*
G75*
G02*
X142398857Y-74778096I84004J-84003D01*
G01*
X142188845Y-74988108D02*
G75*
G02*
X142188843Y-74820094I84055J84008D01*
G01*
X142650867Y-74358078D02*
G75*
G02*
X142818875Y-74358078I84004J-84003D01*
G01*
X141348809Y-75828144D02*
G75*
G02*
X141348771Y-75660094I83991J84044D01*
G01*
X143469411Y-74588599D02*
G75*
G02*
X143469416Y-74420596I83989J83999D01*
G01*
X141768827Y-75408126D02*
G75*
G02*
X141768807Y-75240094I83973J84026D01*
G01*
X141411320Y-76478680D02*
G75*
G02*
X141579328Y-76478680I84004J-84003D01*
G01*
X142481876Y-76289179D02*
G75*
G03*
X142481851Y-76121196I-83976J83979D01*
G01*
X142901894Y-75869161D02*
G75*
G03*
X142901851Y-75701196I-83994J83961D01*
G01*
X142691884Y-75911163D02*
G75*
G03*
X142859892Y-75911163I84004J84003D01*
G01*
X143321912Y-75449143D02*
G75*
G03*
X143321951Y-75281096I-84012J84043D01*
G01*
X141851846Y-76751199D02*
G75*
G03*
X142019856Y-76751200I84005J84004D01*
G01*
X143741930Y-75029125D02*
G75*
G03*
X143741951Y-74861096I-84030J84025D01*
G01*
X142608863Y-74568090D02*
G75*
G02*
X142608879Y-74400094I84037J83990D01*
G01*
X143111902Y-75491145D02*
G75*
G03*
X143279910Y-75491145I84004J84003D01*
G01*
X141390813Y-75618132D02*
G75*
G02*
X141558821Y-75618132I84004J-84003D01*
G01*
X141810831Y-75198114D02*
G75*
G02*
X141978839Y-75198114I84004J-84003D01*
G01*
X143531920Y-75071127D02*
G75*
G03*
X143699928Y-75071127I84004J84003D01*
G01*
X142271866Y-76331181D02*
G75*
G03*
X142439874Y-76331181I84004J84003D01*
G01*
%TO.N,/PWR_ON*%
D20*
X133850000Y-74125000D02*
X129600000Y-78375000D01*
X133850000Y-72500000D02*
X133850000Y-74125000D01*
X129600000Y-97550000D02*
X131500000Y-99450000D01*
X129600000Y-78375000D02*
X129600000Y-97550000D01*
%TO.N,/UART_TX1*%
X143280000Y-79400000D02*
X144130000Y-79400000D01*
X137910000Y-84770000D02*
X143280000Y-79400000D01*
X144130000Y-79400000D02*
X144669000Y-78861000D01*
X138539000Y-87700000D02*
X138500000Y-87700000D01*
X146171000Y-78861000D02*
X147210000Y-79900000D01*
X144669000Y-78861000D02*
X146171000Y-78861000D01*
X138500000Y-87700000D02*
X137910000Y-87110000D01*
X137910000Y-87110000D02*
X137910000Y-84770000D01*
X152490000Y-79900000D02*
X152530000Y-79900000D01*
X147210000Y-79900000D02*
X152490000Y-79900000D01*
%TO.N,/UART_RX1*%
X144880000Y-89040000D02*
X158410000Y-89040000D01*
X160500000Y-80840000D02*
X159360000Y-79700000D01*
X159360000Y-79700000D02*
X159330000Y-79700000D01*
X158410000Y-89040000D02*
X160500000Y-86950000D01*
X144151000Y-88311000D02*
X144880000Y-89040000D01*
X138311000Y-88311000D02*
X144151000Y-88311000D01*
X138060000Y-88060000D02*
X138311000Y-88311000D01*
X160500000Y-86950000D02*
X160500000Y-80840000D01*
%TO.N,/UART_RX2*%
X148473409Y-83461000D02*
X148754000Y-83741591D01*
X145025000Y-80100000D02*
X145100000Y-80100000D01*
X148461000Y-83461000D02*
X148473409Y-83461000D01*
X148754000Y-83741591D02*
X148754000Y-83754000D01*
X145100000Y-80100000D02*
X148461000Y-83461000D01*
X151350000Y-86350000D02*
X159340000Y-86350000D01*
X148754000Y-83754000D02*
X151350000Y-86350000D01*
%TO.N,/CAM_D0_P*%
X147425000Y-78415000D02*
X147425000Y-77215000D01*
X148405000Y-79395000D02*
X147425000Y-78415000D01*
X150650000Y-64240000D02*
X150450000Y-64040000D01*
X150650000Y-73990000D02*
X150650000Y-64240000D01*
X147425000Y-77215000D02*
X150650000Y-73990000D01*
%TO.N,/CAM_D0_N*%
X148050000Y-77440000D02*
X151275000Y-74215000D01*
X148050000Y-78290000D02*
X148050000Y-77440000D01*
X151275000Y-64215000D02*
X151450000Y-64040000D01*
X151275000Y-74215000D02*
X151275000Y-64215000D01*
%TD*%
%TA.AperFunction,Conductor*%
%TO.N,GND*%
G36*
X137326454Y-80595185D02*
G01*
X137372209Y-80647989D01*
X137373976Y-80652047D01*
X137414469Y-80749808D01*
X137414471Y-80749811D01*
X137414472Y-80749813D01*
X137491549Y-80865165D01*
X137491551Y-80865167D01*
X137491554Y-80865171D01*
X137589642Y-80963259D01*
X137589645Y-80963261D01*
X137589649Y-80963265D01*
X137705001Y-81040342D01*
X137705004Y-81040343D01*
X137705007Y-81040345D01*
X137833169Y-81093431D01*
X137833174Y-81093433D01*
X137935318Y-81113750D01*
X137943222Y-81115594D01*
X137961528Y-81120500D01*
X137961531Y-81120500D01*
X138175098Y-81120500D01*
X138179028Y-81119446D01*
X138193416Y-81115590D01*
X138201254Y-81113761D01*
X138303454Y-81093433D01*
X138431627Y-81040342D01*
X138468229Y-81015884D01*
X138534902Y-80995007D01*
X138602283Y-81013490D01*
X138605997Y-81015877D01*
X138706347Y-81082929D01*
X138838380Y-81137619D01*
X138838384Y-81137619D01*
X138838385Y-81137620D01*
X138978542Y-81165500D01*
X139000500Y-81165500D01*
X139067539Y-81185185D01*
X139113294Y-81237989D01*
X139124500Y-81289500D01*
X139124500Y-81311455D01*
X139124500Y-81311457D01*
X139124499Y-81311457D01*
X139152379Y-81451614D01*
X139152381Y-81451620D01*
X139207069Y-81583650D01*
X139207074Y-81583659D01*
X139286467Y-81702478D01*
X139286470Y-81702482D01*
X139387517Y-81803529D01*
X139387521Y-81803532D01*
X139506340Y-81882925D01*
X139506353Y-81882932D01*
X139620073Y-81930036D01*
X139674477Y-81973877D01*
X139696542Y-82040171D01*
X139679263Y-82107870D01*
X139660302Y-82132278D01*
X138577678Y-83214903D01*
X137509992Y-84282589D01*
X137484039Y-84308542D01*
X137422587Y-84369993D01*
X137353920Y-84472760D01*
X137353915Y-84472770D01*
X137344176Y-84496283D01*
X137306615Y-84586962D01*
X137306612Y-84586972D01*
X137294604Y-84647342D01*
X137294603Y-84647351D01*
X137293404Y-84653380D01*
X137282500Y-84708197D01*
X137282500Y-84771526D01*
X137281915Y-84777529D01*
X137271027Y-84804572D01*
X137262815Y-84832539D01*
X137258134Y-84836594D01*
X137255820Y-84842343D01*
X137232038Y-84859207D01*
X137210011Y-84878294D01*
X137202959Y-84879828D01*
X137198826Y-84882759D01*
X137187004Y-84883298D01*
X137158500Y-84889500D01*
X137153543Y-84889500D01*
X137013385Y-84917379D01*
X137013379Y-84917381D01*
X136881349Y-84972069D01*
X136881340Y-84972074D01*
X136762521Y-85051467D01*
X136762517Y-85051470D01*
X136661470Y-85152517D01*
X136661467Y-85152521D01*
X136582074Y-85271340D01*
X136582069Y-85271349D01*
X136527381Y-85403379D01*
X136527379Y-85403385D01*
X136499500Y-85543542D01*
X136499500Y-85543545D01*
X136499500Y-85686455D01*
X136499500Y-85686457D01*
X136499499Y-85686457D01*
X136527379Y-85826614D01*
X136527381Y-85826620D01*
X136582069Y-85958650D01*
X136582074Y-85958659D01*
X136661467Y-86077478D01*
X136661470Y-86077482D01*
X136762517Y-86178529D01*
X136762521Y-86178532D01*
X136881340Y-86257925D01*
X136881346Y-86257928D01*
X136881347Y-86257929D01*
X137013380Y-86312619D01*
X137013384Y-86312619D01*
X137013385Y-86312620D01*
X137153542Y-86340500D01*
X137153545Y-86340500D01*
X137158500Y-86340500D01*
X137225539Y-86360185D01*
X137271294Y-86412989D01*
X137282500Y-86464500D01*
X137282500Y-87171807D01*
X137306612Y-87293028D01*
X137306613Y-87293032D01*
X137306614Y-87293035D01*
X137322458Y-87331284D01*
X137353917Y-87407233D01*
X137408138Y-87488380D01*
X137411262Y-87493056D01*
X137411264Y-87493059D01*
X137422586Y-87510005D01*
X137429970Y-87517389D01*
X137463455Y-87578712D01*
X137458471Y-87648404D01*
X137445392Y-87673960D01*
X137417073Y-87716342D01*
X137417069Y-87716349D01*
X137362381Y-87848379D01*
X137362379Y-87848385D01*
X137334500Y-87988542D01*
X137334500Y-88131459D01*
X137353367Y-88226309D01*
X137347140Y-88295900D01*
X137304277Y-88351078D01*
X137238387Y-88374322D01*
X137231750Y-88374500D01*
X137128543Y-88374500D01*
X136988385Y-88402379D01*
X136988379Y-88402381D01*
X136856349Y-88457069D01*
X136856340Y-88457074D01*
X136737521Y-88536467D01*
X136737517Y-88536470D01*
X136636470Y-88637517D01*
X136636467Y-88637521D01*
X136557074Y-88756340D01*
X136557069Y-88756349D01*
X136502381Y-88888379D01*
X136502379Y-88888385D01*
X136474500Y-89028542D01*
X136474500Y-89028545D01*
X136474500Y-89171455D01*
X136474500Y-89171457D01*
X136474499Y-89171457D01*
X136502379Y-89311614D01*
X136502381Y-89311620D01*
X136557069Y-89443650D01*
X136557074Y-89443659D01*
X136636467Y-89562478D01*
X136636470Y-89562482D01*
X136737517Y-89663529D01*
X136737521Y-89663532D01*
X136856340Y-89742925D01*
X136856346Y-89742928D01*
X136856347Y-89742929D01*
X136988380Y-89797619D01*
X136988384Y-89797619D01*
X136988385Y-89797620D01*
X137128542Y-89825500D01*
X137128545Y-89825500D01*
X137271457Y-89825500D01*
X137365751Y-89806742D01*
X137411620Y-89797619D01*
X137543653Y-89742929D01*
X137662479Y-89663532D01*
X137763532Y-89562479D01*
X137842929Y-89443653D01*
X137897619Y-89311620D01*
X137906742Y-89265751D01*
X137925500Y-89171457D01*
X137925500Y-89028554D01*
X137925500Y-89028545D01*
X137925498Y-89028536D01*
X137925445Y-89027997D01*
X137925500Y-89027706D01*
X137925500Y-89022453D01*
X137926496Y-89022453D01*
X137938457Y-88959349D01*
X137986517Y-88908634D01*
X138054366Y-88891953D01*
X138096302Y-88901270D01*
X138127966Y-88914386D01*
X138249192Y-88938499D01*
X138249196Y-88938500D01*
X138249197Y-88938500D01*
X138372804Y-88938500D01*
X139601126Y-88938500D01*
X139668165Y-88958185D01*
X139713920Y-89010989D01*
X139723864Y-89080147D01*
X139694839Y-89143703D01*
X139688807Y-89150181D01*
X139661470Y-89177517D01*
X139661468Y-89177520D01*
X139582074Y-89296340D01*
X139582069Y-89296349D01*
X139527381Y-89428379D01*
X139527379Y-89428385D01*
X139499500Y-89568542D01*
X139499500Y-89568545D01*
X139499500Y-89711455D01*
X139499500Y-89711457D01*
X139499499Y-89711457D01*
X139527379Y-89851614D01*
X139527381Y-89851620D01*
X139582069Y-89983650D01*
X139582074Y-89983659D01*
X139661467Y-90102478D01*
X139661470Y-90102482D01*
X139762517Y-90203529D01*
X139762521Y-90203532D01*
X139881340Y-90282925D01*
X139881346Y-90282928D01*
X139881347Y-90282929D01*
X140013380Y-90337619D01*
X140013384Y-90337619D01*
X140013385Y-90337620D01*
X140153542Y-90365500D01*
X140302547Y-90365500D01*
X140302547Y-90366688D01*
X140364979Y-90378522D01*
X140415695Y-90426582D01*
X140432500Y-90488913D01*
X140432500Y-91428719D01*
X140412815Y-91495758D01*
X140396181Y-91516400D01*
X136751400Y-95161181D01*
X136690077Y-95194666D01*
X136663719Y-95197500D01*
X135149500Y-95197500D01*
X135082461Y-95177815D01*
X135036706Y-95125011D01*
X135025500Y-95073500D01*
X135025500Y-94953542D01*
X134997620Y-94813385D01*
X134997619Y-94813384D01*
X134997619Y-94813380D01*
X134942929Y-94681347D01*
X134942928Y-94681346D01*
X134942925Y-94681340D01*
X134863532Y-94562521D01*
X134863529Y-94562517D01*
X134762482Y-94461470D01*
X134762478Y-94461467D01*
X134643659Y-94382074D01*
X134643650Y-94382069D01*
X134511620Y-94327381D01*
X134511614Y-94327379D01*
X134371457Y-94299500D01*
X134371455Y-94299500D01*
X134228545Y-94299500D01*
X134228543Y-94299500D01*
X134088385Y-94327379D01*
X134088379Y-94327381D01*
X133956349Y-94382069D01*
X133956340Y-94382074D01*
X133837521Y-94461467D01*
X133837517Y-94461470D01*
X133736470Y-94562517D01*
X133736467Y-94562521D01*
X133657074Y-94681340D01*
X133657069Y-94681349D01*
X133602381Y-94813379D01*
X133602379Y-94813385D01*
X133574500Y-94953542D01*
X133574500Y-95073500D01*
X133554815Y-95140539D01*
X133502011Y-95186294D01*
X133450500Y-95197500D01*
X131508850Y-95197500D01*
X131441811Y-95177815D01*
X131396056Y-95125011D01*
X131386112Y-95055853D01*
X131415137Y-94992297D01*
X131439959Y-94970398D01*
X131504669Y-94927159D01*
X131562479Y-94888532D01*
X131663532Y-94787479D01*
X131742929Y-94668653D01*
X131797619Y-94536620D01*
X131824121Y-94403387D01*
X131825500Y-94396457D01*
X131825500Y-94253542D01*
X131797620Y-94113385D01*
X131797619Y-94113384D01*
X131797619Y-94113380D01*
X131742929Y-93981347D01*
X131742928Y-93981346D01*
X131742925Y-93981340D01*
X131663532Y-93862521D01*
X131663529Y-93862517D01*
X131562482Y-93761470D01*
X131562478Y-93761467D01*
X131443659Y-93682074D01*
X131443650Y-93682069D01*
X131311620Y-93627381D01*
X131311614Y-93627379D01*
X131171457Y-93599500D01*
X131171455Y-93599500D01*
X131028545Y-93599500D01*
X131028543Y-93599500D01*
X130888385Y-93627379D01*
X130888379Y-93627381D01*
X130756349Y-93682069D01*
X130756340Y-93682074D01*
X130637521Y-93761467D01*
X130637517Y-93761470D01*
X130536470Y-93862517D01*
X130536467Y-93862521D01*
X130454602Y-93985041D01*
X130400990Y-94029846D01*
X130331665Y-94038553D01*
X130268637Y-94008398D01*
X130231918Y-93948955D01*
X130227500Y-93916150D01*
X130227500Y-88039500D01*
X130247185Y-87972461D01*
X130299989Y-87926706D01*
X130351500Y-87915500D01*
X130396457Y-87915500D01*
X130490751Y-87896742D01*
X130536620Y-87887619D01*
X130668653Y-87832929D01*
X130787479Y-87753532D01*
X130888532Y-87652479D01*
X130967929Y-87533653D01*
X131022619Y-87401620D01*
X131042340Y-87302478D01*
X131045527Y-87286457D01*
X133499499Y-87286457D01*
X133527379Y-87426614D01*
X133527381Y-87426620D01*
X133582069Y-87558650D01*
X133582074Y-87558659D01*
X133661467Y-87677478D01*
X133661470Y-87677482D01*
X133762517Y-87778529D01*
X133762521Y-87778532D01*
X133881340Y-87857925D01*
X133881346Y-87857928D01*
X133881347Y-87857929D01*
X134013380Y-87912619D01*
X134013384Y-87912619D01*
X134013385Y-87912620D01*
X134153542Y-87940500D01*
X134153545Y-87940500D01*
X134296457Y-87940500D01*
X134422136Y-87915500D01*
X134436620Y-87912619D01*
X134568653Y-87857929D01*
X134687479Y-87778532D01*
X134788532Y-87677479D01*
X134867929Y-87558653D01*
X134922619Y-87426620D01*
X134941583Y-87331284D01*
X134950500Y-87286457D01*
X134950500Y-87143542D01*
X134922620Y-87003385D01*
X134922619Y-87003384D01*
X134922619Y-87003380D01*
X134867929Y-86871347D01*
X134867928Y-86871346D01*
X134867925Y-86871340D01*
X134788532Y-86752521D01*
X134788529Y-86752517D01*
X134687482Y-86651470D01*
X134687478Y-86651467D01*
X134568659Y-86572074D01*
X134568650Y-86572069D01*
X134436620Y-86517381D01*
X134436614Y-86517379D01*
X134296457Y-86489500D01*
X134296455Y-86489500D01*
X134153545Y-86489500D01*
X134153543Y-86489500D01*
X134013385Y-86517379D01*
X134013379Y-86517381D01*
X133881349Y-86572069D01*
X133881340Y-86572074D01*
X133762521Y-86651467D01*
X133762517Y-86651470D01*
X133661470Y-86752517D01*
X133661467Y-86752521D01*
X133582074Y-86871340D01*
X133582069Y-86871349D01*
X133527381Y-87003379D01*
X133527379Y-87003385D01*
X133499500Y-87143542D01*
X133499500Y-87143545D01*
X133499500Y-87286455D01*
X133499500Y-87286457D01*
X133499499Y-87286457D01*
X131045527Y-87286457D01*
X131050500Y-87261457D01*
X131050500Y-87118542D01*
X131022620Y-86978385D01*
X131022619Y-86978384D01*
X131022619Y-86978380D01*
X130967929Y-86846347D01*
X130967928Y-86846346D01*
X130967925Y-86846340D01*
X130888532Y-86727521D01*
X130888529Y-86727517D01*
X130787482Y-86626470D01*
X130787478Y-86626467D01*
X130668659Y-86547074D01*
X130668650Y-86547069D01*
X130536620Y-86492381D01*
X130536614Y-86492379D01*
X130396457Y-86464500D01*
X130396455Y-86464500D01*
X130351500Y-86464500D01*
X130284461Y-86444815D01*
X130238706Y-86392011D01*
X130227500Y-86340500D01*
X130227500Y-83336457D01*
X131124499Y-83336457D01*
X131152379Y-83476614D01*
X131152381Y-83476620D01*
X131207069Y-83608650D01*
X131207074Y-83608659D01*
X131286467Y-83727478D01*
X131286470Y-83727482D01*
X131387517Y-83828529D01*
X131387521Y-83828532D01*
X131506340Y-83907925D01*
X131506346Y-83907928D01*
X131506347Y-83907929D01*
X131638380Y-83962619D01*
X131638384Y-83962619D01*
X131638385Y-83962620D01*
X131778542Y-83990500D01*
X131778545Y-83990500D01*
X131921457Y-83990500D01*
X132015751Y-83971742D01*
X132061620Y-83962619D01*
X132193653Y-83907929D01*
X132312479Y-83828532D01*
X132413532Y-83727479D01*
X132492929Y-83608653D01*
X132547619Y-83476620D01*
X132565127Y-83388604D01*
X132575500Y-83336457D01*
X132575500Y-83193542D01*
X132547620Y-83053385D01*
X132547619Y-83053384D01*
X132547619Y-83053380D01*
X132492929Y-82921347D01*
X132492928Y-82921346D01*
X132492925Y-82921340D01*
X132413532Y-82802521D01*
X132413529Y-82802517D01*
X132312482Y-82701470D01*
X132312478Y-82701467D01*
X132193659Y-82622074D01*
X132193650Y-82622069D01*
X132061620Y-82567381D01*
X132061614Y-82567379D01*
X131921457Y-82539500D01*
X131921455Y-82539500D01*
X131778545Y-82539500D01*
X131778543Y-82539500D01*
X131638385Y-82567379D01*
X131638379Y-82567381D01*
X131506349Y-82622069D01*
X131506340Y-82622074D01*
X131387521Y-82701467D01*
X131387517Y-82701470D01*
X131286470Y-82802517D01*
X131286467Y-82802521D01*
X131207074Y-82921340D01*
X131207069Y-82921349D01*
X131152381Y-83053379D01*
X131152379Y-83053385D01*
X131124500Y-83193542D01*
X131124500Y-83193545D01*
X131124500Y-83336455D01*
X131124500Y-83336457D01*
X131124499Y-83336457D01*
X130227500Y-83336457D01*
X130227500Y-81928597D01*
X130247185Y-81861558D01*
X130299989Y-81815803D01*
X130369147Y-81805859D01*
X130420390Y-81825494D01*
X130506347Y-81882929D01*
X130638380Y-81937619D01*
X130638384Y-81937619D01*
X130638385Y-81937620D01*
X130778542Y-81965500D01*
X130778545Y-81965500D01*
X130921457Y-81965500D01*
X131015751Y-81946742D01*
X131061620Y-81937619D01*
X131193653Y-81882929D01*
X131247314Y-81847074D01*
X131281109Y-81824493D01*
X131347786Y-81803615D01*
X131415167Y-81822099D01*
X131418891Y-81824493D01*
X131506340Y-81882925D01*
X131506346Y-81882928D01*
X131506347Y-81882929D01*
X131638380Y-81937619D01*
X131638384Y-81937619D01*
X131638385Y-81937620D01*
X131778542Y-81965500D01*
X131778545Y-81965500D01*
X131921457Y-81965500D01*
X132015751Y-81946742D01*
X132061620Y-81937619D01*
X132193653Y-81882929D01*
X132247314Y-81847074D01*
X132281109Y-81824493D01*
X132347786Y-81803615D01*
X132415167Y-81822099D01*
X132418891Y-81824493D01*
X132506340Y-81882925D01*
X132506346Y-81882928D01*
X132506347Y-81882929D01*
X132638380Y-81937619D01*
X132638384Y-81937619D01*
X132638385Y-81937620D01*
X132778542Y-81965500D01*
X132778545Y-81965500D01*
X132921456Y-81965500D01*
X132992902Y-81951288D01*
X133062493Y-81957515D01*
X133117671Y-82000377D01*
X133140916Y-82066267D01*
X133138711Y-82097096D01*
X133124500Y-82168540D01*
X133124500Y-82168545D01*
X133124500Y-82311455D01*
X133124500Y-82311457D01*
X133124499Y-82311457D01*
X133152379Y-82451614D01*
X133152381Y-82451620D01*
X133207069Y-82583650D01*
X133207073Y-82583657D01*
X133265507Y-82671110D01*
X133286384Y-82737787D01*
X133267899Y-82805167D01*
X133265507Y-82808890D01*
X133207073Y-82896342D01*
X133207069Y-82896349D01*
X133152381Y-83028379D01*
X133152379Y-83028385D01*
X133124500Y-83168542D01*
X133124500Y-83311453D01*
X133124499Y-83311457D01*
X133152379Y-83451614D01*
X133152381Y-83451620D01*
X133207069Y-83583650D01*
X133207074Y-83583659D01*
X133286467Y-83702478D01*
X133286470Y-83702482D01*
X133387517Y-83803529D01*
X133387521Y-83803532D01*
X133506340Y-83882925D01*
X133506353Y-83882932D01*
X133564430Y-83906988D01*
X133631613Y-83934816D01*
X133686016Y-83978655D01*
X133708081Y-84044949D01*
X133708160Y-84049376D01*
X133708160Y-85047081D01*
X133694606Y-85101191D01*
X133695062Y-85101380D01*
X133693791Y-85104447D01*
X133693520Y-85105531D01*
X133692731Y-85107006D01*
X133638041Y-85239039D01*
X133638039Y-85239045D01*
X133610160Y-85379202D01*
X133610160Y-85379205D01*
X133610160Y-85522115D01*
X133610160Y-85522117D01*
X133610159Y-85522117D01*
X133638039Y-85662274D01*
X133638041Y-85662280D01*
X133692729Y-85794310D01*
X133692734Y-85794319D01*
X133772127Y-85913138D01*
X133772130Y-85913142D01*
X133873177Y-86014189D01*
X133873181Y-86014192D01*
X133992000Y-86093585D01*
X133992006Y-86093588D01*
X133992007Y-86093589D01*
X134124040Y-86148279D01*
X134124044Y-86148279D01*
X134124045Y-86148280D01*
X134264202Y-86176160D01*
X134264205Y-86176160D01*
X134407117Y-86176160D01*
X134501411Y-86157402D01*
X134547280Y-86148279D01*
X134679313Y-86093589D01*
X134798139Y-86014192D01*
X134899192Y-85913139D01*
X134978589Y-85794313D01*
X135033279Y-85662280D01*
X135056087Y-85547619D01*
X135061160Y-85522117D01*
X135061160Y-85379202D01*
X135033280Y-85239045D01*
X135033279Y-85239044D01*
X135033279Y-85239040D01*
X134978589Y-85107007D01*
X134978586Y-85107003D01*
X134977800Y-85105531D01*
X134977528Y-85104447D01*
X134976258Y-85101380D01*
X134976713Y-85101191D01*
X134963160Y-85047081D01*
X134963160Y-82663856D01*
X134963159Y-82663855D01*
X134952192Y-82608716D01*
X134939046Y-82542625D01*
X134892300Y-82429774D01*
X134891967Y-82428761D01*
X134823074Y-82325656D01*
X134823073Y-82325654D01*
X134781154Y-82283735D01*
X134735668Y-82238249D01*
X134673488Y-82176069D01*
X134640003Y-82114746D01*
X134644987Y-82045054D01*
X134686859Y-81989121D01*
X134752323Y-81964704D01*
X134773330Y-81964986D01*
X134778544Y-81965499D01*
X134778545Y-81965500D01*
X134778546Y-81965500D01*
X134921457Y-81965500D01*
X135015751Y-81946742D01*
X135061620Y-81937619D01*
X135193653Y-81882929D01*
X135312479Y-81803532D01*
X135413532Y-81702479D01*
X135492929Y-81583653D01*
X135547619Y-81451620D01*
X135552853Y-81425309D01*
X135585237Y-81363398D01*
X135645953Y-81328824D01*
X135674470Y-81325500D01*
X136227082Y-81325500D01*
X136227083Y-81325500D01*
X136350015Y-81292559D01*
X136375995Y-81285599D01*
X136509505Y-81208517D01*
X137106203Y-80611819D01*
X137133130Y-80597115D01*
X137158949Y-80580523D01*
X137165149Y-80579631D01*
X137167526Y-80578334D01*
X137193884Y-80575500D01*
X137259415Y-80575500D01*
X137326454Y-80595185D01*
G37*
%TD.AperFunction*%
%TA.AperFunction,Conductor*%
G36*
X142992920Y-80677010D02*
G01*
X143002552Y-80681357D01*
X143006346Y-80682928D01*
X143006347Y-80682929D01*
X143138380Y-80737619D01*
X143138381Y-80737619D01*
X143138569Y-80737697D01*
X143192972Y-80781538D01*
X143215037Y-80847832D01*
X143205677Y-80899710D01*
X143152382Y-81028375D01*
X143152379Y-81028385D01*
X143124500Y-81168542D01*
X143124500Y-81168545D01*
X143124500Y-81311455D01*
X143124500Y-81311457D01*
X143124499Y-81311457D01*
X143152379Y-81451614D01*
X143152381Y-81451620D01*
X143207069Y-81583650D01*
X143207074Y-81583659D01*
X143286467Y-81702478D01*
X143286470Y-81702482D01*
X143387517Y-81803529D01*
X143387521Y-81803532D01*
X143506340Y-81882925D01*
X143506346Y-81882928D01*
X143506347Y-81882929D01*
X143638380Y-81937619D01*
X143638384Y-81937619D01*
X143638385Y-81937620D01*
X143778542Y-81965500D01*
X143778545Y-81965500D01*
X143921457Y-81965500D01*
X144015751Y-81946742D01*
X144061620Y-81937619D01*
X144193653Y-81882929D01*
X144312479Y-81803532D01*
X144413532Y-81702479D01*
X144492929Y-81583653D01*
X144492933Y-81583642D01*
X144494053Y-81581549D01*
X144494936Y-81580649D01*
X144496314Y-81578588D01*
X144496704Y-81578849D01*
X144543011Y-81531700D01*
X144611147Y-81516233D01*
X144672308Y-81536890D01*
X144681340Y-81542925D01*
X144681346Y-81542928D01*
X144681347Y-81542929D01*
X144813380Y-81597619D01*
X144813384Y-81597619D01*
X144813385Y-81597620D01*
X144958032Y-81626393D01*
X145019943Y-81658778D01*
X145049068Y-81706398D01*
X145050050Y-81705992D01*
X145107069Y-81843650D01*
X145107074Y-81843659D01*
X145186467Y-81962478D01*
X145186470Y-81962482D01*
X145287517Y-82063529D01*
X145287521Y-82063532D01*
X145406340Y-82142925D01*
X145406344Y-82142927D01*
X145406347Y-82142929D01*
X145414582Y-82146340D01*
X145481474Y-82174048D01*
X145535877Y-82217889D01*
X145549575Y-82246188D01*
X145550050Y-82245992D01*
X145607069Y-82383650D01*
X145607074Y-82383659D01*
X145686467Y-82502478D01*
X145686470Y-82502482D01*
X145787517Y-82603529D01*
X145787521Y-82603532D01*
X145906340Y-82682925D01*
X145906349Y-82682930D01*
X145936258Y-82695318D01*
X146038380Y-82737619D01*
X146038384Y-82737619D01*
X146038385Y-82737620D01*
X146178542Y-82765500D01*
X146178545Y-82765500D01*
X146321457Y-82765500D01*
X146415751Y-82746742D01*
X146461620Y-82737619D01*
X146593653Y-82682929D01*
X146630042Y-82658614D01*
X146696717Y-82637735D01*
X146764098Y-82656218D01*
X146786615Y-82674034D01*
X147595995Y-83483414D01*
X147629480Y-83544737D01*
X147624496Y-83614429D01*
X147622875Y-83618548D01*
X147577381Y-83728379D01*
X147577379Y-83728385D01*
X147549500Y-83868542D01*
X147549500Y-83868545D01*
X147549500Y-84011455D01*
X147549500Y-84011457D01*
X147549499Y-84011457D01*
X147577379Y-84151614D01*
X147577381Y-84151620D01*
X147632069Y-84283650D01*
X147632074Y-84283659D01*
X147711467Y-84402478D01*
X147711470Y-84402482D01*
X147812517Y-84503529D01*
X147812521Y-84503532D01*
X147931340Y-84582925D01*
X147931349Y-84582930D01*
X147952314Y-84591614D01*
X148063380Y-84637619D01*
X148063384Y-84637619D01*
X148063385Y-84637620D01*
X148203542Y-84665500D01*
X148203545Y-84665500D01*
X148346457Y-84665500D01*
X148440751Y-84646742D01*
X148486620Y-84637619D01*
X148596452Y-84592125D01*
X148665922Y-84584656D01*
X148728401Y-84615931D01*
X148731586Y-84619005D01*
X150060302Y-85947721D01*
X150093787Y-86009044D01*
X150088803Y-86078736D01*
X150046931Y-86134669D01*
X150020074Y-86149963D01*
X149906350Y-86197069D01*
X149906340Y-86197074D01*
X149787521Y-86276467D01*
X149787517Y-86276470D01*
X149686470Y-86377517D01*
X149686467Y-86377521D01*
X149607074Y-86496340D01*
X149607069Y-86496349D01*
X149552381Y-86628379D01*
X149552379Y-86628385D01*
X149524500Y-86768542D01*
X149524500Y-86768545D01*
X149524500Y-86911455D01*
X149524500Y-86911457D01*
X149524499Y-86911457D01*
X149552379Y-87051614D01*
X149552381Y-87051620D01*
X149607069Y-87183650D01*
X149607074Y-87183659D01*
X149686467Y-87302478D01*
X149686470Y-87302482D01*
X149787517Y-87403529D01*
X149787521Y-87403532D01*
X149906340Y-87482925D01*
X149906353Y-87482932D01*
X149956067Y-87503524D01*
X150010471Y-87547365D01*
X150032536Y-87613659D01*
X150015257Y-87681358D01*
X150011718Y-87686974D01*
X149982076Y-87731337D01*
X149982069Y-87731349D01*
X149927381Y-87863379D01*
X149927379Y-87863385D01*
X149899500Y-88003542D01*
X149899500Y-88146459D01*
X149922942Y-88264309D01*
X149916715Y-88333900D01*
X149873852Y-88389078D01*
X149807962Y-88412322D01*
X149801325Y-88412500D01*
X148402874Y-88412500D01*
X148335835Y-88392815D01*
X148290080Y-88340011D01*
X148280136Y-88270853D01*
X148309161Y-88207297D01*
X148315193Y-88200819D01*
X148413529Y-88102482D01*
X148413532Y-88102479D01*
X148492929Y-87983653D01*
X148547619Y-87851620D01*
X148567131Y-87753529D01*
X148575500Y-87711457D01*
X148575500Y-87568542D01*
X148547620Y-87428385D01*
X148547619Y-87428384D01*
X148547619Y-87428380D01*
X148492929Y-87296347D01*
X148492928Y-87296346D01*
X148492925Y-87296340D01*
X148413532Y-87177521D01*
X148413529Y-87177517D01*
X148312482Y-87076470D01*
X148312478Y-87076467D01*
X148193659Y-86997074D01*
X148193650Y-86997069D01*
X148061620Y-86942381D01*
X148061614Y-86942379D01*
X147921457Y-86914500D01*
X147921455Y-86914500D01*
X147778545Y-86914500D01*
X147778543Y-86914500D01*
X147638385Y-86942379D01*
X147638379Y-86942381D01*
X147506349Y-86997069D01*
X147506340Y-86997074D01*
X147387521Y-87076467D01*
X147387517Y-87076470D01*
X147286470Y-87177517D01*
X147286467Y-87177521D01*
X147207074Y-87296340D01*
X147207069Y-87296349D01*
X147164561Y-87398975D01*
X147120720Y-87453378D01*
X147054426Y-87475443D01*
X146986727Y-87458164D01*
X146939116Y-87407027D01*
X146935439Y-87398975D01*
X146892930Y-87296349D01*
X146892925Y-87296340D01*
X146813532Y-87177521D01*
X146813529Y-87177517D01*
X146712482Y-87076470D01*
X146712478Y-87076467D01*
X146667130Y-87046166D01*
X146622325Y-86992553D01*
X146613618Y-86923228D01*
X146643773Y-86860201D01*
X146703216Y-86823482D01*
X146711830Y-86821447D01*
X146831620Y-86797619D01*
X146963653Y-86742929D01*
X147082479Y-86663532D01*
X147183532Y-86562479D01*
X147262929Y-86443653D01*
X147317619Y-86311620D01*
X147340405Y-86197069D01*
X147345500Y-86171457D01*
X147345500Y-86028542D01*
X147317620Y-85888385D01*
X147317619Y-85888384D01*
X147317619Y-85888380D01*
X147262929Y-85756347D01*
X147262928Y-85756346D01*
X147262925Y-85756340D01*
X147183532Y-85637521D01*
X147183529Y-85637517D01*
X147082482Y-85536470D01*
X147082478Y-85536467D01*
X146963659Y-85457074D01*
X146963650Y-85457069D01*
X146831620Y-85402381D01*
X146831614Y-85402379D01*
X146691457Y-85374500D01*
X146691455Y-85374500D01*
X146548545Y-85374500D01*
X146548543Y-85374500D01*
X146408385Y-85402379D01*
X146408379Y-85402381D01*
X146276349Y-85457069D01*
X146276340Y-85457074D01*
X146157521Y-85536467D01*
X146157517Y-85536470D01*
X146056470Y-85637517D01*
X146056467Y-85637521D01*
X145977074Y-85756340D01*
X145977069Y-85756349D01*
X145922381Y-85888379D01*
X145922379Y-85888385D01*
X145894500Y-86028542D01*
X145894500Y-86028545D01*
X145894500Y-86171455D01*
X145894500Y-86171457D01*
X145894499Y-86171457D01*
X145922379Y-86311614D01*
X145922381Y-86311620D01*
X145977069Y-86443650D01*
X145977074Y-86443659D01*
X146056467Y-86562478D01*
X146056470Y-86562482D01*
X146157517Y-86663529D01*
X146157521Y-86663532D01*
X146202869Y-86693833D01*
X146247674Y-86747445D01*
X146256381Y-86816770D01*
X146226227Y-86879798D01*
X146166783Y-86916517D01*
X146158170Y-86918552D01*
X146038385Y-86942379D01*
X146038379Y-86942381D01*
X145906349Y-86997069D01*
X145906340Y-86997074D01*
X145787521Y-87076467D01*
X145787517Y-87076470D01*
X145686470Y-87177517D01*
X145686467Y-87177521D01*
X145607074Y-87296340D01*
X145607069Y-87296349D01*
X145552381Y-87428379D01*
X145552379Y-87428385D01*
X145524500Y-87568542D01*
X145524500Y-87568545D01*
X145524500Y-87711455D01*
X145524500Y-87711457D01*
X145524499Y-87711457D01*
X145552379Y-87851614D01*
X145552381Y-87851620D01*
X145609402Y-87989281D01*
X145607705Y-87989983D01*
X145620184Y-88049971D01*
X145608347Y-88090282D01*
X145609402Y-88090719D01*
X145552381Y-88228379D01*
X145552379Y-88228387D01*
X145535610Y-88312691D01*
X145520899Y-88340814D01*
X145507706Y-88369703D01*
X145504816Y-88371560D01*
X145503225Y-88374602D01*
X145475642Y-88390308D01*
X145448928Y-88407477D01*
X145444333Y-88408137D01*
X145442510Y-88409176D01*
X145413993Y-88412500D01*
X145191281Y-88412500D01*
X145124242Y-88392815D01*
X145103600Y-88376181D01*
X144551011Y-87823591D01*
X144551010Y-87823590D01*
X144514904Y-87799465D01*
X144514903Y-87799464D01*
X144511321Y-87797071D01*
X144448233Y-87754917D01*
X144414784Y-87741062D01*
X144407516Y-87738051D01*
X144407510Y-87738048D01*
X144334035Y-87707614D01*
X144334027Y-87707612D01*
X144212807Y-87683500D01*
X144212803Y-87683500D01*
X139377195Y-87683500D01*
X139310156Y-87663815D01*
X139264401Y-87611011D01*
X139255578Y-87583691D01*
X139236620Y-87488383D01*
X139236619Y-87488381D01*
X139236619Y-87488380D01*
X139181929Y-87356347D01*
X139181928Y-87356346D01*
X139181925Y-87356340D01*
X139102532Y-87237521D01*
X139102529Y-87237517D01*
X139001482Y-87136470D01*
X139001478Y-87136467D01*
X138882659Y-87057074D01*
X138882650Y-87057069D01*
X138750618Y-87002380D01*
X138750616Y-87002379D01*
X138711587Y-86994616D01*
X138694830Y-86985850D01*
X138676353Y-86981831D01*
X138651312Y-86963085D01*
X138649677Y-86962230D01*
X138648099Y-86960680D01*
X138573819Y-86886400D01*
X138540334Y-86825077D01*
X138537500Y-86798719D01*
X138537500Y-85081281D01*
X138557185Y-85014242D01*
X138573819Y-84993600D01*
X139115962Y-84451457D01*
X144484499Y-84451457D01*
X144512379Y-84591614D01*
X144512381Y-84591620D01*
X144567069Y-84723650D01*
X144567074Y-84723659D01*
X144646467Y-84842478D01*
X144646470Y-84842482D01*
X144747517Y-84943529D01*
X144747521Y-84943532D01*
X144866340Y-85022925D01*
X144866346Y-85022928D01*
X144866347Y-85022929D01*
X144998380Y-85077619D01*
X144998384Y-85077619D01*
X144998385Y-85077620D01*
X145138542Y-85105500D01*
X145138545Y-85105500D01*
X145281457Y-85105500D01*
X145403210Y-85081281D01*
X145421620Y-85077619D01*
X145553653Y-85022929D01*
X145672479Y-84943532D01*
X145773532Y-84842479D01*
X145852929Y-84723653D01*
X145907619Y-84591620D01*
X145930323Y-84477482D01*
X145935500Y-84451457D01*
X145935500Y-84308542D01*
X145907620Y-84168385D01*
X145907619Y-84168384D01*
X145907619Y-84168380D01*
X145852929Y-84036347D01*
X145852928Y-84036346D01*
X145852925Y-84036340D01*
X145773532Y-83917521D01*
X145773529Y-83917517D01*
X145672482Y-83816470D01*
X145672478Y-83816467D01*
X145553659Y-83737074D01*
X145553650Y-83737069D01*
X145421620Y-83682381D01*
X145421614Y-83682379D01*
X145281457Y-83654500D01*
X145281455Y-83654500D01*
X145138545Y-83654500D01*
X145138543Y-83654500D01*
X144998385Y-83682379D01*
X144998379Y-83682381D01*
X144866349Y-83737069D01*
X144866340Y-83737074D01*
X144747521Y-83816467D01*
X144747517Y-83816470D01*
X144646470Y-83917517D01*
X144646467Y-83917521D01*
X144567074Y-84036340D01*
X144567069Y-84036349D01*
X144512381Y-84168379D01*
X144512379Y-84168385D01*
X144484500Y-84308542D01*
X144484500Y-84308545D01*
X144484500Y-84451455D01*
X144484500Y-84451457D01*
X144484499Y-84451457D01*
X139115962Y-84451457D01*
X139284830Y-84282589D01*
X139855962Y-83711457D01*
X142324499Y-83711457D01*
X142352379Y-83851614D01*
X142352381Y-83851620D01*
X142407069Y-83983650D01*
X142407074Y-83983659D01*
X142486467Y-84102478D01*
X142486470Y-84102482D01*
X142587517Y-84203529D01*
X142587521Y-84203532D01*
X142706340Y-84282925D01*
X142706349Y-84282930D01*
X142736258Y-84295318D01*
X142838380Y-84337619D01*
X142838384Y-84337619D01*
X142838385Y-84337620D01*
X142978542Y-84365500D01*
X142978545Y-84365500D01*
X143121457Y-84365500D01*
X143224629Y-84344977D01*
X143261620Y-84337619D01*
X143393653Y-84282929D01*
X143512479Y-84203532D01*
X143613532Y-84102479D01*
X143692929Y-83983653D01*
X143747619Y-83851620D01*
X143770405Y-83737069D01*
X143775500Y-83711457D01*
X143775500Y-83568542D01*
X143747620Y-83428385D01*
X143747619Y-83428384D01*
X143747619Y-83428380D01*
X143692929Y-83296347D01*
X143692928Y-83296346D01*
X143692925Y-83296340D01*
X143613532Y-83177521D01*
X143613529Y-83177517D01*
X143512482Y-83076470D01*
X143512478Y-83076467D01*
X143393659Y-82997074D01*
X143393650Y-82997069D01*
X143261620Y-82942381D01*
X143261614Y-82942379D01*
X143121457Y-82914500D01*
X143121455Y-82914500D01*
X142978545Y-82914500D01*
X142978543Y-82914500D01*
X142838385Y-82942379D01*
X142838379Y-82942381D01*
X142706349Y-82997069D01*
X142706340Y-82997074D01*
X142587521Y-83076467D01*
X142587517Y-83076470D01*
X142486470Y-83177517D01*
X142486467Y-83177521D01*
X142407074Y-83296340D01*
X142407069Y-83296349D01*
X142352381Y-83428379D01*
X142352379Y-83428385D01*
X142324500Y-83568542D01*
X142324500Y-83568545D01*
X142324500Y-83711455D01*
X142324500Y-83711457D01*
X142324499Y-83711457D01*
X139855962Y-83711457D01*
X141255184Y-82312234D01*
X141316505Y-82278751D01*
X141386197Y-82283735D01*
X141396136Y-82287944D01*
X141404269Y-82291813D01*
X141446347Y-82319929D01*
X141577892Y-82374417D01*
X141580772Y-82375787D01*
X141604529Y-82397034D01*
X141629355Y-82417040D01*
X141630601Y-82418869D01*
X141686467Y-82502478D01*
X141686470Y-82502482D01*
X141787517Y-82603529D01*
X141787521Y-82603532D01*
X141906340Y-82682925D01*
X141906349Y-82682930D01*
X141936258Y-82695318D01*
X142038380Y-82737619D01*
X142038384Y-82737619D01*
X142038385Y-82737620D01*
X142178542Y-82765500D01*
X142178545Y-82765500D01*
X142321457Y-82765500D01*
X142415751Y-82746742D01*
X142461620Y-82737619D01*
X142593653Y-82682929D01*
X142712479Y-82603532D01*
X142813532Y-82502479D01*
X142892929Y-82383653D01*
X142947619Y-82251620D01*
X142968559Y-82146349D01*
X142975500Y-82111457D01*
X142975500Y-81968542D01*
X142947620Y-81828385D01*
X142947619Y-81828384D01*
X142947619Y-81828380D01*
X142892929Y-81696347D01*
X142892928Y-81696346D01*
X142892925Y-81696340D01*
X142813532Y-81577521D01*
X142813529Y-81577517D01*
X142712482Y-81476470D01*
X142712478Y-81476467D01*
X142593659Y-81397074D01*
X142593649Y-81397069D01*
X142465783Y-81344105D01*
X142411380Y-81300264D01*
X142389315Y-81233970D01*
X142406594Y-81166270D01*
X142425551Y-81141866D01*
X142861908Y-80705509D01*
X142923229Y-80672026D01*
X142992920Y-80677010D01*
G37*
%TD.AperFunction*%
%TA.AperFunction,Conductor*%
G36*
X147113273Y-87821835D02*
G01*
X147160884Y-87872972D01*
X147164561Y-87881025D01*
X147207067Y-87983646D01*
X147207074Y-87983659D01*
X147286467Y-88102478D01*
X147286470Y-88102482D01*
X147384807Y-88200819D01*
X147395419Y-88220255D01*
X147409920Y-88236989D01*
X147411836Y-88250320D01*
X147418292Y-88262142D01*
X147416712Y-88284228D01*
X147419864Y-88306147D01*
X147414268Y-88318398D01*
X147413308Y-88331834D01*
X147400037Y-88349560D01*
X147390839Y-88369703D01*
X147379507Y-88376985D01*
X147371436Y-88387767D01*
X147350690Y-88395504D01*
X147332061Y-88407477D01*
X147310142Y-88410628D01*
X147305972Y-88412184D01*
X147297126Y-88412500D01*
X147086007Y-88412500D01*
X147018968Y-88392815D01*
X146973213Y-88340011D01*
X146964390Y-88312691D01*
X146956220Y-88271620D01*
X146947619Y-88228380D01*
X146892929Y-88096347D01*
X146892928Y-88096346D01*
X146892621Y-88095604D01*
X146892529Y-88095505D01*
X146892489Y-88095285D01*
X146890598Y-88090719D01*
X146891591Y-88090307D01*
X146886606Y-88062682D01*
X146879812Y-88030059D01*
X146880374Y-88028142D01*
X146880123Y-88026746D01*
X146882396Y-88021257D01*
X146891656Y-87989720D01*
X146890598Y-87989282D01*
X146935439Y-87881025D01*
X146979280Y-87826621D01*
X147045574Y-87804556D01*
X147113273Y-87821835D01*
G37*
%TD.AperFunction*%
%TA.AperFunction,Conductor*%
G36*
X151111821Y-86932156D02*
G01*
X151115758Y-86932367D01*
X151121960Y-86934744D01*
X151165497Y-86952777D01*
X151166965Y-86953385D01*
X151166969Y-86953385D01*
X151166970Y-86953386D01*
X151288193Y-86977500D01*
X151288196Y-86977500D01*
X151288197Y-86977500D01*
X158936421Y-86977500D01*
X158990529Y-86991054D01*
X158990719Y-86990598D01*
X158993798Y-86991873D01*
X158994878Y-86992144D01*
X158996343Y-86992926D01*
X158996347Y-86992929D01*
X159128380Y-87047619D01*
X159128384Y-87047619D01*
X159128385Y-87047620D01*
X159223293Y-87066499D01*
X159285204Y-87098884D01*
X159319778Y-87159600D01*
X159316038Y-87229369D01*
X159286782Y-87275797D01*
X158186400Y-88376181D01*
X158125077Y-88409666D01*
X158098719Y-88412500D01*
X152686007Y-88412500D01*
X152618968Y-88392815D01*
X152573213Y-88340011D01*
X152564390Y-88312691D01*
X152556220Y-88271620D01*
X152547619Y-88228380D01*
X152492929Y-88096347D01*
X152492928Y-88096346D01*
X152492925Y-88096340D01*
X152413532Y-87977521D01*
X152413529Y-87977517D01*
X152312482Y-87876470D01*
X152312478Y-87876467D01*
X152193655Y-87797072D01*
X152193650Y-87797069D01*
X152061620Y-87742381D01*
X152061614Y-87742379D01*
X151921457Y-87714500D01*
X151921455Y-87714500D01*
X151778545Y-87714500D01*
X151778543Y-87714500D01*
X151638385Y-87742379D01*
X151638379Y-87742381D01*
X151506349Y-87797069D01*
X151506345Y-87797072D01*
X151466563Y-87823653D01*
X151399885Y-87844530D01*
X151332505Y-87826045D01*
X151285816Y-87774066D01*
X151283119Y-87768020D01*
X151267929Y-87731347D01*
X151267925Y-87731340D01*
X151188532Y-87612521D01*
X151188529Y-87612517D01*
X151087482Y-87511470D01*
X151087478Y-87511467D01*
X150968659Y-87432074D01*
X150968649Y-87432069D01*
X150918931Y-87411475D01*
X150864528Y-87367634D01*
X150842463Y-87301339D01*
X150859743Y-87233640D01*
X150863272Y-87228037D01*
X150892929Y-87183653D01*
X150947619Y-87051620D01*
X150952891Y-87025114D01*
X150962655Y-87006446D01*
X150967866Y-86986032D01*
X150978523Y-86976109D01*
X150985273Y-86963205D01*
X151003582Y-86952777D01*
X151019003Y-86938421D01*
X151033333Y-86935835D01*
X151045988Y-86928629D01*
X151067026Y-86929756D01*
X151087762Y-86926015D01*
X151111821Y-86932156D01*
G37*
%TD.AperFunction*%
%TA.AperFunction,Conductor*%
G36*
X152180064Y-64397079D02*
G01*
X152187563Y-64397027D01*
X152211149Y-64411951D01*
X152236328Y-64423998D01*
X152241147Y-64428566D01*
X154436181Y-66623600D01*
X154469666Y-66684923D01*
X154472500Y-66711281D01*
X154472500Y-76373422D01*
X154452815Y-76440461D01*
X154400011Y-76486216D01*
X154330853Y-76496160D01*
X154324312Y-76495040D01*
X154296457Y-76489500D01*
X154296455Y-76489500D01*
X154153545Y-76489500D01*
X154153543Y-76489500D01*
X154013385Y-76517379D01*
X154013379Y-76517381D01*
X153881349Y-76572069D01*
X153881340Y-76572074D01*
X153762521Y-76651467D01*
X153762517Y-76651470D01*
X153661470Y-76752517D01*
X153661467Y-76752521D01*
X153582074Y-76871340D01*
X153582069Y-76871349D01*
X153527381Y-77003379D01*
X153527379Y-77003385D01*
X153499500Y-77143542D01*
X153499500Y-77143545D01*
X153499500Y-77286455D01*
X153499500Y-77286457D01*
X153499499Y-77286457D01*
X153527379Y-77426614D01*
X153527381Y-77426620D01*
X153582069Y-77558650D01*
X153582074Y-77558659D01*
X153661467Y-77677478D01*
X153661470Y-77677482D01*
X153762517Y-77778529D01*
X153762521Y-77778532D01*
X153881340Y-77857925D01*
X153881349Y-77857930D01*
X153892672Y-77862620D01*
X154013380Y-77912619D01*
X154013384Y-77912619D01*
X154013385Y-77912620D01*
X154153542Y-77940500D01*
X154153545Y-77940500D01*
X154296457Y-77940500D01*
X154324308Y-77934960D01*
X154393900Y-77941187D01*
X154449077Y-77984050D01*
X154472322Y-78049939D01*
X154472500Y-78056577D01*
X154472500Y-80327298D01*
X154452815Y-80394337D01*
X154431139Y-80413119D01*
X154438492Y-80417393D01*
X154470327Y-80479588D01*
X154472500Y-80502701D01*
X154472500Y-81976310D01*
X154452815Y-82043349D01*
X154436181Y-82063991D01*
X152574992Y-83925180D01*
X152548673Y-83951499D01*
X152487587Y-84012584D01*
X152418920Y-84115351D01*
X152418913Y-84115364D01*
X152411445Y-84133394D01*
X152411442Y-84133404D01*
X152408917Y-84139500D01*
X152371614Y-84229556D01*
X152348656Y-84344977D01*
X152347571Y-84350428D01*
X152347569Y-84350437D01*
X152347500Y-84350788D01*
X152347500Y-84461421D01*
X152333946Y-84515531D01*
X152334402Y-84515720D01*
X152333131Y-84518787D01*
X152332860Y-84519871D01*
X152332071Y-84521346D01*
X152277381Y-84653379D01*
X152277379Y-84653385D01*
X152249500Y-84793542D01*
X152249500Y-84793545D01*
X152249500Y-84936455D01*
X152249500Y-84936457D01*
X152249499Y-84936457D01*
X152277379Y-85076614D01*
X152277382Y-85076624D01*
X152290201Y-85107571D01*
X152297670Y-85177040D01*
X152278742Y-85223914D01*
X152257070Y-85256347D01*
X152202381Y-85388379D01*
X152202379Y-85388385D01*
X152174500Y-85528542D01*
X152174500Y-85598500D01*
X152154815Y-85665539D01*
X152102011Y-85711294D01*
X152050500Y-85722500D01*
X151661281Y-85722500D01*
X151594242Y-85702815D01*
X151573600Y-85686181D01*
X149276023Y-83388604D01*
X149242538Y-83327281D01*
X149247522Y-83257589D01*
X149260598Y-83232039D01*
X149292929Y-83183653D01*
X149347619Y-83051620D01*
X149367340Y-82952478D01*
X149375500Y-82911457D01*
X149375500Y-82768542D01*
X149347620Y-82628385D01*
X149347619Y-82628384D01*
X149347619Y-82628380D01*
X149292929Y-82496347D01*
X149292928Y-82496346D01*
X149292925Y-82496340D01*
X149213532Y-82377521D01*
X149213529Y-82377517D01*
X149112482Y-82276470D01*
X149112478Y-82276467D01*
X148993659Y-82197074D01*
X148993646Y-82197067D01*
X148891025Y-82154561D01*
X148836621Y-82110720D01*
X148814556Y-82044426D01*
X148831835Y-81976727D01*
X148882972Y-81929116D01*
X148891025Y-81925439D01*
X148993646Y-81882932D01*
X148993646Y-81882931D01*
X148993653Y-81882929D01*
X149112479Y-81803532D01*
X149213532Y-81702479D01*
X149292929Y-81583653D01*
X149347619Y-81451620D01*
X149365168Y-81363398D01*
X149375500Y-81311457D01*
X149375500Y-81289500D01*
X149395185Y-81222461D01*
X149447989Y-81176706D01*
X149499500Y-81165500D01*
X149521457Y-81165500D01*
X149647136Y-81140500D01*
X149661620Y-81137619D01*
X149793653Y-81082929D01*
X149912479Y-81003532D01*
X150013532Y-80902479D01*
X150092929Y-80783653D01*
X150147619Y-80651620D01*
X150152454Y-80627308D01*
X150184839Y-80565398D01*
X150245554Y-80530824D01*
X150274072Y-80527500D01*
X152086421Y-80527500D01*
X152140529Y-80541054D01*
X152140719Y-80540598D01*
X152143798Y-80541873D01*
X152144878Y-80542144D01*
X152146343Y-80542926D01*
X152146347Y-80542929D01*
X152278380Y-80597619D01*
X152278384Y-80597619D01*
X152278385Y-80597620D01*
X152418542Y-80625500D01*
X152418545Y-80625500D01*
X152561457Y-80625500D01*
X152683803Y-80601163D01*
X152753395Y-80607390D01*
X152808572Y-80650252D01*
X152822556Y-80675327D01*
X152857069Y-80758650D01*
X152857074Y-80758659D01*
X152936467Y-80877478D01*
X152936470Y-80877482D01*
X153037517Y-80978529D01*
X153037521Y-80978532D01*
X153156340Y-81057925D01*
X153156346Y-81057928D01*
X153156347Y-81057929D01*
X153288380Y-81112619D01*
X153288384Y-81112619D01*
X153288385Y-81112620D01*
X153428542Y-81140500D01*
X153428545Y-81140500D01*
X153571457Y-81140500D01*
X153672000Y-81120500D01*
X153711620Y-81112619D01*
X153843653Y-81057929D01*
X153962479Y-80978532D01*
X154063532Y-80877479D01*
X154142929Y-80758653D01*
X154197619Y-80626620D01*
X154210666Y-80561031D01*
X154226689Y-80480480D01*
X154228979Y-80480935D01*
X154251253Y-80425766D01*
X154264381Y-80416474D01*
X154229523Y-80362233D01*
X154227039Y-80349450D01*
X154226689Y-80349520D01*
X154197620Y-80203385D01*
X154197619Y-80203384D01*
X154197619Y-80203380D01*
X154142929Y-80071347D01*
X154142928Y-80071346D01*
X154142925Y-80071340D01*
X154063532Y-79952521D01*
X154063529Y-79952517D01*
X153962482Y-79851470D01*
X153962478Y-79851467D01*
X153843659Y-79772074D01*
X153843650Y-79772069D01*
X153711620Y-79717381D01*
X153711614Y-79717379D01*
X153571457Y-79689500D01*
X153571455Y-79689500D01*
X153428545Y-79689500D01*
X153428540Y-79689500D01*
X153306195Y-79713836D01*
X153236603Y-79707609D01*
X153181426Y-79664746D01*
X153167443Y-79639671D01*
X153132932Y-79556353D01*
X153132925Y-79556340D01*
X153053532Y-79437521D01*
X153053529Y-79437517D01*
X152952482Y-79336470D01*
X152952478Y-79336467D01*
X152833659Y-79257074D01*
X152833650Y-79257069D01*
X152701620Y-79202381D01*
X152701614Y-79202379D01*
X152561457Y-79174500D01*
X152561455Y-79174500D01*
X152418545Y-79174500D01*
X152418543Y-79174500D01*
X152278385Y-79202379D01*
X152278379Y-79202381D01*
X152146346Y-79257071D01*
X152144878Y-79257856D01*
X152143798Y-79258126D01*
X152140719Y-79259402D01*
X152140529Y-79258945D01*
X152130864Y-79261366D01*
X152121356Y-79267477D01*
X152086421Y-79272500D01*
X151841707Y-79272500D01*
X151774668Y-79252815D01*
X151728913Y-79200011D01*
X151718969Y-79130853D01*
X151727146Y-79101048D01*
X151741475Y-79066451D01*
X151747619Y-79051620D01*
X151760437Y-78987181D01*
X151775500Y-78911457D01*
X151775500Y-78768542D01*
X151747620Y-78628385D01*
X151747619Y-78628384D01*
X151747619Y-78628380D01*
X151692929Y-78496347D01*
X151692928Y-78496346D01*
X151692925Y-78496340D01*
X151613532Y-78377521D01*
X151613529Y-78377517D01*
X151512482Y-78276470D01*
X151512478Y-78276467D01*
X151393659Y-78197074D01*
X151393650Y-78197069D01*
X151261620Y-78142381D01*
X151261614Y-78142379D01*
X151121457Y-78114500D01*
X151121455Y-78114500D01*
X150978545Y-78114500D01*
X150978543Y-78114500D01*
X150838385Y-78142379D01*
X150838379Y-78142381D01*
X150706349Y-78197069D01*
X150706340Y-78197074D01*
X150587521Y-78276467D01*
X150587517Y-78276470D01*
X150486470Y-78377517D01*
X150486467Y-78377521D01*
X150407074Y-78496340D01*
X150407069Y-78496349D01*
X150352381Y-78628379D01*
X150352379Y-78628385D01*
X150324500Y-78768542D01*
X150324500Y-78768545D01*
X150324500Y-78911455D01*
X150324500Y-78911457D01*
X150324499Y-78911457D01*
X150352379Y-79051614D01*
X150352382Y-79051624D01*
X150372854Y-79101048D01*
X150380323Y-79170518D01*
X150349047Y-79232997D01*
X150288958Y-79268648D01*
X150258293Y-79272500D01*
X149892969Y-79272500D01*
X149862513Y-79263557D01*
X149831610Y-79256255D01*
X149829223Y-79253782D01*
X149825930Y-79252815D01*
X149805148Y-79228832D01*
X149783094Y-79205976D01*
X149781549Y-79201596D01*
X149780175Y-79200011D01*
X149771352Y-79172693D01*
X149770919Y-79170518D01*
X149763065Y-79131033D01*
X149769292Y-79061442D01*
X149781574Y-79037959D01*
X149847929Y-78938653D01*
X149902619Y-78806620D01*
X149918532Y-78726620D01*
X149930500Y-78666457D01*
X149930500Y-78523542D01*
X149902620Y-78383385D01*
X149902619Y-78383384D01*
X149902619Y-78383380D01*
X149858335Y-78276470D01*
X149847930Y-78251349D01*
X149847925Y-78251340D01*
X149768532Y-78132521D01*
X149768529Y-78132517D01*
X149667482Y-78031470D01*
X149667478Y-78031467D01*
X149548659Y-77952074D01*
X149548650Y-77952069D01*
X149416620Y-77897381D01*
X149416614Y-77897379D01*
X149276457Y-77869500D01*
X149276455Y-77869500D01*
X149133545Y-77869500D01*
X149133543Y-77869500D01*
X148993385Y-77897379D01*
X148993379Y-77897381D01*
X148861346Y-77952070D01*
X148859947Y-77952819D01*
X148859130Y-77952988D01*
X148855719Y-77954402D01*
X148855567Y-77954035D01*
X148853011Y-77956251D01*
X148822117Y-77960693D01*
X148791543Y-77967057D01*
X148787809Y-77965626D01*
X148783853Y-77966195D01*
X148755457Y-77953227D01*
X148726301Y-77942053D01*
X148723933Y-77938830D01*
X148720297Y-77937170D01*
X148703415Y-77910901D01*
X148684934Y-77885745D01*
X148684062Y-77880787D01*
X148682523Y-77878392D01*
X148677500Y-77843457D01*
X148677500Y-77751281D01*
X148697185Y-77684242D01*
X148713819Y-77663600D01*
X151762409Y-74615010D01*
X151762411Y-74615008D01*
X151779082Y-74590058D01*
X151831083Y-74512233D01*
X151860796Y-74440500D01*
X151878386Y-74398034D01*
X151902500Y-74276803D01*
X151902500Y-74153197D01*
X151902500Y-73061938D01*
X151922185Y-72994899D01*
X151974989Y-72949144D01*
X152044147Y-72939200D01*
X152095391Y-72958836D01*
X152176340Y-73012925D01*
X152176346Y-73012928D01*
X152176347Y-73012929D01*
X152308380Y-73067619D01*
X152308384Y-73067619D01*
X152308385Y-73067620D01*
X152448542Y-73095500D01*
X152448545Y-73095500D01*
X152591457Y-73095500D01*
X152685751Y-73076742D01*
X152731620Y-73067619D01*
X152863653Y-73012929D01*
X152982479Y-72933532D01*
X153083532Y-72832479D01*
X153162929Y-72713653D01*
X153217619Y-72581620D01*
X153236546Y-72486468D01*
X153245500Y-72441457D01*
X153245500Y-72298542D01*
X153217620Y-72158385D01*
X153217619Y-72158384D01*
X153217619Y-72158380D01*
X153175318Y-72056258D01*
X153162930Y-72026349D01*
X153162925Y-72026340D01*
X153083532Y-71907521D01*
X153083529Y-71907517D01*
X152982482Y-71806470D01*
X152982478Y-71806467D01*
X152863659Y-71727074D01*
X152863650Y-71727069D01*
X152731620Y-71672381D01*
X152731614Y-71672379D01*
X152652372Y-71656617D01*
X152590461Y-71624232D01*
X152555887Y-71563516D01*
X152559627Y-71493747D01*
X152600494Y-71437075D01*
X152652372Y-71413383D01*
X152702841Y-71403343D01*
X152731620Y-71397619D01*
X152863653Y-71342929D01*
X152982479Y-71263532D01*
X153083532Y-71162479D01*
X153162929Y-71043653D01*
X153217619Y-70911620D01*
X153245500Y-70771455D01*
X153245500Y-70628545D01*
X153245500Y-70628542D01*
X153217620Y-70488385D01*
X153217619Y-70488384D01*
X153217619Y-70488380D01*
X153162929Y-70356347D01*
X153162928Y-70356346D01*
X153162925Y-70356340D01*
X153083532Y-70237521D01*
X153083529Y-70237517D01*
X152982482Y-70136470D01*
X152982478Y-70136467D01*
X152863659Y-70057074D01*
X152863650Y-70057069D01*
X152731620Y-70002381D01*
X152731614Y-70002379D01*
X152591457Y-69974500D01*
X152591455Y-69974500D01*
X152448545Y-69974500D01*
X152448543Y-69974500D01*
X152308385Y-70002379D01*
X152308379Y-70002381D01*
X152176349Y-70057069D01*
X152176335Y-70057077D01*
X152095390Y-70111163D01*
X152028713Y-70132041D01*
X151961333Y-70113556D01*
X151914643Y-70061577D01*
X151902500Y-70008061D01*
X151902500Y-69685256D01*
X151922185Y-69618217D01*
X151974989Y-69572462D01*
X152044147Y-69562518D01*
X152095390Y-69582153D01*
X152186347Y-69642929D01*
X152318380Y-69697619D01*
X152318384Y-69697619D01*
X152318385Y-69697620D01*
X152458542Y-69725500D01*
X152458545Y-69725500D01*
X152601457Y-69725500D01*
X152695751Y-69706742D01*
X152741620Y-69697619D01*
X152873653Y-69642929D01*
X152992479Y-69563532D01*
X153093532Y-69462479D01*
X153172929Y-69343653D01*
X153227619Y-69211620D01*
X153255500Y-69071455D01*
X153255500Y-68928545D01*
X153255500Y-68928542D01*
X153227620Y-68788385D01*
X153227619Y-68788384D01*
X153227619Y-68788380D01*
X153172929Y-68656347D01*
X153172928Y-68656346D01*
X153172925Y-68656340D01*
X153093532Y-68537521D01*
X153093529Y-68537517D01*
X152992482Y-68436470D01*
X152992478Y-68436467D01*
X152873659Y-68357074D01*
X152873650Y-68357069D01*
X152741620Y-68302381D01*
X152741614Y-68302379D01*
X152601457Y-68274500D01*
X152601455Y-68274500D01*
X152458545Y-68274500D01*
X152458543Y-68274500D01*
X152318385Y-68302379D01*
X152318379Y-68302381D01*
X152186349Y-68357069D01*
X152186340Y-68357074D01*
X152095391Y-68417845D01*
X152028713Y-68438723D01*
X151961333Y-68420238D01*
X151914643Y-68368259D01*
X151902500Y-68314743D01*
X151902500Y-64664874D01*
X151909826Y-64639924D01*
X151913346Y-64614158D01*
X151920396Y-64603927D01*
X151922185Y-64597835D01*
X151932218Y-64584333D01*
X151935383Y-64580627D01*
X152013532Y-64502479D01*
X152054429Y-64441271D01*
X152059184Y-64435706D01*
X152082557Y-64420451D01*
X152103976Y-64402551D01*
X152111416Y-64401616D01*
X152117695Y-64397519D01*
X152145605Y-64397322D01*
X152173301Y-64393844D01*
X152180064Y-64397079D01*
G37*
%TD.AperFunction*%
%TA.AperFunction,Conductor*%
G36*
X160202702Y-58875618D02*
G01*
X160215363Y-58876170D01*
X160608560Y-58893337D01*
X160619294Y-58894277D01*
X161019375Y-58946948D01*
X161030013Y-58948823D01*
X161423989Y-59036166D01*
X161434414Y-59038960D01*
X161819279Y-59160307D01*
X161829414Y-59163996D01*
X162202233Y-59318423D01*
X162212024Y-59322989D01*
X162358079Y-59399020D01*
X162569942Y-59509309D01*
X162579310Y-59514717D01*
X162919633Y-59731526D01*
X162928492Y-59737729D01*
X163248639Y-59983387D01*
X163256913Y-59990331D01*
X163416553Y-60136614D01*
X163554412Y-60262938D01*
X163562061Y-60270587D01*
X163834663Y-60568080D01*
X163841614Y-60576362D01*
X163897463Y-60649146D01*
X164087268Y-60896504D01*
X164093473Y-60905366D01*
X164310282Y-61245689D01*
X164315690Y-61255057D01*
X164502007Y-61612968D01*
X164506579Y-61622772D01*
X164594038Y-61833917D01*
X164632808Y-61927517D01*
X164660997Y-61995570D01*
X164664696Y-62005733D01*
X164675791Y-62040921D01*
X164786036Y-62390573D01*
X164788836Y-62401022D01*
X164876174Y-62794978D01*
X164878052Y-62805632D01*
X164930720Y-63205683D01*
X164931662Y-63216458D01*
X164935755Y-63310175D01*
X164949382Y-63622297D01*
X164949500Y-63627706D01*
X164949500Y-128122293D01*
X164949382Y-128127702D01*
X164931663Y-128533540D01*
X164930720Y-128544316D01*
X164878052Y-128944367D01*
X164876174Y-128955021D01*
X164788836Y-129348977D01*
X164786036Y-129359426D01*
X164664697Y-129744264D01*
X164660997Y-129754429D01*
X164506579Y-130127227D01*
X164502007Y-130137031D01*
X164315690Y-130494942D01*
X164310282Y-130504310D01*
X164093473Y-130844633D01*
X164087268Y-130853495D01*
X163841617Y-131173633D01*
X163834663Y-131181919D01*
X163562061Y-131479412D01*
X163554412Y-131487061D01*
X163256919Y-131759663D01*
X163248633Y-131766617D01*
X162928495Y-132012268D01*
X162919633Y-132018473D01*
X162579310Y-132235282D01*
X162569942Y-132240690D01*
X162212031Y-132427007D01*
X162202227Y-132431579D01*
X161829429Y-132585997D01*
X161819264Y-132589697D01*
X161434426Y-132711036D01*
X161423977Y-132713836D01*
X161030021Y-132801174D01*
X161019367Y-132803052D01*
X160619316Y-132855720D01*
X160608540Y-132856663D01*
X160202703Y-132874382D01*
X160197294Y-132874500D01*
X130702706Y-132874500D01*
X130697297Y-132874382D01*
X130291459Y-132856663D01*
X130280685Y-132855720D01*
X130212825Y-132846786D01*
X129880632Y-132803052D01*
X129869978Y-132801174D01*
X129476022Y-132713836D01*
X129465573Y-132711036D01*
X129080735Y-132589697D01*
X129070570Y-132585997D01*
X128697772Y-132431579D01*
X128687968Y-132427007D01*
X128330057Y-132240690D01*
X128320689Y-132235282D01*
X127980366Y-132018473D01*
X127971504Y-132012268D01*
X127728104Y-131825500D01*
X127651362Y-131766614D01*
X127643080Y-131759663D01*
X127345587Y-131487061D01*
X127337938Y-131479412D01*
X127333203Y-131474245D01*
X127065331Y-131181913D01*
X127058382Y-131173633D01*
X127002540Y-131100859D01*
X126812729Y-130853492D01*
X126806526Y-130844633D01*
X126659027Y-130613106D01*
X126589716Y-130504309D01*
X126584309Y-130494942D01*
X126397992Y-130137031D01*
X126393420Y-130127227D01*
X126353039Y-130029738D01*
X126238996Y-129754414D01*
X126235307Y-129744279D01*
X126113960Y-129359414D01*
X126111166Y-129348989D01*
X126023823Y-128955013D01*
X126021947Y-128944367D01*
X126003128Y-128801420D01*
X125969277Y-128544294D01*
X125968337Y-128533560D01*
X125950618Y-128127701D01*
X125950500Y-128122293D01*
X125950500Y-127943209D01*
X126999500Y-127943209D01*
X126999500Y-128306790D01*
X127035137Y-128668630D01*
X127106064Y-129025212D01*
X127106067Y-129025223D01*
X127211614Y-129373165D01*
X127350754Y-129709078D01*
X127350756Y-129709083D01*
X127522140Y-130029720D01*
X127522151Y-130029738D01*
X127724140Y-130332035D01*
X127724150Y-130332049D01*
X127954807Y-130613106D01*
X128211893Y-130870192D01*
X128211898Y-130870196D01*
X128211899Y-130870197D01*
X128492956Y-131100854D01*
X128795268Y-131302853D01*
X128795277Y-131302858D01*
X128795279Y-131302859D01*
X129115916Y-131474243D01*
X129115918Y-131474243D01*
X129115924Y-131474247D01*
X129451836Y-131613386D01*
X129799767Y-131718930D01*
X129799773Y-131718931D01*
X129799776Y-131718932D01*
X129799787Y-131718935D01*
X130156369Y-131789862D01*
X130518206Y-131825500D01*
X130518209Y-131825500D01*
X130881791Y-131825500D01*
X130881794Y-131825500D01*
X131243631Y-131789862D01*
X131313045Y-131776054D01*
X131600212Y-131718935D01*
X131600223Y-131718932D01*
X131600223Y-131718931D01*
X131600233Y-131718930D01*
X131948164Y-131613386D01*
X132284076Y-131474247D01*
X132604732Y-131302853D01*
X132907044Y-131100854D01*
X133188101Y-130870197D01*
X133445197Y-130613101D01*
X133675854Y-130332044D01*
X133877853Y-130029732D01*
X134049247Y-129709076D01*
X134188386Y-129373164D01*
X134293930Y-129025233D01*
X134293932Y-129025223D01*
X134293935Y-129025212D01*
X134364862Y-128668630D01*
X134400500Y-128306790D01*
X134400500Y-127943209D01*
X156499500Y-127943209D01*
X156499500Y-128306790D01*
X156535137Y-128668630D01*
X156606064Y-129025212D01*
X156606067Y-129025223D01*
X156711614Y-129373165D01*
X156850754Y-129709078D01*
X156850756Y-129709083D01*
X157022140Y-130029720D01*
X157022151Y-130029738D01*
X157224140Y-130332035D01*
X157224150Y-130332049D01*
X157454807Y-130613106D01*
X157711893Y-130870192D01*
X157711898Y-130870196D01*
X157711899Y-130870197D01*
X157992956Y-131100854D01*
X158295268Y-131302853D01*
X158295277Y-131302858D01*
X158295279Y-131302859D01*
X158615916Y-131474243D01*
X158615918Y-131474243D01*
X158615924Y-131474247D01*
X158951836Y-131613386D01*
X159299767Y-131718930D01*
X159299773Y-131718931D01*
X159299776Y-131718932D01*
X159299787Y-131718935D01*
X159656369Y-131789862D01*
X160018206Y-131825500D01*
X160018209Y-131825500D01*
X160381791Y-131825500D01*
X160381794Y-131825500D01*
X160743631Y-131789862D01*
X160813045Y-131776054D01*
X161100212Y-131718935D01*
X161100223Y-131718932D01*
X161100223Y-131718931D01*
X161100233Y-131718930D01*
X161448164Y-131613386D01*
X161784076Y-131474247D01*
X162104732Y-131302853D01*
X162407044Y-131100854D01*
X162688101Y-130870197D01*
X162945197Y-130613101D01*
X163175854Y-130332044D01*
X163377853Y-130029732D01*
X163549247Y-129709076D01*
X163688386Y-129373164D01*
X163793930Y-129025233D01*
X163793932Y-129025223D01*
X163793935Y-129025212D01*
X163864862Y-128668630D01*
X163900500Y-128306790D01*
X163900500Y-127943209D01*
X163864862Y-127581369D01*
X163793935Y-127224787D01*
X163793932Y-127224776D01*
X163793931Y-127224773D01*
X163793930Y-127224767D01*
X163688386Y-126876836D01*
X163549247Y-126540924D01*
X163377853Y-126220268D01*
X163175854Y-125917956D01*
X162945197Y-125636899D01*
X162945196Y-125636898D01*
X162945192Y-125636893D01*
X162688106Y-125379807D01*
X162407049Y-125149150D01*
X162407048Y-125149149D01*
X162407044Y-125149146D01*
X162104732Y-124947147D01*
X162104727Y-124947144D01*
X162104720Y-124947140D01*
X161784083Y-124775756D01*
X161784078Y-124775754D01*
X161448165Y-124636614D01*
X161100223Y-124531067D01*
X161100212Y-124531064D01*
X160743630Y-124460137D01*
X160471111Y-124433296D01*
X160381794Y-124424500D01*
X160018206Y-124424500D01*
X159935679Y-124432628D01*
X159656369Y-124460137D01*
X159299787Y-124531064D01*
X159299776Y-124531067D01*
X158951834Y-124636614D01*
X158615921Y-124775754D01*
X158615916Y-124775756D01*
X158295279Y-124947140D01*
X158295261Y-124947151D01*
X157992964Y-125149140D01*
X157992950Y-125149150D01*
X157711893Y-125379807D01*
X157454807Y-125636893D01*
X157224150Y-125917950D01*
X157224140Y-125917964D01*
X157022151Y-126220261D01*
X157022140Y-126220279D01*
X156850756Y-126540916D01*
X156850754Y-126540921D01*
X156711614Y-126876834D01*
X156606067Y-127224776D01*
X156606064Y-127224787D01*
X156535137Y-127581369D01*
X156499500Y-127943209D01*
X134400500Y-127943209D01*
X134364862Y-127581369D01*
X134293935Y-127224787D01*
X134293932Y-127224776D01*
X134293931Y-127224773D01*
X134293930Y-127224767D01*
X134188386Y-126876836D01*
X134049247Y-126540924D01*
X133877853Y-126220268D01*
X133675854Y-125917956D01*
X133445197Y-125636899D01*
X133445196Y-125636898D01*
X133445192Y-125636893D01*
X133188106Y-125379807D01*
X132907049Y-125149150D01*
X132907048Y-125149149D01*
X132907044Y-125149146D01*
X132604732Y-124947147D01*
X132604727Y-124947144D01*
X132604720Y-124947140D01*
X132284083Y-124775756D01*
X132284078Y-124775754D01*
X131948165Y-124636614D01*
X131600223Y-124531067D01*
X131600212Y-124531064D01*
X131243630Y-124460137D01*
X130971111Y-124433296D01*
X130881794Y-124424500D01*
X130518206Y-124424500D01*
X130435679Y-124432628D01*
X130156369Y-124460137D01*
X129799787Y-124531064D01*
X129799776Y-124531067D01*
X129451834Y-124636614D01*
X129115921Y-124775754D01*
X129115916Y-124775756D01*
X128795279Y-124947140D01*
X128795261Y-124947151D01*
X128492964Y-125149140D01*
X128492950Y-125149150D01*
X128211893Y-125379807D01*
X127954807Y-125636893D01*
X127724150Y-125917950D01*
X127724140Y-125917964D01*
X127522151Y-126220261D01*
X127522140Y-126220279D01*
X127350756Y-126540916D01*
X127350754Y-126540921D01*
X127211614Y-126876834D01*
X127106067Y-127224776D01*
X127106064Y-127224787D01*
X127035137Y-127581369D01*
X126999500Y-127943209D01*
X125950500Y-127943209D01*
X125950500Y-119985258D01*
X146149500Y-119985258D01*
X146149500Y-120214741D01*
X146174446Y-120404215D01*
X146179452Y-120442238D01*
X146179453Y-120442240D01*
X146238842Y-120663887D01*
X146326650Y-120875876D01*
X146326657Y-120875890D01*
X146441392Y-121074617D01*
X146581081Y-121256661D01*
X146581089Y-121256670D01*
X146743330Y-121418911D01*
X146743338Y-121418918D01*
X146925382Y-121558607D01*
X146925385Y-121558608D01*
X146925388Y-121558611D01*
X147124112Y-121673344D01*
X147124117Y-121673346D01*
X147124123Y-121673349D01*
X147215480Y-121711190D01*
X147336113Y-121761158D01*
X147557762Y-121820548D01*
X147785266Y-121850500D01*
X147785273Y-121850500D01*
X148014727Y-121850500D01*
X148014734Y-121850500D01*
X148242238Y-121820548D01*
X148463887Y-121761158D01*
X148675888Y-121673344D01*
X148874612Y-121558611D01*
X149056661Y-121418919D01*
X149056665Y-121418914D01*
X149056670Y-121418911D01*
X149218911Y-121256670D01*
X149218914Y-121256665D01*
X149218919Y-121256661D01*
X149358611Y-121074612D01*
X149473344Y-120875888D01*
X149561158Y-120663887D01*
X149620548Y-120442238D01*
X149650500Y-120214734D01*
X149650500Y-119985266D01*
X149620548Y-119757762D01*
X149561158Y-119536113D01*
X149473344Y-119324112D01*
X149358611Y-119125388D01*
X149358608Y-119125385D01*
X149358607Y-119125382D01*
X149218918Y-118943338D01*
X149218911Y-118943330D01*
X149056670Y-118781089D01*
X149056661Y-118781081D01*
X148874617Y-118641392D01*
X148675890Y-118526657D01*
X148675876Y-118526650D01*
X148463887Y-118438842D01*
X148242238Y-118379452D01*
X148204215Y-118374446D01*
X148014741Y-118349500D01*
X148014734Y-118349500D01*
X147785266Y-118349500D01*
X147785258Y-118349500D01*
X147568715Y-118378009D01*
X147557762Y-118379452D01*
X147464076Y-118404554D01*
X147336112Y-118438842D01*
X147124123Y-118526650D01*
X147124109Y-118526657D01*
X146925382Y-118641392D01*
X146743338Y-118781081D01*
X146581081Y-118943338D01*
X146441392Y-119125382D01*
X146326657Y-119324109D01*
X146326650Y-119324123D01*
X146238842Y-119536112D01*
X146179453Y-119757759D01*
X146179451Y-119757770D01*
X146149500Y-119985258D01*
X125950500Y-119985258D01*
X125950500Y-118351228D01*
X130929500Y-118351228D01*
X130929500Y-118518771D01*
X130962182Y-118683074D01*
X130962184Y-118683082D01*
X131026295Y-118837860D01*
X131119373Y-118977162D01*
X131237837Y-119095626D01*
X131330494Y-119157537D01*
X131377137Y-119188703D01*
X131531918Y-119252816D01*
X131696228Y-119285499D01*
X131696232Y-119285500D01*
X131696233Y-119285500D01*
X131863768Y-119285500D01*
X131863769Y-119285499D01*
X132028082Y-119252816D01*
X132182863Y-119188703D01*
X132322162Y-119095626D01*
X132440626Y-118977162D01*
X132533703Y-118837863D01*
X132548941Y-118801074D01*
X132592780Y-118746671D01*
X132659073Y-118724605D01*
X132687694Y-118726909D01*
X132781155Y-118745500D01*
X132781158Y-118745500D01*
X132938844Y-118745500D01*
X132938845Y-118745499D01*
X133093497Y-118714737D01*
X133239179Y-118654394D01*
X133370289Y-118566789D01*
X133481789Y-118455289D01*
X133569394Y-118324179D01*
X133629737Y-118178497D01*
X133660500Y-118023842D01*
X133660500Y-117866158D01*
X133660500Y-117866155D01*
X133660499Y-117866153D01*
X133644127Y-117783846D01*
X133629737Y-117711503D01*
X133594384Y-117626153D01*
X152779500Y-117626153D01*
X152779500Y-117783846D01*
X152810261Y-117938489D01*
X152810264Y-117938501D01*
X152870602Y-118084172D01*
X152870609Y-118084185D01*
X152958210Y-118215288D01*
X152958213Y-118215292D01*
X153069707Y-118326786D01*
X153069711Y-118326789D01*
X153200814Y-118414390D01*
X153200827Y-118414397D01*
X153299558Y-118455292D01*
X153346503Y-118474737D01*
X153501153Y-118505499D01*
X153501156Y-118505500D01*
X153501158Y-118505500D01*
X153658844Y-118505500D01*
X153658845Y-118505499D01*
X153813497Y-118474737D01*
X153959179Y-118414394D01*
X154090289Y-118326789D01*
X154201789Y-118215289D01*
X154289394Y-118084179D01*
X154349737Y-117938497D01*
X154380500Y-117783842D01*
X154380500Y-117626158D01*
X154380500Y-117626155D01*
X154380499Y-117626153D01*
X155619500Y-117626153D01*
X155619500Y-117783846D01*
X155650261Y-117938489D01*
X155650264Y-117938501D01*
X155710602Y-118084172D01*
X155710609Y-118084185D01*
X155798210Y-118215288D01*
X155798213Y-118215292D01*
X155909707Y-118326786D01*
X155909711Y-118326789D01*
X156040814Y-118414390D01*
X156040827Y-118414397D01*
X156139558Y-118455292D01*
X156186503Y-118474737D01*
X156341153Y-118505499D01*
X156341156Y-118505500D01*
X156341158Y-118505500D01*
X156498844Y-118505500D01*
X156498845Y-118505499D01*
X156653497Y-118474737D01*
X156799179Y-118414394D01*
X156930289Y-118326789D01*
X157041789Y-118215289D01*
X157129394Y-118084179D01*
X157189737Y-117938497D01*
X157220500Y-117783842D01*
X157220500Y-117626158D01*
X157220500Y-117626155D01*
X157220499Y-117626153D01*
X157189738Y-117471510D01*
X157189737Y-117471503D01*
X157189735Y-117471498D01*
X157129397Y-117325827D01*
X157129390Y-117325814D01*
X157041789Y-117194711D01*
X157041786Y-117194707D01*
X156930292Y-117083213D01*
X156930288Y-117083210D01*
X156799185Y-116995609D01*
X156799172Y-116995602D01*
X156653501Y-116935264D01*
X156653489Y-116935261D01*
X156498845Y-116904500D01*
X156498842Y-116904500D01*
X156341158Y-116904500D01*
X156341155Y-116904500D01*
X156186510Y-116935261D01*
X156186498Y-116935264D01*
X156040827Y-116995602D01*
X156040814Y-116995609D01*
X155909711Y-117083210D01*
X155909707Y-117083213D01*
X155798213Y-117194707D01*
X155798210Y-117194711D01*
X155710609Y-117325814D01*
X155710602Y-117325827D01*
X155650264Y-117471498D01*
X155650261Y-117471510D01*
X155619500Y-117626153D01*
X154380499Y-117626153D01*
X154349738Y-117471510D01*
X154349737Y-117471503D01*
X154349735Y-117471498D01*
X154289397Y-117325827D01*
X154289390Y-117325814D01*
X154201789Y-117194711D01*
X154201786Y-117194707D01*
X154090292Y-117083213D01*
X154090288Y-117083210D01*
X153959185Y-116995609D01*
X153959172Y-116995602D01*
X153813501Y-116935264D01*
X153813489Y-116935261D01*
X153658845Y-116904500D01*
X153658842Y-116904500D01*
X153501158Y-116904500D01*
X153501155Y-116904500D01*
X153346510Y-116935261D01*
X153346498Y-116935264D01*
X153200827Y-116995602D01*
X153200814Y-116995609D01*
X153069711Y-117083210D01*
X153069707Y-117083213D01*
X152958213Y-117194707D01*
X152958210Y-117194711D01*
X152870609Y-117325814D01*
X152870602Y-117325827D01*
X152810264Y-117471498D01*
X152810261Y-117471510D01*
X152779500Y-117626153D01*
X133594384Y-117626153D01*
X133577131Y-117584500D01*
X133569397Y-117565827D01*
X133569390Y-117565814D01*
X133481789Y-117434711D01*
X133481786Y-117434707D01*
X133370292Y-117323213D01*
X133370288Y-117323210D01*
X133239185Y-117235609D01*
X133239172Y-117235602D01*
X133093501Y-117175264D01*
X133093489Y-117175261D01*
X132938845Y-117144500D01*
X132938842Y-117144500D01*
X132781158Y-117144500D01*
X132781155Y-117144500D01*
X132626510Y-117175261D01*
X132626498Y-117175264D01*
X132480827Y-117235602D01*
X132480814Y-117235609D01*
X132349711Y-117323210D01*
X132349707Y-117323213D01*
X132238213Y-117434707D01*
X132238210Y-117434711D01*
X132151969Y-117563780D01*
X132098357Y-117608585D01*
X132029032Y-117617292D01*
X132024676Y-117616506D01*
X131863771Y-117584500D01*
X131863767Y-117584500D01*
X131696233Y-117584500D01*
X131696228Y-117584500D01*
X131531925Y-117617182D01*
X131531917Y-117617184D01*
X131377139Y-117681295D01*
X131237837Y-117774373D01*
X131119373Y-117892837D01*
X131026295Y-118032139D01*
X130962184Y-118186917D01*
X130962182Y-118186925D01*
X130929500Y-118351228D01*
X125950500Y-118351228D01*
X125950500Y-116096457D01*
X134384499Y-116096457D01*
X134412379Y-116236614D01*
X134412381Y-116236620D01*
X134467069Y-116368650D01*
X134467074Y-116368659D01*
X134546467Y-116487478D01*
X134546470Y-116487482D01*
X134647517Y-116588529D01*
X134647521Y-116588532D01*
X134766340Y-116667925D01*
X134766346Y-116667928D01*
X134766347Y-116667929D01*
X134898380Y-116722619D01*
X134898384Y-116722619D01*
X134898385Y-116722620D01*
X135038542Y-116750500D01*
X135038545Y-116750500D01*
X135181457Y-116750500D01*
X135275751Y-116731742D01*
X135321620Y-116722619D01*
X135453653Y-116667929D01*
X135572479Y-116588532D01*
X135673532Y-116487479D01*
X135752929Y-116368653D01*
X135807619Y-116236620D01*
X135835500Y-116096455D01*
X135835500Y-115953545D01*
X135835500Y-115953542D01*
X135807620Y-115813385D01*
X135807619Y-115813384D01*
X135807619Y-115813380D01*
X135757117Y-115691457D01*
X137184499Y-115691457D01*
X137212379Y-115831614D01*
X137212381Y-115831620D01*
X137267069Y-115963650D01*
X137267074Y-115963659D01*
X137346467Y-116082478D01*
X137346470Y-116082482D01*
X137447517Y-116183529D01*
X137447521Y-116183532D01*
X137566340Y-116262925D01*
X137566346Y-116262928D01*
X137566347Y-116262929D01*
X137698380Y-116317619D01*
X137698384Y-116317619D01*
X137698385Y-116317620D01*
X137838542Y-116345500D01*
X137838545Y-116345500D01*
X137981457Y-116345500D01*
X138075751Y-116326742D01*
X138121620Y-116317619D01*
X138253653Y-116262929D01*
X138372479Y-116183532D01*
X138473532Y-116082479D01*
X138552929Y-115963653D01*
X138607619Y-115831620D01*
X138635500Y-115691455D01*
X138635500Y-115548545D01*
X138635500Y-115548542D01*
X138607620Y-115408385D01*
X138607619Y-115408384D01*
X138607619Y-115408380D01*
X138552929Y-115276347D01*
X138552928Y-115276346D01*
X138552925Y-115276340D01*
X138473920Y-115158101D01*
X138473918Y-115158099D01*
X138473532Y-115157521D01*
X138372479Y-115056468D01*
X138336388Y-115032353D01*
X138336384Y-115032349D01*
X138253659Y-114977074D01*
X138253650Y-114977069D01*
X138121620Y-114922381D01*
X138121614Y-114922379D01*
X137981457Y-114894500D01*
X137981455Y-114894500D01*
X137838545Y-114894500D01*
X137838543Y-114894500D01*
X137698385Y-114922379D01*
X137698379Y-114922381D01*
X137566349Y-114977069D01*
X137566340Y-114977074D01*
X137447521Y-115056467D01*
X137447517Y-115056470D01*
X137346470Y-115157517D01*
X137346467Y-115157521D01*
X137267074Y-115276340D01*
X137267069Y-115276349D01*
X137212381Y-115408379D01*
X137212379Y-115408385D01*
X137184500Y-115548542D01*
X137184500Y-115548545D01*
X137184500Y-115691455D01*
X137184500Y-115691457D01*
X137184499Y-115691457D01*
X135757117Y-115691457D01*
X135752929Y-115681347D01*
X135752928Y-115681346D01*
X135752925Y-115681340D01*
X135706155Y-115611344D01*
X135673532Y-115562521D01*
X135673529Y-115562517D01*
X135572482Y-115461470D01*
X135572478Y-115461467D01*
X135453659Y-115382074D01*
X135453650Y-115382069D01*
X135321620Y-115327381D01*
X135321614Y-115327379D01*
X135181457Y-115299500D01*
X135181455Y-115299500D01*
X135038545Y-115299500D01*
X135038543Y-115299500D01*
X134898385Y-115327379D01*
X134898379Y-115327381D01*
X134766349Y-115382069D01*
X134766340Y-115382074D01*
X134647521Y-115461467D01*
X134647517Y-115461470D01*
X134546470Y-115562517D01*
X134546467Y-115562521D01*
X134467074Y-115681340D01*
X134467069Y-115681349D01*
X134412381Y-115813379D01*
X134412379Y-115813385D01*
X134384500Y-115953542D01*
X134384500Y-115953545D01*
X134384500Y-116096455D01*
X134384500Y-116096457D01*
X134384499Y-116096457D01*
X125950500Y-116096457D01*
X125950500Y-114456457D01*
X138339499Y-114456457D01*
X138367379Y-114596614D01*
X138367381Y-114596620D01*
X138422069Y-114728650D01*
X138422074Y-114728659D01*
X138501079Y-114846897D01*
X138501468Y-114847479D01*
X138602521Y-114948532D01*
X138638612Y-114972647D01*
X138638614Y-114972649D01*
X138721340Y-115027925D01*
X138721346Y-115027928D01*
X138721347Y-115027929D01*
X138853380Y-115082619D01*
X138853384Y-115082619D01*
X138853385Y-115082620D01*
X138993542Y-115110500D01*
X138993545Y-115110500D01*
X139136457Y-115110500D01*
X139230751Y-115091742D01*
X139276620Y-115082619D01*
X139408653Y-115027929D01*
X139527479Y-114948532D01*
X139628532Y-114847479D01*
X139707929Y-114728653D01*
X139762619Y-114596620D01*
X139790500Y-114456455D01*
X139790500Y-114313545D01*
X139790500Y-114313542D01*
X139762620Y-114173385D01*
X139762619Y-114173384D01*
X139762619Y-114173380D01*
X139707929Y-114041347D01*
X139707928Y-114041346D01*
X139707925Y-114041340D01*
X139628532Y-113922521D01*
X139628529Y-113922517D01*
X139527482Y-113821470D01*
X139527478Y-113821467D01*
X139408659Y-113742074D01*
X139408650Y-113742069D01*
X139276620Y-113687381D01*
X139276614Y-113687379D01*
X139136457Y-113659500D01*
X139136455Y-113659500D01*
X138993545Y-113659500D01*
X138993543Y-113659500D01*
X138853385Y-113687379D01*
X138853379Y-113687381D01*
X138721349Y-113742069D01*
X138721340Y-113742074D01*
X138602521Y-113821467D01*
X138602517Y-113821470D01*
X138501470Y-113922517D01*
X138501467Y-113922521D01*
X138422074Y-114041340D01*
X138422069Y-114041349D01*
X138367381Y-114173379D01*
X138367379Y-114173385D01*
X138339500Y-114313542D01*
X138339500Y-114313545D01*
X138339500Y-114456455D01*
X138339500Y-114456457D01*
X138339499Y-114456457D01*
X125950500Y-114456457D01*
X125950500Y-112571228D01*
X130929500Y-112571228D01*
X130929500Y-112738771D01*
X130962182Y-112903074D01*
X130962184Y-112903082D01*
X131026295Y-113057860D01*
X131119373Y-113197162D01*
X131237837Y-113315626D01*
X131323132Y-113372618D01*
X131377137Y-113408703D01*
X131531918Y-113472816D01*
X131696228Y-113505499D01*
X131696232Y-113505500D01*
X131696233Y-113505500D01*
X131863768Y-113505500D01*
X131863768Y-113505499D01*
X132024677Y-113473493D01*
X132094267Y-113479720D01*
X132149444Y-113522583D01*
X132151969Y-113526219D01*
X132238210Y-113655289D01*
X132349707Y-113766786D01*
X132349711Y-113766789D01*
X132480814Y-113854390D01*
X132480827Y-113854397D01*
X132626498Y-113914735D01*
X132626503Y-113914737D01*
X132781153Y-113945499D01*
X132781156Y-113945500D01*
X132781158Y-113945500D01*
X132938844Y-113945500D01*
X132938845Y-113945499D01*
X133093497Y-113914737D01*
X133239179Y-113854394D01*
X133370289Y-113766789D01*
X133481789Y-113655289D01*
X133569394Y-113524179D01*
X133629737Y-113378497D01*
X133660500Y-113223842D01*
X133660500Y-113066158D01*
X133660500Y-113066155D01*
X133660499Y-113066153D01*
X133651052Y-113018659D01*
X133629737Y-112911503D01*
X133619428Y-112886614D01*
X133569397Y-112765827D01*
X133569390Y-112765814D01*
X133556456Y-112746457D01*
X136574499Y-112746457D01*
X136602379Y-112886614D01*
X136602381Y-112886620D01*
X136657069Y-113018650D01*
X136657074Y-113018659D01*
X136736467Y-113137478D01*
X136736470Y-113137482D01*
X136837517Y-113238529D01*
X136837521Y-113238532D01*
X136956340Y-113317925D01*
X136956346Y-113317928D01*
X136956347Y-113317929D01*
X137088380Y-113372619D01*
X137088384Y-113372619D01*
X137088385Y-113372620D01*
X137228542Y-113400500D01*
X137228545Y-113400500D01*
X137371457Y-113400500D01*
X137465751Y-113381742D01*
X137511620Y-113372619D01*
X137643653Y-113317929D01*
X137762479Y-113238532D01*
X137863532Y-113137479D01*
X137942929Y-113018653D01*
X137997619Y-112886620D01*
X138014084Y-112803846D01*
X138025500Y-112746457D01*
X138025500Y-112646153D01*
X140999500Y-112646153D01*
X140999500Y-112803846D01*
X141030261Y-112958489D01*
X141030264Y-112958501D01*
X141090602Y-113104172D01*
X141090609Y-113104185D01*
X141178210Y-113235288D01*
X141178213Y-113235292D01*
X141289707Y-113346786D01*
X141289711Y-113346789D01*
X141420814Y-113434390D01*
X141420827Y-113434397D01*
X141520060Y-113475500D01*
X141566503Y-113494737D01*
X141714482Y-113524172D01*
X141721153Y-113525499D01*
X141721156Y-113525500D01*
X141721158Y-113525500D01*
X141878844Y-113525500D01*
X141878845Y-113525499D01*
X142033497Y-113494737D01*
X142179179Y-113434394D01*
X142310289Y-113346789D01*
X142421789Y-113235289D01*
X142509394Y-113104179D01*
X142569737Y-112958497D01*
X142600500Y-112803842D01*
X142600500Y-112646158D01*
X142600500Y-112646155D01*
X142594155Y-112614258D01*
X142594155Y-112614257D01*
X142590554Y-112596153D01*
X143949500Y-112596153D01*
X143949500Y-112753846D01*
X143980261Y-112908489D01*
X143980264Y-112908501D01*
X144040602Y-113054172D01*
X144040609Y-113054185D01*
X144128210Y-113185288D01*
X144128213Y-113185292D01*
X144239707Y-113296786D01*
X144239711Y-113296789D01*
X144370814Y-113384390D01*
X144370827Y-113384397D01*
X144516498Y-113444735D01*
X144516503Y-113444737D01*
X144657660Y-113472815D01*
X144671153Y-113475499D01*
X144671156Y-113475500D01*
X144671158Y-113475500D01*
X144828844Y-113475500D01*
X144828845Y-113475499D01*
X144983497Y-113444737D01*
X145129179Y-113384394D01*
X145260289Y-113296789D01*
X145371789Y-113185289D01*
X145459394Y-113054179D01*
X145519737Y-112908497D01*
X145550500Y-112753842D01*
X145550500Y-112596158D01*
X145550500Y-112596155D01*
X145550499Y-112596153D01*
X145535990Y-112523211D01*
X145519737Y-112441503D01*
X145517293Y-112435602D01*
X145459397Y-112295827D01*
X145459390Y-112295814D01*
X145371789Y-112164711D01*
X145371786Y-112164707D01*
X145260292Y-112053213D01*
X145260288Y-112053210D01*
X145129185Y-111965609D01*
X145129172Y-111965602D01*
X144983501Y-111905264D01*
X144983489Y-111905261D01*
X144828845Y-111874500D01*
X144828842Y-111874500D01*
X144671158Y-111874500D01*
X144671155Y-111874500D01*
X144516510Y-111905261D01*
X144516498Y-111905264D01*
X144370827Y-111965602D01*
X144370814Y-111965609D01*
X144239711Y-112053210D01*
X144239707Y-112053213D01*
X144128213Y-112164707D01*
X144128210Y-112164711D01*
X144040609Y-112295814D01*
X144040602Y-112295827D01*
X143980264Y-112441498D01*
X143980261Y-112441510D01*
X143949500Y-112596153D01*
X142590554Y-112596153D01*
X142579944Y-112542821D01*
X142569737Y-112491503D01*
X142558088Y-112463379D01*
X142509397Y-112345827D01*
X142509390Y-112345814D01*
X142421789Y-112214711D01*
X142421786Y-112214707D01*
X142310292Y-112103213D01*
X142310288Y-112103210D01*
X142179185Y-112015609D01*
X142179172Y-112015602D01*
X142033501Y-111955264D01*
X142033489Y-111955261D01*
X141878845Y-111924500D01*
X141878842Y-111924500D01*
X141721158Y-111924500D01*
X141721155Y-111924500D01*
X141566510Y-111955261D01*
X141566498Y-111955264D01*
X141420827Y-112015602D01*
X141420814Y-112015609D01*
X141289711Y-112103210D01*
X141289707Y-112103213D01*
X141178213Y-112214707D01*
X141178210Y-112214711D01*
X141090609Y-112345814D01*
X141090602Y-112345827D01*
X141030264Y-112491498D01*
X141030261Y-112491510D01*
X140999500Y-112646153D01*
X138025500Y-112646153D01*
X138025500Y-112603542D01*
X137997620Y-112463385D01*
X137997619Y-112463384D01*
X137997619Y-112463380D01*
X137948924Y-112345821D01*
X137942930Y-112331349D01*
X137942925Y-112331340D01*
X137863532Y-112212521D01*
X137863529Y-112212517D01*
X137762482Y-112111470D01*
X137762478Y-112111467D01*
X137643659Y-112032074D01*
X137643650Y-112032069D01*
X137511620Y-111977381D01*
X137511614Y-111977379D01*
X137371457Y-111949500D01*
X137371455Y-111949500D01*
X137228545Y-111949500D01*
X137228543Y-111949500D01*
X137088385Y-111977379D01*
X137088379Y-111977381D01*
X136956349Y-112032069D01*
X136956340Y-112032074D01*
X136837521Y-112111467D01*
X136837517Y-112111470D01*
X136736470Y-112212517D01*
X136736467Y-112212521D01*
X136657074Y-112331340D01*
X136657069Y-112331349D01*
X136602381Y-112463379D01*
X136602379Y-112463385D01*
X136574500Y-112603542D01*
X136574500Y-112603545D01*
X136574500Y-112746455D01*
X136574500Y-112746457D01*
X136574499Y-112746457D01*
X133556456Y-112746457D01*
X133502926Y-112666344D01*
X133481789Y-112634711D01*
X133481786Y-112634707D01*
X133370292Y-112523213D01*
X133370288Y-112523210D01*
X133239185Y-112435609D01*
X133239172Y-112435602D01*
X133093501Y-112375264D01*
X133093489Y-112375261D01*
X132938845Y-112344500D01*
X132938842Y-112344500D01*
X132781158Y-112344500D01*
X132781153Y-112344500D01*
X132687694Y-112363090D01*
X132618102Y-112356863D01*
X132562925Y-112313999D01*
X132548942Y-112288926D01*
X132533704Y-112252139D01*
X132440626Y-112112837D01*
X132322162Y-111994373D01*
X132182860Y-111901295D01*
X132028082Y-111837184D01*
X132028074Y-111837182D01*
X131863771Y-111804500D01*
X131863767Y-111804500D01*
X131696233Y-111804500D01*
X131696228Y-111804500D01*
X131531925Y-111837182D01*
X131531917Y-111837184D01*
X131377139Y-111901295D01*
X131237837Y-111994373D01*
X131119373Y-112112837D01*
X131026295Y-112252139D01*
X130962184Y-112406917D01*
X130962182Y-112406925D01*
X130929500Y-112571228D01*
X125950500Y-112571228D01*
X125950500Y-109246457D01*
X136974499Y-109246457D01*
X137002379Y-109386614D01*
X137002381Y-109386620D01*
X137057069Y-109518650D01*
X137057074Y-109518659D01*
X137136467Y-109637478D01*
X137136470Y-109637482D01*
X137237517Y-109738529D01*
X137237521Y-109738532D01*
X137356340Y-109817925D01*
X137356346Y-109817928D01*
X137356347Y-109817929D01*
X137488380Y-109872619D01*
X137488384Y-109872619D01*
X137488385Y-109872620D01*
X137628542Y-109900500D01*
X137628545Y-109900500D01*
X137771457Y-109900500D01*
X137865751Y-109881742D01*
X137911620Y-109872619D01*
X138043653Y-109817929D01*
X138162479Y-109738532D01*
X138263532Y-109637479D01*
X138342929Y-109518653D01*
X138342930Y-109518649D01*
X138344535Y-109516248D01*
X138378748Y-109482035D01*
X138381149Y-109480430D01*
X138381153Y-109480429D01*
X138499979Y-109401032D01*
X138601032Y-109299979D01*
X138680429Y-109181153D01*
X138735119Y-109049120D01*
X138757326Y-108937479D01*
X138763000Y-108908957D01*
X138763000Y-108766042D01*
X138735120Y-108625885D01*
X138735119Y-108625884D01*
X138735119Y-108625880D01*
X138702221Y-108546457D01*
X143999499Y-108546457D01*
X144027379Y-108686614D01*
X144027381Y-108686620D01*
X144082069Y-108818650D01*
X144082074Y-108818659D01*
X144161467Y-108937478D01*
X144161470Y-108937482D01*
X144262517Y-109038529D01*
X144262521Y-109038532D01*
X144381340Y-109117925D01*
X144381346Y-109117928D01*
X144381347Y-109117929D01*
X144513380Y-109172619D01*
X144513384Y-109172619D01*
X144513385Y-109172620D01*
X144653542Y-109200500D01*
X144653545Y-109200500D01*
X144796457Y-109200500D01*
X144893732Y-109181150D01*
X144936620Y-109172619D01*
X145068653Y-109117929D01*
X145187479Y-109038532D01*
X145288532Y-108937479D01*
X145367929Y-108818653D01*
X145422619Y-108686620D01*
X145450500Y-108546455D01*
X145450500Y-108403545D01*
X145450500Y-108403542D01*
X145422620Y-108263385D01*
X145422619Y-108263384D01*
X145422619Y-108263380D01*
X145367929Y-108131347D01*
X145367928Y-108131346D01*
X145367925Y-108131340D01*
X145288532Y-108012521D01*
X145288529Y-108012517D01*
X145187482Y-107911470D01*
X145187478Y-107911467D01*
X145068659Y-107832074D01*
X145068650Y-107832069D01*
X144936620Y-107777381D01*
X144936614Y-107777379D01*
X144796457Y-107749500D01*
X144796455Y-107749500D01*
X144653545Y-107749500D01*
X144653543Y-107749500D01*
X144513385Y-107777379D01*
X144513379Y-107777381D01*
X144381349Y-107832069D01*
X144381340Y-107832074D01*
X144262521Y-107911467D01*
X144262517Y-107911470D01*
X144161470Y-108012517D01*
X144161467Y-108012521D01*
X144082074Y-108131340D01*
X144082069Y-108131349D01*
X144027381Y-108263379D01*
X144027379Y-108263385D01*
X143999500Y-108403542D01*
X143999500Y-108403545D01*
X143999500Y-108546455D01*
X143999500Y-108546457D01*
X143999499Y-108546457D01*
X138702221Y-108546457D01*
X138680429Y-108493847D01*
X138680426Y-108493842D01*
X138662052Y-108466343D01*
X138662051Y-108466342D01*
X138601032Y-108375021D01*
X138601029Y-108375017D01*
X138499982Y-108273970D01*
X138499978Y-108273967D01*
X138381159Y-108194574D01*
X138381150Y-108194569D01*
X138249120Y-108139881D01*
X138249114Y-108139879D01*
X138108957Y-108112000D01*
X138108955Y-108112000D01*
X137966045Y-108112000D01*
X137966043Y-108112000D01*
X137825885Y-108139879D01*
X137825879Y-108139881D01*
X137693849Y-108194569D01*
X137693840Y-108194574D01*
X137575021Y-108273967D01*
X137575017Y-108273970D01*
X137473970Y-108375017D01*
X137473967Y-108375021D01*
X137392963Y-108496252D01*
X137358752Y-108530463D01*
X137237521Y-108611467D01*
X137237517Y-108611470D01*
X137136470Y-108712517D01*
X137136467Y-108712521D01*
X137057074Y-108831340D01*
X137057069Y-108831349D01*
X137002381Y-108963379D01*
X137002379Y-108963385D01*
X136974500Y-109103542D01*
X136974500Y-109103545D01*
X136974500Y-109246455D01*
X136974500Y-109246457D01*
X136974499Y-109246457D01*
X125950500Y-109246457D01*
X125950500Y-106371457D01*
X133444499Y-106371457D01*
X133472381Y-106511626D01*
X133473106Y-106514014D01*
X133473117Y-106515324D01*
X133473569Y-106517594D01*
X133473138Y-106517679D01*
X133473725Y-106583881D01*
X133473106Y-106585986D01*
X133472381Y-106588373D01*
X133444500Y-106728542D01*
X133444500Y-106728545D01*
X133444500Y-106871455D01*
X133444500Y-106871457D01*
X133444499Y-106871457D01*
X133472381Y-107011626D01*
X133473106Y-107014014D01*
X133473117Y-107015324D01*
X133473569Y-107017594D01*
X133473138Y-107017679D01*
X133473725Y-107083881D01*
X133473106Y-107085986D01*
X133472381Y-107088373D01*
X133444500Y-107228542D01*
X133444500Y-107228545D01*
X133444500Y-107371455D01*
X133444500Y-107371457D01*
X133444499Y-107371457D01*
X133472379Y-107511614D01*
X133472381Y-107511620D01*
X133527069Y-107643650D01*
X133527074Y-107643659D01*
X133606467Y-107762478D01*
X133606470Y-107762482D01*
X133707517Y-107863529D01*
X133707521Y-107863532D01*
X133826340Y-107942925D01*
X133826346Y-107942928D01*
X133826347Y-107942929D01*
X133958380Y-107997619D01*
X133958384Y-107997619D01*
X133958385Y-107997620D01*
X134098542Y-108025500D01*
X134098545Y-108025500D01*
X134241457Y-108025500D01*
X134335751Y-108006742D01*
X134381620Y-107997619D01*
X134513653Y-107942929D01*
X134632479Y-107863532D01*
X134733532Y-107762479D01*
X134777646Y-107696457D01*
X146474499Y-107696457D01*
X146502379Y-107836614D01*
X146502381Y-107836620D01*
X146557069Y-107968650D01*
X146557074Y-107968659D01*
X146636467Y-108087478D01*
X146636470Y-108087482D01*
X146737517Y-108188529D01*
X146737521Y-108188532D01*
X146856340Y-108267925D01*
X146856346Y-108267928D01*
X146856347Y-108267929D01*
X146988380Y-108322619D01*
X146988384Y-108322619D01*
X146988385Y-108322620D01*
X147128542Y-108350500D01*
X147128545Y-108350500D01*
X147271457Y-108350500D01*
X147365751Y-108331742D01*
X147411620Y-108322619D01*
X147452547Y-108305665D01*
X147522016Y-108298197D01*
X147547452Y-108305665D01*
X147588380Y-108322619D01*
X147588384Y-108322619D01*
X147588385Y-108322620D01*
X147728542Y-108350500D01*
X147728545Y-108350500D01*
X147871457Y-108350500D01*
X147965751Y-108331742D01*
X148011620Y-108322619D01*
X148077550Y-108295309D01*
X148147015Y-108287841D01*
X148172443Y-108295306D01*
X148238380Y-108322619D01*
X148238384Y-108322619D01*
X148238385Y-108322620D01*
X148378542Y-108350500D01*
X148378545Y-108350500D01*
X148521457Y-108350500D01*
X148615751Y-108331742D01*
X148661620Y-108322619D01*
X148793653Y-108267929D01*
X148912479Y-108188532D01*
X149013532Y-108087479D01*
X149092929Y-107968653D01*
X149147619Y-107836620D01*
X149175500Y-107696455D01*
X149175500Y-107553545D01*
X149175500Y-107553542D01*
X149147620Y-107413385D01*
X149147619Y-107413384D01*
X149147619Y-107413380D01*
X149092929Y-107281347D01*
X149092928Y-107281346D01*
X149092925Y-107281340D01*
X149013532Y-107162521D01*
X149013529Y-107162517D01*
X148912482Y-107061470D01*
X148912478Y-107061467D01*
X148793659Y-106982074D01*
X148793650Y-106982069D01*
X148661620Y-106927381D01*
X148661614Y-106927379D01*
X148521457Y-106899500D01*
X148521455Y-106899500D01*
X148378545Y-106899500D01*
X148378543Y-106899500D01*
X148238386Y-106927379D01*
X148238378Y-106927381D01*
X148172452Y-106954689D01*
X148102983Y-106962158D01*
X148077548Y-106954689D01*
X148011621Y-106927381D01*
X148011613Y-106927379D01*
X147871457Y-106899500D01*
X147871455Y-106899500D01*
X147728545Y-106899500D01*
X147728543Y-106899500D01*
X147588385Y-106927379D01*
X147588380Y-106927381D01*
X147547451Y-106944334D01*
X147477982Y-106951802D01*
X147452549Y-106944334D01*
X147436886Y-106937846D01*
X147411620Y-106927381D01*
X147411618Y-106927380D01*
X147411614Y-106927379D01*
X147271457Y-106899500D01*
X147271455Y-106899500D01*
X147128545Y-106899500D01*
X147128543Y-106899500D01*
X146988385Y-106927379D01*
X146988379Y-106927381D01*
X146856349Y-106982069D01*
X146856340Y-106982074D01*
X146737521Y-107061467D01*
X146737517Y-107061470D01*
X146636470Y-107162517D01*
X146636467Y-107162521D01*
X146557074Y-107281340D01*
X146557069Y-107281349D01*
X146502381Y-107413379D01*
X146502379Y-107413385D01*
X146474500Y-107553542D01*
X146474500Y-107553545D01*
X146474500Y-107696455D01*
X146474500Y-107696457D01*
X146474499Y-107696457D01*
X134777646Y-107696457D01*
X134812929Y-107643653D01*
X134867619Y-107511620D01*
X134876742Y-107465751D01*
X134895500Y-107371457D01*
X134895500Y-107228542D01*
X134867619Y-107088379D01*
X134866897Y-107085999D01*
X134866885Y-107084689D01*
X134866431Y-107082406D01*
X134866864Y-107082319D01*
X134866271Y-107016133D01*
X134866897Y-107014001D01*
X134867619Y-107011620D01*
X134895500Y-106871457D01*
X134895500Y-106728542D01*
X134867619Y-106588379D01*
X134866897Y-106585999D01*
X134866885Y-106584689D01*
X134866431Y-106582406D01*
X134866864Y-106582319D01*
X134866271Y-106516133D01*
X134866897Y-106514001D01*
X134867619Y-106511620D01*
X134895500Y-106371457D01*
X134895500Y-106228542D01*
X134867620Y-106088385D01*
X134867619Y-106088384D01*
X134867619Y-106088380D01*
X134825318Y-105986258D01*
X134812930Y-105956349D01*
X134812925Y-105956340D01*
X134733532Y-105837521D01*
X134733529Y-105837517D01*
X134632482Y-105736470D01*
X134632478Y-105736467D01*
X134513659Y-105657074D01*
X134513650Y-105657069D01*
X134381620Y-105602381D01*
X134381614Y-105602379D01*
X134241457Y-105574500D01*
X134241455Y-105574500D01*
X134098545Y-105574500D01*
X134098543Y-105574500D01*
X133958385Y-105602379D01*
X133958379Y-105602381D01*
X133826349Y-105657069D01*
X133826340Y-105657074D01*
X133707521Y-105736467D01*
X133707517Y-105736470D01*
X133606470Y-105837517D01*
X133606467Y-105837521D01*
X133527074Y-105956340D01*
X133527069Y-105956349D01*
X133472381Y-106088379D01*
X133472379Y-106088385D01*
X133444500Y-106228542D01*
X133444500Y-106228545D01*
X133444500Y-106371455D01*
X133444500Y-106371457D01*
X133444499Y-106371457D01*
X125950500Y-106371457D01*
X125950500Y-105321457D01*
X130274499Y-105321457D01*
X130302379Y-105461614D01*
X130302381Y-105461620D01*
X130357069Y-105593650D01*
X130357074Y-105593659D01*
X130436467Y-105712478D01*
X130436470Y-105712482D01*
X130537517Y-105813529D01*
X130537521Y-105813532D01*
X130656340Y-105892925D01*
X130656346Y-105892928D01*
X130656347Y-105892929D01*
X130788380Y-105947619D01*
X130788384Y-105947619D01*
X130788385Y-105947620D01*
X130928542Y-105975500D01*
X130928545Y-105975500D01*
X131071457Y-105975500D01*
X131167777Y-105956340D01*
X131211620Y-105947619D01*
X131343653Y-105892929D01*
X131462479Y-105813532D01*
X131563532Y-105712479D01*
X131642929Y-105593653D01*
X131697619Y-105461620D01*
X131712367Y-105387478D01*
X131725500Y-105321457D01*
X131725500Y-105178542D01*
X131697620Y-105038385D01*
X131697619Y-105038384D01*
X131697619Y-105038380D01*
X131642929Y-104906347D01*
X131642928Y-104906346D01*
X131642925Y-104906340D01*
X131563532Y-104787521D01*
X131563529Y-104787517D01*
X131462482Y-104686470D01*
X131462478Y-104686467D01*
X131343659Y-104607074D01*
X131343650Y-104607069D01*
X131211620Y-104552381D01*
X131211614Y-104552379D01*
X131071457Y-104524500D01*
X131071455Y-104524500D01*
X130928545Y-104524500D01*
X130928543Y-104524500D01*
X130788385Y-104552379D01*
X130788379Y-104552381D01*
X130656349Y-104607069D01*
X130656340Y-104607074D01*
X130537521Y-104686467D01*
X130537517Y-104686470D01*
X130436470Y-104787517D01*
X130436467Y-104787521D01*
X130357074Y-104906340D01*
X130357069Y-104906349D01*
X130302381Y-105038379D01*
X130302379Y-105038385D01*
X130274500Y-105178542D01*
X130274500Y-105178545D01*
X130274500Y-105321455D01*
X130274500Y-105321457D01*
X130274499Y-105321457D01*
X125950500Y-105321457D01*
X125950500Y-92353659D01*
X125970185Y-92286620D01*
X126022989Y-92240865D01*
X126092147Y-92230921D01*
X126112364Y-92236471D01*
X126112553Y-92235851D01*
X126118375Y-92237617D01*
X126118380Y-92237619D01*
X126118384Y-92237619D01*
X126118385Y-92237620D01*
X126258542Y-92265500D01*
X126258545Y-92265500D01*
X126401457Y-92265500D01*
X126518198Y-92242278D01*
X126541620Y-92237619D01*
X126673653Y-92182929D01*
X126792479Y-92103532D01*
X126893532Y-92002479D01*
X126972929Y-91883653D01*
X127027619Y-91751620D01*
X127055500Y-91611455D01*
X127055500Y-91468545D01*
X127055500Y-91468542D01*
X127027620Y-91328385D01*
X127027619Y-91328384D01*
X127027619Y-91328380D01*
X126972929Y-91196347D01*
X126972928Y-91196346D01*
X126972925Y-91196340D01*
X126893532Y-91077521D01*
X126893529Y-91077517D01*
X126792482Y-90976470D01*
X126792478Y-90976467D01*
X126673659Y-90897074D01*
X126673650Y-90897069D01*
X126541620Y-90842381D01*
X126541614Y-90842379D01*
X126401457Y-90814500D01*
X126401455Y-90814500D01*
X126258545Y-90814500D01*
X126258543Y-90814500D01*
X126118385Y-90842379D01*
X126112553Y-90844149D01*
X126111896Y-90841984D01*
X126052473Y-90848368D01*
X125989996Y-90817088D01*
X125954349Y-90756996D01*
X125950500Y-90726340D01*
X125950500Y-82561457D01*
X128024499Y-82561457D01*
X128052379Y-82701614D01*
X128052381Y-82701620D01*
X128107069Y-82833650D01*
X128107074Y-82833659D01*
X128186467Y-82952478D01*
X128186470Y-82952482D01*
X128287517Y-83053529D01*
X128287521Y-83053532D01*
X128406340Y-83132925D01*
X128406346Y-83132928D01*
X128406347Y-83132929D01*
X128538380Y-83187619D01*
X128538384Y-83187619D01*
X128538385Y-83187620D01*
X128678542Y-83215500D01*
X128678545Y-83215500D01*
X128821452Y-83215500D01*
X128821455Y-83215500D01*
X128824299Y-83214934D01*
X128825821Y-83215070D01*
X128827520Y-83214903D01*
X128827551Y-83215224D01*
X128893888Y-83221154D01*
X128949070Y-83264011D01*
X128972322Y-83329898D01*
X128972500Y-83336549D01*
X128972500Y-97611807D01*
X128996612Y-97733028D01*
X128996615Y-97733039D01*
X129005885Y-97755417D01*
X129008455Y-97761620D01*
X129043917Y-97847233D01*
X129108343Y-97943653D01*
X129111390Y-97948213D01*
X129112589Y-97950008D01*
X130770916Y-99608335D01*
X130799594Y-99656181D01*
X130800050Y-99655993D01*
X130801320Y-99659061D01*
X130801895Y-99660019D01*
X130802380Y-99661619D01*
X130857069Y-99793649D01*
X130857074Y-99793659D01*
X130936467Y-99912478D01*
X130936470Y-99912482D01*
X131037517Y-100013529D01*
X131037521Y-100013532D01*
X131156340Y-100092925D01*
X131156346Y-100092928D01*
X131156347Y-100092929D01*
X131288380Y-100147619D01*
X131288384Y-100147619D01*
X131288385Y-100147620D01*
X131428542Y-100175500D01*
X131428545Y-100175500D01*
X131571457Y-100175500D01*
X131681828Y-100153545D01*
X131711620Y-100147619D01*
X131843653Y-100092929D01*
X131962479Y-100013532D01*
X132063532Y-99912479D01*
X132142929Y-99793653D01*
X132197619Y-99661620D01*
X132222313Y-99537478D01*
X132225500Y-99521457D01*
X132225500Y-99378542D01*
X132197620Y-99238385D01*
X132197619Y-99238384D01*
X132197619Y-99238380D01*
X132142929Y-99106347D01*
X132142928Y-99106346D01*
X132142925Y-99106340D01*
X132063532Y-98987521D01*
X132063529Y-98987517D01*
X131962482Y-98886470D01*
X131962478Y-98886467D01*
X131843659Y-98807074D01*
X131843649Y-98807069D01*
X131711619Y-98752380D01*
X131710019Y-98751895D01*
X131709061Y-98751320D01*
X131705993Y-98750050D01*
X131706181Y-98749594D01*
X131658335Y-98720916D01*
X130263819Y-97326400D01*
X130230334Y-97265077D01*
X130227500Y-97238719D01*
X130227500Y-96233849D01*
X130247185Y-96166810D01*
X130299989Y-96121055D01*
X130369147Y-96111111D01*
X130432703Y-96140136D01*
X130454602Y-96164958D01*
X130536467Y-96287479D01*
X130637517Y-96388529D01*
X130637521Y-96388532D01*
X130756340Y-96467925D01*
X130756346Y-96467928D01*
X130756347Y-96467929D01*
X130888380Y-96522619D01*
X130888384Y-96522619D01*
X130888385Y-96522620D01*
X131028542Y-96550500D01*
X131028545Y-96550500D01*
X131171457Y-96550500D01*
X131299705Y-96524989D01*
X131311620Y-96522619D01*
X131443653Y-96467929D01*
X131443660Y-96467924D01*
X131445122Y-96467144D01*
X131446201Y-96466873D01*
X131449281Y-96465598D01*
X131449470Y-96466054D01*
X131503579Y-96452500D01*
X133450500Y-96452500D01*
X133517539Y-96472185D01*
X133563294Y-96524989D01*
X133573094Y-96557882D01*
X133574500Y-96567139D01*
X133574500Y-96621455D01*
X133602381Y-96761620D01*
X133604993Y-96767927D01*
X133607037Y-96781382D01*
X133603491Y-96807510D01*
X133603725Y-96833881D01*
X133603106Y-96835986D01*
X133602381Y-96838373D01*
X133574500Y-96978542D01*
X133574500Y-97121453D01*
X133574499Y-97121457D01*
X133602381Y-97261626D01*
X133603106Y-97264014D01*
X133603117Y-97265324D01*
X133603569Y-97267594D01*
X133603138Y-97267679D01*
X133603725Y-97333881D01*
X133603106Y-97335986D01*
X133602381Y-97338373D01*
X133574500Y-97478542D01*
X133574500Y-97478545D01*
X133574500Y-97621455D01*
X133574500Y-97621457D01*
X133574499Y-97621457D01*
X133602379Y-97761614D01*
X133602381Y-97761620D01*
X133657069Y-97893650D01*
X133657074Y-97893659D01*
X133736467Y-98012478D01*
X133736470Y-98012482D01*
X133837517Y-98113529D01*
X133837521Y-98113532D01*
X133956340Y-98192925D01*
X133956346Y-98192928D01*
X133956347Y-98192929D01*
X134088380Y-98247619D01*
X134088384Y-98247619D01*
X134088385Y-98247620D01*
X134228542Y-98275500D01*
X134228545Y-98275500D01*
X134371457Y-98275500D01*
X134465751Y-98256742D01*
X134511620Y-98247619D01*
X134643653Y-98192929D01*
X134762479Y-98113532D01*
X134863532Y-98012479D01*
X134942929Y-97893653D01*
X134997619Y-97761620D01*
X135010019Y-97699281D01*
X135025500Y-97621457D01*
X135025500Y-97478542D01*
X134997619Y-97338379D01*
X134996897Y-97335999D01*
X134996885Y-97334689D01*
X134996431Y-97332406D01*
X134996864Y-97332319D01*
X134996271Y-97266133D01*
X134996897Y-97264001D01*
X134997619Y-97261620D01*
X135020527Y-97146457D01*
X139674499Y-97146457D01*
X139702379Y-97286614D01*
X139702381Y-97286620D01*
X139757069Y-97418650D01*
X139757074Y-97418659D01*
X139836467Y-97537478D01*
X139836470Y-97537482D01*
X139937517Y-97638529D01*
X139937521Y-97638532D01*
X140056340Y-97717925D01*
X140056346Y-97717928D01*
X140056347Y-97717929D01*
X140188380Y-97772619D01*
X140188384Y-97772619D01*
X140188385Y-97772620D01*
X140328542Y-97800500D01*
X140328545Y-97800500D01*
X140471457Y-97800500D01*
X140565751Y-97781742D01*
X140611620Y-97772619D01*
X140743653Y-97717929D01*
X140862479Y-97638532D01*
X140963532Y-97537479D01*
X141041055Y-97421457D01*
X144299499Y-97421457D01*
X144327379Y-97561614D01*
X144327381Y-97561620D01*
X144382068Y-97693648D01*
X144382853Y-97695115D01*
X144383123Y-97696193D01*
X144384402Y-97699281D01*
X144383944Y-97699470D01*
X144397500Y-97753578D01*
X144397500Y-101686807D01*
X144421612Y-101808027D01*
X144421614Y-101808035D01*
X144445536Y-101865789D01*
X144445539Y-101865794D01*
X144448366Y-101872619D01*
X144468917Y-101922233D01*
X144518511Y-101996455D01*
X144521172Y-102000438D01*
X144521174Y-102000441D01*
X144537586Y-102025005D01*
X144537589Y-102025008D01*
X147837589Y-105325008D01*
X147900059Y-105387478D01*
X147924994Y-105412413D01*
X147924996Y-105412414D01*
X148027756Y-105481076D01*
X148027758Y-105481077D01*
X148027767Y-105481083D01*
X148038688Y-105485606D01*
X148045743Y-105488529D01*
X148045746Y-105488530D01*
X148045751Y-105488532D01*
X148141966Y-105528386D01*
X148263192Y-105552499D01*
X148263196Y-105552500D01*
X148263197Y-105552500D01*
X148386803Y-105552500D01*
X154321421Y-105552500D01*
X154375529Y-105566054D01*
X154375719Y-105565598D01*
X154378798Y-105566873D01*
X154379878Y-105567144D01*
X154381343Y-105567926D01*
X154381347Y-105567929D01*
X154513380Y-105622619D01*
X154513384Y-105622619D01*
X154513385Y-105622620D01*
X154653542Y-105650500D01*
X154653545Y-105650500D01*
X154796457Y-105650500D01*
X154890751Y-105631742D01*
X154936620Y-105622619D01*
X155068653Y-105567929D01*
X155187479Y-105488532D01*
X155288532Y-105387479D01*
X155367929Y-105268653D01*
X155422619Y-105136620D01*
X155431742Y-105090751D01*
X155450500Y-104996457D01*
X155450500Y-104853542D01*
X155422620Y-104713385D01*
X155422619Y-104713384D01*
X155422619Y-104713380D01*
X155380318Y-104611258D01*
X155367930Y-104581349D01*
X155367925Y-104581340D01*
X155288532Y-104462521D01*
X155288529Y-104462517D01*
X155187482Y-104361470D01*
X155187478Y-104361467D01*
X155068659Y-104282074D01*
X155068650Y-104282069D01*
X154936620Y-104227381D01*
X154936614Y-104227379D01*
X154796457Y-104199500D01*
X154796455Y-104199500D01*
X154653545Y-104199500D01*
X154653543Y-104199500D01*
X154513385Y-104227379D01*
X154513379Y-104227381D01*
X154381346Y-104282071D01*
X154379878Y-104282856D01*
X154378798Y-104283126D01*
X154375719Y-104284402D01*
X154375529Y-104283945D01*
X154321421Y-104297500D01*
X150401034Y-104297500D01*
X150333995Y-104277815D01*
X150288240Y-104225011D01*
X150279417Y-104197691D01*
X150267620Y-104138387D01*
X150267619Y-104138380D01*
X150212929Y-104006347D01*
X150212928Y-104006346D01*
X150212925Y-104006340D01*
X150133532Y-103887521D01*
X150133529Y-103887517D01*
X150032482Y-103786470D01*
X150032478Y-103786467D01*
X149913659Y-103707074D01*
X149913650Y-103707069D01*
X149781620Y-103652381D01*
X149781614Y-103652379D01*
X149641457Y-103624500D01*
X149641455Y-103624500D01*
X149498545Y-103624500D01*
X149498543Y-103624500D01*
X149358385Y-103652379D01*
X149358379Y-103652381D01*
X149226349Y-103707069D01*
X149226340Y-103707074D01*
X149107521Y-103786467D01*
X149107517Y-103786470D01*
X149006470Y-103887517D01*
X149006467Y-103887521D01*
X148927074Y-104006340D01*
X148927069Y-104006349D01*
X148872381Y-104138379D01*
X148872379Y-104138387D01*
X148860583Y-104197691D01*
X148845868Y-104225821D01*
X148832679Y-104254703D01*
X148829790Y-104256559D01*
X148828199Y-104259602D01*
X148800611Y-104275311D01*
X148773901Y-104292477D01*
X148769306Y-104293137D01*
X148767483Y-104294176D01*
X148738966Y-104297500D01*
X148636281Y-104297500D01*
X148569242Y-104277815D01*
X148548600Y-104261181D01*
X145688819Y-101401400D01*
X145655334Y-101340077D01*
X145652500Y-101313719D01*
X145652500Y-101021457D01*
X146974499Y-101021457D01*
X147002379Y-101161614D01*
X147002381Y-101161620D01*
X147057069Y-101293650D01*
X147057074Y-101293659D01*
X147136467Y-101412478D01*
X147136470Y-101412482D01*
X147237517Y-101513529D01*
X147237521Y-101513532D01*
X147356340Y-101592925D01*
X147356346Y-101592928D01*
X147356347Y-101592929D01*
X147488380Y-101647619D01*
X147488384Y-101647619D01*
X147488385Y-101647620D01*
X147628542Y-101675500D01*
X147628545Y-101675500D01*
X147771457Y-101675500D01*
X147872377Y-101655425D01*
X147911620Y-101647619D01*
X148043653Y-101592929D01*
X148162479Y-101513532D01*
X148263532Y-101412479D01*
X148342929Y-101293653D01*
X148397619Y-101161620D01*
X148409172Y-101103542D01*
X148413068Y-101083957D01*
X150211999Y-101083957D01*
X150239879Y-101224114D01*
X150239881Y-101224120D01*
X150294569Y-101356150D01*
X150294574Y-101356159D01*
X150373967Y-101474978D01*
X150373970Y-101474982D01*
X150475017Y-101576029D01*
X150475021Y-101576032D01*
X150593840Y-101655425D01*
X150593846Y-101655428D01*
X150593847Y-101655429D01*
X150725880Y-101710119D01*
X150725884Y-101710119D01*
X150725885Y-101710120D01*
X150866042Y-101738000D01*
X150866045Y-101738000D01*
X151008957Y-101738000D01*
X151103251Y-101719242D01*
X151149120Y-101710119D01*
X151281153Y-101655429D01*
X151399979Y-101576032D01*
X151501032Y-101474979D01*
X151580429Y-101356153D01*
X151635119Y-101224120D01*
X151647552Y-101161614D01*
X151663000Y-101083957D01*
X151663000Y-100941042D01*
X151635120Y-100800885D01*
X151635119Y-100800884D01*
X151635119Y-100800880D01*
X151580429Y-100668847D01*
X151580428Y-100668846D01*
X151580425Y-100668840D01*
X151501032Y-100550021D01*
X151501029Y-100550017D01*
X151399982Y-100448970D01*
X151399978Y-100448967D01*
X151281159Y-100369574D01*
X151281150Y-100369569D01*
X151149120Y-100314881D01*
X151149114Y-100314879D01*
X151056500Y-100296457D01*
X152149499Y-100296457D01*
X152177379Y-100436614D01*
X152177381Y-100436620D01*
X152232069Y-100568650D01*
X152257099Y-100606111D01*
X152277975Y-100672789D01*
X152259489Y-100740169D01*
X152257099Y-100743889D01*
X152232069Y-100781349D01*
X152177381Y-100913379D01*
X152177379Y-100913385D01*
X152149500Y-101053542D01*
X152149500Y-101053545D01*
X152149500Y-101196455D01*
X152149500Y-101196457D01*
X152149499Y-101196457D01*
X152177379Y-101336614D01*
X152177381Y-101336620D01*
X152234402Y-101474281D01*
X152232705Y-101474983D01*
X152245184Y-101534971D01*
X152233347Y-101575282D01*
X152234402Y-101575719D01*
X152177381Y-101713379D01*
X152177379Y-101713385D01*
X152149500Y-101853542D01*
X152149500Y-101996455D01*
X152177379Y-102136614D01*
X152177381Y-102136620D01*
X152234402Y-102274281D01*
X152232705Y-102274983D01*
X152245184Y-102334971D01*
X152233347Y-102375282D01*
X152234402Y-102375719D01*
X152177381Y-102513379D01*
X152177379Y-102513385D01*
X152149500Y-102653542D01*
X152149500Y-102653545D01*
X152149500Y-102796455D01*
X152149500Y-102796457D01*
X152149499Y-102796457D01*
X152177379Y-102936614D01*
X152177381Y-102936620D01*
X152232069Y-103068650D01*
X152232074Y-103068659D01*
X152311467Y-103187478D01*
X152311470Y-103187482D01*
X152412517Y-103288529D01*
X152412521Y-103288532D01*
X152531340Y-103367925D01*
X152531346Y-103367928D01*
X152531347Y-103367929D01*
X152663380Y-103422619D01*
X152663384Y-103422619D01*
X152663385Y-103422620D01*
X152803542Y-103450500D01*
X152803545Y-103450500D01*
X152946457Y-103450500D01*
X153040751Y-103431742D01*
X153086620Y-103422619D01*
X153218653Y-103367929D01*
X153337479Y-103288532D01*
X153438532Y-103187479D01*
X153517929Y-103068653D01*
X153572619Y-102936620D01*
X153600500Y-102796455D01*
X153600500Y-102653545D01*
X153600500Y-102653542D01*
X153572620Y-102513385D01*
X153572619Y-102513384D01*
X153572619Y-102513380D01*
X153517929Y-102381347D01*
X153515598Y-102375719D01*
X153517299Y-102375014D01*
X153504812Y-102315059D01*
X153516656Y-102274719D01*
X153515598Y-102274281D01*
X153525098Y-102251344D01*
X153572619Y-102136620D01*
X153600500Y-101996455D01*
X153600500Y-101853545D01*
X153600500Y-101853542D01*
X153572620Y-101713385D01*
X153572619Y-101713384D01*
X153572619Y-101713380D01*
X153522727Y-101592930D01*
X153515598Y-101575719D01*
X153517299Y-101575014D01*
X153504812Y-101515059D01*
X153516656Y-101474719D01*
X153515598Y-101474281D01*
X153541197Y-101412479D01*
X153572619Y-101336620D01*
X153590554Y-101246457D01*
X158224499Y-101246457D01*
X158252379Y-101386614D01*
X158252381Y-101386620D01*
X158307069Y-101518650D01*
X158307074Y-101518659D01*
X158386467Y-101637478D01*
X158386470Y-101637482D01*
X158487517Y-101738529D01*
X158487521Y-101738532D01*
X158606340Y-101817925D01*
X158606346Y-101817928D01*
X158606347Y-101817929D01*
X158738380Y-101872619D01*
X158738384Y-101872619D01*
X158738385Y-101872620D01*
X158878542Y-101900500D01*
X158878545Y-101900500D01*
X159021457Y-101900500D01*
X159115751Y-101881742D01*
X159161620Y-101872619D01*
X159202547Y-101855665D01*
X159272016Y-101848197D01*
X159297452Y-101855665D01*
X159338380Y-101872619D01*
X159338384Y-101872619D01*
X159338385Y-101872620D01*
X159478542Y-101900500D01*
X159478545Y-101900500D01*
X159621457Y-101900500D01*
X159715751Y-101881742D01*
X159761620Y-101872619D01*
X159802547Y-101855665D01*
X159872016Y-101848197D01*
X159897452Y-101855665D01*
X159938380Y-101872619D01*
X159938384Y-101872619D01*
X159938385Y-101872620D01*
X160078542Y-101900500D01*
X160078545Y-101900500D01*
X160221457Y-101900500D01*
X160315751Y-101881742D01*
X160361620Y-101872619D01*
X160493653Y-101817929D01*
X160612479Y-101738532D01*
X160713532Y-101637479D01*
X160792929Y-101518653D01*
X160847619Y-101386620D01*
X160862120Y-101313719D01*
X160875500Y-101246457D01*
X160875500Y-101103542D01*
X160847620Y-100963385D01*
X160847619Y-100963384D01*
X160847619Y-100963380D01*
X160792929Y-100831347D01*
X160792928Y-100831346D01*
X160792925Y-100831340D01*
X160713532Y-100712521D01*
X160713529Y-100712517D01*
X160612482Y-100611470D01*
X160612478Y-100611467D01*
X160493659Y-100532074D01*
X160493650Y-100532069D01*
X160361620Y-100477381D01*
X160361614Y-100477379D01*
X160221457Y-100449500D01*
X160221455Y-100449500D01*
X160078545Y-100449500D01*
X160078543Y-100449500D01*
X159938385Y-100477379D01*
X159938380Y-100477381D01*
X159897451Y-100494334D01*
X159827982Y-100501802D01*
X159802549Y-100494334D01*
X159786091Y-100487517D01*
X159761620Y-100477381D01*
X159761618Y-100477380D01*
X159761614Y-100477379D01*
X159621457Y-100449500D01*
X159621455Y-100449500D01*
X159478545Y-100449500D01*
X159478543Y-100449500D01*
X159338385Y-100477379D01*
X159338380Y-100477381D01*
X159297451Y-100494334D01*
X159227982Y-100501802D01*
X159202549Y-100494334D01*
X159186091Y-100487517D01*
X159161620Y-100477381D01*
X159161618Y-100477380D01*
X159161614Y-100477379D01*
X159021457Y-100449500D01*
X159021455Y-100449500D01*
X158878545Y-100449500D01*
X158878543Y-100449500D01*
X158738385Y-100477379D01*
X158738379Y-100477381D01*
X158606349Y-100532069D01*
X158606340Y-100532074D01*
X158487521Y-100611467D01*
X158487517Y-100611470D01*
X158386470Y-100712517D01*
X158386467Y-100712521D01*
X158307074Y-100831340D01*
X158307069Y-100831349D01*
X158252381Y-100963379D01*
X158252379Y-100963385D01*
X158224500Y-101103542D01*
X158224500Y-101103545D01*
X158224500Y-101246455D01*
X158224500Y-101246457D01*
X158224499Y-101246457D01*
X153590554Y-101246457D01*
X153600500Y-101196455D01*
X153600500Y-101053545D01*
X153600500Y-101053542D01*
X153572620Y-100913385D01*
X153572619Y-100913384D01*
X153572619Y-100913380D01*
X153517929Y-100781347D01*
X153492902Y-100743891D01*
X153472024Y-100677214D01*
X153490508Y-100609834D01*
X153492902Y-100606109D01*
X153501926Y-100592603D01*
X153517929Y-100568653D01*
X153572619Y-100436620D01*
X153582595Y-100386467D01*
X153600500Y-100296457D01*
X153600500Y-100153542D01*
X153572620Y-100013385D01*
X153572619Y-100013384D01*
X153572619Y-100013380D01*
X153517929Y-99881347D01*
X153517928Y-99881346D01*
X153517925Y-99881340D01*
X153438532Y-99762521D01*
X153438529Y-99762517D01*
X153337482Y-99661470D01*
X153337478Y-99661467D01*
X153218659Y-99582074D01*
X153218650Y-99582069D01*
X153086620Y-99527381D01*
X153086614Y-99527379D01*
X152946457Y-99499500D01*
X152946455Y-99499500D01*
X152803545Y-99499500D01*
X152803543Y-99499500D01*
X152663385Y-99527379D01*
X152663379Y-99527381D01*
X152531349Y-99582069D01*
X152531340Y-99582074D01*
X152412521Y-99661467D01*
X152412517Y-99661470D01*
X152311470Y-99762517D01*
X152311467Y-99762521D01*
X152232074Y-99881340D01*
X152232069Y-99881349D01*
X152177381Y-100013379D01*
X152177379Y-100013385D01*
X152149500Y-100153542D01*
X152149500Y-100153545D01*
X152149500Y-100296455D01*
X152149500Y-100296457D01*
X152149499Y-100296457D01*
X151056500Y-100296457D01*
X151008957Y-100287000D01*
X151008955Y-100287000D01*
X150866045Y-100287000D01*
X150866043Y-100287000D01*
X150725885Y-100314879D01*
X150725879Y-100314881D01*
X150593849Y-100369569D01*
X150593840Y-100369574D01*
X150475021Y-100448967D01*
X150475017Y-100448970D01*
X150373970Y-100550017D01*
X150373967Y-100550021D01*
X150294574Y-100668840D01*
X150294569Y-100668849D01*
X150239881Y-100800879D01*
X150239879Y-100800885D01*
X150212000Y-100941042D01*
X150212000Y-100941045D01*
X150212000Y-101083955D01*
X150212000Y-101083957D01*
X150211999Y-101083957D01*
X148413068Y-101083957D01*
X148425500Y-101021457D01*
X148425500Y-100878542D01*
X148397620Y-100738385D01*
X148397619Y-100738384D01*
X148397619Y-100738380D01*
X148345050Y-100611467D01*
X148342930Y-100606349D01*
X148342925Y-100606340D01*
X148263532Y-100487521D01*
X148263529Y-100487517D01*
X148162482Y-100386470D01*
X148162478Y-100386467D01*
X148043659Y-100307074D01*
X148043650Y-100307069D01*
X147934876Y-100262014D01*
X147934874Y-100262013D01*
X147911624Y-100252382D01*
X147911614Y-100252379D01*
X147771457Y-100224500D01*
X147771455Y-100224500D01*
X147628545Y-100224500D01*
X147628543Y-100224500D01*
X147488385Y-100252379D01*
X147488379Y-100252381D01*
X147356349Y-100307069D01*
X147356340Y-100307074D01*
X147237521Y-100386467D01*
X147237517Y-100386470D01*
X147136470Y-100487517D01*
X147136467Y-100487521D01*
X147057074Y-100606340D01*
X147057069Y-100606349D01*
X147002381Y-100738379D01*
X147002379Y-100738385D01*
X146974500Y-100878542D01*
X146974500Y-100878545D01*
X146974500Y-101021455D01*
X146974500Y-101021457D01*
X146974499Y-101021457D01*
X145652500Y-101021457D01*
X145652500Y-97753578D01*
X145659374Y-97712865D01*
X145664016Y-97699507D01*
X145667929Y-97693653D01*
X145677123Y-97671457D01*
X156024499Y-97671457D01*
X156052379Y-97811614D01*
X156052381Y-97811620D01*
X156107069Y-97943650D01*
X156107074Y-97943659D01*
X156186467Y-98062478D01*
X156186470Y-98062482D01*
X156287517Y-98163529D01*
X156287521Y-98163532D01*
X156406340Y-98242925D01*
X156406349Y-98242930D01*
X156417672Y-98247620D01*
X156538380Y-98297619D01*
X156538384Y-98297619D01*
X156538385Y-98297620D01*
X156678542Y-98325500D01*
X156678545Y-98325500D01*
X156821457Y-98325500D01*
X156953602Y-98299214D01*
X157023194Y-98305441D01*
X157078371Y-98348304D01*
X157101616Y-98414193D01*
X157085548Y-98482190D01*
X157065476Y-98508512D01*
X156961467Y-98612521D01*
X156882074Y-98731340D01*
X156882069Y-98731349D01*
X156827381Y-98863379D01*
X156827379Y-98863385D01*
X156799500Y-99003542D01*
X156799500Y-99003545D01*
X156799500Y-99146455D01*
X156799500Y-99146457D01*
X156799499Y-99146457D01*
X156827379Y-99286614D01*
X156827381Y-99286620D01*
X156882069Y-99418650D01*
X156882074Y-99418659D01*
X156961467Y-99537478D01*
X156961470Y-99537482D01*
X157062517Y-99638529D01*
X157062521Y-99638532D01*
X157181340Y-99717925D01*
X157181346Y-99717928D01*
X157181347Y-99717929D01*
X157313380Y-99772619D01*
X157313384Y-99772619D01*
X157313385Y-99772620D01*
X157453542Y-99800500D01*
X157453545Y-99800500D01*
X157596457Y-99800500D01*
X157690751Y-99781742D01*
X157736620Y-99772619D01*
X157868653Y-99717929D01*
X157987479Y-99638532D01*
X158088532Y-99537479D01*
X158167929Y-99418653D01*
X158222619Y-99286620D01*
X158250500Y-99146455D01*
X158250500Y-99003545D01*
X158250500Y-99003542D01*
X158222620Y-98863385D01*
X158222619Y-98863384D01*
X158222619Y-98863380D01*
X158167929Y-98731347D01*
X158167928Y-98731346D01*
X158167925Y-98731340D01*
X158088532Y-98612521D01*
X158088529Y-98612517D01*
X157987482Y-98511470D01*
X157987478Y-98511467D01*
X157868659Y-98432074D01*
X157868650Y-98432069D01*
X157736620Y-98377381D01*
X157736614Y-98377379D01*
X157596457Y-98349500D01*
X157596455Y-98349500D01*
X157453545Y-98349500D01*
X157453540Y-98349500D01*
X157321396Y-98375785D01*
X157251804Y-98369558D01*
X157196627Y-98326695D01*
X157173383Y-98260805D01*
X157189451Y-98192808D01*
X157209524Y-98166486D01*
X157212475Y-98163534D01*
X157212479Y-98163532D01*
X157313532Y-98062479D01*
X157392929Y-97943653D01*
X157447619Y-97811620D01*
X157458799Y-97755417D01*
X157475500Y-97671457D01*
X157475500Y-97528542D01*
X157447620Y-97388385D01*
X157447619Y-97388384D01*
X157447619Y-97388380D01*
X157402124Y-97278545D01*
X157392930Y-97256349D01*
X157392925Y-97256340D01*
X157313532Y-97137521D01*
X157313529Y-97137517D01*
X157212482Y-97036470D01*
X157212478Y-97036467D01*
X157093659Y-96957074D01*
X157093650Y-96957069D01*
X156961620Y-96902381D01*
X156961614Y-96902379D01*
X156821457Y-96874500D01*
X156821455Y-96874500D01*
X156678545Y-96874500D01*
X156678543Y-96874500D01*
X156538385Y-96902379D01*
X156538379Y-96902381D01*
X156406349Y-96957069D01*
X156406340Y-96957074D01*
X156287521Y-97036467D01*
X156287517Y-97036470D01*
X156186470Y-97137517D01*
X156186467Y-97137521D01*
X156107074Y-97256340D01*
X156107069Y-97256349D01*
X156052381Y-97388379D01*
X156052379Y-97388385D01*
X156024500Y-97528542D01*
X156024500Y-97528545D01*
X156024500Y-97671455D01*
X156024500Y-97671457D01*
X156024499Y-97671457D01*
X145677123Y-97671457D01*
X145722619Y-97561620D01*
X145750500Y-97421455D01*
X145750500Y-97278545D01*
X145750500Y-97278542D01*
X145722620Y-97138385D01*
X145722619Y-97138384D01*
X145722619Y-97138380D01*
X145667929Y-97006347D01*
X145667928Y-97006346D01*
X145667925Y-97006340D01*
X145588532Y-96887521D01*
X145588529Y-96887517D01*
X145487482Y-96786470D01*
X145487478Y-96786467D01*
X145368659Y-96707074D01*
X145368650Y-96707069D01*
X145236620Y-96652381D01*
X145236614Y-96652379D01*
X145096457Y-96624500D01*
X145096455Y-96624500D01*
X144953545Y-96624500D01*
X144953543Y-96624500D01*
X144813385Y-96652379D01*
X144813379Y-96652381D01*
X144681349Y-96707069D01*
X144681340Y-96707074D01*
X144562521Y-96786467D01*
X144562517Y-96786470D01*
X144461470Y-96887517D01*
X144461467Y-96887521D01*
X144382074Y-97006340D01*
X144382069Y-97006349D01*
X144327381Y-97138379D01*
X144327379Y-97138385D01*
X144299500Y-97278542D01*
X144299500Y-97278545D01*
X144299500Y-97421455D01*
X144299500Y-97421457D01*
X144299499Y-97421457D01*
X141041055Y-97421457D01*
X141042929Y-97418653D01*
X141097619Y-97286620D01*
X141101404Y-97267594D01*
X141105250Y-97248260D01*
X141105250Y-97248258D01*
X141125499Y-97146459D01*
X141125500Y-97146457D01*
X141125500Y-97003542D01*
X141097620Y-96863385D01*
X141097619Y-96863384D01*
X141097619Y-96863380D01*
X141047727Y-96742930D01*
X141042930Y-96731349D01*
X141042925Y-96731340D01*
X140963532Y-96612521D01*
X140963529Y-96612517D01*
X140862482Y-96511470D01*
X140862478Y-96511467D01*
X140743659Y-96432074D01*
X140743650Y-96432069D01*
X140611620Y-96377381D01*
X140611614Y-96377379D01*
X140471457Y-96349500D01*
X140471455Y-96349500D01*
X140328545Y-96349500D01*
X140328543Y-96349500D01*
X140188385Y-96377379D01*
X140188379Y-96377381D01*
X140056349Y-96432069D01*
X140056340Y-96432074D01*
X139937521Y-96511467D01*
X139937517Y-96511470D01*
X139836470Y-96612517D01*
X139836467Y-96612521D01*
X139757074Y-96731340D01*
X139757069Y-96731349D01*
X139702381Y-96863379D01*
X139702379Y-96863385D01*
X139674500Y-97003542D01*
X139674500Y-97003545D01*
X139674500Y-97146455D01*
X139674500Y-97146457D01*
X139674499Y-97146457D01*
X135020527Y-97146457D01*
X135025500Y-97121457D01*
X135025500Y-97008032D01*
X135025500Y-96978545D01*
X134997619Y-96838380D01*
X134995424Y-96833082D01*
X134993349Y-96821009D01*
X134996517Y-96793662D01*
X134996271Y-96766133D01*
X134996897Y-96764001D01*
X134997619Y-96761620D01*
X135025500Y-96621457D01*
X135025500Y-96576500D01*
X135045185Y-96509461D01*
X135097989Y-96463706D01*
X135149500Y-96452500D01*
X137036804Y-96452500D01*
X137036805Y-96452499D01*
X137158035Y-96428386D01*
X137218707Y-96403254D01*
X137254248Y-96388533D01*
X137261338Y-96385595D01*
X137272233Y-96381083D01*
X137375008Y-96312411D01*
X137462411Y-96225008D01*
X137515962Y-96171457D01*
X157524499Y-96171457D01*
X157552379Y-96311614D01*
X157552381Y-96311620D01*
X157607069Y-96443650D01*
X157607074Y-96443659D01*
X157686467Y-96562478D01*
X157686470Y-96562482D01*
X157787517Y-96663529D01*
X157787521Y-96663532D01*
X157906340Y-96742925D01*
X157906346Y-96742928D01*
X157906347Y-96742929D01*
X158038380Y-96797619D01*
X158038384Y-96797619D01*
X158038385Y-96797620D01*
X158178542Y-96825500D01*
X158178545Y-96825500D01*
X158321457Y-96825500D01*
X158415751Y-96806742D01*
X158461620Y-96797619D01*
X158593653Y-96742929D01*
X158712479Y-96663532D01*
X158813532Y-96562479D01*
X158892929Y-96443653D01*
X158947619Y-96311620D01*
X158963089Y-96233849D01*
X158975500Y-96171457D01*
X158975500Y-96028542D01*
X158947620Y-95888385D01*
X158947619Y-95888384D01*
X158947619Y-95888380D01*
X158892929Y-95756347D01*
X158892928Y-95756346D01*
X158892925Y-95756340D01*
X158813532Y-95637521D01*
X158813529Y-95637517D01*
X158712482Y-95536470D01*
X158712478Y-95536467D01*
X158593659Y-95457074D01*
X158593650Y-95457069D01*
X158461620Y-95402381D01*
X158461614Y-95402379D01*
X158321457Y-95374500D01*
X158321455Y-95374500D01*
X158178545Y-95374500D01*
X158178543Y-95374500D01*
X158038385Y-95402379D01*
X158038379Y-95402381D01*
X157906349Y-95457069D01*
X157906340Y-95457074D01*
X157787521Y-95536467D01*
X157787517Y-95536470D01*
X157686470Y-95637517D01*
X157686467Y-95637521D01*
X157607074Y-95756340D01*
X157607069Y-95756349D01*
X157552381Y-95888379D01*
X157552379Y-95888385D01*
X157524500Y-96028542D01*
X157524500Y-96028545D01*
X157524500Y-96171455D01*
X157524500Y-96171457D01*
X157524499Y-96171457D01*
X137515962Y-96171457D01*
X141547411Y-92140008D01*
X141616083Y-92037233D01*
X141663385Y-91923035D01*
X141679174Y-91843659D01*
X141687500Y-91801806D01*
X141687500Y-89674500D01*
X141707185Y-89607461D01*
X141759989Y-89561706D01*
X141811500Y-89550500D01*
X141946457Y-89550500D01*
X142062529Y-89527411D01*
X142086620Y-89522619D01*
X142218653Y-89467929D01*
X142337479Y-89388532D01*
X142438532Y-89287479D01*
X142517929Y-89168653D01*
X142572619Y-89036620D01*
X142572620Y-89036614D01*
X142574389Y-89030786D01*
X142575966Y-89031264D01*
X142604674Y-88976392D01*
X142665392Y-88941822D01*
X142693901Y-88938500D01*
X143019164Y-88938500D01*
X143086203Y-88958185D01*
X143131958Y-89010989D01*
X143141902Y-89080147D01*
X143140781Y-89086691D01*
X143124500Y-89168540D01*
X143124500Y-89168545D01*
X143124500Y-89311455D01*
X143124500Y-89311457D01*
X143124499Y-89311457D01*
X143152379Y-89451614D01*
X143152381Y-89451620D01*
X143209402Y-89589281D01*
X143207705Y-89589983D01*
X143220184Y-89649971D01*
X143208347Y-89690282D01*
X143209402Y-89690719D01*
X143152381Y-89828379D01*
X143152379Y-89828385D01*
X143124500Y-89968542D01*
X143124500Y-89968545D01*
X143124500Y-90111455D01*
X143124500Y-90111457D01*
X143124499Y-90111457D01*
X143152379Y-90251614D01*
X143152381Y-90251620D01*
X143207068Y-90383648D01*
X143207853Y-90385115D01*
X143208123Y-90386193D01*
X143209402Y-90389281D01*
X143208944Y-90389470D01*
X143211364Y-90399132D01*
X143217477Y-90408643D01*
X143222500Y-90443578D01*
X143222500Y-90472388D01*
X143202815Y-90539427D01*
X143160977Y-90578038D01*
X143161411Y-90578687D01*
X143157294Y-90581437D01*
X143156970Y-90581737D01*
X143156350Y-90582068D01*
X143037525Y-90661464D01*
X143037517Y-90661470D01*
X142936470Y-90762517D01*
X142936467Y-90762521D01*
X142857074Y-90881340D01*
X142857069Y-90881349D01*
X142802381Y-91013379D01*
X142802379Y-91013385D01*
X142774500Y-91153542D01*
X142774500Y-91153545D01*
X142774500Y-91296455D01*
X142774500Y-91296457D01*
X142774499Y-91296457D01*
X142802379Y-91436614D01*
X142802381Y-91436620D01*
X142857069Y-91568650D01*
X142857074Y-91568659D01*
X142936467Y-91687478D01*
X142936470Y-91687482D01*
X143037517Y-91788529D01*
X143037521Y-91788532D01*
X143156340Y-91867925D01*
X143156346Y-91867928D01*
X143156347Y-91867929D01*
X143288380Y-91922619D01*
X143288384Y-91922619D01*
X143288385Y-91922620D01*
X143428542Y-91950500D01*
X143428545Y-91950500D01*
X143571457Y-91950500D01*
X143665751Y-91931742D01*
X143711620Y-91922619D01*
X143843653Y-91867929D01*
X143962479Y-91788532D01*
X143969111Y-91781900D01*
X144030432Y-91748412D01*
X144100124Y-91753393D01*
X144144477Y-91781896D01*
X146649988Y-94287408D01*
X146649992Y-94287411D01*
X146752760Y-94356079D01*
X146752773Y-94356086D01*
X146850234Y-94396455D01*
X146866965Y-94403385D01*
X146866969Y-94403385D01*
X146866970Y-94403386D01*
X146988193Y-94427500D01*
X146988196Y-94427500D01*
X155374395Y-94427500D01*
X155374396Y-94427499D01*
X155495626Y-94403386D01*
X155532545Y-94388092D01*
X155602012Y-94380623D01*
X155627452Y-94388092D01*
X155647643Y-94396455D01*
X155664375Y-94403386D01*
X155785601Y-94427499D01*
X155785605Y-94427500D01*
X155785606Y-94427500D01*
X158591804Y-94427500D01*
X158591805Y-94427499D01*
X158713035Y-94403386D01*
X158793784Y-94369937D01*
X158827233Y-94356083D01*
X158930008Y-94287411D01*
X159017411Y-94200008D01*
X159488336Y-93729081D01*
X159536181Y-93700407D01*
X159535992Y-93699950D01*
X159539077Y-93698671D01*
X159540032Y-93698100D01*
X159541609Y-93697621D01*
X159541620Y-93697619D01*
X159673653Y-93642929D01*
X159792479Y-93563532D01*
X159893532Y-93462479D01*
X159972929Y-93343653D01*
X160027619Y-93211620D01*
X160055500Y-93071455D01*
X160055500Y-92928545D01*
X160055500Y-92928542D01*
X160027620Y-92788385D01*
X160027619Y-92788384D01*
X160027619Y-92788380D01*
X159972929Y-92656347D01*
X159972928Y-92656346D01*
X159972925Y-92656340D01*
X159893532Y-92537521D01*
X159893529Y-92537517D01*
X159792482Y-92436470D01*
X159792478Y-92436467D01*
X159668588Y-92353686D01*
X159670005Y-92351565D01*
X159628098Y-92310413D01*
X159612627Y-92242278D01*
X159636448Y-92176594D01*
X159669616Y-92147853D01*
X159668588Y-92146314D01*
X159732619Y-92103529D01*
X159792479Y-92063532D01*
X159893532Y-91962479D01*
X159972929Y-91843653D01*
X160027619Y-91711620D01*
X160047543Y-91611457D01*
X160055500Y-91571457D01*
X160055500Y-91428542D01*
X160027620Y-91288385D01*
X160027619Y-91288384D01*
X160027619Y-91288380D01*
X159972929Y-91156347D01*
X159972928Y-91156346D01*
X159972925Y-91156340D01*
X159893532Y-91037521D01*
X159893529Y-91037517D01*
X159792482Y-90936470D01*
X159792478Y-90936467D01*
X159673659Y-90857074D01*
X159673650Y-90857069D01*
X159541620Y-90802381D01*
X159541614Y-90802379D01*
X159401457Y-90774500D01*
X159401455Y-90774500D01*
X159258545Y-90774500D01*
X159258543Y-90774500D01*
X159118385Y-90802379D01*
X159118379Y-90802381D01*
X158986349Y-90857069D01*
X158986340Y-90857074D01*
X158867521Y-90936467D01*
X158867517Y-90936470D01*
X158766470Y-91037517D01*
X158766467Y-91037521D01*
X158687074Y-91156340D01*
X158687069Y-91156350D01*
X158632377Y-91288387D01*
X158631892Y-91289988D01*
X158631318Y-91290945D01*
X158630050Y-91294007D01*
X158629595Y-91293818D01*
X158600916Y-91341663D01*
X157966400Y-91976181D01*
X157905077Y-92009666D01*
X157878719Y-92012500D01*
X152666011Y-92012500D01*
X152598972Y-91992815D01*
X152553217Y-91940011D01*
X152543273Y-91870853D01*
X152547352Y-91852499D01*
X152547614Y-91851630D01*
X152547619Y-91851620D01*
X152568149Y-91748412D01*
X152575500Y-91711457D01*
X152575500Y-91568542D01*
X152547620Y-91428385D01*
X152547619Y-91428384D01*
X152547619Y-91428380D01*
X152500911Y-91315618D01*
X152492930Y-91296349D01*
X152492925Y-91296340D01*
X152413532Y-91177521D01*
X152413529Y-91177517D01*
X152312482Y-91076470D01*
X152312478Y-91076467D01*
X152193659Y-90997074D01*
X152193650Y-90997069D01*
X152061620Y-90942381D01*
X152061614Y-90942379D01*
X151921457Y-90914500D01*
X151921455Y-90914500D01*
X151778545Y-90914500D01*
X151778543Y-90914500D01*
X151638385Y-90942379D01*
X151638379Y-90942381D01*
X151500719Y-90999402D01*
X151500210Y-90998173D01*
X151497452Y-90998746D01*
X151489642Y-91004373D01*
X151463801Y-91005745D01*
X151438470Y-91011014D01*
X151429483Y-91007568D01*
X151419871Y-91008079D01*
X151397391Y-90995263D01*
X151373231Y-90986000D01*
X151365915Y-90977319D01*
X151359172Y-90973475D01*
X151346944Y-90954808D01*
X151338543Y-90944838D01*
X151335993Y-90939957D01*
X151317929Y-90896347D01*
X151296278Y-90863944D01*
X151293186Y-90858026D01*
X151287633Y-90830042D01*
X151279109Y-90802819D01*
X151280822Y-90795713D01*
X151279588Y-90789492D01*
X151286638Y-90771597D01*
X151291891Y-90749816D01*
X151290598Y-90749281D01*
X151318081Y-90682930D01*
X151347619Y-90611620D01*
X151362224Y-90538197D01*
X151375500Y-90471457D01*
X151375500Y-90328542D01*
X151347620Y-90188385D01*
X151347619Y-90188384D01*
X151347619Y-90188380D01*
X151292929Y-90056347D01*
X151292928Y-90056346D01*
X151292925Y-90056340D01*
X151213532Y-89937521D01*
X151213529Y-89937517D01*
X151155193Y-89879181D01*
X151121708Y-89817858D01*
X151126692Y-89748166D01*
X151168564Y-89692233D01*
X151234028Y-89667816D01*
X151242874Y-89667500D01*
X158471804Y-89667500D01*
X158471805Y-89667499D01*
X158593035Y-89643386D01*
X158676734Y-89608716D01*
X158707233Y-89596083D01*
X158810008Y-89527411D01*
X158897411Y-89440008D01*
X160987411Y-87350008D01*
X161056083Y-87247233D01*
X161060108Y-87237517D01*
X161087327Y-87171803D01*
X161103385Y-87133035D01*
X161118495Y-87057074D01*
X161127500Y-87011805D01*
X161127500Y-80778199D01*
X161127365Y-80777521D01*
X161124974Y-80765500D01*
X161103385Y-80656965D01*
X161078576Y-80597071D01*
X161056085Y-80542771D01*
X161056082Y-80542766D01*
X161055825Y-80542381D01*
X161040240Y-80519057D01*
X160987411Y-80439992D01*
X160900008Y-80352589D01*
X160039275Y-79491856D01*
X160012395Y-79451627D01*
X159972932Y-79356353D01*
X159972925Y-79356340D01*
X159893532Y-79237521D01*
X159893529Y-79237517D01*
X159792482Y-79136470D01*
X159792478Y-79136467D01*
X159668588Y-79053686D01*
X159670005Y-79051565D01*
X159628098Y-79010413D01*
X159612627Y-78942278D01*
X159636448Y-78876594D01*
X159669616Y-78847853D01*
X159668588Y-78846314D01*
X159751165Y-78791137D01*
X159792479Y-78763532D01*
X159893532Y-78662479D01*
X159972929Y-78543653D01*
X160027619Y-78411620D01*
X160039240Y-78353197D01*
X160055500Y-78271457D01*
X160055500Y-78128542D01*
X160027620Y-77988385D01*
X160027619Y-77988384D01*
X160027619Y-77988380D01*
X159978377Y-77869500D01*
X159972930Y-77856349D01*
X159972925Y-77856340D01*
X159893532Y-77737521D01*
X159893529Y-77737517D01*
X159792482Y-77636470D01*
X159792478Y-77636467D01*
X159673659Y-77557074D01*
X159673650Y-77557069D01*
X159541620Y-77502381D01*
X159541614Y-77502379D01*
X159401457Y-77474500D01*
X159401455Y-77474500D01*
X159258545Y-77474500D01*
X159258543Y-77474500D01*
X159118385Y-77502379D01*
X159118379Y-77502381D01*
X158986349Y-77557069D01*
X158986340Y-77557074D01*
X158867521Y-77636467D01*
X158867517Y-77636470D01*
X158766470Y-77737517D01*
X158766467Y-77737521D01*
X158687074Y-77856340D01*
X158687069Y-77856349D01*
X158632381Y-77988379D01*
X158632379Y-77988385D01*
X158604500Y-78128542D01*
X158604500Y-78128545D01*
X158604500Y-78271455D01*
X158604500Y-78271457D01*
X158604499Y-78271457D01*
X158632379Y-78411614D01*
X158632381Y-78411620D01*
X158687069Y-78543650D01*
X158687074Y-78543659D01*
X158766467Y-78662478D01*
X158766470Y-78662482D01*
X158867517Y-78763529D01*
X158867521Y-78763532D01*
X158991412Y-78846314D01*
X158989999Y-78848427D01*
X159031924Y-78889628D01*
X159047369Y-78957770D01*
X159023523Y-79023444D01*
X158990388Y-79052154D01*
X158991412Y-79053686D01*
X158867521Y-79136467D01*
X158867517Y-79136470D01*
X158766470Y-79237517D01*
X158766467Y-79237521D01*
X158687074Y-79356340D01*
X158687069Y-79356349D01*
X158632381Y-79488379D01*
X158632379Y-79488385D01*
X158604500Y-79628542D01*
X158604500Y-79628545D01*
X158604500Y-79771455D01*
X158604500Y-79771457D01*
X158604499Y-79771457D01*
X158632379Y-79911614D01*
X158632381Y-79911620D01*
X158687069Y-80043650D01*
X158687074Y-80043659D01*
X158766467Y-80162478D01*
X158766470Y-80162482D01*
X158867517Y-80263529D01*
X158867521Y-80263532D01*
X158986340Y-80342925D01*
X158986346Y-80342928D01*
X158986347Y-80342929D01*
X159118380Y-80397619D01*
X159146175Y-80403147D01*
X159208086Y-80435532D01*
X159209665Y-80437084D01*
X159836181Y-81063600D01*
X159869666Y-81124923D01*
X159872500Y-81151281D01*
X159872500Y-84101266D01*
X159852815Y-84168305D01*
X159800011Y-84214060D01*
X159730853Y-84224004D01*
X159689898Y-84208314D01*
X159689028Y-84209944D01*
X159683650Y-84207069D01*
X159551620Y-84152381D01*
X159551614Y-84152379D01*
X159411457Y-84124500D01*
X159411455Y-84124500D01*
X159268545Y-84124500D01*
X159268543Y-84124500D01*
X159128385Y-84152379D01*
X159128379Y-84152381D01*
X158996349Y-84207069D01*
X158996340Y-84207074D01*
X158877521Y-84286467D01*
X158877517Y-84286470D01*
X158776470Y-84387517D01*
X158776467Y-84387521D01*
X158697074Y-84506340D01*
X158697069Y-84506349D01*
X158642381Y-84638379D01*
X158642379Y-84638385D01*
X158614500Y-84778542D01*
X158614500Y-84778545D01*
X158614500Y-84921455D01*
X158614500Y-84921457D01*
X158614499Y-84921457D01*
X158642379Y-85061614D01*
X158642381Y-85061620D01*
X158697069Y-85193650D01*
X158697074Y-85193659D01*
X158776467Y-85312478D01*
X158776470Y-85312482D01*
X158877517Y-85413529D01*
X158877521Y-85413532D01*
X159000041Y-85495398D01*
X159044846Y-85549010D01*
X159053553Y-85618335D01*
X159023398Y-85681363D01*
X158963955Y-85718082D01*
X158931150Y-85722500D01*
X153749500Y-85722500D01*
X153682461Y-85702815D01*
X153636706Y-85650011D01*
X153625500Y-85598500D01*
X153625500Y-85528542D01*
X153597620Y-85388385D01*
X153597619Y-85388384D01*
X153597619Y-85388380D01*
X153584797Y-85357427D01*
X153577329Y-85287961D01*
X153596255Y-85241088D01*
X153617929Y-85208653D01*
X153672619Y-85076620D01*
X153693415Y-84972074D01*
X153700500Y-84936457D01*
X153700500Y-84836287D01*
X153720185Y-84769248D01*
X153772989Y-84723493D01*
X153842147Y-84713549D01*
X153848684Y-84714668D01*
X153883353Y-84721564D01*
X153978542Y-84740500D01*
X153978545Y-84740500D01*
X154121457Y-84740500D01*
X154215751Y-84721742D01*
X154261620Y-84712619D01*
X154393653Y-84657929D01*
X154512479Y-84578532D01*
X154613532Y-84477479D01*
X154692929Y-84358653D01*
X154747619Y-84226620D01*
X154775500Y-84086455D01*
X154775500Y-83943545D01*
X154775500Y-83943542D01*
X154747620Y-83803385D01*
X154747619Y-83803384D01*
X154747619Y-83803380D01*
X154698490Y-83684772D01*
X154691021Y-83615302D01*
X154722296Y-83552823D01*
X154725340Y-83549668D01*
X155587411Y-82687599D01*
X155603275Y-82663857D01*
X155656083Y-82584824D01*
X155675796Y-82537232D01*
X155703386Y-82470625D01*
X155727500Y-82349394D01*
X155727500Y-82225788D01*
X155727500Y-71621457D01*
X158604499Y-71621457D01*
X158632379Y-71761614D01*
X158632381Y-71761620D01*
X158687069Y-71893650D01*
X158687074Y-71893659D01*
X158766467Y-72012478D01*
X158766470Y-72012482D01*
X158867517Y-72113529D01*
X158867521Y-72113532D01*
X158991412Y-72196314D01*
X158989999Y-72198427D01*
X159031924Y-72239628D01*
X159047369Y-72307770D01*
X159023523Y-72373444D01*
X158990388Y-72402154D01*
X158991412Y-72403686D01*
X158867521Y-72486467D01*
X158867517Y-72486470D01*
X158766470Y-72587517D01*
X158766467Y-72587521D01*
X158687074Y-72706340D01*
X158687069Y-72706349D01*
X158632381Y-72838379D01*
X158632379Y-72838385D01*
X158604500Y-72978542D01*
X158604500Y-72978545D01*
X158604500Y-73121455D01*
X158604500Y-73121457D01*
X158604499Y-73121457D01*
X158632379Y-73261614D01*
X158632381Y-73261620D01*
X158687069Y-73393650D01*
X158687074Y-73393659D01*
X158766467Y-73512478D01*
X158766470Y-73512482D01*
X158867517Y-73613529D01*
X158867521Y-73613532D01*
X158986340Y-73692925D01*
X158986346Y-73692928D01*
X158986347Y-73692929D01*
X159118380Y-73747619D01*
X159118384Y-73747619D01*
X159118385Y-73747620D01*
X159258542Y-73775500D01*
X159258545Y-73775500D01*
X159401457Y-73775500D01*
X159525075Y-73750910D01*
X159541620Y-73747619D01*
X159673653Y-73692929D01*
X159792479Y-73613532D01*
X159893532Y-73512479D01*
X159972929Y-73393653D01*
X160027619Y-73261620D01*
X160046781Y-73165287D01*
X160055500Y-73121457D01*
X160055500Y-72978542D01*
X160027620Y-72838385D01*
X160027619Y-72838384D01*
X160027619Y-72838380D01*
X159972929Y-72706347D01*
X159972928Y-72706346D01*
X159972925Y-72706340D01*
X159893532Y-72587521D01*
X159893529Y-72587517D01*
X159792482Y-72486470D01*
X159792478Y-72486467D01*
X159668588Y-72403686D01*
X159670005Y-72401565D01*
X159628098Y-72360413D01*
X159612627Y-72292278D01*
X159636448Y-72226594D01*
X159669616Y-72197853D01*
X159668588Y-72196314D01*
X159734191Y-72152479D01*
X159792479Y-72113532D01*
X159893532Y-72012479D01*
X159972929Y-71893653D01*
X160027619Y-71761620D01*
X160045370Y-71672381D01*
X160055500Y-71621457D01*
X160055500Y-71478542D01*
X160027620Y-71338385D01*
X160027619Y-71338384D01*
X160027619Y-71338380D01*
X159972929Y-71206347D01*
X159972928Y-71206346D01*
X159972925Y-71206340D01*
X159893532Y-71087521D01*
X159893529Y-71087517D01*
X159792482Y-70986470D01*
X159792478Y-70986467D01*
X159673659Y-70907074D01*
X159673650Y-70907069D01*
X159541620Y-70852381D01*
X159541614Y-70852379D01*
X159401457Y-70824500D01*
X159401455Y-70824500D01*
X159258545Y-70824500D01*
X159258543Y-70824500D01*
X159118385Y-70852379D01*
X159118379Y-70852381D01*
X158986349Y-70907069D01*
X158986340Y-70907074D01*
X158867521Y-70986467D01*
X158867517Y-70986470D01*
X158766470Y-71087517D01*
X158766467Y-71087521D01*
X158687074Y-71206340D01*
X158687069Y-71206349D01*
X158632381Y-71338379D01*
X158632379Y-71338385D01*
X158604500Y-71478542D01*
X158604500Y-71478545D01*
X158604500Y-71621455D01*
X158604500Y-71621457D01*
X158604499Y-71621457D01*
X155727500Y-71621457D01*
X155727500Y-66338197D01*
X155727500Y-66338194D01*
X155703386Y-66216970D01*
X155703385Y-66216969D01*
X155703385Y-66216965D01*
X155660366Y-66113106D01*
X155656086Y-66102773D01*
X155656079Y-66102760D01*
X155587412Y-65999993D01*
X155587411Y-65999992D01*
X155500008Y-65912589D01*
X154325037Y-64737618D01*
X153115263Y-63527843D01*
X153030629Y-63443209D01*
X156499500Y-63443209D01*
X156499500Y-63806790D01*
X156535137Y-64168630D01*
X156606064Y-64525212D01*
X156606067Y-64525223D01*
X156711614Y-64873165D01*
X156850754Y-65209078D01*
X156850756Y-65209083D01*
X157022140Y-65529720D01*
X157022151Y-65529738D01*
X157224140Y-65832035D01*
X157224150Y-65832049D01*
X157454807Y-66113106D01*
X157711893Y-66370192D01*
X157711898Y-66370196D01*
X157711899Y-66370197D01*
X157992956Y-66600854D01*
X158295268Y-66802853D01*
X158295277Y-66802858D01*
X158295279Y-66802859D01*
X158615916Y-66974243D01*
X158615918Y-66974243D01*
X158615924Y-66974247D01*
X158951836Y-67113386D01*
X159299767Y-67218930D01*
X159299773Y-67218931D01*
X159299776Y-67218932D01*
X159299787Y-67218935D01*
X159630181Y-67284653D01*
X159656369Y-67289862D01*
X160018206Y-67325500D01*
X160018209Y-67325500D01*
X160381791Y-67325500D01*
X160381794Y-67325500D01*
X160743631Y-67289862D01*
X160820862Y-67274500D01*
X161100212Y-67218935D01*
X161100223Y-67218932D01*
X161100223Y-67218931D01*
X161100233Y-67218930D01*
X161448164Y-67113386D01*
X161784076Y-66974247D01*
X162104732Y-66802853D01*
X162407044Y-66600854D01*
X162688101Y-66370197D01*
X162945197Y-66113101D01*
X163175854Y-65832044D01*
X163377853Y-65529732D01*
X163549247Y-65209076D01*
X163688386Y-64873164D01*
X163793930Y-64525233D01*
X163793932Y-64525223D01*
X163793935Y-64525212D01*
X163864862Y-64168630D01*
X163900500Y-63806790D01*
X163900500Y-63443209D01*
X163899770Y-63435800D01*
X163864862Y-63081369D01*
X163839434Y-62953532D01*
X163793935Y-62724787D01*
X163793932Y-62724776D01*
X163793931Y-62724773D01*
X163793930Y-62724767D01*
X163688386Y-62376836D01*
X163549247Y-62040924D01*
X163475305Y-61902589D01*
X163377859Y-61720279D01*
X163377858Y-61720277D01*
X163377853Y-61720268D01*
X163175854Y-61417956D01*
X162945197Y-61136899D01*
X162945196Y-61136898D01*
X162945192Y-61136893D01*
X162688106Y-60879807D01*
X162407049Y-60649150D01*
X162407048Y-60649149D01*
X162407044Y-60649146D01*
X162104732Y-60447147D01*
X162104727Y-60447144D01*
X162104720Y-60447140D01*
X161784083Y-60275756D01*
X161784078Y-60275754D01*
X161448165Y-60136614D01*
X161100223Y-60031067D01*
X161100212Y-60031064D01*
X160743630Y-59960137D01*
X160471111Y-59933296D01*
X160381794Y-59924500D01*
X160018206Y-59924500D01*
X159935679Y-59932628D01*
X159656369Y-59960137D01*
X159299787Y-60031064D01*
X159299776Y-60031067D01*
X158951834Y-60136614D01*
X158615921Y-60275754D01*
X158615916Y-60275756D01*
X158295279Y-60447140D01*
X158295261Y-60447151D01*
X157992964Y-60649140D01*
X157992950Y-60649150D01*
X157711893Y-60879807D01*
X157454807Y-61136893D01*
X157224150Y-61417950D01*
X157224140Y-61417964D01*
X157022151Y-61720261D01*
X157022140Y-61720279D01*
X156850756Y-62040916D01*
X156850754Y-62040921D01*
X156711614Y-62376834D01*
X156606067Y-62724776D01*
X156606064Y-62724787D01*
X156535137Y-63081369D01*
X156507628Y-63360679D01*
X156500230Y-63435800D01*
X156499500Y-63443209D01*
X153030629Y-63443209D01*
X151490010Y-61902590D01*
X151473383Y-61891481D01*
X151417328Y-61854026D01*
X151387233Y-61833917D01*
X151353784Y-61820062D01*
X151348162Y-61817733D01*
X151348156Y-61817730D01*
X151273035Y-61786614D01*
X151273027Y-61786612D01*
X151151807Y-61762500D01*
X151151803Y-61762500D01*
X141713579Y-61762500D01*
X141659470Y-61748945D01*
X141659281Y-61749402D01*
X141656201Y-61748126D01*
X141655122Y-61747856D01*
X141653653Y-61747071D01*
X141521620Y-61692381D01*
X141521614Y-61692379D01*
X141381457Y-61664500D01*
X141381455Y-61664500D01*
X141238545Y-61664500D01*
X141238543Y-61664500D01*
X141098385Y-61692379D01*
X141098379Y-61692381D01*
X140966349Y-61747069D01*
X140966340Y-61747074D01*
X140847521Y-61826467D01*
X140847517Y-61826470D01*
X140746470Y-61927517D01*
X140746467Y-61927521D01*
X140667074Y-62046340D01*
X140667069Y-62046349D01*
X140612381Y-62178379D01*
X140612379Y-62178385D01*
X140584500Y-62318542D01*
X140584500Y-62318545D01*
X140584500Y-62461455D01*
X140584500Y-62461457D01*
X140584499Y-62461457D01*
X140612379Y-62601614D01*
X140612381Y-62601620D01*
X140667069Y-62733650D01*
X140667074Y-62733659D01*
X140746467Y-62852478D01*
X140746470Y-62852482D01*
X140847517Y-62953529D01*
X140847521Y-62953532D01*
X140966340Y-63032925D01*
X140966346Y-63032928D01*
X140966347Y-63032929D01*
X141098380Y-63087619D01*
X141098384Y-63087619D01*
X141098385Y-63087620D01*
X141238542Y-63115500D01*
X141238545Y-63115500D01*
X141381457Y-63115500D01*
X141475751Y-63096742D01*
X141521620Y-63087619D01*
X141653653Y-63032929D01*
X141653660Y-63032924D01*
X141655122Y-63032144D01*
X141656201Y-63031873D01*
X141659281Y-63030598D01*
X141659470Y-63031054D01*
X141713579Y-63017500D01*
X150778719Y-63017500D01*
X150845758Y-63037185D01*
X150866400Y-63053819D01*
X151061433Y-63248852D01*
X151071529Y-63267341D01*
X151085608Y-63283015D01*
X151087937Y-63297391D01*
X151094918Y-63310175D01*
X151093415Y-63331190D01*
X151096785Y-63351985D01*
X151090973Y-63365337D01*
X151089934Y-63379867D01*
X151077307Y-63396733D01*
X151068900Y-63416049D01*
X151050422Y-63432646D01*
X151048062Y-63435800D01*
X151042644Y-63439634D01*
X151018892Y-63455505D01*
X150952215Y-63476384D01*
X150884834Y-63457900D01*
X150881110Y-63455507D01*
X150793657Y-63397073D01*
X150793650Y-63397069D01*
X150661620Y-63342381D01*
X150661614Y-63342379D01*
X150521457Y-63314500D01*
X150521455Y-63314500D01*
X150378545Y-63314500D01*
X150378543Y-63314500D01*
X150238385Y-63342379D01*
X150238379Y-63342381D01*
X150106349Y-63397069D01*
X150106340Y-63397074D01*
X149987521Y-63476467D01*
X149987517Y-63476470D01*
X149886470Y-63577517D01*
X149886467Y-63577521D01*
X149807074Y-63696340D01*
X149807069Y-63696349D01*
X149752381Y-63828379D01*
X149752379Y-63828385D01*
X149724500Y-63968542D01*
X149724500Y-63968545D01*
X149724500Y-64111455D01*
X149724500Y-64111457D01*
X149724499Y-64111457D01*
X149752379Y-64251614D01*
X149752381Y-64251620D01*
X149807069Y-64383650D01*
X149807074Y-64383659D01*
X149886467Y-64502478D01*
X149886470Y-64502482D01*
X149986181Y-64602193D01*
X150019666Y-64663516D01*
X150022500Y-64689874D01*
X150022500Y-67150500D01*
X150002815Y-67217539D01*
X149950011Y-67263294D01*
X149898500Y-67274500D01*
X149828543Y-67274500D01*
X149688385Y-67302379D01*
X149688379Y-67302381D01*
X149556349Y-67357069D01*
X149556340Y-67357074D01*
X149437521Y-67436467D01*
X149437517Y-67436470D01*
X149336470Y-67537517D01*
X149336467Y-67537521D01*
X149257074Y-67656340D01*
X149257069Y-67656349D01*
X149202381Y-67788379D01*
X149202379Y-67788385D01*
X149174500Y-67928542D01*
X149174500Y-67928545D01*
X149174500Y-68071455D01*
X149174500Y-68071457D01*
X149174499Y-68071457D01*
X149202379Y-68211614D01*
X149202381Y-68211620D01*
X149257069Y-68343650D01*
X149257074Y-68343659D01*
X149336467Y-68462478D01*
X149336470Y-68462482D01*
X149437517Y-68563529D01*
X149437521Y-68563532D01*
X149556340Y-68642925D01*
X149556346Y-68642928D01*
X149556347Y-68642929D01*
X149688380Y-68697619D01*
X149688384Y-68697619D01*
X149688385Y-68697620D01*
X149828542Y-68725500D01*
X149898500Y-68725500D01*
X149965539Y-68745185D01*
X150011294Y-68797989D01*
X150022500Y-68849500D01*
X150022500Y-73678719D01*
X150002815Y-73745758D01*
X149986181Y-73766400D01*
X147024994Y-76727586D01*
X147024993Y-76727588D01*
X147024992Y-76727589D01*
X146964202Y-76788379D01*
X146934181Y-76818400D01*
X146872857Y-76851884D01*
X146803166Y-76846900D01*
X146747232Y-76805028D01*
X146722816Y-76739563D01*
X146722500Y-76730718D01*
X146722500Y-76533893D01*
X146717594Y-76515587D01*
X146716749Y-76512252D01*
X146716211Y-76509996D01*
X146695433Y-76405539D01*
X146685693Y-76382025D01*
X146683408Y-76372443D01*
X146684719Y-76346996D01*
X146681996Y-76321666D01*
X146686883Y-76305018D01*
X146687005Y-76302666D01*
X146687968Y-76301324D01*
X146689466Y-76296223D01*
X146695433Y-76281819D01*
X146715761Y-76179619D01*
X146717590Y-76171781D01*
X146722500Y-76153462D01*
X146722500Y-75939896D01*
X146722500Y-75939893D01*
X146717594Y-75921587D01*
X146715750Y-75913679D01*
X146700600Y-75837517D01*
X146695433Y-75811539D01*
X146695431Y-75811534D01*
X146642345Y-75683372D01*
X146642343Y-75683369D01*
X146642342Y-75683366D01*
X146565265Y-75568014D01*
X146565261Y-75568010D01*
X146565259Y-75568007D01*
X146467171Y-75469919D01*
X146467167Y-75469916D01*
X146467165Y-75469914D01*
X146351813Y-75392837D01*
X146351810Y-75392835D01*
X146351806Y-75392833D01*
X146223642Y-75339746D01*
X146223635Y-75339744D01*
X146185307Y-75332120D01*
X146123396Y-75299734D01*
X146088823Y-75239018D01*
X146085500Y-75210503D01*
X146085500Y-75082919D01*
X146085500Y-75082917D01*
X146045599Y-74934006D01*
X146012174Y-74876113D01*
X145968517Y-74800495D01*
X145389505Y-74221483D01*
X145255995Y-74144401D01*
X145255994Y-74144400D01*
X145255993Y-74144400D01*
X145255991Y-74144399D01*
X145230017Y-74137440D01*
X145230015Y-74137440D01*
X145114495Y-74106486D01*
X145054835Y-74070121D01*
X145024306Y-74007273D01*
X145032029Y-73939257D01*
X145047617Y-73901625D01*
X145047617Y-73901624D01*
X145047619Y-73901620D01*
X145063270Y-73822939D01*
X145075500Y-73761457D01*
X145075500Y-73686457D01*
X146599499Y-73686457D01*
X146627379Y-73826614D01*
X146627381Y-73826620D01*
X146682069Y-73958650D01*
X146682074Y-73958659D01*
X146761467Y-74077478D01*
X146761470Y-74077482D01*
X146862517Y-74178529D01*
X146862521Y-74178532D01*
X146981340Y-74257925D01*
X146981346Y-74257928D01*
X146981347Y-74257929D01*
X147113380Y-74312619D01*
X147113384Y-74312619D01*
X147113385Y-74312620D01*
X147253542Y-74340500D01*
X147253545Y-74340500D01*
X147396457Y-74340500D01*
X147515460Y-74316828D01*
X147536620Y-74312619D01*
X147668653Y-74257929D01*
X147787479Y-74178532D01*
X147888532Y-74077479D01*
X147967929Y-73958653D01*
X148022619Y-73826620D01*
X148041822Y-73730081D01*
X148050500Y-73686457D01*
X148050500Y-73543542D01*
X148022620Y-73403385D01*
X148022619Y-73403384D01*
X148022619Y-73403380D01*
X147967929Y-73271347D01*
X147967928Y-73271346D01*
X147967925Y-73271340D01*
X147888532Y-73152521D01*
X147888529Y-73152517D01*
X147787482Y-73051470D01*
X147787478Y-73051467D01*
X147668659Y-72972074D01*
X147668650Y-72972069D01*
X147536620Y-72917381D01*
X147536614Y-72917379D01*
X147396457Y-72889500D01*
X147396455Y-72889500D01*
X147253545Y-72889500D01*
X147253543Y-72889500D01*
X147113385Y-72917379D01*
X147113379Y-72917381D01*
X146981349Y-72972069D01*
X146981340Y-72972074D01*
X146862521Y-73051467D01*
X146862517Y-73051470D01*
X146761470Y-73152517D01*
X146761467Y-73152521D01*
X146682074Y-73271340D01*
X146682069Y-73271349D01*
X146627381Y-73403379D01*
X146627379Y-73403385D01*
X146599500Y-73543542D01*
X146599500Y-73543545D01*
X146599500Y-73686455D01*
X146599500Y-73686457D01*
X146599499Y-73686457D01*
X145075500Y-73686457D01*
X145075500Y-73618542D01*
X145064182Y-73561645D01*
X145047620Y-73478385D01*
X145047619Y-73478384D01*
X145047619Y-73478380D01*
X144992929Y-73346347D01*
X144992928Y-73346346D01*
X144992925Y-73346340D01*
X144934493Y-73258891D01*
X144913615Y-73192214D01*
X144932099Y-73124833D01*
X144934493Y-73121109D01*
X144992925Y-73033659D01*
X144992926Y-73033657D01*
X144992929Y-73033653D01*
X145047619Y-72901620D01*
X145061372Y-72832479D01*
X145075500Y-72761457D01*
X145075500Y-72618542D01*
X145047620Y-72478385D01*
X145047619Y-72478384D01*
X145047619Y-72478380D01*
X144995469Y-72352478D01*
X144992930Y-72346349D01*
X144992925Y-72346340D01*
X144934493Y-72258891D01*
X144913615Y-72192214D01*
X144932099Y-72124833D01*
X144934493Y-72121109D01*
X144992925Y-72033659D01*
X144992926Y-72033657D01*
X144992929Y-72033653D01*
X145022834Y-71961457D01*
X146599499Y-71961457D01*
X146627379Y-72101614D01*
X146627381Y-72101620D01*
X146682069Y-72233650D01*
X146682074Y-72233659D01*
X146761467Y-72352478D01*
X146761470Y-72352482D01*
X146862517Y-72453529D01*
X146862521Y-72453532D01*
X146981340Y-72532925D01*
X146981346Y-72532928D01*
X146981347Y-72532929D01*
X147113380Y-72587619D01*
X147113384Y-72587619D01*
X147113385Y-72587620D01*
X147253542Y-72615500D01*
X147253545Y-72615500D01*
X147396457Y-72615500D01*
X147490751Y-72596742D01*
X147536620Y-72587619D01*
X147668653Y-72532929D01*
X147787479Y-72453532D01*
X147888532Y-72352479D01*
X147967929Y-72233653D01*
X148022619Y-72101620D01*
X148040351Y-72012478D01*
X148050500Y-71961457D01*
X148050500Y-71818542D01*
X148022620Y-71678385D01*
X148022619Y-71678384D01*
X148022619Y-71678380D01*
X147967929Y-71546347D01*
X147967928Y-71546346D01*
X147967925Y-71546340D01*
X147888532Y-71427521D01*
X147888529Y-71427517D01*
X147787482Y-71326470D01*
X147787478Y-71326467D01*
X147668659Y-71247074D01*
X147668650Y-71247069D01*
X147536620Y-71192381D01*
X147536614Y-71192379D01*
X147396457Y-71164500D01*
X147396455Y-71164500D01*
X147253545Y-71164500D01*
X147253543Y-71164500D01*
X147113385Y-71192379D01*
X147113379Y-71192381D01*
X146981349Y-71247069D01*
X146981340Y-71247074D01*
X146862521Y-71326467D01*
X146862517Y-71326470D01*
X146761470Y-71427517D01*
X146761467Y-71427521D01*
X146682074Y-71546340D01*
X146682069Y-71546349D01*
X146627381Y-71678379D01*
X146627379Y-71678385D01*
X146599500Y-71818542D01*
X146599500Y-71818545D01*
X146599500Y-71961455D01*
X146599500Y-71961457D01*
X146599499Y-71961457D01*
X145022834Y-71961457D01*
X145047619Y-71901620D01*
X145066546Y-71806468D01*
X145070168Y-71788262D01*
X145070168Y-71788260D01*
X145075500Y-71761456D01*
X145075500Y-71618542D01*
X145047620Y-71478385D01*
X145047619Y-71478384D01*
X145047619Y-71478380D01*
X144992929Y-71346347D01*
X144992926Y-71346342D01*
X144992925Y-71346340D01*
X144913532Y-71227521D01*
X144913529Y-71227517D01*
X144812482Y-71126470D01*
X144812478Y-71126467D01*
X144693659Y-71047074D01*
X144693650Y-71047069D01*
X144561620Y-70992381D01*
X144561614Y-70992379D01*
X144421457Y-70964500D01*
X144421455Y-70964500D01*
X144278545Y-70964500D01*
X144278540Y-70964500D01*
X144207096Y-70978711D01*
X144137504Y-70972484D01*
X144082327Y-70929620D01*
X144059083Y-70863730D01*
X144061288Y-70832902D01*
X144075500Y-70761457D01*
X144075500Y-70618542D01*
X144047620Y-70478385D01*
X144047619Y-70478384D01*
X144047619Y-70478380D01*
X143992929Y-70346347D01*
X143992928Y-70346346D01*
X143992925Y-70346340D01*
X143913532Y-70227521D01*
X143913529Y-70227517D01*
X143812482Y-70126470D01*
X143812478Y-70126467D01*
X143693659Y-70047074D01*
X143693650Y-70047069D01*
X143561620Y-69992381D01*
X143561614Y-69992379D01*
X143421457Y-69964500D01*
X143421455Y-69964500D01*
X143278545Y-69964500D01*
X143278543Y-69964500D01*
X143138385Y-69992379D01*
X143138379Y-69992381D01*
X143006349Y-70047069D01*
X143006340Y-70047074D01*
X142887521Y-70126467D01*
X142887517Y-70126470D01*
X142786470Y-70227517D01*
X142786467Y-70227521D01*
X142707074Y-70346340D01*
X142707069Y-70346349D01*
X142652381Y-70478379D01*
X142652379Y-70478385D01*
X142624500Y-70618542D01*
X142624500Y-70618545D01*
X142624500Y-70761455D01*
X142624500Y-70761457D01*
X142624499Y-70761457D01*
X142652379Y-70901614D01*
X142652381Y-70901620D01*
X142707069Y-71033650D01*
X142707073Y-71033657D01*
X142765507Y-71121110D01*
X142786384Y-71187787D01*
X142767899Y-71255167D01*
X142765507Y-71258890D01*
X142707073Y-71346342D01*
X142707069Y-71346349D01*
X142652381Y-71478379D01*
X142652379Y-71478385D01*
X142624500Y-71618542D01*
X142624500Y-71618545D01*
X142624500Y-71761455D01*
X142624500Y-71761457D01*
X142624499Y-71761457D01*
X142652379Y-71901614D01*
X142652381Y-71901620D01*
X142707069Y-72033650D01*
X142707073Y-72033657D01*
X142765507Y-72121110D01*
X142786384Y-72187787D01*
X142767899Y-72255167D01*
X142765507Y-72258890D01*
X142707073Y-72346342D01*
X142707069Y-72346349D01*
X142652381Y-72478379D01*
X142652379Y-72478385D01*
X142624500Y-72618542D01*
X142624500Y-72618545D01*
X142624500Y-72761455D01*
X142624500Y-72761457D01*
X142624499Y-72761457D01*
X142652379Y-72901614D01*
X142652381Y-72901620D01*
X142707069Y-73033650D01*
X142707073Y-73033657D01*
X142750473Y-73098610D01*
X142771350Y-73165287D01*
X142752865Y-73232667D01*
X142750473Y-73236390D01*
X142684918Y-73334500D01*
X142684912Y-73334511D01*
X142628343Y-73471082D01*
X142628340Y-73471092D01*
X142599500Y-73616079D01*
X142599500Y-73652971D01*
X142579815Y-73720010D01*
X142527011Y-73765765D01*
X142522953Y-73767532D01*
X142401260Y-73817939D01*
X142401250Y-73817944D01*
X142316763Y-73874397D01*
X142316750Y-73874406D01*
X142311291Y-73878054D01*
X142291362Y-73889561D01*
X142285906Y-73895016D01*
X142285903Y-73895019D01*
X142279056Y-73901865D01*
X142271233Y-73907565D01*
X142263440Y-73910356D01*
X142217806Y-73935270D01*
X142148115Y-73930281D01*
X142092184Y-73888405D01*
X142067772Y-73822939D01*
X142069840Y-73789909D01*
X142075500Y-73761456D01*
X142075500Y-73618542D01*
X142047620Y-73478385D01*
X142047619Y-73478384D01*
X142047619Y-73478380D01*
X141992929Y-73346347D01*
X141992928Y-73346346D01*
X141992925Y-73346340D01*
X141913532Y-73227521D01*
X141913529Y-73227517D01*
X141812482Y-73126470D01*
X141812478Y-73126467D01*
X141693659Y-73047074D01*
X141693650Y-73047069D01*
X141561620Y-72992381D01*
X141561614Y-72992379D01*
X141421457Y-72964500D01*
X141421455Y-72964500D01*
X141278545Y-72964500D01*
X141278543Y-72964500D01*
X141138385Y-72992379D01*
X141138379Y-72992381D01*
X141006349Y-73047069D01*
X141006340Y-73047074D01*
X140887521Y-73126467D01*
X140887517Y-73126470D01*
X140786470Y-73227517D01*
X140786467Y-73227521D01*
X140707074Y-73346340D01*
X140707069Y-73346349D01*
X140652381Y-73478379D01*
X140652379Y-73478385D01*
X140624500Y-73618542D01*
X140624500Y-73618545D01*
X140624500Y-73761455D01*
X140624500Y-73761457D01*
X140624499Y-73761457D01*
X140652379Y-73901614D01*
X140652381Y-73901620D01*
X140707069Y-74033650D01*
X140707074Y-74033659D01*
X140786467Y-74152478D01*
X140786470Y-74152482D01*
X140887517Y-74253529D01*
X140887521Y-74253532D01*
X141006340Y-74332925D01*
X141006346Y-74332928D01*
X141006347Y-74332929D01*
X141138380Y-74387619D01*
X141138384Y-74387619D01*
X141138385Y-74387620D01*
X141278542Y-74415500D01*
X141278545Y-74415500D01*
X141421456Y-74415500D01*
X141441461Y-74411520D01*
X141511547Y-74397579D01*
X141521666Y-74398484D01*
X141531310Y-74395275D01*
X141555882Y-74401546D01*
X141581137Y-74403806D01*
X141589161Y-74410039D01*
X141599010Y-74412553D01*
X141616291Y-74431113D01*
X141636315Y-74446668D01*
X141639695Y-74456251D01*
X141646621Y-74463689D01*
X141651124Y-74488644D01*
X141659560Y-74512557D01*
X141657553Y-74524277D01*
X141659028Y-74532449D01*
X141650300Y-74566647D01*
X141642741Y-74584897D01*
X141598901Y-74639301D01*
X141575637Y-74652005D01*
X141561221Y-74657976D01*
X141493023Y-74703545D01*
X141471255Y-74718090D01*
X141451326Y-74729597D01*
X141445870Y-74735052D01*
X141445867Y-74735055D01*
X141421338Y-74759585D01*
X141417045Y-74763877D01*
X141417036Y-74763885D01*
X141405085Y-74775837D01*
X141405083Y-74775839D01*
X141300314Y-74880607D01*
X141300310Y-74880613D01*
X141290839Y-74897017D01*
X141289082Y-74899965D01*
X141287845Y-74901976D01*
X141228690Y-74990510D01*
X141218951Y-75014019D01*
X141213790Y-75022414D01*
X141194867Y-75039481D01*
X141178877Y-75059323D01*
X141163653Y-75067635D01*
X141161907Y-75069211D01*
X141160279Y-75069478D01*
X141155619Y-75072023D01*
X141141203Y-75077994D01*
X141059691Y-75132459D01*
X141051237Y-75138108D01*
X141031308Y-75149615D01*
X141025852Y-75155070D01*
X141025849Y-75155073D01*
X141001320Y-75179603D01*
X140997027Y-75183895D01*
X140997018Y-75183903D01*
X140985067Y-75195855D01*
X140985065Y-75195857D01*
X140880296Y-75300625D01*
X140880292Y-75300631D01*
X140870821Y-75317035D01*
X140866538Y-75323922D01*
X140808677Y-75410519D01*
X140808670Y-75410531D01*
X140755581Y-75538700D01*
X140755580Y-75538702D01*
X140728514Y-75674764D01*
X140728514Y-75811534D01*
X140728514Y-75813498D01*
X140755577Y-75949565D01*
X140808664Y-76077737D01*
X140822454Y-76098376D01*
X140843330Y-76165054D01*
X140824844Y-76232433D01*
X140807032Y-76254944D01*
X140711484Y-76350493D01*
X140711480Y-76350498D01*
X140634402Y-76484001D01*
X140634400Y-76484007D01*
X140633580Y-76487067D01*
X140609665Y-76533625D01*
X140606469Y-76537519D01*
X140527074Y-76656341D01*
X140527069Y-76656349D01*
X140472381Y-76788379D01*
X140472379Y-76788385D01*
X140444500Y-76928542D01*
X140444500Y-76928545D01*
X140444500Y-77071455D01*
X140444500Y-77071457D01*
X140444499Y-77071457D01*
X140472379Y-77211614D01*
X140472381Y-77211620D01*
X140527069Y-77343650D01*
X140527074Y-77343659D01*
X140572477Y-77411609D01*
X140593355Y-77478287D01*
X140574870Y-77545667D01*
X140522891Y-77592357D01*
X140469375Y-77604500D01*
X140422917Y-77604500D01*
X140274006Y-77644401D01*
X140241934Y-77662918D01*
X140140495Y-77721483D01*
X140084358Y-77777618D01*
X140076319Y-77783430D01*
X140052352Y-77791915D01*
X140030034Y-77804102D01*
X140027871Y-77804552D01*
X139963384Y-77817380D01*
X139963379Y-77817381D01*
X139831349Y-77872069D01*
X139831340Y-77872074D01*
X139712521Y-77951467D01*
X139712517Y-77951470D01*
X139611470Y-78052517D01*
X139611467Y-78052521D01*
X139532074Y-78171340D01*
X139532069Y-78171349D01*
X139477381Y-78303379D01*
X139477379Y-78303385D01*
X139449500Y-78443542D01*
X139449500Y-78443545D01*
X139449500Y-78586455D01*
X139449500Y-78586457D01*
X139449499Y-78586457D01*
X139477379Y-78726614D01*
X139477381Y-78726620D01*
X139532069Y-78858650D01*
X139532074Y-78858659D01*
X139611467Y-78977478D01*
X139611470Y-78977482D01*
X139712517Y-79078529D01*
X139712521Y-79078532D01*
X139831340Y-79157925D01*
X139831344Y-79157927D01*
X139831347Y-79157929D01*
X139839517Y-79161313D01*
X139850684Y-79165939D01*
X139905088Y-79209781D01*
X139927152Y-79276075D01*
X139909872Y-79343774D01*
X139858735Y-79391384D01*
X139803231Y-79404500D01*
X138580213Y-79404500D01*
X138513174Y-79384815D01*
X138467419Y-79332011D01*
X138465652Y-79327953D01*
X138425158Y-79230191D01*
X138425157Y-79230189D01*
X138425156Y-79230187D01*
X138348079Y-79114835D01*
X138348075Y-79114831D01*
X138348073Y-79114828D01*
X138249985Y-79016740D01*
X138249981Y-79016737D01*
X138249979Y-79016735D01*
X138134627Y-78939658D01*
X138134624Y-78939656D01*
X138134620Y-78939654D01*
X138006456Y-78886567D01*
X138006448Y-78886565D01*
X137904305Y-78866247D01*
X137896405Y-78864405D01*
X137878100Y-78859500D01*
X137878097Y-78859500D01*
X137664531Y-78859500D01*
X137664526Y-78859500D01*
X137646224Y-78864404D01*
X137638329Y-78866245D01*
X137536178Y-78886565D01*
X137536171Y-78886567D01*
X137408007Y-78939654D01*
X137408001Y-78939657D01*
X137408001Y-78939658D01*
X137302111Y-79010413D01*
X137292642Y-79016740D01*
X137292642Y-79016741D01*
X137194555Y-79114828D01*
X137194554Y-79114828D01*
X137117469Y-79230191D01*
X137076976Y-79327953D01*
X137033135Y-79382356D01*
X136966841Y-79404421D01*
X136962415Y-79404500D01*
X136822917Y-79404500D01*
X136721902Y-79431566D01*
X136721903Y-79431567D01*
X136674003Y-79444401D01*
X136674002Y-79444402D01*
X136540498Y-79521481D01*
X136540492Y-79521485D01*
X135943797Y-80118181D01*
X135882474Y-80151666D01*
X135856116Y-80154500D01*
X133982917Y-80154500D01*
X133871256Y-80184419D01*
X133871252Y-80184420D01*
X133860093Y-80187411D01*
X133834005Y-80194401D01*
X133752543Y-80241432D01*
X133748283Y-80243479D01*
X133718265Y-80248389D01*
X133688700Y-80255561D01*
X133684117Y-80253974D01*
X133679330Y-80254758D01*
X133651419Y-80242658D01*
X133622673Y-80232709D01*
X133619674Y-80228895D01*
X133615225Y-80226967D01*
X133598286Y-80201698D01*
X133579483Y-80177787D01*
X133577277Y-80170356D01*
X133576321Y-80168930D01*
X133576283Y-80167010D01*
X133572984Y-80155894D01*
X133547620Y-80028385D01*
X133547619Y-80028384D01*
X133547619Y-80028380D01*
X133492929Y-79896347D01*
X133492928Y-79896346D01*
X133492925Y-79896340D01*
X133413532Y-79777520D01*
X133312482Y-79676470D01*
X133312478Y-79676467D01*
X133193659Y-79597074D01*
X133193650Y-79597069D01*
X133061620Y-79542381D01*
X133061614Y-79542379D01*
X132921457Y-79514500D01*
X132921455Y-79514500D01*
X132778545Y-79514500D01*
X132778543Y-79514500D01*
X132638385Y-79542379D01*
X132638379Y-79542381D01*
X132506349Y-79597069D01*
X132506342Y-79597073D01*
X132400182Y-79668007D01*
X132333505Y-79688884D01*
X132266125Y-79670399D01*
X132262402Y-79668006D01*
X132193664Y-79622077D01*
X132193650Y-79622069D01*
X132061620Y-79567381D01*
X132061614Y-79567379D01*
X131921457Y-79539500D01*
X131921455Y-79539500D01*
X131778545Y-79539500D01*
X131778543Y-79539500D01*
X131638385Y-79567379D01*
X131638379Y-79567381D01*
X131506349Y-79622069D01*
X131506340Y-79622074D01*
X131387521Y-79701467D01*
X131387517Y-79701470D01*
X131286470Y-79802517D01*
X131286467Y-79802521D01*
X131207074Y-79921340D01*
X131207069Y-79921349D01*
X131152381Y-80053379D01*
X131152379Y-80053385D01*
X131124500Y-80193542D01*
X131124500Y-80336454D01*
X131133534Y-80381874D01*
X131127305Y-80451465D01*
X131084442Y-80506642D01*
X131018552Y-80529886D01*
X130987725Y-80527681D01*
X130921459Y-80514500D01*
X130921455Y-80514500D01*
X130778545Y-80514500D01*
X130778543Y-80514500D01*
X130638385Y-80542379D01*
X130638379Y-80542381D01*
X130506349Y-80597069D01*
X130506335Y-80597077D01*
X130420390Y-80654504D01*
X130353713Y-80675382D01*
X130286333Y-80656897D01*
X130239643Y-80604918D01*
X130227500Y-80551402D01*
X130227500Y-78686280D01*
X130247185Y-78619241D01*
X130263814Y-78598603D01*
X131198022Y-77664395D01*
X131259345Y-77630911D01*
X131329037Y-77635895D01*
X131373384Y-77664396D01*
X131437517Y-77728529D01*
X131437521Y-77728532D01*
X131556340Y-77807925D01*
X131556346Y-77807928D01*
X131556347Y-77807929D01*
X131688380Y-77862619D01*
X131688384Y-77862619D01*
X131688385Y-77862620D01*
X131828542Y-77890500D01*
X131828545Y-77890500D01*
X131971457Y-77890500D01*
X132077027Y-77869500D01*
X132111620Y-77862619D01*
X132243653Y-77807929D01*
X132362479Y-77728532D01*
X132463532Y-77627479D01*
X132542929Y-77508653D01*
X132597619Y-77376620D01*
X132617167Y-77278347D01*
X132625500Y-77236457D01*
X132625500Y-77093542D01*
X132597620Y-76953385D01*
X132597619Y-76953384D01*
X132597619Y-76953380D01*
X132542929Y-76821347D01*
X132542928Y-76821346D01*
X132542925Y-76821340D01*
X132463532Y-76702521D01*
X132463529Y-76702517D01*
X132399396Y-76638384D01*
X132365911Y-76577061D01*
X132370895Y-76507369D01*
X132399396Y-76463022D01*
X132490961Y-76371457D01*
X134874499Y-76371457D01*
X134902379Y-76511614D01*
X134902381Y-76511620D01*
X134957069Y-76643650D01*
X134957074Y-76643659D01*
X135036467Y-76762478D01*
X135036470Y-76762482D01*
X135137517Y-76863529D01*
X135137521Y-76863532D01*
X135256340Y-76942925D01*
X135256346Y-76942928D01*
X135256347Y-76942929D01*
X135388380Y-76997619D01*
X135388384Y-76997619D01*
X135388385Y-76997620D01*
X135528542Y-77025500D01*
X135528545Y-77025500D01*
X135671457Y-77025500D01*
X135765751Y-77006742D01*
X135811620Y-76997619D01*
X135943653Y-76942929D01*
X136062479Y-76863532D01*
X136163532Y-76762479D01*
X136242929Y-76643653D01*
X136297619Y-76511620D01*
X136315182Y-76423328D01*
X136325500Y-76371457D01*
X136325500Y-76228542D01*
X136297620Y-76088385D01*
X136297619Y-76088384D01*
X136297619Y-76088380D01*
X136242929Y-75956347D01*
X136242928Y-75956346D01*
X136242925Y-75956340D01*
X136163532Y-75837521D01*
X136163529Y-75837517D01*
X136062482Y-75736470D01*
X136062478Y-75736467D01*
X135943659Y-75657074D01*
X135943650Y-75657069D01*
X135811620Y-75602381D01*
X135811614Y-75602379D01*
X135671457Y-75574500D01*
X135671455Y-75574500D01*
X135528545Y-75574500D01*
X135528543Y-75574500D01*
X135388385Y-75602379D01*
X135388379Y-75602381D01*
X135256349Y-75657069D01*
X135256340Y-75657074D01*
X135137521Y-75736467D01*
X135137517Y-75736470D01*
X135036470Y-75837517D01*
X135036467Y-75837521D01*
X134957074Y-75956340D01*
X134957069Y-75956349D01*
X134902381Y-76088379D01*
X134902379Y-76088385D01*
X134874500Y-76228542D01*
X134874500Y-76228545D01*
X134874500Y-76371455D01*
X134874500Y-76371457D01*
X134874499Y-76371457D01*
X132490961Y-76371457D01*
X133294411Y-75568007D01*
X134337411Y-74525008D01*
X134341031Y-74519590D01*
X134406083Y-74422233D01*
X134444082Y-74330495D01*
X134453386Y-74308034D01*
X134477500Y-74186803D01*
X134477500Y-74063196D01*
X134477500Y-72903578D01*
X134491055Y-72849470D01*
X134490598Y-72849281D01*
X134491876Y-72846193D01*
X134492147Y-72845115D01*
X134492925Y-72843658D01*
X134492929Y-72843653D01*
X134547619Y-72711620D01*
X134572285Y-72587618D01*
X134575500Y-72571457D01*
X134575500Y-72428542D01*
X134547620Y-72288385D01*
X134547619Y-72288384D01*
X134547619Y-72288380D01*
X134492929Y-72156347D01*
X134492928Y-72156346D01*
X134492925Y-72156340D01*
X134413532Y-72037521D01*
X134413529Y-72037517D01*
X134312482Y-71936470D01*
X134312478Y-71936467D01*
X134193659Y-71857074D01*
X134193650Y-71857069D01*
X134061620Y-71802381D01*
X134061614Y-71802379D01*
X133921457Y-71774500D01*
X133921455Y-71774500D01*
X133778545Y-71774500D01*
X133778543Y-71774500D01*
X133638385Y-71802379D01*
X133638379Y-71802381D01*
X133506349Y-71857069D01*
X133506340Y-71857074D01*
X133387521Y-71936467D01*
X133387517Y-71936470D01*
X133286470Y-72037517D01*
X133286467Y-72037521D01*
X133207074Y-72156340D01*
X133207069Y-72156349D01*
X133152381Y-72288379D01*
X133152379Y-72288385D01*
X133124500Y-72428542D01*
X133124500Y-72428545D01*
X133124500Y-72571455D01*
X133124500Y-72571457D01*
X133124499Y-72571457D01*
X133152379Y-72711614D01*
X133152381Y-72711620D01*
X133207068Y-72843648D01*
X133207853Y-72845115D01*
X133208123Y-72846193D01*
X133209402Y-72849281D01*
X133208944Y-72849470D01*
X133222500Y-72903578D01*
X133222500Y-73813718D01*
X133202815Y-73880757D01*
X133186181Y-73901399D01*
X132769351Y-74318228D01*
X132708028Y-74351713D01*
X132638336Y-74346729D01*
X132594355Y-74315312D01*
X132592840Y-74316828D01*
X132487482Y-74211470D01*
X132487478Y-74211467D01*
X132368659Y-74132074D01*
X132368650Y-74132069D01*
X132236620Y-74077381D01*
X132236614Y-74077379D01*
X132096457Y-74049500D01*
X132096455Y-74049500D01*
X131953545Y-74049500D01*
X131953543Y-74049500D01*
X131813385Y-74077379D01*
X131813379Y-74077381D01*
X131681349Y-74132069D01*
X131681340Y-74132074D01*
X131562521Y-74211467D01*
X131562517Y-74211470D01*
X131461470Y-74312517D01*
X131461467Y-74312521D01*
X131382074Y-74431340D01*
X131382069Y-74431349D01*
X131327381Y-74563379D01*
X131327379Y-74563385D01*
X131299500Y-74703542D01*
X131299500Y-74703545D01*
X131299500Y-74846455D01*
X131299500Y-74846457D01*
X131299499Y-74846457D01*
X131327379Y-74986614D01*
X131327381Y-74986620D01*
X131382069Y-75118650D01*
X131382074Y-75118659D01*
X131461467Y-75237478D01*
X131461470Y-75237482D01*
X131566828Y-75342840D01*
X131565143Y-75344524D01*
X131598547Y-75393565D01*
X131600416Y-75463410D01*
X131568228Y-75519351D01*
X129746119Y-77341462D01*
X129199992Y-77887589D01*
X129176680Y-77910901D01*
X129112586Y-77974994D01*
X129112585Y-77974996D01*
X129043833Y-78077891D01*
X129043732Y-78078213D01*
X128996614Y-78191965D01*
X128977312Y-78289005D01*
X128976031Y-78295441D01*
X128976031Y-78295444D01*
X128972500Y-78313196D01*
X128972500Y-81643450D01*
X128952815Y-81710489D01*
X128900011Y-81756244D01*
X128830853Y-81766188D01*
X128824309Y-81765067D01*
X128821459Y-81764500D01*
X128821455Y-81764500D01*
X128678545Y-81764500D01*
X128678543Y-81764500D01*
X128538385Y-81792379D01*
X128538379Y-81792381D01*
X128406349Y-81847069D01*
X128406340Y-81847074D01*
X128287521Y-81926467D01*
X128287517Y-81926470D01*
X128186470Y-82027517D01*
X128186467Y-82027521D01*
X128107074Y-82146340D01*
X128107069Y-82146349D01*
X128052381Y-82278379D01*
X128052379Y-82278385D01*
X128024500Y-82418542D01*
X128024500Y-82418545D01*
X128024500Y-82561455D01*
X128024500Y-82561457D01*
X128024499Y-82561457D01*
X125950500Y-82561457D01*
X125950500Y-67711457D01*
X137724499Y-67711457D01*
X137752379Y-67851614D01*
X137752381Y-67851620D01*
X137807069Y-67983650D01*
X137807074Y-67983659D01*
X137886467Y-68102478D01*
X137886470Y-68102482D01*
X137987517Y-68203529D01*
X137987521Y-68203532D01*
X138106340Y-68282925D01*
X138106346Y-68282928D01*
X138106347Y-68282929D01*
X138238380Y-68337619D01*
X138238384Y-68337619D01*
X138238385Y-68337620D01*
X138378542Y-68365500D01*
X138378545Y-68365500D01*
X138521457Y-68365500D01*
X138631255Y-68343659D01*
X138661620Y-68337619D01*
X138793653Y-68282929D01*
X138912479Y-68203532D01*
X139013532Y-68102479D01*
X139092929Y-67983653D01*
X139147619Y-67851620D01*
X139175500Y-67711455D01*
X139175500Y-67568545D01*
X139175500Y-67568542D01*
X139147620Y-67428385D01*
X139147619Y-67428384D01*
X139147619Y-67428380D01*
X139105005Y-67325500D01*
X139092930Y-67296349D01*
X139092925Y-67296340D01*
X139013532Y-67177521D01*
X139013529Y-67177517D01*
X138912482Y-67076470D01*
X138912478Y-67076467D01*
X138793659Y-66997074D01*
X138793650Y-66997069D01*
X138661620Y-66942381D01*
X138661614Y-66942379D01*
X138521457Y-66914500D01*
X138521455Y-66914500D01*
X138378545Y-66914500D01*
X138378543Y-66914500D01*
X138238385Y-66942379D01*
X138238379Y-66942381D01*
X138106349Y-66997069D01*
X138106340Y-66997074D01*
X137987521Y-67076467D01*
X137987517Y-67076470D01*
X137886470Y-67177517D01*
X137886467Y-67177521D01*
X137807074Y-67296340D01*
X137807069Y-67296349D01*
X137752381Y-67428379D01*
X137752379Y-67428385D01*
X137724500Y-67568542D01*
X137724500Y-67568545D01*
X137724500Y-67711455D01*
X137724500Y-67711457D01*
X137724499Y-67711457D01*
X125950500Y-67711457D01*
X125950500Y-63627706D01*
X125950618Y-63622297D01*
X125956985Y-63476467D01*
X125958437Y-63443209D01*
X126999500Y-63443209D01*
X126999500Y-63806790D01*
X127035137Y-64168630D01*
X127106064Y-64525212D01*
X127106067Y-64525223D01*
X127211614Y-64873165D01*
X127350754Y-65209078D01*
X127350756Y-65209083D01*
X127522140Y-65529720D01*
X127522151Y-65529738D01*
X127724140Y-65832035D01*
X127724150Y-65832049D01*
X127954807Y-66113106D01*
X128211893Y-66370192D01*
X128211898Y-66370196D01*
X128211899Y-66370197D01*
X128492956Y-66600854D01*
X128795268Y-66802853D01*
X128795277Y-66802858D01*
X128795279Y-66802859D01*
X129115916Y-66974243D01*
X129115918Y-66974243D01*
X129115924Y-66974247D01*
X129451836Y-67113386D01*
X129799767Y-67218930D01*
X129799773Y-67218931D01*
X129799776Y-67218932D01*
X129799787Y-67218935D01*
X130130181Y-67284653D01*
X130156369Y-67289862D01*
X130518206Y-67325500D01*
X130518209Y-67325500D01*
X130881791Y-67325500D01*
X130881794Y-67325500D01*
X131243631Y-67289862D01*
X131320862Y-67274500D01*
X131600212Y-67218935D01*
X131600223Y-67218932D01*
X131600223Y-67218931D01*
X131600233Y-67218930D01*
X131948164Y-67113386D01*
X132284076Y-66974247D01*
X132604732Y-66802853D01*
X132907044Y-66600854D01*
X133188101Y-66370197D01*
X133445197Y-66113101D01*
X133675854Y-65832044D01*
X133877853Y-65529732D01*
X134049247Y-65209076D01*
X134188386Y-64873164D01*
X134293930Y-64525233D01*
X134293932Y-64525223D01*
X134293935Y-64525212D01*
X134364862Y-64168630D01*
X134370493Y-64111457D01*
X138724499Y-64111457D01*
X138752379Y-64251614D01*
X138752381Y-64251620D01*
X138807069Y-64383650D01*
X138807074Y-64383659D01*
X138886467Y-64502478D01*
X138886470Y-64502482D01*
X138987517Y-64603529D01*
X138987521Y-64603532D01*
X139106340Y-64682925D01*
X139106349Y-64682930D01*
X139136258Y-64695318D01*
X139238380Y-64737619D01*
X139238384Y-64737619D01*
X139238385Y-64737620D01*
X139378542Y-64765500D01*
X139378545Y-64765500D01*
X139521457Y-64765500D01*
X139615751Y-64746742D01*
X139661620Y-64737619D01*
X139793653Y-64682929D01*
X139858015Y-64639924D01*
X139881109Y-64624493D01*
X139947786Y-64603615D01*
X140015167Y-64622099D01*
X140018891Y-64624493D01*
X140106340Y-64682925D01*
X140106349Y-64682930D01*
X140136258Y-64695318D01*
X140238380Y-64737619D01*
X140238384Y-64737619D01*
X140238385Y-64737620D01*
X140378542Y-64765500D01*
X140378545Y-64765500D01*
X140521457Y-64765500D01*
X140615751Y-64746742D01*
X140661620Y-64737619D01*
X140793653Y-64682929D01*
X140912479Y-64603532D01*
X141013532Y-64502479D01*
X141092929Y-64383653D01*
X141147619Y-64251620D01*
X141175500Y-64111457D01*
X146724499Y-64111457D01*
X146752379Y-64251614D01*
X146752381Y-64251620D01*
X146807069Y-64383650D01*
X146807074Y-64383659D01*
X146886467Y-64502478D01*
X146886470Y-64502482D01*
X146987517Y-64603529D01*
X146987521Y-64603532D01*
X147106340Y-64682925D01*
X147106349Y-64682930D01*
X147136258Y-64695318D01*
X147238380Y-64737619D01*
X147238384Y-64737619D01*
X147238385Y-64737620D01*
X147378542Y-64765500D01*
X147378545Y-64765500D01*
X147521457Y-64765500D01*
X147615751Y-64746742D01*
X147661620Y-64737619D01*
X147793653Y-64682929D01*
X147858015Y-64639924D01*
X147881109Y-64624493D01*
X147947786Y-64603615D01*
X148015167Y-64622099D01*
X148018891Y-64624493D01*
X148106340Y-64682925D01*
X148106349Y-64682930D01*
X148136258Y-64695318D01*
X148238380Y-64737619D01*
X148238384Y-64737619D01*
X148238385Y-64737620D01*
X148378542Y-64765500D01*
X148378545Y-64765500D01*
X148521457Y-64765500D01*
X148615751Y-64746742D01*
X148661620Y-64737619D01*
X148793653Y-64682929D01*
X148912479Y-64603532D01*
X149013532Y-64502479D01*
X149092929Y-64383653D01*
X149147619Y-64251620D01*
X149175500Y-64111455D01*
X149175500Y-63968545D01*
X149175500Y-63968542D01*
X149147620Y-63828385D01*
X149147619Y-63828384D01*
X149147619Y-63828380D01*
X149092929Y-63696347D01*
X149092928Y-63696346D01*
X149092925Y-63696340D01*
X149013532Y-63577521D01*
X149013529Y-63577517D01*
X148912482Y-63476470D01*
X148912478Y-63476467D01*
X148793659Y-63397074D01*
X148793650Y-63397069D01*
X148661620Y-63342381D01*
X148661614Y-63342379D01*
X148521457Y-63314500D01*
X148521455Y-63314500D01*
X148378545Y-63314500D01*
X148378543Y-63314500D01*
X148238385Y-63342379D01*
X148238379Y-63342381D01*
X148106349Y-63397069D01*
X148106342Y-63397073D01*
X148018890Y-63455507D01*
X147952213Y-63476384D01*
X147884833Y-63457899D01*
X147881110Y-63455507D01*
X147793657Y-63397073D01*
X147793650Y-63397069D01*
X147661620Y-63342381D01*
X147661614Y-63342379D01*
X147521457Y-63314500D01*
X147521455Y-63314500D01*
X147378545Y-63314500D01*
X147378543Y-63314500D01*
X147238385Y-63342379D01*
X147238379Y-63342381D01*
X147106349Y-63397069D01*
X147106340Y-63397074D01*
X146987521Y-63476467D01*
X146987517Y-63476470D01*
X146886470Y-63577517D01*
X146886467Y-63577521D01*
X146807074Y-63696340D01*
X146807069Y-63696349D01*
X146752381Y-63828379D01*
X146752379Y-63828385D01*
X146724500Y-63968542D01*
X146724500Y-63968545D01*
X146724500Y-64111455D01*
X146724500Y-64111457D01*
X146724499Y-64111457D01*
X141175500Y-64111457D01*
X141175500Y-64111455D01*
X141175500Y-63968545D01*
X141175500Y-63968542D01*
X141147620Y-63828385D01*
X141147619Y-63828384D01*
X141147619Y-63828380D01*
X141092929Y-63696347D01*
X141092928Y-63696346D01*
X141092925Y-63696340D01*
X141013532Y-63577521D01*
X141013529Y-63577517D01*
X140912482Y-63476470D01*
X140912478Y-63476467D01*
X140793659Y-63397074D01*
X140793650Y-63397069D01*
X140661620Y-63342381D01*
X140661614Y-63342379D01*
X140521457Y-63314500D01*
X140521455Y-63314500D01*
X140378545Y-63314500D01*
X140378543Y-63314500D01*
X140238385Y-63342379D01*
X140238379Y-63342381D01*
X140106349Y-63397069D01*
X140106342Y-63397073D01*
X140018890Y-63455507D01*
X139952213Y-63476384D01*
X139884833Y-63457899D01*
X139881110Y-63455507D01*
X139793657Y-63397073D01*
X139793650Y-63397069D01*
X139661620Y-63342381D01*
X139661614Y-63342379D01*
X139521457Y-63314500D01*
X139521455Y-63314500D01*
X139378545Y-63314500D01*
X139378543Y-63314500D01*
X139238385Y-63342379D01*
X139238379Y-63342381D01*
X139106349Y-63397069D01*
X139106340Y-63397074D01*
X138987521Y-63476467D01*
X138987517Y-63476470D01*
X138886470Y-63577517D01*
X138886467Y-63577521D01*
X138807074Y-63696340D01*
X138807069Y-63696349D01*
X138752381Y-63828379D01*
X138752379Y-63828385D01*
X138724500Y-63968542D01*
X138724500Y-63968545D01*
X138724500Y-64111455D01*
X138724500Y-64111457D01*
X138724499Y-64111457D01*
X134370493Y-64111457D01*
X134386366Y-63950299D01*
X134400500Y-63806790D01*
X134400500Y-63443209D01*
X134399770Y-63435800D01*
X134364862Y-63081369D01*
X134339434Y-62953532D01*
X134293935Y-62724787D01*
X134293932Y-62724776D01*
X134293931Y-62724773D01*
X134293930Y-62724767D01*
X134188386Y-62376836D01*
X134049247Y-62040924D01*
X133975305Y-61902589D01*
X133877859Y-61720279D01*
X133877858Y-61720277D01*
X133877853Y-61720268D01*
X133675854Y-61417956D01*
X133445197Y-61136899D01*
X133445196Y-61136898D01*
X133445192Y-61136893D01*
X133188106Y-60879807D01*
X132907049Y-60649150D01*
X132907048Y-60649149D01*
X132907044Y-60649146D01*
X132604732Y-60447147D01*
X132604727Y-60447144D01*
X132604720Y-60447140D01*
X132284083Y-60275756D01*
X132284078Y-60275754D01*
X131948165Y-60136614D01*
X131600223Y-60031067D01*
X131600212Y-60031064D01*
X131243630Y-59960137D01*
X130971111Y-59933296D01*
X130881794Y-59924500D01*
X130518206Y-59924500D01*
X130435679Y-59932628D01*
X130156369Y-59960137D01*
X129799787Y-60031064D01*
X129799776Y-60031067D01*
X129451834Y-60136614D01*
X129115921Y-60275754D01*
X129115916Y-60275756D01*
X128795279Y-60447140D01*
X128795261Y-60447151D01*
X128492964Y-60649140D01*
X128492950Y-60649150D01*
X128211893Y-60879807D01*
X127954807Y-61136893D01*
X127724150Y-61417950D01*
X127724140Y-61417964D01*
X127522151Y-61720261D01*
X127522140Y-61720279D01*
X127350756Y-62040916D01*
X127350754Y-62040921D01*
X127211614Y-62376834D01*
X127106067Y-62724776D01*
X127106064Y-62724787D01*
X127035137Y-63081369D01*
X127007628Y-63360679D01*
X127000230Y-63435800D01*
X126999500Y-63443209D01*
X125958437Y-63443209D01*
X125968337Y-63216437D01*
X125969276Y-63205707D01*
X126021948Y-62805620D01*
X126023822Y-62794990D01*
X126111167Y-62401005D01*
X126113958Y-62390590D01*
X126235309Y-62005713D01*
X126238993Y-61995592D01*
X126393426Y-61622757D01*
X126397984Y-61612983D01*
X126584315Y-61255045D01*
X126589710Y-61245700D01*
X126806535Y-60905352D01*
X126812721Y-60896517D01*
X127058396Y-60576348D01*
X127065321Y-60568097D01*
X127337949Y-60270575D01*
X127345575Y-60262949D01*
X127643097Y-59990321D01*
X127651348Y-59983396D01*
X127971517Y-59737721D01*
X127980352Y-59731535D01*
X128320700Y-59514710D01*
X128330045Y-59509315D01*
X128687983Y-59322984D01*
X128697757Y-59318426D01*
X129070592Y-59163993D01*
X129080713Y-59160309D01*
X129465590Y-59038958D01*
X129476005Y-59036167D01*
X129869990Y-58948822D01*
X129880620Y-58946948D01*
X130280707Y-58894276D01*
X130291437Y-58893337D01*
X130685187Y-58876146D01*
X130697298Y-58875618D01*
X130702706Y-58875500D01*
X130765892Y-58875500D01*
X160134108Y-58875500D01*
X160197294Y-58875500D01*
X160202702Y-58875618D01*
G37*
%TD.AperFunction*%
%TD*%
M02*
