%TF.GenerationSoftware,KiCad,Pcbnew,10.0.2*%
%TF.CreationDate,2026-06-25T20:04:08-07:00*%
%TF.ProjectId,Aero32,4165726f-3332-42e6-9b69-6361645f7063,rev?*%
%TF.SameCoordinates,Original*%
%TF.FileFunction,Legend,Bot*%
%TF.FilePolarity,Positive*%
%FSLAX46Y46*%
G04 Gerber Fmt 4.6, Leading zero omitted, Abs format (unit mm)*
G04 Created by KiCad (PCBNEW 10.0.2) date 2026-06-25 20:04:08*
%MOMM*%
%LPD*%
G01*
G04 APERTURE LIST*
%ADD10C,0.300000*%
%ADD11C,0.250000*%
%ADD12C,0.060000*%
%ADD13C,0.150000*%
%ADD14C,0.200000*%
%ADD15C,0.500000*%
G04 APERTURE END LIST*
D10*
G36*
X127384380Y-92194699D02*
G01*
X127242530Y-92194699D01*
X127242530Y-92758527D01*
X127236127Y-92789245D01*
X127218878Y-92806352D01*
X127187679Y-92812743D01*
X127056069Y-92812743D01*
X127024531Y-92807191D01*
X127005561Y-92792461D01*
X126995741Y-92767497D01*
X126923188Y-92412911D01*
X126902401Y-92344933D01*
X126871529Y-92291933D01*
X126830783Y-92251124D01*
X126778931Y-92221039D01*
X126713458Y-92201715D01*
X126630836Y-92194699D01*
X126529231Y-92194699D01*
X126442919Y-92201887D01*
X126375271Y-92221571D01*
X126322379Y-92252016D01*
X126281437Y-92293067D01*
X126251037Y-92346163D01*
X126231365Y-92414142D01*
X126224177Y-92500942D01*
X126224177Y-92916809D01*
X126318797Y-93038338D01*
X126460647Y-93038338D01*
X126460647Y-92511262D01*
X126467048Y-92480251D01*
X126484230Y-92463052D01*
X126515181Y-92456649D01*
X126633376Y-92456649D01*
X126663629Y-92462074D01*
X126682664Y-92476726D01*
X126693386Y-92501816D01*
X126762763Y-92856401D01*
X126783605Y-92924357D01*
X126814561Y-92977363D01*
X126855432Y-93018197D01*
X126907464Y-93048314D01*
X126973187Y-93067665D01*
X127056148Y-93074693D01*
X127172835Y-93074693D01*
X127259532Y-93067492D01*
X127327458Y-93047778D01*
X127380541Y-93017299D01*
X127421609Y-92976224D01*
X127452085Y-92923127D01*
X127471799Y-92855179D01*
X127479000Y-92768449D01*
X127479000Y-92316625D01*
X127384380Y-92194699D01*
G37*
G36*
X127479000Y-93580575D02*
G01*
X127077660Y-93580575D01*
X127077660Y-93928731D01*
X127070471Y-94015559D01*
X127050797Y-94083558D01*
X127020395Y-94136668D01*
X126979450Y-94177728D01*
X126926559Y-94208178D01*
X126858913Y-94227865D01*
X126772606Y-94235054D01*
X126529231Y-94235054D01*
X126442924Y-94227865D01*
X126375279Y-94208178D01*
X126322387Y-94177728D01*
X126281442Y-94136668D01*
X126251040Y-94083558D01*
X126231366Y-94015559D01*
X126224177Y-93928731D01*
X126224177Y-93918888D01*
X126460647Y-93918888D01*
X126467014Y-93949599D01*
X126484131Y-93966662D01*
X126515022Y-93973025D01*
X126786815Y-93973025D01*
X126817706Y-93966662D01*
X126834823Y-93949599D01*
X126841190Y-93918888D01*
X126841190Y-93580575D01*
X126460647Y-93580575D01*
X126460647Y-93918888D01*
X126224177Y-93918888D01*
X126224177Y-93318625D01*
X127479000Y-93318625D01*
X127479000Y-93580575D01*
G37*
G36*
X127479000Y-94479462D02*
G01*
X126224177Y-94479462D01*
X126224177Y-94741413D01*
X127479000Y-94741413D01*
X127479000Y-94479462D01*
G37*
G36*
X163421000Y-73550767D02*
G01*
X164675822Y-73550767D01*
X164675822Y-73288817D01*
X163421000Y-73288817D01*
X163421000Y-73550767D01*
G37*
G36*
X163421000Y-73045441D02*
G01*
X163830039Y-73045441D01*
X163912749Y-73038420D01*
X163978292Y-73019086D01*
X164030199Y-72988986D01*
X164070988Y-72948160D01*
X164101895Y-72895143D01*
X164122709Y-72827149D01*
X164190261Y-72490741D01*
X164201015Y-72465345D01*
X164220065Y-72450560D01*
X164250271Y-72445098D01*
X164384818Y-72445098D01*
X164415769Y-72451501D01*
X164432951Y-72468700D01*
X164439352Y-72499711D01*
X164439352Y-73009085D01*
X164581202Y-73009085D01*
X164675822Y-72887080D01*
X164675822Y-72489392D01*
X164668627Y-72402627D01*
X164648934Y-72334663D01*
X164618497Y-72281567D01*
X164577491Y-72240503D01*
X164524504Y-72210041D01*
X164456717Y-72190342D01*
X164370213Y-72183148D01*
X164252017Y-72183148D01*
X164169244Y-72190170D01*
X164103658Y-72209509D01*
X164051723Y-72239613D01*
X164010918Y-72280441D01*
X163980004Y-72333455D01*
X163959189Y-72401440D01*
X163891637Y-72737848D01*
X163880927Y-72763244D01*
X163861906Y-72778027D01*
X163831706Y-72783490D01*
X163657469Y-72783490D01*
X163657469Y-72183148D01*
X163421000Y-72183148D01*
X163421000Y-73045441D01*
G37*
G36*
X163726529Y-71957235D02*
G01*
X164370292Y-71957235D01*
X164456768Y-71950042D01*
X164524536Y-71930345D01*
X164577510Y-71899885D01*
X164618506Y-71858823D01*
X164648938Y-71805727D01*
X164668628Y-71737761D01*
X164675822Y-71650991D01*
X164675822Y-71166145D01*
X164581202Y-71044139D01*
X164439352Y-71044139D01*
X164439352Y-71640672D01*
X164432951Y-71671683D01*
X164415769Y-71688882D01*
X164384818Y-71695285D01*
X163712003Y-71695285D01*
X163681052Y-71688882D01*
X163663870Y-71671683D01*
X163657469Y-71640672D01*
X163657469Y-71044139D01*
X163515619Y-71044139D01*
X163421000Y-71166145D01*
X163421000Y-71650991D01*
X163428193Y-71737761D01*
X163447883Y-71805727D01*
X163478315Y-71858823D01*
X163519311Y-71899885D01*
X163572285Y-71930345D01*
X163640053Y-71950042D01*
X163726529Y-71957235D01*
G37*
G36*
X163726529Y-81161721D02*
G01*
X164675822Y-81161721D01*
X164675822Y-80899692D01*
X163712003Y-80899692D01*
X163681052Y-80893289D01*
X163663870Y-80876090D01*
X163657469Y-80845079D01*
X163657469Y-80488668D01*
X163663847Y-80457972D01*
X163681007Y-80440901D01*
X163712003Y-80434531D01*
X164675822Y-80434531D01*
X164675822Y-80172501D01*
X163726529Y-80172501D01*
X163640058Y-80179696D01*
X163572293Y-80199396D01*
X163519319Y-80229861D01*
X163478321Y-80270931D01*
X163447886Y-80324041D01*
X163428194Y-80392027D01*
X163421000Y-80478825D01*
X163421000Y-80855398D01*
X163428194Y-80942196D01*
X163447886Y-81010181D01*
X163478321Y-81063291D01*
X163519319Y-81104362D01*
X163572293Y-81134827D01*
X163640058Y-81154527D01*
X163726529Y-81161721D01*
G37*
G36*
X164675822Y-79228448D02*
G01*
X164675822Y-79627406D01*
X163470135Y-80001122D01*
X163421000Y-79968101D01*
X163421000Y-79749253D01*
X163675012Y-79673605D01*
X163675012Y-79602481D01*
X163911482Y-79602481D01*
X164439352Y-79442533D01*
X164439352Y-79413321D01*
X163911482Y-79253452D01*
X163911482Y-79602481D01*
X163675012Y-79602481D01*
X163675012Y-79182725D01*
X163421000Y-79107077D01*
X163421000Y-78887833D01*
X163470135Y-78855208D01*
X164675822Y-79228448D01*
G37*
G36*
X163879095Y-77925681D02*
G01*
X163907710Y-77865917D01*
X163948192Y-77820161D01*
X164001864Y-77786368D01*
X164071888Y-77764480D01*
X164162875Y-77756445D01*
X164370213Y-77756445D01*
X164456712Y-77763640D01*
X164524496Y-77783343D01*
X164577484Y-77813810D01*
X164618491Y-77854882D01*
X164648931Y-77907992D01*
X164668626Y-77975976D01*
X164675822Y-78062768D01*
X164675822Y-78672875D01*
X163421000Y-78672875D01*
X163421000Y-78410924D01*
X163857901Y-78410924D01*
X163857901Y-78198109D01*
X163611384Y-78072611D01*
X164094371Y-78072611D01*
X164094371Y-78410924D01*
X164439352Y-78410924D01*
X164439352Y-78072611D01*
X164432980Y-78041908D01*
X164415841Y-78024841D01*
X164384898Y-78018475D01*
X164148825Y-78018475D01*
X164117881Y-78024841D01*
X164100743Y-78041908D01*
X164094371Y-78072611D01*
X163611384Y-78072611D01*
X163421000Y-77975689D01*
X163421000Y-77750809D01*
X163475533Y-77720089D01*
X163879095Y-77925681D01*
G37*
G36*
X164439352Y-77599830D02*
G01*
X164675822Y-77599830D01*
X164675822Y-76574016D01*
X164439352Y-76574016D01*
X164439352Y-76955988D01*
X163421000Y-76955988D01*
X163421000Y-77217938D01*
X164439352Y-77217938D01*
X164439352Y-77599830D01*
G37*
G36*
X163421000Y-86750767D02*
G01*
X164675822Y-86750767D01*
X164675822Y-86488817D01*
X163421000Y-86488817D01*
X163421000Y-86750767D01*
G37*
G36*
X163421000Y-86245441D02*
G01*
X163830039Y-86245441D01*
X163912749Y-86238420D01*
X163978292Y-86219086D01*
X164030199Y-86188986D01*
X164070988Y-86148160D01*
X164101895Y-86095143D01*
X164122709Y-86027149D01*
X164190261Y-85690741D01*
X164201015Y-85665345D01*
X164220065Y-85650560D01*
X164250271Y-85645098D01*
X164384818Y-85645098D01*
X164415769Y-85651501D01*
X164432951Y-85668700D01*
X164439352Y-85699711D01*
X164439352Y-86209085D01*
X164581202Y-86209085D01*
X164675822Y-86087080D01*
X164675822Y-85689392D01*
X164668627Y-85602627D01*
X164648934Y-85534663D01*
X164618497Y-85481567D01*
X164577491Y-85440503D01*
X164524504Y-85410041D01*
X164456717Y-85390342D01*
X164370213Y-85383148D01*
X164252017Y-85383148D01*
X164169244Y-85390170D01*
X164103658Y-85409509D01*
X164051723Y-85439613D01*
X164010918Y-85480441D01*
X163980004Y-85533455D01*
X163959189Y-85601440D01*
X163891637Y-85937848D01*
X163880927Y-85963244D01*
X163861906Y-85978027D01*
X163831706Y-85983490D01*
X163657469Y-85983490D01*
X163657469Y-85383148D01*
X163421000Y-85383148D01*
X163421000Y-86245441D01*
G37*
G36*
X163726529Y-85157235D02*
G01*
X164370292Y-85157235D01*
X164456768Y-85150042D01*
X164524536Y-85130345D01*
X164577510Y-85099885D01*
X164618506Y-85058823D01*
X164648938Y-85005727D01*
X164668628Y-84937761D01*
X164675822Y-84850991D01*
X164675822Y-84366145D01*
X164581202Y-84244139D01*
X164439352Y-84244139D01*
X164439352Y-84840672D01*
X164432951Y-84871683D01*
X164415769Y-84888882D01*
X164384818Y-84895285D01*
X163712003Y-84895285D01*
X163681052Y-84888882D01*
X163663870Y-84871683D01*
X163657469Y-84840672D01*
X163657469Y-84244139D01*
X163515619Y-84244139D01*
X163421000Y-84366145D01*
X163421000Y-84850991D01*
X163428193Y-84937761D01*
X163447883Y-85005727D01*
X163478315Y-85058823D01*
X163519311Y-85099885D01*
X163572285Y-85130345D01*
X163640053Y-85150042D01*
X163726529Y-85157235D01*
G37*
G36*
X163726529Y-94461721D02*
G01*
X164675822Y-94461721D01*
X164675822Y-94199692D01*
X163712003Y-94199692D01*
X163681052Y-94193289D01*
X163663870Y-94176090D01*
X163657469Y-94145079D01*
X163657469Y-93788668D01*
X163663847Y-93757972D01*
X163681007Y-93740901D01*
X163712003Y-93734531D01*
X164675822Y-93734531D01*
X164675822Y-93472501D01*
X163726529Y-93472501D01*
X163640058Y-93479696D01*
X163572293Y-93499396D01*
X163519319Y-93529861D01*
X163478321Y-93570931D01*
X163447886Y-93624041D01*
X163428194Y-93692027D01*
X163421000Y-93778825D01*
X163421000Y-94155398D01*
X163428194Y-94242196D01*
X163447886Y-94310181D01*
X163478321Y-94363291D01*
X163519319Y-94404362D01*
X163572293Y-94434827D01*
X163640058Y-94454527D01*
X163726529Y-94461721D01*
G37*
G36*
X164675822Y-92528448D02*
G01*
X164675822Y-92927406D01*
X163470135Y-93301122D01*
X163421000Y-93268101D01*
X163421000Y-93049253D01*
X163675012Y-92973605D01*
X163675012Y-92902481D01*
X163911482Y-92902481D01*
X164439352Y-92742533D01*
X164439352Y-92713321D01*
X163911482Y-92553452D01*
X163911482Y-92902481D01*
X163675012Y-92902481D01*
X163675012Y-92482725D01*
X163421000Y-92407077D01*
X163421000Y-92187833D01*
X163470135Y-92155208D01*
X164675822Y-92528448D01*
G37*
G36*
X163879095Y-91225681D02*
G01*
X163907710Y-91165917D01*
X163948192Y-91120161D01*
X164001864Y-91086368D01*
X164071888Y-91064480D01*
X164162875Y-91056445D01*
X164370213Y-91056445D01*
X164456712Y-91063640D01*
X164524496Y-91083343D01*
X164577484Y-91113810D01*
X164618491Y-91154882D01*
X164648931Y-91207992D01*
X164668626Y-91275976D01*
X164675822Y-91362768D01*
X164675822Y-91972875D01*
X163421000Y-91972875D01*
X163421000Y-91710924D01*
X163857901Y-91710924D01*
X163857901Y-91498109D01*
X163611384Y-91372611D01*
X164094371Y-91372611D01*
X164094371Y-91710924D01*
X164439352Y-91710924D01*
X164439352Y-91372611D01*
X164432980Y-91341908D01*
X164415841Y-91324841D01*
X164384898Y-91318475D01*
X164148825Y-91318475D01*
X164117881Y-91324841D01*
X164100743Y-91341908D01*
X164094371Y-91372611D01*
X163611384Y-91372611D01*
X163421000Y-91275689D01*
X163421000Y-91050809D01*
X163475533Y-91020089D01*
X163879095Y-91225681D01*
G37*
G36*
X164439352Y-90899830D02*
G01*
X164675822Y-90899830D01*
X164675822Y-89874016D01*
X164439352Y-89874016D01*
X164439352Y-90255988D01*
X163421000Y-90255988D01*
X163421000Y-90517938D01*
X164439352Y-90517938D01*
X164439352Y-90899830D01*
G37*
G36*
X164457075Y-102141526D02*
G01*
X164524720Y-102161214D01*
X164577612Y-102191664D01*
X164618557Y-102232724D01*
X164648959Y-102285834D01*
X164668633Y-102353833D01*
X164675822Y-102440661D01*
X164675822Y-103050767D01*
X163421000Y-103050767D01*
X163421000Y-102788817D01*
X163822339Y-102788817D01*
X163822339Y-102450504D01*
X164058809Y-102450504D01*
X164058809Y-102788817D01*
X164439352Y-102788817D01*
X164439352Y-102450504D01*
X164432985Y-102419793D01*
X164415868Y-102402730D01*
X164384977Y-102396367D01*
X164113184Y-102396367D01*
X164082293Y-102402730D01*
X164065176Y-102419793D01*
X164058809Y-102450504D01*
X163822339Y-102450504D01*
X163822339Y-102440661D01*
X163829528Y-102353833D01*
X163849202Y-102285834D01*
X163879604Y-102232724D01*
X163920549Y-102191664D01*
X163973440Y-102161214D01*
X164041086Y-102141526D01*
X164127393Y-102134337D01*
X164370768Y-102134337D01*
X164457075Y-102141526D01*
G37*
G36*
X164626686Y-101988360D02*
G01*
X164675822Y-101952560D01*
X164675822Y-101737363D01*
X163657469Y-101534709D01*
X163657469Y-101515737D01*
X164555801Y-101298080D01*
X164555801Y-101041210D01*
X163657469Y-100823950D01*
X163657469Y-100804582D01*
X164675822Y-100602404D01*
X164675822Y-100387207D01*
X164626686Y-100351407D01*
X163421000Y-100596768D01*
X163421000Y-101013348D01*
X164084766Y-101169883D01*
X163421000Y-101326419D01*
X163421000Y-101742602D01*
X164626686Y-101988360D01*
G37*
G36*
X163879095Y-99404020D02*
G01*
X163907710Y-99344256D01*
X163948192Y-99298500D01*
X164001864Y-99264707D01*
X164071888Y-99242819D01*
X164162875Y-99234784D01*
X164370213Y-99234784D01*
X164456712Y-99241980D01*
X164524496Y-99261682D01*
X164577484Y-99292149D01*
X164618491Y-99333221D01*
X164648931Y-99386331D01*
X164668626Y-99454315D01*
X164675822Y-99541107D01*
X164675822Y-100151214D01*
X163421000Y-100151214D01*
X163421000Y-99889263D01*
X163857901Y-99889263D01*
X163857901Y-99676448D01*
X163611383Y-99550950D01*
X164094371Y-99550950D01*
X164094371Y-99889263D01*
X164439352Y-99889263D01*
X164439352Y-99550950D01*
X164432980Y-99520247D01*
X164415841Y-99503180D01*
X164384898Y-99496814D01*
X164148825Y-99496814D01*
X164117881Y-99503180D01*
X164100743Y-99520247D01*
X164094371Y-99550950D01*
X163611383Y-99550950D01*
X163421000Y-99454029D01*
X163421000Y-99229148D01*
X163475533Y-99198428D01*
X163879095Y-99404020D01*
G37*
G36*
X150649808Y-126584406D02*
G01*
X150599005Y-126660000D01*
X150262316Y-126660000D01*
X150145935Y-126269211D01*
X149390736Y-126269211D01*
X149274354Y-126660000D01*
X148937055Y-126660000D01*
X148886863Y-126584406D01*
X149097057Y-125905411D01*
X149499546Y-125905411D01*
X150036514Y-125905411D01*
X149790439Y-125093304D01*
X149745498Y-125093304D01*
X149499546Y-125905411D01*
X149097057Y-125905411D01*
X149461078Y-124729504D01*
X150074860Y-124729504D01*
X150649808Y-126584406D01*
G37*
G36*
X148331772Y-125193479D02*
G01*
X148432382Y-125222663D01*
X148511000Y-125267779D01*
X148571814Y-125328571D01*
X148616939Y-125407147D01*
X148646125Y-125507689D01*
X148656786Y-125636011D01*
X148656786Y-126206807D01*
X148646125Y-126335129D01*
X148616939Y-126435672D01*
X148571814Y-126514247D01*
X148511000Y-126575040D01*
X148432382Y-126620155D01*
X148331772Y-126649339D01*
X148203349Y-126660000D01*
X147610694Y-126660000D01*
X147442777Y-126534092D01*
X147442777Y-126324288D01*
X148181001Y-126324288D01*
X148231945Y-126313814D01*
X148260153Y-126285744D01*
X148270638Y-126235261D01*
X148270638Y-126065635D01*
X147386723Y-126065635D01*
X147386723Y-125636866D01*
X147389071Y-125608534D01*
X147772871Y-125608534D01*
X147772871Y-125769002D01*
X148270638Y-125769002D01*
X148270638Y-125608534D01*
X148260105Y-125557405D01*
X148231853Y-125529071D01*
X148181001Y-125518531D01*
X147862508Y-125518531D01*
X147811656Y-125529071D01*
X147783404Y-125557405D01*
X147772871Y-125608534D01*
X147389071Y-125608534D01*
X147397386Y-125508208D01*
X147426573Y-125407435D01*
X147471682Y-125328713D01*
X147532446Y-125267837D01*
X147610959Y-125222682D01*
X147711393Y-125193482D01*
X147839549Y-125182819D01*
X148203349Y-125182819D01*
X148331772Y-125193479D01*
G37*
G36*
X147017916Y-126660000D02*
G01*
X147017916Y-125373084D01*
X146971226Y-125307181D01*
X146910929Y-125255466D01*
X146834895Y-125216836D01*
X146739597Y-125191880D01*
X146620411Y-125182819D01*
X146318405Y-125182819D01*
X146150366Y-125308726D01*
X146150366Y-125518531D01*
X146517096Y-125518531D01*
X146591829Y-125530500D01*
X146631769Y-125560540D01*
X146631769Y-126660000D01*
X147017916Y-126660000D01*
G37*
G36*
X145572805Y-125193479D02*
G01*
X145673415Y-125222663D01*
X145752032Y-125267779D01*
X145812847Y-125328571D01*
X145857972Y-125407147D01*
X145887158Y-125507689D01*
X145897819Y-125636011D01*
X145897819Y-126206807D01*
X145887158Y-126335129D01*
X145857972Y-126435672D01*
X145812847Y-126514247D01*
X145752032Y-126575040D01*
X145673415Y-126620155D01*
X145572805Y-126649339D01*
X145444382Y-126660000D01*
X145052616Y-126660000D01*
X144924405Y-126649346D01*
X144823948Y-126620179D01*
X144745436Y-126575082D01*
X144684690Y-126514303D01*
X144639607Y-126435728D01*
X144610443Y-126335168D01*
X144599790Y-126206807D01*
X144599790Y-125636011D01*
X144602111Y-125608046D01*
X144985938Y-125608046D01*
X144985938Y-126234773D01*
X144996447Y-126285579D01*
X145024677Y-126313781D01*
X145075575Y-126324288D01*
X145422034Y-126324288D01*
X145472932Y-126313781D01*
X145501162Y-126285579D01*
X145511671Y-126234773D01*
X145511671Y-125608046D01*
X145501162Y-125557240D01*
X145472932Y-125529037D01*
X145422034Y-125518531D01*
X145075575Y-125518531D01*
X145024677Y-125529037D01*
X144996447Y-125557240D01*
X144985938Y-125608046D01*
X144602111Y-125608046D01*
X144610443Y-125507650D01*
X144639607Y-125407090D01*
X144684690Y-125328516D01*
X144745436Y-125267736D01*
X144823948Y-125222640D01*
X144924405Y-125193472D01*
X145052616Y-125182819D01*
X145444382Y-125182819D01*
X145572805Y-125193479D01*
G37*
G36*
X144308164Y-125966350D02*
G01*
X144308164Y-125636133D01*
X143468702Y-125636133D01*
X143468702Y-125966350D01*
X144308164Y-125966350D01*
G37*
G36*
X143183792Y-126514431D02*
G01*
X143183792Y-126296200D01*
X142372173Y-126296200D01*
X142324487Y-126286335D01*
X142298016Y-126259837D01*
X142288154Y-126212058D01*
X142288154Y-125931301D01*
X142298016Y-125883522D01*
X142324487Y-125857024D01*
X142372173Y-125847159D01*
X142976674Y-125847159D01*
X142976674Y-125483360D01*
X142372173Y-125483360D01*
X142324429Y-125473537D01*
X142297986Y-125447203D01*
X142288154Y-125399829D01*
X142288154Y-125176835D01*
X142297986Y-125129461D01*
X142324429Y-125103127D01*
X142372173Y-125093304D01*
X143155826Y-125093304D01*
X143155826Y-124875073D01*
X142968126Y-124729504D01*
X142356297Y-124729504D01*
X142222759Y-124740562D01*
X142118175Y-124770827D01*
X142036489Y-124817595D01*
X141973333Y-124880584D01*
X141926495Y-124961956D01*
X141896212Y-125066030D01*
X141885153Y-125198817D01*
X141885153Y-125377602D01*
X141893354Y-125449187D01*
X141916734Y-125508779D01*
X141955129Y-125559075D01*
X142053070Y-125656894D01*
X141955129Y-125754958D01*
X141916733Y-125805484D01*
X141893352Y-125865283D01*
X141885153Y-125937041D01*
X141885153Y-126189221D01*
X141896229Y-126322516D01*
X141926552Y-126426957D01*
X141973435Y-126508581D01*
X142036622Y-126571735D01*
X142118310Y-126618605D01*
X142222852Y-126648924D01*
X142356297Y-126660000D01*
X142996092Y-126660000D01*
X143183792Y-126514431D01*
G37*
G36*
X141593893Y-126660000D02*
G01*
X141593893Y-126030708D01*
X141583092Y-125903461D01*
X141553348Y-125802627D01*
X141507040Y-125722770D01*
X141444231Y-125660017D01*
X141362665Y-125612469D01*
X141258060Y-125580446D01*
X140740509Y-125476521D01*
X140701438Y-125459975D01*
X140678692Y-125430668D01*
X140670289Y-125384197D01*
X140670289Y-125177201D01*
X140680139Y-125129584D01*
X140706599Y-125103152D01*
X140754309Y-125093304D01*
X141537962Y-125093304D01*
X141537962Y-124875073D01*
X141350261Y-124729504D01*
X140738433Y-124729504D01*
X140604949Y-124740572D01*
X140500389Y-124770869D01*
X140418702Y-124817696D01*
X140355528Y-124880781D01*
X140308663Y-124962301D01*
X140278357Y-125066589D01*
X140267288Y-125199672D01*
X140267288Y-125381510D01*
X140278093Y-125508853D01*
X140307844Y-125609755D01*
X140354158Y-125689655D01*
X140416970Y-125752433D01*
X140498531Y-125799993D01*
X140603122Y-125832016D01*
X141120673Y-125935942D01*
X141159744Y-125952419D01*
X141182488Y-125981682D01*
X141190893Y-126028143D01*
X141190893Y-126296200D01*
X140267288Y-126296200D01*
X140267288Y-126660000D01*
X141593893Y-126660000D01*
G37*
%TO.C,C84*%
D11*
X138135000Y-90940000D02*
X138135000Y-91740000D01*
X139245000Y-90630000D02*
X138445000Y-90630000D01*
X139245000Y-92050000D02*
X138445000Y-92050000D01*
X139805000Y-90630000D02*
X140605000Y-90630000D01*
X139805000Y-92050000D02*
X140605000Y-92050000D01*
X140915000Y-91740000D02*
X140915000Y-90940000D01*
X138135000Y-90940000D02*
G75*
G02*
X138445000Y-90630000I310000J0D01*
G01*
X138445000Y-92050000D02*
G75*
G02*
X138135000Y-91740000I0J310000D01*
G01*
X140605000Y-90630000D02*
G75*
G02*
X140915000Y-90940000I0J-310000D01*
G01*
X140915000Y-91740000D02*
G75*
G02*
X140605000Y-92050000I-310000J0D01*
G01*
D12*
X138755000Y-90940000D02*
G75*
G02*
X138695000Y-90940000I-30000J0D01*
G01*
X138695000Y-90940000D02*
G75*
G02*
X138755000Y-90940000I30000J0D01*
G01*
%TO.C,R23*%
D13*
X139925000Y-60690000D02*
X139925000Y-61690000D01*
X139925000Y-61690000D02*
X140635000Y-61690000D01*
X140635000Y-60690000D02*
X139925000Y-60690000D01*
X141095000Y-60690000D02*
X141805000Y-60690000D01*
X141805000Y-60690000D02*
X141805000Y-61690000D01*
X141805000Y-61690000D02*
X141095000Y-61690000D01*
D12*
X140395000Y-60940000D02*
G75*
G02*
X140335000Y-60940000I-30000J0D01*
G01*
X140335000Y-60940000D02*
G75*
G02*
X140395000Y-60940000I30000J0D01*
G01*
%TO.C,C33*%
D13*
X133410000Y-69100000D02*
X133410000Y-69800000D01*
X133560000Y-69950000D02*
X134060000Y-69950000D01*
X134060000Y-68950000D02*
X133560000Y-68950000D01*
X134500000Y-69950000D02*
X135000000Y-69950000D01*
X135000000Y-68950000D02*
X134500000Y-68950000D01*
X135150000Y-69800000D02*
X135150000Y-69100000D01*
X133410000Y-69100000D02*
G75*
G02*
X133560000Y-68950000I150000J0D01*
G01*
X133560000Y-69950000D02*
G75*
G02*
X133410000Y-69800000I0J150000D01*
G01*
X135000000Y-68950000D02*
G75*
G02*
X135150000Y-69100000I0J-150000D01*
G01*
X135150000Y-69800000D02*
G75*
G02*
X135000000Y-69950000I-150000J0D01*
G01*
D12*
X134810000Y-69700000D02*
G75*
G02*
X134750000Y-69700000I-30000J0D01*
G01*
X134750000Y-69700000D02*
G75*
G02*
X134810000Y-69700000I30000J0D01*
G01*
%TO.C,C78*%
D11*
X152865000Y-89360000D02*
X152865000Y-88560000D01*
X152865000Y-89920000D02*
X152865000Y-90720000D01*
X153175000Y-91030000D02*
X153975000Y-91030000D01*
X153975000Y-88250000D02*
X153175000Y-88250000D01*
X154285000Y-89360000D02*
X154285000Y-88560000D01*
X154285000Y-89920000D02*
X154285000Y-90720000D01*
X152865000Y-88560000D02*
G75*
G02*
X153175000Y-88250000I310000J0D01*
G01*
X153175000Y-91030000D02*
G75*
G02*
X152865000Y-90720000I0J310000D01*
G01*
X153975000Y-88250000D02*
G75*
G02*
X154285000Y-88560000I0J-310000D01*
G01*
X154285000Y-90720000D02*
G75*
G02*
X153975000Y-91030000I-310000J0D01*
G01*
D12*
X153205000Y-90440000D02*
G75*
G02*
X153145000Y-90440000I-30000J0D01*
G01*
X153145000Y-90440000D02*
G75*
G02*
X153205000Y-90440000I30000J0D01*
G01*
%TO.C,C75*%
D11*
X145190000Y-79420000D02*
X145190000Y-78620000D01*
X145190000Y-79980000D02*
X145190000Y-80780000D01*
X145500000Y-81090000D02*
X146300000Y-81090000D01*
X146300000Y-78310000D02*
X145500000Y-78310000D01*
X146610000Y-79420000D02*
X146610000Y-78620000D01*
X146610000Y-79980000D02*
X146610000Y-80780000D01*
X145190000Y-78620000D02*
G75*
G02*
X145500000Y-78310000I310000J0D01*
G01*
X145500000Y-81090000D02*
G75*
G02*
X145190000Y-80780000I0J310000D01*
G01*
X146300000Y-78310000D02*
G75*
G02*
X146610000Y-78620000I0J-310000D01*
G01*
X146610000Y-80780000D02*
G75*
G02*
X146300000Y-81090000I-310000J0D01*
G01*
D12*
X146330000Y-78900000D02*
G75*
G02*
X146270000Y-78900000I-30000J0D01*
G01*
X146270000Y-78900000D02*
G75*
G02*
X146330000Y-78900000I30000J0D01*
G01*
%TO.C,C65*%
D11*
X141290000Y-90235000D02*
X141290000Y-89435000D01*
X141290000Y-90795000D02*
X141290000Y-91595000D01*
X141600000Y-91905000D02*
X142400000Y-91905000D01*
X142400000Y-89125000D02*
X141600000Y-89125000D01*
X142710000Y-90235000D02*
X142710000Y-89435000D01*
X142710000Y-90795000D02*
X142710000Y-91595000D01*
X141290000Y-89435000D02*
G75*
G02*
X141600000Y-89125000I310000J0D01*
G01*
X141600000Y-91905000D02*
G75*
G02*
X141290000Y-91595000I0J310000D01*
G01*
X142400000Y-89125000D02*
G75*
G02*
X142710000Y-89435000I0J-310000D01*
G01*
X142710000Y-91595000D02*
G75*
G02*
X142400000Y-91905000I-310000J0D01*
G01*
D12*
X141630000Y-91315000D02*
G75*
G02*
X141570000Y-91315000I-30000J0D01*
G01*
X141570000Y-91315000D02*
G75*
G02*
X141630000Y-91315000I30000J0D01*
G01*
%TO.C,C40*%
D13*
X125950000Y-73600000D02*
X125950000Y-72190000D01*
X125950000Y-74400000D02*
X125950000Y-75810000D01*
X126100000Y-72040000D02*
X127600000Y-72040000D01*
X126100000Y-75960000D02*
X127600000Y-75960000D01*
X127750000Y-72190000D02*
X127750000Y-73600000D01*
X127750000Y-75810000D02*
X127750000Y-74400000D01*
X125950000Y-72190000D02*
G75*
G02*
X126100000Y-72040000I150000J0D01*
G01*
X126100000Y-75960000D02*
G75*
G02*
X125950000Y-75810000I0J150000D01*
G01*
X127600000Y-72040000D02*
G75*
G02*
X127750000Y-72190000I0J-150000D01*
G01*
X127750000Y-75810000D02*
G75*
G02*
X127600000Y-75960000I-150000J0D01*
G01*
D12*
X126250000Y-75000000D02*
G75*
G02*
X126190000Y-75000000I-30000J0D01*
G01*
X126190000Y-75000000D02*
G75*
G02*
X126250000Y-75000000I30000J0D01*
G01*
%TO.C,C69*%
D11*
X154590000Y-89360000D02*
X154590000Y-88560000D01*
X154590000Y-89920000D02*
X154590000Y-90720000D01*
X154900000Y-91030000D02*
X155700000Y-91030000D01*
X155700000Y-88250000D02*
X154900000Y-88250000D01*
X156010000Y-89360000D02*
X156010000Y-88560000D01*
X156010000Y-89920000D02*
X156010000Y-90720000D01*
X154590000Y-88560000D02*
G75*
G02*
X154900000Y-88250000I310000J0D01*
G01*
X154900000Y-91030000D02*
G75*
G02*
X154590000Y-90720000I0J310000D01*
G01*
X155700000Y-88250000D02*
G75*
G02*
X156010000Y-88560000I0J-310000D01*
G01*
X156010000Y-90720000D02*
G75*
G02*
X155700000Y-91030000I-310000J0D01*
G01*
D12*
X154930000Y-90440000D02*
G75*
G02*
X154870000Y-90440000I-30000J0D01*
G01*
X154870000Y-90440000D02*
G75*
G02*
X154930000Y-90440000I30000J0D01*
G01*
%TO.C,U9*%
D13*
X133720000Y-71670000D02*
X135270000Y-71670000D01*
X133720000Y-73830000D02*
X135270000Y-73830000D01*
X135880000Y-71670000D02*
X134330000Y-71670000D01*
X135880000Y-73830000D02*
X134330000Y-73830000D01*
D12*
X135830000Y-71750000D02*
G75*
G02*
X135770000Y-71750000I-30000J0D01*
G01*
X135770000Y-71750000D02*
G75*
G02*
X135830000Y-71750000I30000J0D01*
G01*
D14*
X136430000Y-72000000D02*
G75*
G02*
X136230000Y-72000000I-100000J0D01*
G01*
X136230000Y-72000000D02*
G75*
G02*
X136430000Y-72000000I100000J0D01*
G01*
%TO.C,R34*%
D13*
X132355761Y-84404142D02*
X133289142Y-83470761D01*
X133034584Y-85082965D02*
X132355761Y-84404142D01*
X133289142Y-83470761D02*
X133967965Y-84149584D01*
X133642695Y-85691076D02*
X134321518Y-86369899D01*
X134321518Y-86369899D02*
X135254899Y-85436518D01*
X135254899Y-85436518D02*
X134576076Y-84757695D01*
D12*
X134118173Y-85768858D02*
G75*
G02*
X134058173Y-85768858I-30000J0D01*
G01*
X134058173Y-85768858D02*
G75*
G02*
X134118173Y-85768858I30000J0D01*
G01*
%TO.C,C73*%
D11*
X149180000Y-89250000D02*
X149180000Y-90050000D01*
X150290000Y-88940000D02*
X149490000Y-88940000D01*
X150290000Y-90360000D02*
X149490000Y-90360000D01*
X150850000Y-88940000D02*
X151650000Y-88940000D01*
X150850000Y-90360000D02*
X151650000Y-90360000D01*
X151960000Y-90050000D02*
X151960000Y-89250000D01*
X149180000Y-89250000D02*
G75*
G02*
X149490000Y-88940000I310000J0D01*
G01*
X149490000Y-90360000D02*
G75*
G02*
X149180000Y-90050000I0J310000D01*
G01*
X151650000Y-88940000D02*
G75*
G02*
X151960000Y-89250000I0J-310000D01*
G01*
X151960000Y-90050000D02*
G75*
G02*
X151650000Y-90360000I-310000J0D01*
G01*
D12*
X151400000Y-90050000D02*
G75*
G02*
X151340000Y-90050000I-30000J0D01*
G01*
X151340000Y-90050000D02*
G75*
G02*
X151400000Y-90050000I30000J0D01*
G01*
%TO.C,R16*%
D13*
X157590000Y-95460000D02*
X157590000Y-96420000D01*
X157590000Y-98240000D02*
X157590000Y-97280000D01*
X158910000Y-95460000D02*
X157590000Y-95460000D01*
X158910000Y-96420000D02*
X158910000Y-95460000D01*
X158910000Y-97280000D02*
X158910000Y-98240000D01*
X158910000Y-98240000D02*
X157590000Y-98240000D01*
D12*
X158680000Y-96050000D02*
G75*
G02*
X158620000Y-96050000I-30000J0D01*
G01*
X158620000Y-96050000D02*
G75*
G02*
X158680000Y-96050000I30000J0D01*
G01*
%TO.C,C61*%
D11*
X143885000Y-92565000D02*
X143885000Y-93365000D01*
X144995000Y-92255000D02*
X144195000Y-92255000D01*
X144995000Y-93675000D02*
X144195000Y-93675000D01*
X145555000Y-92255000D02*
X146355000Y-92255000D01*
X145555000Y-93675000D02*
X146355000Y-93675000D01*
X146665000Y-93365000D02*
X146665000Y-92565000D01*
X143885000Y-92565000D02*
G75*
G02*
X144195000Y-92255000I310000J0D01*
G01*
X144195000Y-93675000D02*
G75*
G02*
X143885000Y-93365000I0J310000D01*
G01*
X146355000Y-92255000D02*
G75*
G02*
X146665000Y-92565000I0J-310000D01*
G01*
X146665000Y-93365000D02*
G75*
G02*
X146355000Y-93675000I-310000J0D01*
G01*
D12*
X144505000Y-92565000D02*
G75*
G02*
X144445000Y-92565000I-30000J0D01*
G01*
X144445000Y-92565000D02*
G75*
G02*
X144505000Y-92565000I30000J0D01*
G01*
%TO.C,C46*%
D11*
X152835000Y-97070984D02*
X152835000Y-97870984D01*
X153945000Y-96760984D02*
X153145000Y-96760984D01*
X153945000Y-98180984D02*
X153145000Y-98180984D01*
X154505000Y-96760984D02*
X155305000Y-96760984D01*
X154505000Y-98180984D02*
X155305000Y-98180984D01*
X155615000Y-97870984D02*
X155615000Y-97070984D01*
X152835000Y-97070984D02*
G75*
G02*
X153145000Y-96760984I310000J0D01*
G01*
X153145000Y-98180984D02*
G75*
G02*
X152835000Y-97870984I0J310000D01*
G01*
X155305000Y-96760984D02*
G75*
G02*
X155615000Y-97070984I0J-310000D01*
G01*
X155615000Y-97870984D02*
G75*
G02*
X155305000Y-98180984I-310000J0D01*
G01*
D12*
X153455000Y-97070984D02*
G75*
G02*
X153395000Y-97070984I-30000J0D01*
G01*
X153395000Y-97070984D02*
G75*
G02*
X153455000Y-97070984I30000J0D01*
G01*
%TO.C,C70*%
D11*
X149660000Y-84815000D02*
X149660000Y-85615000D01*
X150770000Y-84505000D02*
X149970000Y-84505000D01*
X150770000Y-85925000D02*
X149970000Y-85925000D01*
X151330000Y-84505000D02*
X152130000Y-84505000D01*
X151330000Y-85925000D02*
X152130000Y-85925000D01*
X152440000Y-85615000D02*
X152440000Y-84815000D01*
X149660000Y-84815000D02*
G75*
G02*
X149970000Y-84505000I310000J0D01*
G01*
X149970000Y-85925000D02*
G75*
G02*
X149660000Y-85615000I0J310000D01*
G01*
X152130000Y-84505000D02*
G75*
G02*
X152440000Y-84815000I0J-310000D01*
G01*
X152440000Y-85615000D02*
G75*
G02*
X152130000Y-85925000I-310000J0D01*
G01*
D12*
X151880000Y-85615000D02*
G75*
G02*
X151820000Y-85615000I-30000J0D01*
G01*
X151820000Y-85615000D02*
G75*
G02*
X151880000Y-85615000I30000J0D01*
G01*
%TO.C,C72*%
D11*
X142590000Y-85135000D02*
X142590000Y-84335000D01*
X142590000Y-85695000D02*
X142590000Y-86495000D01*
X142900000Y-86805000D02*
X143700000Y-86805000D01*
X143700000Y-84025000D02*
X142900000Y-84025000D01*
X144010000Y-85135000D02*
X144010000Y-84335000D01*
X144010000Y-85695000D02*
X144010000Y-86495000D01*
X142590000Y-84335000D02*
G75*
G02*
X142900000Y-84025000I310000J0D01*
G01*
X142900000Y-86805000D02*
G75*
G02*
X142590000Y-86495000I0J310000D01*
G01*
X143700000Y-84025000D02*
G75*
G02*
X144010000Y-84335000I0J-310000D01*
G01*
X144010000Y-86495000D02*
G75*
G02*
X143700000Y-86805000I-310000J0D01*
G01*
D12*
X142930000Y-86215000D02*
G75*
G02*
X142870000Y-86215000I-30000J0D01*
G01*
X142870000Y-86215000D02*
G75*
G02*
X142930000Y-86215000I30000J0D01*
G01*
%TO.C,C47*%
D13*
X156315000Y-101750000D02*
X156315000Y-100340000D01*
X156315000Y-102550000D02*
X156315000Y-103960000D01*
X156465000Y-100190000D02*
X157965000Y-100190000D01*
X156465000Y-104110000D02*
X157965000Y-104110000D01*
X158115000Y-100340000D02*
X158115000Y-101750000D01*
X158115000Y-103960000D02*
X158115000Y-102550000D01*
X156315000Y-100340000D02*
G75*
G02*
X156465000Y-100190000I150000J0D01*
G01*
X156465000Y-104110000D02*
G75*
G02*
X156315000Y-103960000I0J150000D01*
G01*
X157965000Y-100190000D02*
G75*
G02*
X158115000Y-100340000I0J-150000D01*
G01*
X158115000Y-103960000D02*
G75*
G02*
X157965000Y-104110000I-150000J0D01*
G01*
D12*
X156615000Y-103150000D02*
G75*
G02*
X156555000Y-103150000I-30000J0D01*
G01*
X156555000Y-103150000D02*
G75*
G02*
X156615000Y-103150000I30000J0D01*
G01*
%TO.C,R21*%
D13*
X160475000Y-90130000D02*
X161475000Y-90130000D01*
X160475000Y-90840000D02*
X160475000Y-90130000D01*
X160475000Y-91300000D02*
X160475000Y-92010000D01*
X160475000Y-92010000D02*
X161475000Y-92010000D01*
X161475000Y-90130000D02*
X161475000Y-90840000D01*
X161475000Y-92010000D02*
X161475000Y-91300000D01*
D12*
X160755000Y-91570000D02*
G75*
G02*
X160695000Y-91570000I-30000J0D01*
G01*
X160695000Y-91570000D02*
G75*
G02*
X160755000Y-91570000I30000J0D01*
G01*
%TO.C,R29*%
D13*
X148010000Y-80580000D02*
X148010000Y-81900000D01*
X148010000Y-81900000D02*
X148970000Y-81900000D01*
X148970000Y-80580000D02*
X148010000Y-80580000D01*
X149830000Y-80580000D02*
X150790000Y-80580000D01*
X150790000Y-80580000D02*
X150790000Y-81900000D01*
X150790000Y-81900000D02*
X149830000Y-81900000D01*
D12*
X148630000Y-80840000D02*
G75*
G02*
X148570000Y-80840000I-30000J0D01*
G01*
X148570000Y-80840000D02*
G75*
G02*
X148630000Y-80840000I30000J0D01*
G01*
%TO.C,C80*%
D11*
X139235000Y-85640000D02*
X139235000Y-86440000D01*
X140345000Y-85330000D02*
X139545000Y-85330000D01*
X140345000Y-86750000D02*
X139545000Y-86750000D01*
X140905000Y-85330000D02*
X141705000Y-85330000D01*
X140905000Y-86750000D02*
X141705000Y-86750000D01*
X142015000Y-86440000D02*
X142015000Y-85640000D01*
X139235000Y-85640000D02*
G75*
G02*
X139545000Y-85330000I310000J0D01*
G01*
X139545000Y-86750000D02*
G75*
G02*
X139235000Y-86440000I0J310000D01*
G01*
X141705000Y-85330000D02*
G75*
G02*
X142015000Y-85640000I0J-310000D01*
G01*
X142015000Y-86440000D02*
G75*
G02*
X141705000Y-86750000I-310000J0D01*
G01*
D12*
X139855000Y-85640000D02*
G75*
G02*
X139795000Y-85640000I-30000J0D01*
G01*
X139795000Y-85640000D02*
G75*
G02*
X139855000Y-85640000I30000J0D01*
G01*
%TO.C,U10*%
D11*
X153325000Y-98645984D02*
X155125000Y-98645984D01*
X153325000Y-101745984D02*
X155125000Y-101745984D01*
X155745000Y-98545984D02*
G75*
G02*
X155505000Y-98545984I-120000J0D01*
G01*
X155505000Y-98545984D02*
G75*
G02*
X155745000Y-98545984I120000J0D01*
G01*
D12*
X155655000Y-98745984D02*
G75*
G02*
X155595000Y-98745984I-30000J0D01*
G01*
X155595000Y-98745984D02*
G75*
G02*
X155655000Y-98745984I30000J0D01*
G01*
%TO.C,C71*%
D11*
X152835000Y-86765000D02*
X152835000Y-87565000D01*
X153945000Y-86455000D02*
X153145000Y-86455000D01*
X153945000Y-87875000D02*
X153145000Y-87875000D01*
X154505000Y-86455000D02*
X155305000Y-86455000D01*
X154505000Y-87875000D02*
X155305000Y-87875000D01*
X155615000Y-87565000D02*
X155615000Y-86765000D01*
X152835000Y-86765000D02*
G75*
G02*
X153145000Y-86455000I310000J0D01*
G01*
X153145000Y-87875000D02*
G75*
G02*
X152835000Y-87565000I0J310000D01*
G01*
X155305000Y-86455000D02*
G75*
G02*
X155615000Y-86765000I0J-310000D01*
G01*
X155615000Y-87565000D02*
G75*
G02*
X155305000Y-87875000I-310000J0D01*
G01*
D12*
X155055000Y-87565000D02*
G75*
G02*
X154995000Y-87565000I-30000J0D01*
G01*
X154995000Y-87565000D02*
G75*
G02*
X155055000Y-87565000I30000J0D01*
G01*
%TO.C,R27*%
D13*
X128240000Y-93685000D02*
X128240000Y-94645000D01*
X128240000Y-96465000D02*
X128240000Y-95505000D01*
X129560000Y-93685000D02*
X128240000Y-93685000D01*
X129560000Y-94645000D02*
X129560000Y-93685000D01*
X129560000Y-95505000D02*
X129560000Y-96465000D01*
X129560000Y-96465000D02*
X128240000Y-96465000D01*
D12*
X129330000Y-94275000D02*
G75*
G02*
X129270000Y-94275000I-30000J0D01*
G01*
X129270000Y-94275000D02*
G75*
G02*
X129330000Y-94275000I30000J0D01*
G01*
%TO.C,C67*%
D11*
X148469939Y-86044254D02*
X147904254Y-86609939D01*
X148469939Y-87614031D02*
X147904254Y-87048345D01*
X148865919Y-88010011D02*
X149431605Y-88575696D01*
X149474031Y-86609939D02*
X148908345Y-86044254D01*
X149870011Y-87005919D02*
X150435696Y-87571605D01*
X149870011Y-88575696D02*
X150435696Y-88010011D01*
X147904254Y-87048345D02*
G75*
G02*
X147904254Y-86609939I219203J219203D01*
G01*
X148469939Y-86044254D02*
G75*
G02*
X148908345Y-86044254I219203J-219203D01*
G01*
X149870011Y-88575696D02*
G75*
G02*
X149431605Y-88575696I-219203J219203D01*
G01*
X150435696Y-87571605D02*
G75*
G02*
X150435696Y-88010011I-219203J-219203D01*
G01*
D12*
X149482818Y-88158503D02*
G75*
G02*
X149422818Y-88158503I-30000J0D01*
G01*
X149422818Y-88158503D02*
G75*
G02*
X149482818Y-88158503I30000J0D01*
G01*
%TO.C,C66*%
D11*
X145060000Y-76540000D02*
X145060000Y-77340000D01*
X146170000Y-76230000D02*
X145370000Y-76230000D01*
X146170000Y-77650000D02*
X145370000Y-77650000D01*
X146730000Y-76230000D02*
X147530000Y-76230000D01*
X146730000Y-77650000D02*
X147530000Y-77650000D01*
X147840000Y-77340000D02*
X147840000Y-76540000D01*
X145060000Y-76540000D02*
G75*
G02*
X145370000Y-76230000I310000J0D01*
G01*
X145370000Y-77650000D02*
G75*
G02*
X145060000Y-77340000I0J310000D01*
G01*
X147530000Y-76230000D02*
G75*
G02*
X147840000Y-76540000I0J-310000D01*
G01*
X147840000Y-77340000D02*
G75*
G02*
X147530000Y-77650000I-310000J0D01*
G01*
D12*
X147280000Y-77340000D02*
G75*
G02*
X147220000Y-77340000I-30000J0D01*
G01*
X147220000Y-77340000D02*
G75*
G02*
X147280000Y-77340000I30000J0D01*
G01*
%TO.C,C91*%
D11*
X144840000Y-74010000D02*
X144840000Y-73210000D01*
X144840000Y-74570000D02*
X144840000Y-75370000D01*
X145150000Y-75680000D02*
X145950000Y-75680000D01*
X145950000Y-72900000D02*
X145150000Y-72900000D01*
X146260000Y-74010000D02*
X146260000Y-73210000D01*
X146260000Y-74570000D02*
X146260000Y-75370000D01*
X144840000Y-73210000D02*
G75*
G02*
X145150000Y-72900000I310000J0D01*
G01*
X145150000Y-75680000D02*
G75*
G02*
X144840000Y-75370000I0J310000D01*
G01*
X145950000Y-72900000D02*
G75*
G02*
X146260000Y-73210000I0J-310000D01*
G01*
X146260000Y-75370000D02*
G75*
G02*
X145950000Y-75680000I-310000J0D01*
G01*
D12*
X145980000Y-73490000D02*
G75*
G02*
X145920000Y-73490000I-30000J0D01*
G01*
X145920000Y-73490000D02*
G75*
G02*
X145980000Y-73490000I30000J0D01*
G01*
%TO.C,C44*%
D11*
X144530000Y-85700000D02*
X144530000Y-86500000D01*
X145640000Y-85390000D02*
X144840000Y-85390000D01*
X145640000Y-86810000D02*
X144840000Y-86810000D01*
X146200000Y-85390000D02*
X147000000Y-85390000D01*
X146200000Y-86810000D02*
X147000000Y-86810000D01*
X147310000Y-86500000D02*
X147310000Y-85700000D01*
X144530000Y-85700000D02*
G75*
G02*
X144840000Y-85390000I310000J0D01*
G01*
X144840000Y-86810000D02*
G75*
G02*
X144530000Y-86500000I0J310000D01*
G01*
X147000000Y-85390000D02*
G75*
G02*
X147310000Y-85700000I0J-310000D01*
G01*
X147310000Y-86500000D02*
G75*
G02*
X147000000Y-86810000I-310000J0D01*
G01*
D12*
X145150000Y-85700000D02*
G75*
G02*
X145090000Y-85700000I-30000J0D01*
G01*
X145090000Y-85700000D02*
G75*
G02*
X145150000Y-85700000I30000J0D01*
G01*
%TO.C,R28*%
D13*
X147190000Y-87900000D02*
X148510000Y-87900000D01*
X147190000Y-88860000D02*
X147190000Y-87900000D01*
X147190000Y-89720000D02*
X147190000Y-90680000D01*
X147190000Y-90680000D02*
X148510000Y-90680000D01*
X148510000Y-87900000D02*
X148510000Y-88860000D01*
X148510000Y-90680000D02*
X148510000Y-89720000D01*
D12*
X147480000Y-90090000D02*
G75*
G02*
X147420000Y-90090000I-30000J0D01*
G01*
X147420000Y-90090000D02*
G75*
G02*
X147480000Y-90090000I30000J0D01*
G01*
%TO.C,L4*%
D11*
X128470000Y-70970000D02*
X132530000Y-70970000D01*
X128470000Y-71620000D02*
X128470000Y-70970000D01*
X128470000Y-75030000D02*
X128470000Y-74380000D01*
X132530000Y-70970000D02*
X132530000Y-71620000D01*
X132530000Y-74380000D02*
X132530000Y-75030000D01*
X132530000Y-75030000D02*
X128470000Y-75030000D01*
D12*
X132750000Y-75030000D02*
G75*
G02*
X132690000Y-75030000I-30000J0D01*
G01*
X132690000Y-75030000D02*
G75*
G02*
X132750000Y-75030000I30000J0D01*
G01*
%TO.C,C36*%
D11*
X159140000Y-96570000D02*
X159140000Y-95770000D01*
X159140000Y-97130000D02*
X159140000Y-97930000D01*
X159450000Y-98240000D02*
X160250000Y-98240000D01*
X160250000Y-95460000D02*
X159450000Y-95460000D01*
X160560000Y-96570000D02*
X160560000Y-95770000D01*
X160560000Y-97130000D02*
X160560000Y-97930000D01*
X159140000Y-95770000D02*
G75*
G02*
X159450000Y-95460000I310000J0D01*
G01*
X159450000Y-98240000D02*
G75*
G02*
X159140000Y-97930000I0J310000D01*
G01*
X160250000Y-95460000D02*
G75*
G02*
X160560000Y-95770000I0J-310000D01*
G01*
X160560000Y-97930000D02*
G75*
G02*
X160250000Y-98240000I-310000J0D01*
G01*
D12*
X159480000Y-97650000D02*
G75*
G02*
X159420000Y-97650000I-30000J0D01*
G01*
X159420000Y-97650000D02*
G75*
G02*
X159480000Y-97650000I30000J0D01*
G01*
%TO.C,C88*%
D11*
X144340000Y-90135000D02*
X144340000Y-89335000D01*
X144340000Y-90695000D02*
X144340000Y-91495000D01*
X144650000Y-91805000D02*
X145450000Y-91805000D01*
X145450000Y-89025000D02*
X144650000Y-89025000D01*
X145760000Y-90135000D02*
X145760000Y-89335000D01*
X145760000Y-90695000D02*
X145760000Y-91495000D01*
X144340000Y-89335000D02*
G75*
G02*
X144650000Y-89025000I310000J0D01*
G01*
X144650000Y-91805000D02*
G75*
G02*
X144340000Y-91495000I0J310000D01*
G01*
X145450000Y-89025000D02*
G75*
G02*
X145760000Y-89335000I0J-310000D01*
G01*
X145760000Y-91495000D02*
G75*
G02*
X145450000Y-91805000I-310000J0D01*
G01*
D12*
X144680000Y-91215000D02*
G75*
G02*
X144620000Y-91215000I-30000J0D01*
G01*
X144620000Y-91215000D02*
G75*
G02*
X144680000Y-91215000I30000J0D01*
G01*
%TO.C,C68*%
D11*
X139235000Y-83940000D02*
X139235000Y-84740000D01*
X140345000Y-83630000D02*
X139545000Y-83630000D01*
X140345000Y-85050000D02*
X139545000Y-85050000D01*
X140905000Y-83630000D02*
X141705000Y-83630000D01*
X140905000Y-85050000D02*
X141705000Y-85050000D01*
X142015000Y-84740000D02*
X142015000Y-83940000D01*
X139235000Y-83940000D02*
G75*
G02*
X139545000Y-83630000I310000J0D01*
G01*
X139545000Y-85050000D02*
G75*
G02*
X139235000Y-84740000I0J310000D01*
G01*
X141705000Y-83630000D02*
G75*
G02*
X142015000Y-83940000I0J-310000D01*
G01*
X142015000Y-84740000D02*
G75*
G02*
X141705000Y-85050000I-310000J0D01*
G01*
D12*
X139855000Y-83940000D02*
G75*
G02*
X139795000Y-83940000I-30000J0D01*
G01*
X139795000Y-83940000D02*
G75*
G02*
X139855000Y-83940000I30000J0D01*
G01*
%TO.C,C60*%
D11*
X149435000Y-82590000D02*
X149435000Y-83390000D01*
X150545000Y-82280000D02*
X149745000Y-82280000D01*
X150545000Y-83700000D02*
X149745000Y-83700000D01*
X151105000Y-82280000D02*
X151905000Y-82280000D01*
X151105000Y-83700000D02*
X151905000Y-83700000D01*
X152215000Y-83390000D02*
X152215000Y-82590000D01*
X149435000Y-82590000D02*
G75*
G02*
X149745000Y-82280000I310000J0D01*
G01*
X149745000Y-83700000D02*
G75*
G02*
X149435000Y-83390000I0J310000D01*
G01*
X151905000Y-82280000D02*
G75*
G02*
X152215000Y-82590000I0J-310000D01*
G01*
X152215000Y-83390000D02*
G75*
G02*
X151905000Y-83700000I-310000J0D01*
G01*
D12*
X151655000Y-83390000D02*
G75*
G02*
X151595000Y-83390000I-30000J0D01*
G01*
X151595000Y-83390000D02*
G75*
G02*
X151655000Y-83390000I30000J0D01*
G01*
%TO.C,C45*%
D11*
X152185000Y-102345984D02*
X152185000Y-103145984D01*
X153295000Y-102035984D02*
X152495000Y-102035984D01*
X153295000Y-103455984D02*
X152495000Y-103455984D01*
X153855000Y-102035984D02*
X154655000Y-102035984D01*
X153855000Y-103455984D02*
X154655000Y-103455984D01*
X154965000Y-103145984D02*
X154965000Y-102345984D01*
X152185000Y-102345984D02*
G75*
G02*
X152495000Y-102035984I310000J0D01*
G01*
X152495000Y-103455984D02*
G75*
G02*
X152185000Y-103145984I0J310000D01*
G01*
X154655000Y-102035984D02*
G75*
G02*
X154965000Y-102345984I0J-310000D01*
G01*
X154965000Y-103145984D02*
G75*
G02*
X154655000Y-103455984I-310000J0D01*
G01*
D12*
X154405000Y-103145984D02*
G75*
G02*
X154345000Y-103145984I-30000J0D01*
G01*
X154345000Y-103145984D02*
G75*
G02*
X154405000Y-103145984I30000J0D01*
G01*
%TO.C,C21*%
D13*
X136600000Y-74600000D02*
X136600000Y-73190000D01*
X136600000Y-75400000D02*
X136600000Y-76810000D01*
X136750000Y-73040000D02*
X138250000Y-73040000D01*
X136750000Y-76960000D02*
X138250000Y-76960000D01*
X138400000Y-73190000D02*
X138400000Y-74600000D01*
X138400000Y-76810000D02*
X138400000Y-75400000D01*
X136600000Y-73190000D02*
G75*
G02*
X136750000Y-73040000I150000J0D01*
G01*
X136750000Y-76960000D02*
G75*
G02*
X136600000Y-76810000I0J150000D01*
G01*
X138250000Y-73040000D02*
G75*
G02*
X138400000Y-73190000I0J-150000D01*
G01*
X138400000Y-76810000D02*
G75*
G02*
X138250000Y-76960000I-150000J0D01*
G01*
D12*
X136900000Y-76000000D02*
G75*
G02*
X136840000Y-76000000I-30000J0D01*
G01*
X136840000Y-76000000D02*
G75*
G02*
X136900000Y-76000000I30000J0D01*
G01*
%TO.C,R30*%
D13*
X161040000Y-98460000D02*
X161040000Y-99420000D01*
X161040000Y-101240000D02*
X161040000Y-100280000D01*
X162360000Y-98460000D02*
X161040000Y-98460000D01*
X162360000Y-99420000D02*
X162360000Y-98460000D01*
X162360000Y-100280000D02*
X162360000Y-101240000D01*
X162360000Y-101240000D02*
X161040000Y-101240000D01*
D12*
X162130000Y-99050000D02*
G75*
G02*
X162070000Y-99050000I-30000J0D01*
G01*
X162070000Y-99050000D02*
G75*
G02*
X162130000Y-99050000I30000J0D01*
G01*
%TO.C,C43*%
D13*
X127690000Y-70350000D02*
X127690000Y-68850000D01*
X127840000Y-68700000D02*
X129250000Y-68700000D01*
X129250000Y-70500000D02*
X127840000Y-70500000D01*
X130050000Y-70500000D02*
X131460000Y-70500000D01*
X131460000Y-68700000D02*
X130050000Y-68700000D01*
X131610000Y-70350000D02*
X131610000Y-68850000D01*
X127690000Y-68850000D02*
G75*
G02*
X127840000Y-68700000I150000J0D01*
G01*
X127840000Y-70500000D02*
G75*
G02*
X127690000Y-70350000I0J150000D01*
G01*
X131460000Y-68700000D02*
G75*
G02*
X131610000Y-68850000I0J-150000D01*
G01*
X131610000Y-70350000D02*
G75*
G02*
X131460000Y-70500000I-150000J0D01*
G01*
D12*
X130680000Y-70230000D02*
G75*
G02*
X130620000Y-70230000I-30000J0D01*
G01*
X130620000Y-70230000D02*
G75*
G02*
X130680000Y-70230000I30000J0D01*
G01*
%TO.C,R19*%
D13*
X132910000Y-70140000D02*
X133870000Y-70140000D01*
X132910000Y-71460000D02*
X132910000Y-70140000D01*
X133870000Y-71460000D02*
X132910000Y-71460000D01*
X134730000Y-71460000D02*
X135690000Y-71460000D01*
X135690000Y-70140000D02*
X134730000Y-70140000D01*
X135690000Y-71460000D02*
X135690000Y-70140000D01*
D12*
X135130000Y-71200000D02*
G75*
G02*
X135070000Y-71200000I-30000J0D01*
G01*
X135070000Y-71200000D02*
G75*
G02*
X135130000Y-71200000I30000J0D01*
G01*
%TO.C,R22*%
D13*
X161650000Y-72530000D02*
X161650000Y-73240000D01*
X161650000Y-74410000D02*
X161650000Y-73700000D01*
X162650000Y-72530000D02*
X161650000Y-72530000D01*
X162650000Y-73240000D02*
X162650000Y-72530000D01*
X162650000Y-73700000D02*
X162650000Y-74410000D01*
X162650000Y-74410000D02*
X161650000Y-74410000D01*
D12*
X162430000Y-72970000D02*
G75*
G02*
X162370000Y-72970000I-30000J0D01*
G01*
X162370000Y-72970000D02*
G75*
G02*
X162430000Y-72970000I30000J0D01*
G01*
%TO.C,R24*%
D13*
X161675000Y-90130000D02*
X162675000Y-90130000D01*
X161675000Y-90840000D02*
X161675000Y-90130000D01*
X161675000Y-91300000D02*
X161675000Y-92010000D01*
X161675000Y-92010000D02*
X162675000Y-92010000D01*
X162675000Y-90130000D02*
X162675000Y-90840000D01*
X162675000Y-92010000D02*
X162675000Y-91300000D01*
D12*
X161955000Y-91570000D02*
G75*
G02*
X161895000Y-91570000I-30000J0D01*
G01*
X161895000Y-91570000D02*
G75*
G02*
X161955000Y-91570000I30000J0D01*
G01*
%TO.C,R25*%
D13*
X160475000Y-72530000D02*
X160475000Y-73240000D01*
X160475000Y-74410000D02*
X160475000Y-73700000D01*
X161475000Y-72530000D02*
X160475000Y-72530000D01*
X161475000Y-73240000D02*
X161475000Y-72530000D01*
X161475000Y-73700000D02*
X161475000Y-74410000D01*
X161475000Y-74410000D02*
X160475000Y-74410000D01*
D12*
X161255000Y-72970000D02*
G75*
G02*
X161195000Y-72970000I-30000J0D01*
G01*
X161195000Y-72970000D02*
G75*
G02*
X161255000Y-72970000I30000J0D01*
G01*
%TO.C,R20*%
D13*
X135910000Y-70140000D02*
X136870000Y-70140000D01*
X135910000Y-71460000D02*
X135910000Y-70140000D01*
X136870000Y-71460000D02*
X135910000Y-71460000D01*
X137730000Y-71460000D02*
X138690000Y-71460000D01*
X138690000Y-70140000D02*
X137730000Y-70140000D01*
X138690000Y-71460000D02*
X138690000Y-70140000D01*
D12*
X138130000Y-71200000D02*
G75*
G02*
X138070000Y-71200000I-30000J0D01*
G01*
X138070000Y-71200000D02*
G75*
G02*
X138130000Y-71200000I30000J0D01*
G01*
%TO.C,C92*%
D11*
X142385000Y-87540000D02*
X142385000Y-88340000D01*
X143495000Y-87230000D02*
X142695000Y-87230000D01*
X143495000Y-88650000D02*
X142695000Y-88650000D01*
X144055000Y-87230000D02*
X144855000Y-87230000D01*
X144055000Y-88650000D02*
X144855000Y-88650000D01*
X145165000Y-88340000D02*
X145165000Y-87540000D01*
X142385000Y-87540000D02*
G75*
G02*
X142695000Y-87230000I310000J0D01*
G01*
X142695000Y-88650000D02*
G75*
G02*
X142385000Y-88340000I0J310000D01*
G01*
X144855000Y-87230000D02*
G75*
G02*
X145165000Y-87540000I0J-310000D01*
G01*
X145165000Y-88340000D02*
G75*
G02*
X144855000Y-88650000I-310000J0D01*
G01*
D12*
X143005000Y-87540000D02*
G75*
G02*
X142945000Y-87540000I-30000J0D01*
G01*
X142945000Y-87540000D02*
G75*
G02*
X143005000Y-87540000I30000J0D01*
G01*
%TO.C,C74*%
D11*
X138135000Y-89240000D02*
X138135000Y-90040000D01*
X139245000Y-88930000D02*
X138445000Y-88930000D01*
X139245000Y-90350000D02*
X138445000Y-90350000D01*
X139805000Y-88930000D02*
X140605000Y-88930000D01*
X139805000Y-90350000D02*
X140605000Y-90350000D01*
X140915000Y-90040000D02*
X140915000Y-89240000D01*
X138135000Y-89240000D02*
G75*
G02*
X138445000Y-88930000I310000J0D01*
G01*
X138445000Y-90350000D02*
G75*
G02*
X138135000Y-90040000I0J310000D01*
G01*
X140605000Y-88930000D02*
G75*
G02*
X140915000Y-89240000I0J-310000D01*
G01*
X140915000Y-90040000D02*
G75*
G02*
X140605000Y-90350000I-310000J0D01*
G01*
D12*
X138755000Y-89240000D02*
G75*
G02*
X138695000Y-89240000I-30000J0D01*
G01*
X138695000Y-89240000D02*
G75*
G02*
X138755000Y-89240000I30000J0D01*
G01*
%TO.C,C77*%
D11*
X144520000Y-83980000D02*
X144520000Y-84780000D01*
X145630000Y-83670000D02*
X144830000Y-83670000D01*
X145630000Y-85090000D02*
X144830000Y-85090000D01*
X146190000Y-83670000D02*
X146990000Y-83670000D01*
X146190000Y-85090000D02*
X146990000Y-85090000D01*
X147300000Y-84780000D02*
X147300000Y-83980000D01*
X144520000Y-83980000D02*
G75*
G02*
X144830000Y-83670000I310000J0D01*
G01*
X144830000Y-85090000D02*
G75*
G02*
X144520000Y-84780000I0J310000D01*
G01*
X146990000Y-83670000D02*
G75*
G02*
X147300000Y-83980000I0J-310000D01*
G01*
X147300000Y-84780000D02*
G75*
G02*
X146990000Y-85090000I-310000J0D01*
G01*
D12*
X146740000Y-84780000D02*
G75*
G02*
X146680000Y-84780000I-30000J0D01*
G01*
X146680000Y-84780000D02*
G75*
G02*
X146740000Y-84780000I30000J0D01*
G01*
%TO.C,R26*%
D13*
X139940000Y-61890000D02*
X139940000Y-62890000D01*
X139940000Y-62890000D02*
X140650000Y-62890000D01*
X140650000Y-61890000D02*
X139940000Y-61890000D01*
X141110000Y-61890000D02*
X141820000Y-61890000D01*
X141820000Y-61890000D02*
X141820000Y-62890000D01*
X141820000Y-62890000D02*
X141110000Y-62890000D01*
D12*
X140410000Y-62140000D02*
G75*
G02*
X140350000Y-62140000I-30000J0D01*
G01*
X140350000Y-62140000D02*
G75*
G02*
X140410000Y-62140000I30000J0D01*
G01*
%TO.C,C63*%
D11*
X139235000Y-87340000D02*
X139235000Y-88140000D01*
X140345000Y-87030000D02*
X139545000Y-87030000D01*
X140345000Y-88450000D02*
X139545000Y-88450000D01*
X140905000Y-87030000D02*
X141705000Y-87030000D01*
X140905000Y-88450000D02*
X141705000Y-88450000D01*
X142015000Y-88140000D02*
X142015000Y-87340000D01*
X139235000Y-87340000D02*
G75*
G02*
X139545000Y-87030000I310000J0D01*
G01*
X139545000Y-88450000D02*
G75*
G02*
X139235000Y-88140000I0J310000D01*
G01*
X141705000Y-87030000D02*
G75*
G02*
X142015000Y-87340000I0J-310000D01*
G01*
X142015000Y-88140000D02*
G75*
G02*
X141705000Y-88450000I-310000J0D01*
G01*
D12*
X139855000Y-87340000D02*
G75*
G02*
X139795000Y-87340000I-30000J0D01*
G01*
X139795000Y-87340000D02*
G75*
G02*
X139855000Y-87340000I30000J0D01*
G01*
%TO.C,L5*%
D11*
X146705000Y-100395984D02*
X146705000Y-101555984D01*
X151535000Y-100425984D02*
X151535000Y-101545984D01*
D15*
X149375000Y-97315984D02*
G75*
G02*
X148875000Y-97315984I-250000J0D01*
G01*
X148875000Y-97315984D02*
G75*
G02*
X149375000Y-97315984I250000J0D01*
G01*
D12*
X151555000Y-98595984D02*
G75*
G02*
X151495000Y-98595984I-30000J0D01*
G01*
X151495000Y-98595984D02*
G75*
G02*
X151555000Y-98595984I30000J0D01*
G01*
%TO.C,R15*%
D13*
X156090000Y-95460000D02*
X156090000Y-96420000D01*
X156090000Y-98240000D02*
X156090000Y-97280000D01*
X157410000Y-95460000D02*
X156090000Y-95460000D01*
X157410000Y-96420000D02*
X157410000Y-95460000D01*
X157410000Y-97280000D02*
X157410000Y-98240000D01*
X157410000Y-98240000D02*
X156090000Y-98240000D01*
D12*
X157180000Y-96050000D02*
G75*
G02*
X157120000Y-96050000I-30000J0D01*
G01*
X157120000Y-96050000D02*
G75*
G02*
X157180000Y-96050000I30000J0D01*
G01*
%TO.C,C62*%
D11*
X143110000Y-94290000D02*
X143110000Y-95090000D01*
X144220000Y-93980000D02*
X143420000Y-93980000D01*
X144220000Y-95400000D02*
X143420000Y-95400000D01*
X144780000Y-93980000D02*
X145580000Y-93980000D01*
X144780000Y-95400000D02*
X145580000Y-95400000D01*
X145890000Y-95090000D02*
X145890000Y-94290000D01*
X143110000Y-94290000D02*
G75*
G02*
X143420000Y-93980000I310000J0D01*
G01*
X143420000Y-95400000D02*
G75*
G02*
X143110000Y-95090000I0J310000D01*
G01*
X145580000Y-93980000D02*
G75*
G02*
X145890000Y-94290000I0J-310000D01*
G01*
X145890000Y-95090000D02*
G75*
G02*
X145580000Y-95400000I-310000J0D01*
G01*
D12*
X143730000Y-94290000D02*
G75*
G02*
X143670000Y-94290000I-30000J0D01*
G01*
X143670000Y-94290000D02*
G75*
G02*
X143730000Y-94290000I30000J0D01*
G01*
%TO.C,C57*%
D11*
X149965000Y-91747500D02*
X149965000Y-90947500D01*
X149965000Y-92307500D02*
X149965000Y-93107500D01*
X150275000Y-93417500D02*
X151075000Y-93417500D01*
X151075000Y-90637500D02*
X150275000Y-90637500D01*
X151385000Y-91747500D02*
X151385000Y-90947500D01*
X151385000Y-92307500D02*
X151385000Y-93107500D01*
X149965000Y-90947500D02*
G75*
G02*
X150275000Y-90637500I310000J0D01*
G01*
X150275000Y-93417500D02*
G75*
G02*
X149965000Y-93107500I0J310000D01*
G01*
X151075000Y-90637500D02*
G75*
G02*
X151385000Y-90947500I0J-310000D01*
G01*
X151385000Y-93107500D02*
G75*
G02*
X151075000Y-93417500I-310000J0D01*
G01*
D12*
X150305000Y-92827500D02*
G75*
G02*
X150245000Y-92827500I-30000J0D01*
G01*
X150245000Y-92827500D02*
G75*
G02*
X150305000Y-92827500I30000J0D01*
G01*
%TD*%
M02*
