%TF.GenerationSoftware,KiCad,Pcbnew,10.0.2*%
%TF.CreationDate,2026-06-25T20:04:08-07:00*%
%TF.ProjectId,Aero32,4165726f-3332-42e6-9b69-6361645f7063,rev?*%
%TF.SameCoordinates,Original*%
%TF.FileFunction,Paste,Top*%
%TF.FilePolarity,Positive*%
%FSLAX46Y46*%
G04 Gerber Fmt 4.6, Leading zero omitted, Abs format (unit mm)*
G04 Created by KiCad (PCBNEW 10.0.2) date 2026-06-25 20:04:08*
%MOMM*%
%LPD*%
G01*
G04 APERTURE LIST*
G04 Aperture macros list*
%AMRotRect*
0 Rectangle, with rotation*
0 The origin of the aperture is its center*
0 $1 length*
0 $2 width*
0 $3 Rotation angle, in degrees counterclockwise*
0 Add horizontal line*
21,1,$1,$2,0,0,$3*%
%AMFreePoly0*
4,1,17,0.635430,0.585265,0.650075,0.549910,0.650075,-0.550113,0.635430,-0.585468,0.600075,-0.600113,-0.599923,-0.600113,-0.635278,-0.585468,-0.649923,-0.550113,-0.649923,0.199898,-0.635278,0.235253,-0.599923,0.249898,-0.249923,0.249898,-0.249923,0.549910,-0.235278,0.585265,-0.199923,0.599910,0.600075,0.599910,0.635430,0.585265,0.635430,0.585265,$1*%
%AMFreePoly1*
4,1,17,0.585417,0.335354,0.600062,0.299999,0.600062,-0.299999,0.585417,-0.335354,0.550062,-0.349999,-0.199949,-0.349999,-0.235304,-0.335354,-0.249949,-0.299999,-0.249949,0.100012,-0.569951,0.100012,-0.605306,0.114657,-0.619951,0.150012,-0.619951,0.299999,-0.605306,0.335354,-0.569951,0.349999,0.550062,0.349999,0.585417,0.335354,0.585417,0.335354,$1*%
%AMFreePoly2*
4,1,17,0.605331,0.335354,0.619976,0.299999,0.619976,0.150012,0.605331,0.114657,0.569976,0.100012,0.249974,0.100012,0.249974,-0.299999,0.235329,-0.335354,0.199974,-0.349999,-0.550037,-0.349999,-0.585392,-0.335354,-0.600037,-0.299999,-0.600037,0.299999,-0.585392,0.335354,-0.550037,0.349999,0.569976,0.349999,0.605331,0.335354,0.605331,0.335354,$1*%
%AMFreePoly3*
4,1,17,0.235431,0.585265,0.250076,0.549910,0.250076,0.249898,0.600075,0.249898,0.635430,0.235253,0.650075,0.199898,0.650075,-0.550113,0.635430,-0.585468,0.600075,-0.600113,-0.599923,-0.600113,-0.635278,-0.585468,-0.649923,-0.550113,-0.649923,0.549910,-0.635278,0.585265,-0.599923,0.599910,0.200076,0.599910,0.235431,0.585265,0.235431,0.585265,$1*%
%AMFreePoly4*
4,1,15,-0.064670,0.310412,-0.064669,0.310412,-0.014682,0.260423,0.135329,0.110412,0.149974,0.075057,0.149974,-0.174955,0.135329,-0.210310,0.099974,-0.224955,-0.100025,-0.224955,-0.135380,-0.210310,-0.150025,-0.174955,-0.150025,0.275057,-0.135380,0.310412,-0.100025,0.325057,-0.064670,0.310412,-0.064670,0.310412,$1*%
%AMFreePoly5*
4,1,14,0.135380,0.260399,0.150025,0.225044,0.150025,-0.174955,0.135380,-0.210310,0.100025,-0.224955,-0.099974,-0.224955,-0.135329,-0.210310,-0.149974,-0.174955,-0.149974,0.075057,-0.135329,0.110412,0.014658,0.260399,0.050013,0.275044,0.100025,0.275044,0.135380,0.260399,0.135380,0.260399,$1*%
%AMFreePoly6*
4,1,14,0.135380,0.210539,0.150025,0.175184,0.150025,-0.224841,0.135380,-0.260196,0.100025,-0.274841,0.049987,-0.274815,0.014661,-0.260173,-0.135352,-0.110186,-0.150000,-0.074832,-0.149974,0.175189,-0.135326,0.210543,-0.099974,0.225184,0.100025,0.225184,0.135380,0.210539,0.135380,0.210539,$1*%
%AMFreePoly7*
4,1,14,0.135329,0.210310,0.149974,0.174960,0.150000,-0.075052,0.135359,-0.110409,-0.014661,-0.260402,-0.050013,-0.275044,-0.100025,-0.275044,-0.135380,-0.260399,-0.150025,-0.225044,-0.150025,0.174955,-0.135380,0.210310,-0.100025,0.224955,0.099974,0.224955,0.135329,0.210310,0.135329,0.210310,$1*%
%AMFreePoly8*
4,1,14,-0.014824,0.260565,0.135279,0.110463,0.149924,0.075108,0.149924,-0.174904,0.135279,-0.210259,0.099924,-0.224904,-0.100076,-0.224904,-0.135431,-0.210259,-0.150076,-0.174904,-0.150000,0.225003,-0.135349,0.260355,-0.100127,0.274993,-0.050216,0.275120,-0.014824,0.260565,-0.014824,0.260565,$1*%
%AMFreePoly9*
4,1,15,0.135329,0.260450,0.149974,0.225095,0.149974,-0.174930,0.135329,-0.210285,0.099974,-0.224930,-0.100025,-0.224930,-0.135380,-0.210285,-0.150025,-0.174930,-0.150025,0.075019,-0.150051,0.075082,-0.135406,0.110437,0.014607,0.260450,0.049962,0.275095,0.099974,0.275095,0.135329,0.260450,0.135329,0.260450,$1*%
%AMFreePoly10*
4,1,15,0.135329,0.210615,0.149974,0.175260,0.149974,-0.224765,0.135329,-0.260120,0.099974,-0.274765,0.049911,-0.274714,0.014613,-0.260075,-0.135400,-0.110113,-0.150051,-0.074761,-0.150025,-0.074698,-0.150025,0.175260,-0.135380,0.210615,-0.100025,0.225260,0.099974,0.225260,0.135329,0.210615,0.135329,0.210615,$1*%
%AMFreePoly11*
4,1,15,0.135279,0.210412,0.149924,0.175057,0.149924,-0.074869,0.149949,-0.074930,0.135304,-0.110285,-0.014708,-0.260297,-0.050063,-0.274942,-0.100076,-0.274942,-0.135431,-0.260297,-0.150076,-0.224942,-0.150076,0.175057,-0.135431,0.210412,-0.100076,0.225057,0.099924,0.225057,0.135279,0.210412,0.135279,0.210412,$1*%
G04 Aperture macros list end*
%ADD10R,0.900000X0.800000*%
%ADD11R,1.350000X1.410000*%
%ADD12R,2.500000X0.700000*%
%ADD13R,1.900000X1.300000*%
%ADD14R,0.566000X0.540000*%
%ADD15R,0.500000X0.540000*%
%ADD16R,1.900000X1.100000*%
%ADD17R,2.000000X0.700000*%
%ADD18R,0.800000X0.900000*%
%ADD19R,0.864000X0.806000*%
%ADD20FreePoly0,0.000000*%
%ADD21R,1.100000X0.400000*%
%ADD22R,0.850000X0.250000*%
%ADD23FreePoly1,0.000000*%
%ADD24R,0.250000X0.700000*%
%ADD25R,0.250000X0.850000*%
%ADD26FreePoly2,0.000000*%
%ADD27FreePoly3,0.000000*%
%ADD28R,0.400000X3.000000*%
%ADD29R,1.000000X2.700000*%
%ADD30R,0.400000X0.600000*%
%ADD31FreePoly4,270.000000*%
%ADD32FreePoly5,270.000000*%
%ADD33FreePoly6,270.000000*%
%ADD34FreePoly7,270.000000*%
%ADD35RotRect,0.450000X0.450000X315.000000*%
%ADD36FreePoly8,270.000000*%
%ADD37FreePoly9,270.000000*%
%ADD38FreePoly10,270.000000*%
%ADD39FreePoly11,270.000000*%
%ADD40RotRect,0.480000X0.480000X315.000000*%
%ADD41R,1.410000X1.350000*%
%ADD42R,0.540000X0.500000*%
%ADD43R,2.700000X1.635000*%
%ADD44C,0.320000*%
%ADD45R,1.050000X0.400000*%
%ADD46O,1.050000X0.400000*%
%ADD47O,0.200000X0.600000*%
%ADD48R,1.377000X1.133000*%
%ADD49C,0.240000*%
%ADD50R,0.600000X0.730000*%
%ADD51R,3.800000X2.500000*%
%ADD52R,0.800000X0.800000*%
%ADD53R,0.806000X0.864000*%
%ADD54R,0.300000X0.520000*%
%ADD55R,0.470000X0.600000*%
%ADD56R,0.600000X0.600000*%
%ADD57R,2.200000X1.300000*%
%ADD58C,0.200000*%
%ADD59R,1.200000X0.650000*%
%ADD60R,1.244600X0.990600*%
%ADD61R,1.150000X0.600000*%
%ADD62R,1.150000X0.300000*%
%ADD63R,0.600000X1.300000*%
%ADD64R,1.800000X2.200000*%
%ADD65R,0.650000X1.200000*%
%ADD66C,0.450000*%
G04 APERTURE END LIST*
D10*
%TO.C,C54*%
X137200000Y-90500000D03*
X137200000Y-89100000D03*
%TD*%
D11*
%TO.C,C31*%
X159500000Y-109675000D03*
X159500000Y-107675000D03*
%TD*%
D12*
%TO.C,CN7*%
X131100000Y-91325000D03*
X131100000Y-92825000D03*
X131100000Y-94325000D03*
X131100000Y-95825000D03*
D13*
X127550000Y-89375000D03*
X127550000Y-97775000D03*
%TD*%
D10*
%TO.C,C79*%
X137225000Y-87015000D03*
X137225000Y-85615000D03*
%TD*%
D11*
%TO.C,C25*%
X140375000Y-101200000D03*
X140375000Y-99200000D03*
%TD*%
D14*
%TO.C,R36*%
X153390000Y-69000000D03*
X152530000Y-69000000D03*
%TD*%
D15*
%TO.C,C51*%
X154815000Y-91915700D03*
X153975000Y-91915700D03*
%TD*%
D16*
%TO.C,CN2*%
X162690000Y-94950000D03*
X162690000Y-89550000D03*
D17*
X159330000Y-93000000D03*
X159330000Y-91500000D03*
%TD*%
D18*
%TO.C,C83*%
X152450000Y-77190000D03*
X151050000Y-77190000D03*
%TD*%
D11*
%TO.C,C4*%
X150937500Y-104362500D03*
X150937500Y-102362500D03*
%TD*%
D14*
%TO.C,R33*%
X153380000Y-70700000D03*
X152520000Y-70700000D03*
%TD*%
D19*
%TO.C,R2*%
X143250000Y-112675000D03*
X143250000Y-111175000D03*
%TD*%
D20*
%TO.C,U7*%
X153620000Y-116345000D03*
D21*
X153580000Y-117705000D03*
D22*
X153450000Y-118775000D03*
X153450000Y-119275000D03*
X153450000Y-119775000D03*
D23*
X153600000Y-120425000D03*
D24*
X154500000Y-120375000D03*
D25*
X155000000Y-120305000D03*
D24*
X155500000Y-120375000D03*
D26*
X156400000Y-120425000D03*
D22*
X156550000Y-119775000D03*
X156550000Y-119275000D03*
X156550000Y-118775000D03*
D21*
X156420000Y-117705000D03*
D27*
X156370000Y-116345000D03*
D28*
X155000000Y-117295000D03*
%TD*%
D14*
%TO.C,R35*%
X143270000Y-115100000D03*
X144130000Y-115100000D03*
%TD*%
D29*
%TO.C,L1*%
X134125000Y-99700000D03*
X136425000Y-99700000D03*
%TD*%
D10*
%TO.C,C90*%
X128750000Y-81090000D03*
X128750000Y-82490000D03*
%TD*%
%TO.C,C29*%
X150650000Y-114575000D03*
X150650000Y-113175000D03*
%TD*%
D30*
%TO.C,D1*%
X134755000Y-119895000D03*
X134755000Y-118395000D03*
%TD*%
D10*
%TO.C,C94*%
X147325000Y-70490000D03*
X147325000Y-71890000D03*
%TD*%
D19*
%TO.C,R11*%
X141850000Y-103675000D03*
X141850000Y-105175000D03*
%TD*%
D10*
%TO.C,C81*%
X155950000Y-75790000D03*
X155950000Y-77190000D03*
%TD*%
D31*
%TO.C,U2*%
X146220000Y-97130000D03*
D32*
X146220000Y-97790000D03*
D33*
X147170000Y-97790000D03*
D34*
X147180000Y-97130000D03*
D35*
X146700000Y-97460000D03*
%TD*%
D10*
%TO.C,C13*%
X152175000Y-94915000D03*
X152175000Y-93515000D03*
%TD*%
%TO.C,C16*%
X153900000Y-94915000D03*
X153900000Y-93515000D03*
%TD*%
D11*
%TO.C,C30*%
X148450000Y-109625000D03*
X148450000Y-107625000D03*
%TD*%
D36*
%TO.C,U1*%
X155100000Y-93890000D03*
D37*
X155110000Y-94530000D03*
D38*
X156060000Y-94530000D03*
D39*
X156060000Y-93890000D03*
D40*
X155580000Y-94210000D03*
%TD*%
D18*
%TO.C,C59*%
X155450000Y-84015000D03*
X154050000Y-84015000D03*
%TD*%
D14*
%TO.C,R32*%
X161960000Y-111900000D03*
X161100000Y-111900000D03*
%TD*%
D41*
%TO.C,C11*%
X135700000Y-109175000D03*
X137700000Y-109175000D03*
%TD*%
D42*
%TO.C,C49*%
X148925000Y-93225000D03*
X148925000Y-94065000D03*
%TD*%
D43*
%TO.C,C24*%
X134170000Y-106795000D03*
X134170000Y-103755000D03*
%TD*%
D44*
%TO.C,U12*%
X133850000Y-84240000D03*
X132850000Y-84240000D03*
X131850000Y-84240000D03*
X130850000Y-84240000D03*
X134850000Y-83240000D03*
X133850000Y-83240000D03*
X132850000Y-83240000D03*
X131850000Y-83240000D03*
X130850000Y-83240000D03*
X134850000Y-82240000D03*
X133850000Y-82240000D03*
X132850000Y-82240000D03*
X131850000Y-82240000D03*
X130850000Y-82240000D03*
X134850000Y-81240000D03*
X133850000Y-81240000D03*
X132850000Y-81240000D03*
X131850000Y-81240000D03*
X130850000Y-81240000D03*
X134850000Y-80240000D03*
X133850000Y-80240000D03*
X132850000Y-80240000D03*
X131850000Y-80240000D03*
X130850000Y-80240000D03*
%TD*%
D19*
%TO.C,R13*%
X131000000Y-105250000D03*
X131000000Y-106750000D03*
%TD*%
D18*
%TO.C,C64*%
X152450000Y-75470000D03*
X151050000Y-75470000D03*
%TD*%
D19*
%TO.C,R1*%
X144750000Y-111175000D03*
X144750000Y-112675000D03*
%TD*%
D45*
%TO.C,U6*%
X140350000Y-107775000D03*
D46*
X140350000Y-108475000D03*
D47*
X140270000Y-109275000D03*
X140770000Y-109275000D03*
X141270000Y-109275000D03*
X141770000Y-109275000D03*
D46*
X141700000Y-108475000D03*
X141700000Y-107775000D03*
D47*
X141770000Y-106975000D03*
X141270000Y-106975000D03*
X140770000Y-106975000D03*
X140270000Y-106975000D03*
%TD*%
D48*
%TO.C,R8*%
X137505000Y-118095000D03*
X137505000Y-120095000D03*
%TD*%
D11*
%TO.C,C23*%
X138375000Y-101200000D03*
X138375000Y-99200000D03*
%TD*%
D49*
%TO.C,U11*%
X151850000Y-91640000D03*
X151050000Y-91640000D03*
X150250000Y-91640000D03*
X149450000Y-91640000D03*
X148650000Y-91640000D03*
X147850000Y-91640000D03*
X147050000Y-91640000D03*
X146250000Y-91640000D03*
X145450000Y-91640000D03*
X144650000Y-91640000D03*
X143850000Y-91640000D03*
X143050000Y-91640000D03*
X142250000Y-91640000D03*
X141450000Y-91640000D03*
X140650000Y-91640000D03*
X139850000Y-91640000D03*
X139050000Y-91640000D03*
X151850000Y-90840000D03*
X151050000Y-90840000D03*
X150250000Y-90840000D03*
X149450000Y-90840000D03*
X148650000Y-90840000D03*
X147850000Y-90840000D03*
X147050000Y-90840000D03*
X146250000Y-90840000D03*
X145450000Y-90840000D03*
X144650000Y-90840000D03*
X143850000Y-90840000D03*
X143050000Y-90840000D03*
X142250000Y-90840000D03*
X141450000Y-90840000D03*
X140650000Y-90840000D03*
X139850000Y-90840000D03*
X139050000Y-90840000D03*
X151850000Y-90040000D03*
X151050000Y-90040000D03*
X150250000Y-90040000D03*
X149450000Y-90040000D03*
X148650000Y-90040000D03*
X147850000Y-90040000D03*
X147050000Y-90040000D03*
X146250000Y-90040000D03*
X145450000Y-90040000D03*
X144650000Y-90040000D03*
X143850000Y-90040000D03*
X143050000Y-90040000D03*
X142250000Y-90040000D03*
X141450000Y-90040000D03*
X140650000Y-90040000D03*
X139850000Y-90040000D03*
X139050000Y-90040000D03*
X151850000Y-89240000D03*
X151050000Y-89240000D03*
X150250000Y-89240000D03*
X149450000Y-89240000D03*
X148650000Y-89240000D03*
X147850000Y-89240000D03*
X147050000Y-89240000D03*
X146250000Y-89240000D03*
X145450000Y-89240000D03*
X144650000Y-89240000D03*
X143850000Y-89240000D03*
X143050000Y-89240000D03*
X142250000Y-89240000D03*
X141450000Y-89240000D03*
X140650000Y-89240000D03*
X139850000Y-89240000D03*
X139050000Y-89240000D03*
X151850000Y-88440000D03*
X151050000Y-88440000D03*
X150250000Y-88440000D03*
X149450000Y-88440000D03*
X148650000Y-88440000D03*
X147850000Y-88440000D03*
X147050000Y-88440000D03*
X146250000Y-88440000D03*
X145450000Y-88440000D03*
X144650000Y-88440000D03*
X143850000Y-88440000D03*
X143050000Y-88440000D03*
X142250000Y-88440000D03*
X141450000Y-88440000D03*
X140650000Y-88440000D03*
X139850000Y-88440000D03*
X139050000Y-88440000D03*
X151850000Y-87640000D03*
X151050000Y-87640000D03*
X150250000Y-87640000D03*
X149450000Y-87640000D03*
X148650000Y-87640000D03*
X147850000Y-87640000D03*
X147050000Y-87640000D03*
X146250000Y-87640000D03*
X145450000Y-87640000D03*
X144650000Y-87640000D03*
X143850000Y-87640000D03*
X143050000Y-87640000D03*
X142250000Y-87640000D03*
X141450000Y-87640000D03*
X140650000Y-87640000D03*
X139850000Y-87640000D03*
X139050000Y-87640000D03*
X151850000Y-86840000D03*
X151050000Y-86840000D03*
X150250000Y-86840000D03*
X149450000Y-86840000D03*
X148650000Y-86840000D03*
X147850000Y-86840000D03*
X143050000Y-86840000D03*
X142250000Y-86840000D03*
X141450000Y-86840000D03*
X140650000Y-86840000D03*
X139850000Y-86840000D03*
X139050000Y-86840000D03*
X151850000Y-86040000D03*
X151050000Y-86040000D03*
X150250000Y-86040000D03*
X149450000Y-86040000D03*
X148650000Y-86040000D03*
X147850000Y-86040000D03*
X143050000Y-86040000D03*
X142250000Y-86040000D03*
X141450000Y-86040000D03*
X140650000Y-86040000D03*
X139850000Y-86040000D03*
X139050000Y-86040000D03*
X151850000Y-85240000D03*
X151050000Y-85240000D03*
X150250000Y-85240000D03*
X149450000Y-85240000D03*
X148650000Y-85240000D03*
X147850000Y-85240000D03*
X143050000Y-85240000D03*
X142250000Y-85240000D03*
X141450000Y-85240000D03*
X140650000Y-85240000D03*
X139850000Y-85240000D03*
X139050000Y-85240000D03*
X151850000Y-84440000D03*
X151050000Y-84440000D03*
X150250000Y-84440000D03*
X149450000Y-84440000D03*
X148650000Y-84440000D03*
X147850000Y-84440000D03*
X143050000Y-84440000D03*
X142250000Y-84440000D03*
X141450000Y-84440000D03*
X140650000Y-84440000D03*
X139850000Y-84440000D03*
X139050000Y-84440000D03*
X151850000Y-83640000D03*
X151050000Y-83640000D03*
X150250000Y-83640000D03*
X149450000Y-83640000D03*
X148650000Y-83640000D03*
X147850000Y-83640000D03*
X143050000Y-83640000D03*
X142250000Y-83640000D03*
X141450000Y-83640000D03*
X140650000Y-83640000D03*
X139850000Y-83640000D03*
X139050000Y-83640000D03*
X151850000Y-82840000D03*
X151050000Y-82840000D03*
X150250000Y-82840000D03*
X149450000Y-82840000D03*
X148650000Y-82840000D03*
X147850000Y-82840000D03*
X147050000Y-82840000D03*
X146250000Y-82840000D03*
X145450000Y-82840000D03*
X144650000Y-82840000D03*
X143850000Y-82840000D03*
X143050000Y-82840000D03*
X142250000Y-82840000D03*
X141450000Y-82840000D03*
X140650000Y-82840000D03*
X139850000Y-82840000D03*
X139050000Y-82840000D03*
X151850000Y-82040000D03*
X151050000Y-82040000D03*
X150250000Y-82040000D03*
X149450000Y-82040000D03*
X148650000Y-82040000D03*
X147850000Y-82040000D03*
X147050000Y-82040000D03*
X146250000Y-82040000D03*
X145450000Y-82040000D03*
X144650000Y-82040000D03*
X143850000Y-82040000D03*
X143050000Y-82040000D03*
X142250000Y-82040000D03*
X141450000Y-82040000D03*
X140650000Y-82040000D03*
X139850000Y-82040000D03*
X139050000Y-82040000D03*
X151850000Y-81240000D03*
X151050000Y-81240000D03*
X150250000Y-81240000D03*
X149450000Y-81240000D03*
X148650000Y-81240000D03*
X147850000Y-81240000D03*
X147050000Y-81240000D03*
X146250000Y-81240000D03*
X145450000Y-81240000D03*
X144650000Y-81240000D03*
X143850000Y-81240000D03*
X143050000Y-81240000D03*
X142250000Y-81240000D03*
X141450000Y-81240000D03*
X140650000Y-81240000D03*
X139850000Y-81240000D03*
X139050000Y-81240000D03*
X151850000Y-80440000D03*
X151050000Y-80440000D03*
X150250000Y-80440000D03*
X149450000Y-80440000D03*
X148650000Y-80440000D03*
X147850000Y-80440000D03*
X147050000Y-80440000D03*
X146250000Y-80440000D03*
X145450000Y-80440000D03*
X144650000Y-80440000D03*
X143850000Y-80440000D03*
X143050000Y-80440000D03*
X142250000Y-80440000D03*
X141450000Y-80440000D03*
X140650000Y-80440000D03*
X139850000Y-80440000D03*
X139050000Y-80440000D03*
X151850000Y-79640000D03*
X151050000Y-79640000D03*
X150250000Y-79640000D03*
X149450000Y-79640000D03*
X148650000Y-79640000D03*
X147850000Y-79640000D03*
X147050000Y-79640000D03*
X146250000Y-79640000D03*
X145450000Y-79640000D03*
X144650000Y-79640000D03*
X143850000Y-79640000D03*
X143050000Y-79640000D03*
X142250000Y-79640000D03*
X141450000Y-79640000D03*
X140650000Y-79640000D03*
X139850000Y-79640000D03*
X139050000Y-79640000D03*
X151850000Y-78840000D03*
X151050000Y-78840000D03*
X150250000Y-78840000D03*
X149450000Y-78840000D03*
X148650000Y-78840000D03*
X147850000Y-78840000D03*
X147050000Y-78840000D03*
X146250000Y-78840000D03*
X145450000Y-78840000D03*
X144650000Y-78840000D03*
X143850000Y-78840000D03*
X143050000Y-78840000D03*
X142250000Y-78840000D03*
X141450000Y-78840000D03*
X140650000Y-78840000D03*
X139850000Y-78840000D03*
X139050000Y-78840000D03*
%TD*%
D15*
%TO.C,C50*%
X154815000Y-87315700D03*
X153975000Y-87315700D03*
%TD*%
D10*
%TO.C,C3*%
X148425000Y-97350000D03*
X148425000Y-98750000D03*
%TD*%
D11*
%TO.C,C18*%
X140400000Y-95075000D03*
X140400000Y-97075000D03*
%TD*%
D18*
%TO.C,C8*%
X163450000Y-116825000D03*
X162050000Y-116825000D03*
%TD*%
D19*
%TO.C,R6*%
X138800000Y-112675000D03*
X138800000Y-111175000D03*
%TD*%
D10*
%TO.C,C19*%
X140200000Y-103725000D03*
X140200000Y-105125000D03*
%TD*%
D18*
%TO.C,C37*%
X137050000Y-67640000D03*
X138450000Y-67640000D03*
%TD*%
D50*
%TO.C,X2*%
X147425000Y-94265000D03*
X147425000Y-93165000D03*
X146625000Y-93165000D03*
X146625000Y-94265000D03*
%TD*%
D18*
%TO.C,C41*%
X155450000Y-85715000D03*
X154050000Y-85715000D03*
%TD*%
D51*
%TO.C,L2*%
X155000000Y-113225000D03*
X155000000Y-107625000D03*
%TD*%
D10*
%TO.C,C93*%
X128750000Y-85565000D03*
X128750000Y-84165000D03*
%TD*%
D11*
%TO.C,C38*%
X150500000Y-109625000D03*
X150500000Y-107625000D03*
%TD*%
D18*
%TO.C,C53*%
X130625000Y-74775000D03*
X132025000Y-74775000D03*
%TD*%
D10*
%TO.C,C85*%
X155225000Y-79015000D03*
X155225000Y-80415000D03*
%TD*%
D19*
%TO.C,R14*%
X129500000Y-105250000D03*
X129500000Y-106750000D03*
%TD*%
%TO.C,R4*%
X140300000Y-112675000D03*
X140300000Y-111175000D03*
%TD*%
D18*
%TO.C,C56*%
X155450000Y-82290000D03*
X154050000Y-82290000D03*
%TD*%
D19*
%TO.C,R5*%
X137300000Y-112675000D03*
X137300000Y-111175000D03*
%TD*%
D52*
%TO.C,LED2*%
X161900000Y-113400000D03*
X160400000Y-113400000D03*
%TD*%
D11*
%TO.C,C12*%
X160100000Y-120775000D03*
X160100000Y-118775000D03*
%TD*%
D15*
%TO.C,C52*%
X147400000Y-95815000D03*
X146560000Y-95815000D03*
%TD*%
D53*
%TO.C,R37*%
X131825000Y-87190000D03*
X130325000Y-87190000D03*
%TD*%
D19*
%TO.C,R12*%
X151550000Y-119775000D03*
X151550000Y-121275000D03*
%TD*%
D54*
%TO.C,U5*%
X135755000Y-116025000D03*
X136255000Y-116025000D03*
X136755000Y-116025000D03*
X136755000Y-115245000D03*
X136255000Y-115245000D03*
X135755000Y-115245000D03*
%TD*%
D18*
%TO.C,C55*%
X143625000Y-93390000D03*
X145025000Y-93390000D03*
%TD*%
D11*
%TO.C,C9*%
X144725000Y-106475000D03*
X144725000Y-108475000D03*
%TD*%
D10*
%TO.C,C89*%
X153500000Y-79015000D03*
X153500000Y-80415000D03*
%TD*%
D41*
%TO.C,C2*%
X136300000Y-95025000D03*
X134300000Y-95025000D03*
%TD*%
D18*
%TO.C,C86*%
X130500000Y-77165000D03*
X131900000Y-77165000D03*
%TD*%
D10*
%TO.C,C14*%
X143300000Y-98750000D03*
X143300000Y-97350000D03*
%TD*%
D52*
%TO.C,LED5*%
X156530000Y-69000000D03*
X155030000Y-69000000D03*
%TD*%
D10*
%TO.C,C1*%
X156250000Y-91215000D03*
X156250000Y-92615000D03*
%TD*%
%TO.C,C82*%
X147325000Y-75015000D03*
X147325000Y-73615000D03*
%TD*%
D55*
%TO.C,D2*%
X134225000Y-87215000D03*
D56*
X133465000Y-87215000D03*
%TD*%
D11*
%TO.C,C15*%
X147237500Y-104362500D03*
X147237500Y-102362500D03*
%TD*%
D43*
%TO.C,C28*%
X137600000Y-106775000D03*
X137600000Y-103735000D03*
%TD*%
D18*
%TO.C,C58*%
X143625000Y-95115000D03*
X145025000Y-95115000D03*
%TD*%
D19*
%TO.C,R10*%
X129000000Y-101600000D03*
X129000000Y-100100000D03*
%TD*%
D12*
%TO.C,CN6*%
X159550000Y-102675000D03*
X159550000Y-101175000D03*
X159550000Y-99675000D03*
D57*
X163300000Y-97725000D03*
X163310000Y-104625000D03*
%TD*%
D18*
%TO.C,C35*%
X137050000Y-65940000D03*
X138450000Y-65940000D03*
%TD*%
D48*
%TO.C,R7*%
X135000000Y-113295000D03*
X135000000Y-111295000D03*
%TD*%
D58*
%TO.C,U4*%
X131975000Y-99300000D03*
X132375000Y-99300000D03*
X131975000Y-99700000D03*
X132375000Y-99700000D03*
X131975000Y-100100000D03*
X132375000Y-100100000D03*
%TD*%
D59*
%TO.C,SW2*%
X127600000Y-70125000D03*
X132000000Y-70125000D03*
X127600000Y-72325000D03*
X132000000Y-72325000D03*
%TD*%
D18*
%TO.C,C7*%
X158800000Y-116825000D03*
X160200000Y-116825000D03*
%TD*%
D10*
%TO.C,C17*%
X145025000Y-98750000D03*
X145025000Y-97350000D03*
%TD*%
D60*
%TO.C,X1*%
X153975000Y-88866400D03*
X153975000Y-90365000D03*
%TD*%
D10*
%TO.C,C10*%
X158150000Y-122025000D03*
X158150000Y-120625000D03*
%TD*%
D61*
%TO.C,USB1*%
X132860000Y-112345000D03*
X132860000Y-113145000D03*
D62*
X132860000Y-114295000D03*
X132860000Y-115295000D03*
X132860000Y-115795000D03*
X132860000Y-116795000D03*
D61*
X132860000Y-118745000D03*
X132860000Y-117945000D03*
D62*
X132860000Y-117295000D03*
X132860000Y-116295000D03*
X132860000Y-114795000D03*
X132860000Y-113795000D03*
%TD*%
D63*
%TO.C,FPC1*%
X152450000Y-64030000D03*
X151450000Y-64040000D03*
X150450000Y-64040000D03*
X149450000Y-64040000D03*
X148450000Y-64040000D03*
X147450000Y-64040000D03*
X146450000Y-64040000D03*
X145450000Y-64040000D03*
X144450000Y-64040000D03*
X143450000Y-64040000D03*
X142450000Y-64040000D03*
X141450000Y-64040000D03*
X140450000Y-64040000D03*
X139450000Y-64040000D03*
X138450000Y-64040000D03*
D64*
X136050000Y-60780000D03*
X154850000Y-60780000D03*
%TD*%
D41*
%TO.C,C6*%
X136300000Y-97050000D03*
X134300000Y-97050000D03*
%TD*%
D14*
%TO.C,R31*%
X153380000Y-72370000D03*
X152520000Y-72370000D03*
%TD*%
D16*
%TO.C,CN3*%
X162690000Y-75000000D03*
X162690000Y-69600000D03*
D17*
X159330000Y-73050000D03*
X159330000Y-71550000D03*
%TD*%
D11*
%TO.C,C26*%
X163600000Y-109675000D03*
X163600000Y-107675000D03*
%TD*%
D19*
%TO.C,R9*%
X130500000Y-100100000D03*
X130500000Y-101600000D03*
%TD*%
D10*
%TO.C,C27*%
X127900000Y-106700000D03*
X127900000Y-105300000D03*
%TD*%
%TO.C,C76*%
X154225000Y-75815000D03*
X154225000Y-77215000D03*
%TD*%
D11*
%TO.C,C5*%
X162200000Y-120775000D03*
X162200000Y-118775000D03*
%TD*%
D16*
%TO.C,CN5*%
X162700000Y-88300000D03*
X162700000Y-82900000D03*
D17*
X159340000Y-86350000D03*
X159340000Y-84850000D03*
%TD*%
D52*
%TO.C,LED4*%
X143230000Y-116600000D03*
X144730000Y-116600000D03*
%TD*%
D11*
%TO.C,C22*%
X138400000Y-95075000D03*
X138400000Y-97075000D03*
%TD*%
D10*
%TO.C,C48*%
X150450000Y-94915000D03*
X150450000Y-93515000D03*
%TD*%
D18*
%TO.C,C87*%
X142250000Y-68740000D03*
X140850000Y-68740000D03*
%TD*%
D52*
%TO.C,LED1*%
X156530000Y-72370000D03*
X155030000Y-72370000D03*
%TD*%
D36*
%TO.C,U3*%
X148602500Y-103037500D03*
D37*
X148612500Y-103677500D03*
D38*
X149562500Y-103677500D03*
D39*
X149562500Y-103037500D03*
D40*
X149082500Y-103357500D03*
%TD*%
D11*
%TO.C,C34*%
X161550000Y-109675000D03*
X161550000Y-107675000D03*
%TD*%
D65*
%TO.C,SW1*%
X154725000Y-104925000D03*
X154725000Y-100525000D03*
X156925000Y-104925000D03*
X156925000Y-100525000D03*
%TD*%
D16*
%TO.C,CN4*%
X162690000Y-81650000D03*
X162690000Y-76250000D03*
D17*
X159330000Y-79700000D03*
X159330000Y-78200000D03*
%TD*%
D66*
%TO.C,U13*%
X140350000Y-73690000D03*
X140350000Y-72690000D03*
X140350000Y-71690000D03*
X140350000Y-70690000D03*
X141350000Y-74690000D03*
X141350000Y-73690000D03*
X141350000Y-72690000D03*
X141350000Y-71690000D03*
X141350000Y-70690000D03*
X142350000Y-74690000D03*
X142350000Y-73690000D03*
X142350000Y-72690000D03*
X142350000Y-71690000D03*
X142350000Y-70690000D03*
X143350000Y-74690000D03*
X143350000Y-73690000D03*
X143350000Y-72690000D03*
X143350000Y-71690000D03*
X143350000Y-70690000D03*
X144350000Y-74690000D03*
X144350000Y-73690000D03*
X144350000Y-72690000D03*
X144350000Y-71690000D03*
X144350000Y-70690000D03*
%TD*%
D19*
%TO.C,R3*%
X141800000Y-112675000D03*
X141800000Y-111175000D03*
%TD*%
D52*
%TO.C,LED3*%
X156530000Y-70690000D03*
X155030000Y-70690000D03*
%TD*%
M02*
