%TF.GenerationSoftware,KiCad,Pcbnew,10.0.2*%
%TF.CreationDate,2026-06-25T20:04:08-07:00*%
%TF.ProjectId,Aero32,4165726f-3332-42e6-9b69-6361645f7063,rev?*%
%TF.SameCoordinates,Original*%
%TF.FileFunction,Copper,L1,Top*%
%TF.FilePolarity,Positive*%
%FSLAX46Y46*%
G04 Gerber Fmt 4.6, Leading zero omitted, Abs format (unit mm)*
G04 Created by KiCad (PCBNEW 10.0.2) date 2026-06-25 20:04:08*
%MOMM*%
%LPD*%
G01*
G04 APERTURE LIST*
G04 Aperture macros list*
%AMRotRect*
0 Rectangle, with rotation*
0 The origin of the aperture is its center*
0 $1 length*
0 $2 width*
0 $3 Rotation angle, in degrees counterclockwise*
0 Add horizontal line*
21,1,$1,$2,0,0,$3*%
%AMFreePoly0*
4,1,17,0.635430,0.585265,0.650075,0.549910,0.650075,-0.550113,0.635430,-0.585468,0.600075,-0.600113,-0.599923,-0.600113,-0.635278,-0.585468,-0.649923,-0.550113,-0.649923,0.199898,-0.635278,0.235253,-0.599923,0.249898,-0.249923,0.249898,-0.249923,0.549910,-0.235278,0.585265,-0.199923,0.599910,0.600075,0.599910,0.635430,0.585265,0.635430,0.585265,$1*%
%AMFreePoly1*
4,1,17,0.585417,0.335354,0.600062,0.299999,0.600062,-0.299999,0.585417,-0.335354,0.550062,-0.349999,-0.199949,-0.349999,-0.235304,-0.335354,-0.249949,-0.299999,-0.249949,0.100012,-0.569951,0.100012,-0.605306,0.114657,-0.619951,0.150012,-0.619951,0.299999,-0.605306,0.335354,-0.569951,0.349999,0.550062,0.349999,0.585417,0.335354,0.585417,0.335354,$1*%
%AMFreePoly2*
4,1,17,0.605331,0.335354,0.619976,0.299999,0.619976,0.150012,0.605331,0.114657,0.569976,0.100012,0.249974,0.100012,0.249974,-0.299999,0.235329,-0.335354,0.199974,-0.349999,-0.550037,-0.349999,-0.585392,-0.335354,-0.600037,-0.299999,-0.600037,0.299999,-0.585392,0.335354,-0.550037,0.349999,0.569976,0.349999,0.605331,0.335354,0.605331,0.335354,$1*%
%AMFreePoly3*
4,1,17,0.235431,0.585265,0.250076,0.549910,0.250076,0.249898,0.600075,0.249898,0.635430,0.235253,0.650075,0.199898,0.650075,-0.550113,0.635430,-0.585468,0.600075,-0.600113,-0.599923,-0.600113,-0.635278,-0.585468,-0.649923,-0.550113,-0.649923,0.549910,-0.635278,0.585265,-0.599923,0.599910,0.200076,0.599910,0.235431,0.585265,0.235431,0.585265,$1*%
%AMFreePoly4*
4,1,15,-0.064670,0.310412,-0.064669,0.310412,-0.014682,0.260423,0.135329,0.110412,0.149974,0.075057,0.149974,-0.174955,0.135329,-0.210310,0.099974,-0.224955,-0.100025,-0.224955,-0.135380,-0.210310,-0.150025,-0.174955,-0.150025,0.275057,-0.135380,0.310412,-0.100025,0.325057,-0.064670,0.310412,-0.064670,0.310412,$1*%
%AMFreePoly5*
4,1,14,0.135380,0.260399,0.150025,0.225044,0.150025,-0.174955,0.135380,-0.210310,0.100025,-0.224955,-0.099974,-0.224955,-0.135329,-0.210310,-0.149974,-0.174955,-0.149974,0.075057,-0.135329,0.110412,0.014658,0.260399,0.050013,0.275044,0.100025,0.275044,0.135380,0.260399,0.135380,0.260399,$1*%
%AMFreePoly6*
4,1,14,0.135380,0.210539,0.150025,0.175184,0.150025,-0.224841,0.135380,-0.260196,0.100025,-0.274841,0.049987,-0.274815,0.014661,-0.260173,-0.135352,-0.110186,-0.150000,-0.074832,-0.149974,0.175189,-0.135326,0.210543,-0.099974,0.225184,0.100025,0.225184,0.135380,0.210539,0.135380,0.210539,$1*%
%AMFreePoly7*
4,1,14,0.135329,0.210310,0.149974,0.174960,0.150000,-0.075052,0.135359,-0.110409,-0.014661,-0.260402,-0.050013,-0.275044,-0.100025,-0.275044,-0.135380,-0.260399,-0.150025,-0.225044,-0.150025,0.174955,-0.135380,0.210310,-0.100025,0.224955,0.099974,0.224955,0.135329,0.210310,0.135329,0.210310,$1*%
%AMFreePoly8*
4,1,14,-0.014824,0.260565,0.135279,0.110463,0.149924,0.075108,0.149924,-0.174904,0.135279,-0.210259,0.099924,-0.224904,-0.100076,-0.224904,-0.135431,-0.210259,-0.150076,-0.174904,-0.150000,0.225003,-0.135349,0.260355,-0.100127,0.274993,-0.050216,0.275120,-0.014824,0.260565,-0.014824,0.260565,$1*%
%AMFreePoly9*
4,1,15,0.135329,0.260450,0.149974,0.225095,0.149974,-0.174930,0.135329,-0.210285,0.099974,-0.224930,-0.100025,-0.224930,-0.135380,-0.210285,-0.150025,-0.174930,-0.150025,0.075019,-0.150051,0.075082,-0.135406,0.110437,0.014607,0.260450,0.049962,0.275095,0.099974,0.275095,0.135329,0.260450,0.135329,0.260450,$1*%
%AMFreePoly10*
4,1,15,0.135329,0.210615,0.149974,0.175260,0.149974,-0.224765,0.135329,-0.260120,0.099974,-0.274765,0.049911,-0.274714,0.014613,-0.260075,-0.135400,-0.110113,-0.150051,-0.074761,-0.150025,-0.074698,-0.150025,0.175260,-0.135380,0.210615,-0.100025,0.225260,0.099974,0.225260,0.135329,0.210615,0.135329,0.210615,$1*%
%AMFreePoly11*
4,1,15,0.135279,0.210412,0.149924,0.175057,0.149924,-0.074869,0.149949,-0.074930,0.135304,-0.110285,-0.014708,-0.260297,-0.050063,-0.274942,-0.100076,-0.274942,-0.135431,-0.260297,-0.150076,-0.224942,-0.150076,0.175057,-0.135431,0.210412,-0.100076,0.225057,0.099924,0.225057,0.135279,0.210412,0.135279,0.210412,$1*%
G04 Aperture macros list end*
%TA.AperFunction,SMDPad,CuDef*%
%ADD10R,0.900000X0.800000*%
%TD*%
%TA.AperFunction,SMDPad,CuDef*%
%ADD11R,1.350000X1.410000*%
%TD*%
%TA.AperFunction,SMDPad,CuDef*%
%ADD12R,2.500000X0.700000*%
%TD*%
%TA.AperFunction,SMDPad,CuDef*%
%ADD13R,1.900000X1.300000*%
%TD*%
%TA.AperFunction,SMDPad,CuDef*%
%ADD14R,0.566000X0.540000*%
%TD*%
%TA.AperFunction,SMDPad,CuDef*%
%ADD15R,0.500000X0.540000*%
%TD*%
%TA.AperFunction,SMDPad,CuDef*%
%ADD16R,1.900000X1.100000*%
%TD*%
%TA.AperFunction,SMDPad,CuDef*%
%ADD17R,2.000000X0.700000*%
%TD*%
%TA.AperFunction,SMDPad,CuDef*%
%ADD18R,0.800000X0.900000*%
%TD*%
%TA.AperFunction,SMDPad,CuDef*%
%ADD19R,0.864000X0.806000*%
%TD*%
%TA.AperFunction,SMDPad,CuDef*%
%ADD20FreePoly0,0.000000*%
%TD*%
%TA.AperFunction,SMDPad,CuDef*%
%ADD21R,1.100000X0.400000*%
%TD*%
%TA.AperFunction,SMDPad,CuDef*%
%ADD22R,0.850000X0.250000*%
%TD*%
%TA.AperFunction,SMDPad,CuDef*%
%ADD23FreePoly1,0.000000*%
%TD*%
%TA.AperFunction,SMDPad,CuDef*%
%ADD24R,0.250000X0.700000*%
%TD*%
%TA.AperFunction,SMDPad,CuDef*%
%ADD25R,0.250000X0.850000*%
%TD*%
%TA.AperFunction,SMDPad,CuDef*%
%ADD26FreePoly2,0.000000*%
%TD*%
%TA.AperFunction,SMDPad,CuDef*%
%ADD27FreePoly3,0.000000*%
%TD*%
%TA.AperFunction,SMDPad,CuDef*%
%ADD28R,0.400000X3.000000*%
%TD*%
%TA.AperFunction,SMDPad,CuDef*%
%ADD29R,1.000000X2.700000*%
%TD*%
%TA.AperFunction,SMDPad,CuDef*%
%ADD30R,0.400000X0.600000*%
%TD*%
%TA.AperFunction,SMDPad,CuDef*%
%ADD31FreePoly4,270.000000*%
%TD*%
%TA.AperFunction,SMDPad,CuDef*%
%ADD32FreePoly5,270.000000*%
%TD*%
%TA.AperFunction,SMDPad,CuDef*%
%ADD33FreePoly6,270.000000*%
%TD*%
%TA.AperFunction,SMDPad,CuDef*%
%ADD34FreePoly7,270.000000*%
%TD*%
%TA.AperFunction,SMDPad,CuDef*%
%ADD35RotRect,0.450000X0.450000X315.000000*%
%TD*%
%TA.AperFunction,SMDPad,CuDef*%
%ADD36FreePoly8,270.000000*%
%TD*%
%TA.AperFunction,SMDPad,CuDef*%
%ADD37FreePoly9,270.000000*%
%TD*%
%TA.AperFunction,SMDPad,CuDef*%
%ADD38FreePoly10,270.000000*%
%TD*%
%TA.AperFunction,SMDPad,CuDef*%
%ADD39FreePoly11,270.000000*%
%TD*%
%TA.AperFunction,SMDPad,CuDef*%
%ADD40RotRect,0.480000X0.480000X315.000000*%
%TD*%
%TA.AperFunction,SMDPad,CuDef*%
%ADD41R,1.410000X1.350000*%
%TD*%
%TA.AperFunction,ComponentPad*%
%ADD42C,2.500000*%
%TD*%
%TA.AperFunction,ComponentPad*%
%ADD43C,1.800000*%
%TD*%
%TA.AperFunction,SMDPad,CuDef*%
%ADD44R,0.540000X0.500000*%
%TD*%
%TA.AperFunction,SMDPad,CuDef*%
%ADD45R,2.700000X1.635000*%
%TD*%
%TA.AperFunction,SMDPad,CuDef*%
%ADD46C,0.320000*%
%TD*%
%TA.AperFunction,SMDPad,CuDef*%
%ADD47R,1.050000X0.400000*%
%TD*%
%TA.AperFunction,SMDPad,CuDef*%
%ADD48O,1.050000X0.400000*%
%TD*%
%TA.AperFunction,SMDPad,CuDef*%
%ADD49O,0.200000X0.600000*%
%TD*%
%TA.AperFunction,SMDPad,CuDef*%
%ADD50R,1.377000X1.133000*%
%TD*%
%TA.AperFunction,SMDPad,CuDef*%
%ADD51C,0.240000*%
%TD*%
%TA.AperFunction,SMDPad,CuDef*%
%ADD52R,0.600000X0.730000*%
%TD*%
%TA.AperFunction,SMDPad,CuDef*%
%ADD53R,3.800000X2.500000*%
%TD*%
%TA.AperFunction,ComponentPad*%
%ADD54C,0.800000*%
%TD*%
%TA.AperFunction,ComponentPad*%
%ADD55C,6.400000*%
%TD*%
%TA.AperFunction,SMDPad,CuDef*%
%ADD56R,0.800000X0.800000*%
%TD*%
%TA.AperFunction,SMDPad,CuDef*%
%ADD57R,0.806000X0.864000*%
%TD*%
%TA.AperFunction,SMDPad,CuDef*%
%ADD58R,0.300000X0.520000*%
%TD*%
%TA.AperFunction,SMDPad,CuDef*%
%ADD59R,0.470000X0.600000*%
%TD*%
%TA.AperFunction,SMDPad,CuDef*%
%ADD60R,0.600000X0.600000*%
%TD*%
%TA.AperFunction,SMDPad,CuDef*%
%ADD61R,2.200000X1.300000*%
%TD*%
%TA.AperFunction,SMDPad,CuDef*%
%ADD62C,0.200000*%
%TD*%
%TA.AperFunction,SMDPad,CuDef*%
%ADD63R,1.200000X0.650000*%
%TD*%
%TA.AperFunction,SMDPad,CuDef*%
%ADD64R,1.244600X0.990600*%
%TD*%
%TA.AperFunction,ComponentPad*%
%ADD65C,0.700000*%
%TD*%
%TA.AperFunction,ComponentPad*%
%ADD66O,2.100000X1.000000*%
%TD*%
%TA.AperFunction,ComponentPad*%
%ADD67O,1.600000X1.000000*%
%TD*%
%TA.AperFunction,SMDPad,CuDef*%
%ADD68R,1.150000X0.600000*%
%TD*%
%TA.AperFunction,SMDPad,CuDef*%
%ADD69R,1.150000X0.300000*%
%TD*%
%TA.AperFunction,SMDPad,CuDef*%
%ADD70R,0.600000X1.300000*%
%TD*%
%TA.AperFunction,SMDPad,CuDef*%
%ADD71R,1.800000X2.200000*%
%TD*%
%TA.AperFunction,SMDPad,CuDef*%
%ADD72R,0.650000X1.200000*%
%TD*%
%TA.AperFunction,SMDPad,CuDef*%
%ADD73C,0.450000*%
%TD*%
%TA.AperFunction,ViaPad*%
%ADD74C,0.600000*%
%TD*%
%TA.AperFunction,ViaPad*%
%ADD75C,0.450000*%
%TD*%
%TA.AperFunction,ViaPad*%
%ADD76C,0.500000*%
%TD*%
%TA.AperFunction,Conductor*%
%ADD77C,0.254000*%
%TD*%
%TA.AperFunction,Conductor*%
%ADD78C,0.200000*%
%TD*%
%TA.AperFunction,Conductor*%
%ADD79C,0.500000*%
%TD*%
%TA.AperFunction,Conductor*%
%ADD80C,1.000000*%
%TD*%
%TA.AperFunction,Conductor*%
%ADD81C,0.170000*%
%TD*%
%TA.AperFunction,Conductor*%
%ADD82C,0.300000*%
%TD*%
G04 APERTURE END LIST*
D10*
%TO.P,C54,1,1_1*%
%TO.N,GND*%
X137200000Y-90500000D03*
%TO.P,C54,2,2_2*%
%TO.N,VDDIO*%
X137200000Y-89100000D03*
%TD*%
D11*
%TO.P,C31,1,1_1*%
%TO.N,GND*%
X159500000Y-109675000D03*
%TO.P,C31,2,2_2*%
%TO.N,+5V*%
X159500000Y-107675000D03*
%TD*%
D12*
%TO.P,CN7,1,1_1*%
%TO.N,/SCK*%
X131100000Y-91325000D03*
%TO.P,CN7,2,2_2*%
%TO.N,/MISO*%
X131100000Y-92825000D03*
%TO.P,CN7,3,3_3*%
%TO.N,/MOSI*%
X131100000Y-94325000D03*
%TO.P,CN7,4,4_4*%
%TO.N,/CS*%
X131100000Y-95825000D03*
D13*
%TO.P,CN7,5,5_5*%
%TO.N,GND*%
X127550000Y-89375000D03*
%TO.P,CN7,6,6_6*%
X127550000Y-97775000D03*
%TD*%
D10*
%TO.P,C79,1,1_1*%
%TO.N,GND*%
X137225000Y-87015000D03*
%TO.P,C79,2,2_2*%
%TO.N,VDDA1V8*%
X137225000Y-85615000D03*
%TD*%
D11*
%TO.P,C25,1,1_1*%
%TO.N,GND*%
X140375000Y-101200000D03*
%TO.P,C25,2,2_2*%
%TO.N,VDDCORE*%
X140375000Y-99200000D03*
%TD*%
D14*
%TO.P,R36,1,1_1*%
%TO.N,Net-(LED5-A)*%
X153390000Y-69000000D03*
%TO.P,R36,2,2_2*%
%TO.N,/LED3*%
X152530000Y-69000000D03*
%TD*%
D15*
%TO.P,C51,1,1_1*%
%TO.N,GND*%
X154815000Y-91915700D03*
%TO.P,C51,2,2_2*%
%TO.N,/OSC32_OUT*%
X153975000Y-91915700D03*
%TD*%
D16*
%TO.P,CN2,0,0_0*%
%TO.N,GND*%
X162690000Y-94950000D03*
X162690000Y-89550000D03*
D17*
%TO.P,CN2,1,1_1*%
%TO.N,/SCL1*%
X159330000Y-93000000D03*
%TO.P,CN2,2,2_2*%
%TO.N,/SDA1*%
X159330000Y-91500000D03*
%TD*%
D18*
%TO.P,C83,1,1_1*%
%TO.N,GND*%
X152450000Y-77190000D03*
%TO.P,C83,2,2_2*%
%TO.N,VDDA1V8*%
X151050000Y-77190000D03*
%TD*%
D11*
%TO.P,C4,1,1_1*%
%TO.N,GND*%
X150937500Y-104362500D03*
%TO.P,C4,2,2_2*%
%TO.N,VDD3V3*%
X150937500Y-102362500D03*
%TD*%
D14*
%TO.P,R33,1,1_1*%
%TO.N,Net-(LED3-A)*%
X153380000Y-70700000D03*
%TO.P,R33,2,2_2*%
%TO.N,/LED2*%
X152520000Y-70700000D03*
%TD*%
D19*
%TO.P,R2,1,1_1*%
%TO.N,GND*%
X143250000Y-112675000D03*
%TO.P,R2,2,2_2*%
%TO.N,/PR1*%
X143250000Y-111175000D03*
%TD*%
D20*
%TO.P,U7,1,PGND2_1*%
%TO.N,GND*%
X153620000Y-116345000D03*
D21*
%TO.P,U7,2,VIN2_2*%
%TO.N,+BATT*%
X153580000Y-117705000D03*
D22*
%TO.P,U7,3,RBOOT_3*%
%TO.N,/CB*%
X153450000Y-118775000D03*
%TO.P,U7,4,CBOOT_4*%
X153450000Y-119275000D03*
%TO.P,U7,5,BIAS_5*%
%TO.N,+5V*%
X153450000Y-119775000D03*
D23*
%TO.P,U7,6,VCC_6*%
%TO.N,/RT*%
X153600000Y-120425000D03*
D24*
%TO.P,U7,7,FB_7*%
%TO.N,+5V*%
X154500000Y-120375000D03*
D25*
%TO.P,U7,8,AGND_8*%
%TO.N,GND*%
X155000000Y-120305000D03*
D24*
%TO.P,U7,9,RT_9*%
%TO.N,/RT*%
X155500000Y-120375000D03*
D26*
%TO.P,U7,10,~{RESET}_10*%
%TO.N,Net-(U7-~{RESET})*%
X156400000Y-120425000D03*
D22*
%TO.P,U7,11,SPSP_11*%
%TO.N,/RT*%
X156550000Y-119775000D03*
%TO.P,U7,12,SYNC/MODE_12*%
%TO.N,GND*%
X156550000Y-119275000D03*
%TO.P,U7,13,EN_13*%
%TO.N,+BATT*%
X156550000Y-118775000D03*
D21*
%TO.P,U7,14,VIN1_14*%
X156420000Y-117705000D03*
D27*
%TO.P,U7,15,PGND1_15*%
%TO.N,GND*%
X156370000Y-116345000D03*
D28*
%TO.P,U7,16,SW_16*%
%TO.N,Net-(U7-SW)*%
X155000000Y-117295000D03*
%TD*%
D14*
%TO.P,R35,1,1_1*%
%TO.N,Net-(LED4-A)*%
X143270000Y-115100000D03*
%TO.P,R35,2,2_2*%
%TO.N,VBUS*%
X144130000Y-115100000D03*
%TD*%
D29*
%TO.P,L1,1,1_1*%
%TO.N,Net-(U4-SW)*%
X134125000Y-99700000D03*
%TO.P,L1,2,2_2*%
%TO.N,VDDCORE*%
X136425000Y-99700000D03*
%TD*%
D10*
%TO.P,C90,1,1_1*%
%TO.N,GND*%
X128750000Y-81090000D03*
%TO.P,C90,2,2_2*%
%TO.N,VDDA1V8*%
X128750000Y-82490000D03*
%TD*%
%TO.P,C29,1,1_1*%
%TO.N,/CB*%
X150650000Y-114575000D03*
%TO.P,C29,2,2_2*%
%TO.N,Net-(U7-SW)*%
X150650000Y-113175000D03*
%TD*%
D30*
%TO.P,D1,1,1_1*%
%TO.N,GND*%
X134755000Y-119895000D03*
%TO.P,D1,2,2_2*%
%TO.N,VBUS*%
X134755000Y-118395000D03*
%TD*%
D10*
%TO.P,C94,1,1_1*%
%TO.N,GND*%
X147325000Y-70490000D03*
%TO.P,C94,2,2_2*%
%TO.N,VDDA1V8*%
X147325000Y-71890000D03*
%TD*%
D19*
%TO.P,R11,1,1_1*%
%TO.N,GND*%
X141850000Y-103675000D03*
%TO.P,R11,2,2_2*%
%TO.N,Net-(U6-ILM)*%
X141850000Y-105175000D03*
%TD*%
D10*
%TO.P,C81,1,1_1*%
%TO.N,GND*%
X155950000Y-75790000D03*
%TO.P,C81,2,2_2*%
%TO.N,VDDA1V8*%
X155950000Y-77190000D03*
%TD*%
D31*
%TO.P,U2,1,OUT_1*%
%TO.N,VDDIO*%
X146220000Y-97130000D03*
D32*
%TO.P,U2,2,GND_2*%
%TO.N,GND*%
X146220000Y-97790000D03*
D33*
%TO.P,U2,3,EN_3*%
%TO.N,VCC*%
X147170000Y-97790000D03*
D34*
%TO.P,U2,4,IN_4*%
X147180000Y-97130000D03*
D35*
%TO.P,U2,5,EP_5*%
%TO.N,GND*%
X146700000Y-97460000D03*
%TD*%
D10*
%TO.P,C13,1,1_1*%
%TO.N,GND*%
X152175000Y-94915000D03*
%TO.P,C13,2,2_2*%
%TO.N,VDDA1V8_AON*%
X152175000Y-93515000D03*
%TD*%
%TO.P,C16,1,1_1*%
%TO.N,GND*%
X153900000Y-94915000D03*
%TO.P,C16,2,2_2*%
%TO.N,VDDA1V8_AON*%
X153900000Y-93515000D03*
%TD*%
D11*
%TO.P,C30,1,1_1*%
%TO.N,GND*%
X148450000Y-109625000D03*
%TO.P,C30,2,2_2*%
%TO.N,+5V*%
X148450000Y-107625000D03*
%TD*%
D36*
%TO.P,U1,1,OUT_1*%
%TO.N,VDDA1V8_AON*%
X155100000Y-93890000D03*
D37*
%TO.P,U1,2,GND_2*%
%TO.N,GND*%
X155110000Y-94530000D03*
D38*
%TO.P,U1,3,EN_3*%
%TO.N,VCC*%
X156060000Y-94530000D03*
D39*
%TO.P,U1,4,IN_4*%
X156060000Y-93890000D03*
D40*
%TO.P,U1,5,EP_5*%
%TO.N,GND*%
X155580000Y-94210000D03*
%TD*%
D18*
%TO.P,C59,1,1_1*%
%TO.N,GND*%
X155450000Y-84015000D03*
%TO.P,C59,2,2_2*%
%TO.N,VDDCORE*%
X154050000Y-84015000D03*
%TD*%
D14*
%TO.P,R32,1,1_1*%
%TO.N,Net-(LED2-A)*%
X161960000Y-111900000D03*
%TO.P,R32,2,2_2*%
%TO.N,+5V*%
X161100000Y-111900000D03*
%TD*%
D41*
%TO.P,C11,1,1_1*%
%TO.N,GND*%
X135700000Y-109175000D03*
%TO.P,C11,2,2_2*%
%TO.N,+5V*%
X137700000Y-109175000D03*
%TD*%
D42*
%TO.P,CN1,1,-_1*%
%TO.N,GND*%
X142900000Y-120100000D03*
%TO.P,CN1,2,+_2*%
%TO.N,+BATT*%
X147900000Y-120100000D03*
D43*
%TO.P,CN1,3,3_3*%
%TO.N,GND*%
X150900000Y-130100000D03*
%TO.P,CN1,4,4_4*%
X139900000Y-130100000D03*
%TD*%
D44*
%TO.P,C49,1,1_1*%
%TO.N,GND*%
X148925000Y-93225000D03*
%TO.P,C49,2,2_2*%
%TO.N,/OSC48_IN*%
X148925000Y-94065000D03*
%TD*%
D45*
%TO.P,C24,1,1_1*%
%TO.N,VCC*%
X134170000Y-106795000D03*
%TO.P,C24,2,2_2*%
%TO.N,GND*%
X134170000Y-103755000D03*
%TD*%
D46*
%TO.P,U12,A2,NC_A2*%
%TO.N,unconnected-(U12-NC-PadA2)*%
X133850000Y-84240000D03*
%TO.P,U12,A3,RFU_A3*%
%TO.N,unconnected-(U12-RFU-PadA3)*%
X132850000Y-84240000D03*
%TO.P,U12,A4,~{RESET}_A4*%
%TO.N,/XSPI_RESET*%
X131850000Y-84240000D03*
%TO.P,U12,A5,RFU_A5*%
%TO.N,unconnected-(U12-RFU-PadA5)*%
X130850000Y-84240000D03*
%TO.P,U12,B1,RFU_B1*%
%TO.N,unconnected-(U12-RFU-PadB1)*%
X134850000Y-83240000D03*
%TO.P,U12,B2,C_B2*%
%TO.N,/OCTOSPI_CLK*%
X133850000Y-83240000D03*
%TO.P,U12,B3,VSS_B3*%
%TO.N,GND*%
X132850000Y-83240000D03*
%TO.P,U12,B4,VCC_B4*%
%TO.N,VDDA1V8*%
X131850000Y-83240000D03*
%TO.P,U12,B5,RFU_B5*%
%TO.N,unconnected-(U12-RFU-PadB5)*%
X130850000Y-83240000D03*
%TO.P,U12,C1,VSS_C1*%
%TO.N,GND*%
X134850000Y-82240000D03*
%TO.P,U12,C2,~{S}_C2*%
%TO.N,/FLASH_CS*%
X133850000Y-82240000D03*
%TO.P,U12,C3,DQS_C3*%
%TO.N,/OCTOSPI_DQS*%
X132850000Y-82240000D03*
%TO.P,U12,C4,DQ2/~{W}_C4*%
%TO.N,/OCTOSPI_IO2*%
X131850000Y-82240000D03*
%TO.P,U12,C5,VPP_C5*%
%TO.N,unconnected-(U12-VPP-PadC5)*%
X130850000Y-82240000D03*
%TO.P,U12,D1,VCC_D1*%
%TO.N,VDDA1V8*%
X134850000Y-81240000D03*
%TO.P,U12,D2,DQ1_D2*%
%TO.N,/OCTOSPI_IO1*%
X133850000Y-81240000D03*
%TO.P,U12,D3,DQ0_D3*%
%TO.N,/OCTOSPI_IO0*%
X132850000Y-81240000D03*
%TO.P,U12,D4,DQ3_D4*%
%TO.N,/OCTOSPI_IO3*%
X131850000Y-81240000D03*
%TO.P,U12,D5,DQ4_D5*%
%TO.N,/OCTOSPI_IO4*%
X130850000Y-81240000D03*
%TO.P,U12,E1,DQ7_E1*%
%TO.N,/OCTOSPI_IO7*%
X134850000Y-80240000D03*
%TO.P,U12,E2,DQ6_E2*%
%TO.N,/OCTOSPI_IO6*%
X133850000Y-80240000D03*
%TO.P,U12,E3,DQ5_E3*%
%TO.N,/OCTOSPI_IO5*%
X132850000Y-80240000D03*
%TO.P,U12,E4,VCC_E4*%
%TO.N,VDDA1V8*%
X131850000Y-80240000D03*
%TO.P,U12,E5,VSS_E5*%
%TO.N,GND*%
X130850000Y-80240000D03*
%TD*%
D19*
%TO.P,R13,1,1_1*%
%TO.N,/V_ADC*%
X131000000Y-105250000D03*
%TO.P,R13,2,2_2*%
%TO.N,VCC*%
X131000000Y-106750000D03*
%TD*%
D18*
%TO.P,C64,1,1_1*%
%TO.N,GND*%
X152450000Y-75470000D03*
%TO.P,C64,2,2_2*%
%TO.N,VDDA1V8*%
X151050000Y-75470000D03*
%TD*%
D19*
%TO.P,R1,1,1_1*%
%TO.N,/PR1*%
X144750000Y-111175000D03*
%TO.P,R1,2,2_2*%
%TO.N,VBUS*%
X144750000Y-112675000D03*
%TD*%
D47*
%TO.P,U6,1,OUT_1*%
%TO.N,VCC*%
X140350000Y-107775000D03*
D48*
%TO.P,U6,2,IN2_2*%
%TO.N,+5V*%
X140350000Y-108475000D03*
D49*
%TO.P,U6,3,CP2_3*%
%TO.N,GND*%
X140270000Y-109275000D03*
%TO.P,U6,4,OV2_4*%
%TO.N,/OV2*%
X140770000Y-109275000D03*
%TO.P,U6,5,OV1_5*%
%TO.N,/OV1*%
X141270000Y-109275000D03*
%TO.P,U6,6,PR1_6*%
%TO.N,/PR1*%
X141770000Y-109275000D03*
D48*
%TO.P,U6,7,IN1_7*%
%TO.N,VBUS*%
X141700000Y-108475000D03*
%TO.P,U6,8,OUT_8*%
%TO.N,VCC*%
X141700000Y-107775000D03*
D49*
%TO.P,U6,9,ST_9*%
%TO.N,GND*%
X141770000Y-106975000D03*
%TO.P,U6,10,ILM_10*%
%TO.N,Net-(U6-ILM)*%
X141270000Y-106975000D03*
%TO.P,U6,11,SS_11*%
%TO.N,Net-(U6-SS)*%
X140770000Y-106975000D03*
%TO.P,U6,12,GND_12*%
%TO.N,GND*%
X140270000Y-106975000D03*
%TD*%
D50*
%TO.P,R8,1,1_1*%
%TO.N,/CC2*%
X137505000Y-118095000D03*
%TO.P,R8,2,2_2*%
%TO.N,GND*%
X137505000Y-120095000D03*
%TD*%
D11*
%TO.P,C23,1,1_1*%
%TO.N,GND*%
X138375000Y-101200000D03*
%TO.P,C23,2,2_2*%
%TO.N,VDDCORE*%
X138375000Y-99200000D03*
%TD*%
D51*
%TO.P,U11,A1,PDR_ON_A1*%
%TO.N,VDDA1V8_AON*%
X151850000Y-91640000D03*
%TO.P,U11,A2,PQ6_A2*%
%TO.N,unconnected-(U11E-PQ6-PadA2)*%
X151050000Y-91640000D03*
%TO.P,U11,A3,OTG2_HSDM_A3*%
%TO.N,unconnected-(U11B-OTG2_HSDM-PadA3)*%
X150250000Y-91640000D03*
%TO.P,U11,A4,VDD33USB_A4*%
%TO.N,VDD3V3*%
X149450000Y-91640000D03*
%TO.P,U11,A5,OTG1_HSDM_A5*%
%TO.N,/D-*%
X148650000Y-91640000D03*
%TO.P,U11,A6,UCPD1_CC1_A6*%
%TO.N,unconnected-(U11B-UCPD1_CC1-PadA6)*%
X147850000Y-91640000D03*
%TO.P,U11,A7,PH0-OSC_IN_A7*%
%TO.N,/OSC48_IN*%
X147050000Y-91640000D03*
%TO.P,U11,A8,PC10_A8*%
%TO.N,unconnected-(U11D-PC10-PadA8)*%
X146250000Y-91640000D03*
%TO.P,U11,A9,PC1_A9*%
%TO.N,unconnected-(U11D-PC1-PadA9)*%
X145450000Y-91640000D03*
%TO.P,U11,A10,PC4_A10*%
%TO.N,unconnected-(U11D-PC4-PadA10)*%
X144650000Y-91640000D03*
%TO.P,U11,A11,PE13_A11*%
%TO.N,/MISO*%
X143850000Y-91640000D03*
%TO.P,U11,A12,PE15_A12*%
%TO.N,unconnected-(U11D-PE15-PadA12)*%
X143050000Y-91640000D03*
%TO.P,U11,A13,PD10_A13*%
%TO.N,unconnected-(U11D-PD10-PadA13)*%
X142250000Y-91640000D03*
%TO.P,U11,A14,PD1_A14*%
%TO.N,unconnected-(U11D-PD1-PadA14)*%
X141450000Y-91640000D03*
%TO.P,U11,A15,PE8_A15*%
%TO.N,unconnected-(U11D-PE8-PadA15)*%
X140650000Y-91640000D03*
%TO.P,U11,A16,PE9_A16*%
%TO.N,unconnected-(U11D-PE9-PadA16)*%
X139850000Y-91640000D03*
%TO.P,U11,A17,VSS_A17*%
%TO.N,GND*%
X139050000Y-91640000D03*
%TO.P,U11,B1,PH3_B1*%
%TO.N,unconnected-(U11E-PH3-PadB1)*%
X151850000Y-90840000D03*
%TO.P,U11,B2,PH6_B2*%
%TO.N,unconnected-(U11E-PH6-PadB2)*%
X151050000Y-90840000D03*
%TO.P,U11,B3,OTG2_HSDP_B3*%
%TO.N,unconnected-(U11B-OTG2_HSDP-PadB3)*%
X150250000Y-90840000D03*
%TO.P,U11,B4,NC_B4*%
%TO.N,unconnected-(U11B-NC-PadB4)*%
X149450000Y-90840000D03*
%TO.P,U11,B5,OTG1_HSDP_B5*%
%TO.N,/D+*%
X148650000Y-90840000D03*
%TO.P,U11,B6,UCPD1_CC2_B6*%
%TO.N,unconnected-(U11B-UCPD1_CC2-PadB6)*%
X147850000Y-90840000D03*
%TO.P,U11,B7,PH1-OSC_OUT_B7*%
%TO.N,/OSC48_OUT*%
X147050000Y-90840000D03*
%TO.P,U11,B8,PC11_B8*%
%TO.N,unconnected-(U11D-PC11-PadB8)*%
X146250000Y-90840000D03*
%TO.P,U11,B9,PC6_B9*%
%TO.N,unconnected-(U11D-PC6-PadB9)*%
X145450000Y-90840000D03*
%TO.P,U11,B10,PC5_B10*%
%TO.N,unconnected-(U11D-PC5-PadB10)*%
X144650000Y-90840000D03*
%TO.P,U11,B11,PE14_B11*%
%TO.N,/MOSI*%
X143850000Y-90840000D03*
%TO.P,U11,B12,PE12_B12*%
%TO.N,/SCK*%
X143050000Y-90840000D03*
%TO.P,U11,B13,PE7_B13*%
%TO.N,unconnected-(U11D-PE7-PadB13)*%
X142250000Y-90840000D03*
%TO.P,U11,B14,PD15_B14*%
%TO.N,unconnected-(U11D-PD15-PadB14)*%
X141450000Y-90840000D03*
%TO.P,U11,B15,PD4_B15*%
%TO.N,unconnected-(U11D-PD4-PadB15)*%
X140650000Y-90840000D03*
%TO.P,U11,B16,PE10_B16*%
%TO.N,unconnected-(U11D-PE10-PadB16)*%
X139850000Y-90840000D03*
%TO.P,U11,B17,PB14_B17*%
%TO.N,unconnected-(U11C-PB14-PadB17)*%
X139050000Y-90840000D03*
%TO.P,U11,C1,PC15-OSC32_OUT_C1*%
%TO.N,/OSC32_OUT*%
X151850000Y-90040000D03*
%TO.P,U11,C2,PH8_C2*%
%TO.N,unconnected-(U11E-PH8-PadC2)*%
X151050000Y-90040000D03*
%TO.P,U11,C3,OTG1_ID_C3*%
%TO.N,unconnected-(U11B-OTG1_ID-PadC3)*%
X150250000Y-90040000D03*
%TO.P,U11,C4,NC_C4*%
%TO.N,unconnected-(U11B-NC-PadC4)*%
X149450000Y-90040000D03*
%TO.P,U11,C5,VDDA18USB_C5*%
%TO.N,VDDA1V8*%
X148650000Y-90040000D03*
%TO.P,U11,C6,OTG1_TXRTUNE_C6*%
%TO.N,Net-(U11B-OTG1_TXRTUNE)*%
X147850000Y-90040000D03*
%TO.P,U11,C7,PC9_C7*%
%TO.N,unconnected-(U11D-PC9-PadC7)*%
X147050000Y-90040000D03*
%TO.P,U11,C8,PC12_C8*%
%TO.N,/UART_TX2*%
X146250000Y-90040000D03*
%TO.P,U11,C9,PC7_C9*%
%TO.N,unconnected-(U11D-PC7-PadC9)*%
X145450000Y-90040000D03*
%TO.P,U11,C10,PC0_C10*%
%TO.N,unconnected-(U11D-PC0-PadC10)*%
X144650000Y-90040000D03*
%TO.P,U11,C11,PE5_C11*%
%TO.N,/SCL1*%
X143850000Y-90040000D03*
%TO.P,U11,C12,PD2_C12*%
%TO.N,unconnected-(U11D-PD2-PadC12)*%
X143050000Y-90040000D03*
%TO.P,U11,C13,PD12_C13*%
%TO.N,unconnected-(U11D-PD12-PadC13)*%
X142250000Y-90040000D03*
%TO.P,U11,C14,PD14_C14*%
%TO.N,unconnected-(U11D-PD14-PadC14)*%
X141450000Y-90040000D03*
%TO.P,U11,C15,PB13_C15*%
%TO.N,unconnected-(U11C-PB13-PadC15)*%
X140650000Y-90040000D03*
%TO.P,U11,C16,PB2_C16*%
%TO.N,unconnected-(U11C-PB2-PadC16)*%
X139850000Y-90040000D03*
%TO.P,U11,C17,PD13_C17*%
%TO.N,unconnected-(U11D-PD13-PadC17)*%
X139050000Y-90040000D03*
%TO.P,U11,D1,PC14-OSC32_IN_D1*%
%TO.N,/OSC32_IN*%
X151850000Y-89240000D03*
%TO.P,U11,D2,PH7_D2*%
%TO.N,unconnected-(U11E-PH7-PadD2)*%
X151050000Y-89240000D03*
%TO.P,U11,D3,PQ3_D3*%
%TO.N,unconnected-(U11E-PQ3-PadD3)*%
X150250000Y-89240000D03*
%TO.P,U11,D4,PQ4_D4*%
%TO.N,unconnected-(U11E-PQ4-PadD4)*%
X149450000Y-89240000D03*
%TO.P,U11,D5,PQ5_D5*%
%TO.N,unconnected-(U11E-PQ5-PadD5)*%
X148650000Y-89240000D03*
%TO.P,U11,D6,OTG2_TXRTUNE_D6*%
%TO.N,unconnected-(U11B-OTG2_TXRTUNE-PadD6)*%
X147850000Y-89240000D03*
%TO.P,U11,D7,PC8_D7*%
%TO.N,unconnected-(U11D-PC8-PadD7)*%
X147050000Y-89240000D03*
%TO.P,U11,D8,PH9_D8*%
%TO.N,unconnected-(U11E-PH9-PadD8)*%
X146250000Y-89240000D03*
%TO.P,U11,D9,PC2_D9*%
%TO.N,unconnected-(U11D-PC2-PadD9)*%
X145450000Y-89240000D03*
%TO.P,U11,D10,PE4_D10*%
%TO.N,unconnected-(U11D-PE4-PadD10)*%
X144650000Y-89240000D03*
%TO.P,U11,D11,PE6_D11*%
%TO.N,/SDA1*%
X143850000Y-89240000D03*
%TO.P,U11,D12,PD6_D12*%
%TO.N,unconnected-(U11D-PD6-PadD12)*%
X143050000Y-89240000D03*
%TO.P,U11,D13,PD0_D13*%
%TO.N,unconnected-(U11D-PD0-PadD13)*%
X142250000Y-89240000D03*
%TO.P,U11,D14,PD5_D14*%
%TO.N,unconnected-(U11D-PD5-PadD14)*%
X141450000Y-89240000D03*
%TO.P,U11,D15,PB9_D15*%
%TO.N,unconnected-(U11C-PB9-PadD15)*%
X140650000Y-89240000D03*
%TO.P,U11,D16,PB8_D16*%
%TO.N,unconnected-(U11C-PB8-PadD16)*%
X139850000Y-89240000D03*
%TO.P,U11,D17,PB15_D17*%
%TO.N,unconnected-(U11C-PB15-PadD17)*%
X139050000Y-89240000D03*
%TO.P,U11,E1,VBAT_E1*%
%TO.N,VDDIO*%
X151850000Y-88440000D03*
%TO.P,U11,E2,PWR_ON_E2*%
%TO.N,/PWR_ON*%
X151050000Y-88440000D03*
%TO.P,U11,E3,PQ2_E3*%
%TO.N,unconnected-(U11E-PQ2-PadE3)*%
X150250000Y-88440000D03*
%TO.P,U11,E4,PQ1_E4*%
%TO.N,unconnected-(U11E-PQ1-PadE4)*%
X149450000Y-88440000D03*
%TO.P,U11,E5,PQ0_E5*%
%TO.N,unconnected-(U11E-PQ0-PadE5)*%
X148650000Y-88440000D03*
%TO.P,U11,E6,OTG2_ID_E6*%
%TO.N,unconnected-(U11B-OTG2_ID-PadE6)*%
X147850000Y-88440000D03*
%TO.P,U11,E7,PH2_E7*%
%TO.N,unconnected-(U11E-PH2-PadE7)*%
X147050000Y-88440000D03*
%TO.P,U11,E8,VDDIO4_E8*%
%TO.N,VDDIO*%
X146250000Y-88440000D03*
%TO.P,U11,E9,VDDIO5_E9*%
X145450000Y-88440000D03*
%TO.P,U11,E10,PC3_E10*%
%TO.N,unconnected-(U11D-PC3-PadE10)*%
X144650000Y-88440000D03*
%TO.P,U11,E11,PE11_E11*%
%TO.N,unconnected-(U11D-PE11-PadE11)*%
X143850000Y-88440000D03*
%TO.P,U11,E12,PD7_E12*%
%TO.N,unconnected-(U11D-PD7-PadE12)*%
X143050000Y-88440000D03*
%TO.P,U11,E13,PD3_E13*%
%TO.N,unconnected-(U11D-PD3-PadE13)*%
X142250000Y-88440000D03*
%TO.P,U11,E14,PD8_E14*%
%TO.N,/UART_TX1*%
X141450000Y-88440000D03*
%TO.P,U11,E15,PB0_E15*%
%TO.N,/CS*%
X140650000Y-88440000D03*
%TO.P,U11,E16,PB7_E16*%
%TO.N,unconnected-(U11C-PB7-PadE16)*%
X139850000Y-88440000D03*
%TO.P,U11,E17,PB6_E17*%
%TO.N,unconnected-(U11C-PB6-PadE17)*%
X139050000Y-88440000D03*
%TO.P,U11,F1,V08CAP_F1*%
%TO.N,Net-(U11A-V08CAP)*%
X151850000Y-87640000D03*
%TO.P,U11,F2,VSSAPMU_F2*%
%TO.N,GND*%
X151050000Y-87640000D03*
%TO.P,U11,F3,PC13_F3*%
%TO.N,unconnected-(U11D-PC13-PadF3)*%
X150250000Y-87640000D03*
%TO.P,U11,F4,PH4_F4*%
%TO.N,unconnected-(U11E-PH4-PadF4)*%
X149450000Y-87640000D03*
%TO.P,U11,F5,PH5_F5*%
%TO.N,unconnected-(U11E-PH5-PadF5)*%
X148650000Y-87640000D03*
%TO.P,U11,F6,VDDA18AON_F6*%
%TO.N,VDDA1V8_AON*%
X147850000Y-87640000D03*
%TO.P,U11,F7,VSS_F7*%
%TO.N,GND*%
X147050000Y-87640000D03*
%TO.P,U11,F8,VDDIO4_F8*%
%TO.N,VDDIO*%
X146250000Y-87640000D03*
%TO.P,U11,F9,VDDIO5_F9*%
X145450000Y-87640000D03*
%TO.P,U11,F10,VSS_F10*%
%TO.N,GND*%
X144650000Y-87640000D03*
%TO.P,U11,F11,VSS_F11*%
X143850000Y-87640000D03*
%TO.P,U11,F12,VSS_F12*%
X143050000Y-87640000D03*
%TO.P,U11,F13,PB3_F13*%
%TO.N,unconnected-(U11C-PB3-PadF13)*%
X142250000Y-87640000D03*
%TO.P,U11,F14,PE3_F14*%
%TO.N,unconnected-(U11D-PE3-PadF14)*%
X141450000Y-87640000D03*
%TO.P,U11,F15,PE2_F15*%
%TO.N,unconnected-(U11D-PE2-PadF15)*%
X140650000Y-87640000D03*
%TO.P,U11,F16,PE0_F16*%
%TO.N,unconnected-(U11D-PE0-PadF16)*%
X139850000Y-87640000D03*
%TO.P,U11,F17,PE1_F17*%
%TO.N,unconnected-(U11D-PE1-PadF17)*%
X139050000Y-87640000D03*
%TO.P,U11,G1,VDDA18PMU_G1*%
%TO.N,GND*%
X151850000Y-86840000D03*
%TO.P,U11,G2,VFBSMPS_G2*%
X151050000Y-86840000D03*
%TO.P,U11,G3,NRST_G3*%
%TO.N,/NRST*%
X150250000Y-86840000D03*
%TO.P,U11,G4,BOOT0_G4*%
%TO.N,/BOOT0*%
X149450000Y-86840000D03*
%TO.P,U11,G5,PQ7_G5*%
%TO.N,unconnected-(U11E-PQ7-PadG5)*%
X148650000Y-86840000D03*
%TO.P,U11,G6,VSSAON_G6*%
%TO.N,GND*%
X147850000Y-86840000D03*
%TO.P,U11,G12,VSS_G12*%
X143050000Y-86840000D03*
%TO.P,U11,G13,VDD_G13*%
%TO.N,VDDIO*%
X142250000Y-86840000D03*
%TO.P,U11,G14,PD11_G14*%
%TO.N,unconnected-(U11D-PD11-PadG14)*%
X141450000Y-86840000D03*
%TO.P,U11,G15,PP7_G15*%
%TO.N,unconnected-(U11E-PP7-PadG15)*%
X140650000Y-86840000D03*
%TO.P,U11,G16,PP6_G16*%
%TO.N,unconnected-(U11E-PP6-PadG16)*%
X139850000Y-86840000D03*
%TO.P,U11,G17,PP0_G17*%
%TO.N,unconnected-(U11E-PP0-PadG17)*%
X139050000Y-86840000D03*
%TO.P,U11,H1,VSSSMPS_H1*%
%TO.N,GND*%
X151850000Y-86040000D03*
%TO.P,U11,H2,VSSSMPS_H2*%
X151050000Y-86040000D03*
%TO.P,U11,H3,VSSSMPS_H3*%
X150250000Y-86040000D03*
%TO.P,U11,H4,VSSSMPS_H4*%
X149450000Y-86040000D03*
%TO.P,U11,H5,VSSSMPS_H5*%
X148650000Y-86040000D03*
%TO.P,U11,H6,VSSSMPS_H6*%
X147850000Y-86040000D03*
%TO.P,U11,H12,VDD_H12*%
%TO.N,VDDIO*%
X143050000Y-86040000D03*
%TO.P,U11,H13,VDD_H13*%
X142250000Y-86040000D03*
%TO.P,U11,H14,PD9_H14*%
%TO.N,/UART_RX1*%
X141450000Y-86040000D03*
%TO.P,U11,H15,PP4_H15*%
%TO.N,unconnected-(U11E-PP4-PadH15)*%
X140650000Y-86040000D03*
%TO.P,U11,H16,PP1_H16*%
%TO.N,unconnected-(U11E-PP1-PadH16)*%
X139850000Y-86040000D03*
%TO.P,U11,H17,PP15_H17*%
%TO.N,unconnected-(U11E-PP15-PadH17)*%
X139050000Y-86040000D03*
%TO.P,U11,J1,VLXSMPS_J1*%
%TO.N,unconnected-(U11A-VLXSMPS-PadJ1)*%
X151850000Y-85240000D03*
%TO.P,U11,J2,VLXSMPS_J2*%
%TO.N,unconnected-(U11A-VLXSMPS-PadJ2)*%
X151050000Y-85240000D03*
%TO.P,U11,J3,VLXSMPS_J3*%
%TO.N,unconnected-(U11A-VLXSMPS-PadJ3)*%
X150250000Y-85240000D03*
%TO.P,U11,J4,VLXSMPS_J4*%
%TO.N,unconnected-(U11A-VLXSMPS-PadJ4)*%
X149450000Y-85240000D03*
%TO.P,U11,J5,VLXSMPS_J5*%
%TO.N,unconnected-(U11A-VLXSMPS-PadJ5)*%
X148650000Y-85240000D03*
%TO.P,U11,J6,VLXSMPS_J6*%
%TO.N,unconnected-(U11A-VLXSMPS-PadJ6)*%
X147850000Y-85240000D03*
%TO.P,U11,J12,VDD_J12*%
%TO.N,VDDIO*%
X143050000Y-85240000D03*
%TO.P,U11,J13,VDD_J13*%
X142250000Y-85240000D03*
%TO.P,U11,J14,PP5_J14*%
%TO.N,unconnected-(U11E-PP5-PadJ14)*%
X141450000Y-85240000D03*
%TO.P,U11,J15,PP12_J15*%
%TO.N,unconnected-(U11E-PP12-PadJ15)*%
X140650000Y-85240000D03*
%TO.P,U11,J16,PP3_J16*%
%TO.N,unconnected-(U11E-PP3-PadJ16)*%
X139850000Y-85240000D03*
%TO.P,U11,J17,PP2_J17*%
%TO.N,unconnected-(U11E-PP2-PadJ17)*%
X139050000Y-85240000D03*
%TO.P,U11,K1,VDDSMPS_K1*%
%TO.N,GND*%
X151850000Y-84440000D03*
%TO.P,U11,K2,VDDSMPS_K2*%
X151050000Y-84440000D03*
%TO.P,U11,K3,VDDSMPS_K3*%
X150250000Y-84440000D03*
%TO.P,U11,K4,VDDSMPS_K4*%
X149450000Y-84440000D03*
%TO.P,U11,K5,VDDSMPS_K5*%
X148650000Y-84440000D03*
%TO.P,U11,K6,VDDSMPS_K6*%
X147850000Y-84440000D03*
%TO.P,U11,K12,VSS_K12*%
X143050000Y-84440000D03*
%TO.P,U11,K13,VDD_K13*%
%TO.N,VDDIO*%
X142250000Y-84440000D03*
%TO.P,U11,K14,PP13_K14*%
%TO.N,unconnected-(U11E-PP13-PadK14)*%
X141450000Y-84440000D03*
%TO.P,U11,K15,PO5_K15*%
%TO.N,unconnected-(U11E-PO5-PadK15)*%
X140650000Y-84440000D03*
%TO.P,U11,K16,PO1_K16*%
%TO.N,unconnected-(U11E-PO1-PadK16)*%
X139850000Y-84440000D03*
%TO.P,U11,K17,PO2_K17*%
%TO.N,unconnected-(U11E-PO2-PadK17)*%
X139050000Y-84440000D03*
%TO.P,U11,L1,PG7_L1*%
%TO.N,unconnected-(U11E-PG7-PadL1)*%
X151850000Y-83640000D03*
%TO.P,U11,L2,PF4_L2*%
%TO.N,unconnected-(U11D-PF4-PadL2)*%
X151050000Y-83640000D03*
%TO.P,U11,L3,PG6_L3*%
%TO.N,unconnected-(U11E-PG6-PadL3)*%
X150250000Y-83640000D03*
%TO.P,U11,L4,PF10_L4*%
%TO.N,unconnected-(U11D-PF10-PadL4)*%
X149450000Y-83640000D03*
%TO.P,U11,L5,PF6_L5*%
%TO.N,unconnected-(U11D-PF6-PadL5)*%
X148650000Y-83640000D03*
%TO.P,U11,L6,VDDCORE_L6*%
%TO.N,VDDCORE*%
X147850000Y-83640000D03*
%TO.P,U11,L12,VDDCORE_L12*%
X143050000Y-83640000D03*
%TO.P,U11,L13,VDDIO2_L13*%
%TO.N,VDDIO*%
X142250000Y-83640000D03*
%TO.P,U11,L14,VDDIO2_L14*%
X141450000Y-83640000D03*
%TO.P,U11,L15,PP11_L15*%
%TO.N,unconnected-(U11E-PP11-PadL15)*%
X140650000Y-83640000D03*
%TO.P,U11,L16,PP8_L16*%
%TO.N,unconnected-(U11E-PP8-PadL16)*%
X139850000Y-83640000D03*
%TO.P,U11,L17,PP14_L17*%
%TO.N,unconnected-(U11E-PP14-PadL17)*%
X139050000Y-83640000D03*
%TO.P,U11,M1,PF7_M1*%
%TO.N,unconnected-(U11D-PF7-PadM1)*%
X151850000Y-82840000D03*
%TO.P,U11,M2,PF3_M2*%
%TO.N,unconnected-(U11D-PF3-PadM2)*%
X151050000Y-82840000D03*
%TO.P,U11,M3,PF5_M3*%
%TO.N,unconnected-(U11D-PF5-PadM3)*%
X150250000Y-82840000D03*
%TO.P,U11,M4,PG5_M4*%
%TO.N,unconnected-(U11E-PG5-PadM4)*%
X149450000Y-82840000D03*
%TO.P,U11,M5,VDDA18PLL_M5*%
%TO.N,VDDA1V8*%
X148650000Y-82840000D03*
%TO.P,U11,M6,VSSA_M6*%
%TO.N,GND*%
X147850000Y-82840000D03*
%TO.P,U11,M7,VDDCORE_M7*%
%TO.N,VDDCORE*%
X147050000Y-82840000D03*
%TO.P,U11,M8,VSS_M8*%
%TO.N,GND*%
X146250000Y-82840000D03*
%TO.P,U11,M9,VDDCORE_M9*%
%TO.N,VDDCORE*%
X145450000Y-82840000D03*
%TO.P,U11,M10,VSS_M10*%
%TO.N,GND*%
X144650000Y-82840000D03*
%TO.P,U11,M11,VDDCORE_M11*%
%TO.N,VDDCORE*%
X143850000Y-82840000D03*
%TO.P,U11,M12,VSS_M12*%
%TO.N,GND*%
X143050000Y-82840000D03*
%TO.P,U11,M13,VSS_M13*%
X142250000Y-82840000D03*
%TO.P,U11,M14,VDDIO2_M14*%
%TO.N,VDDIO*%
X141450000Y-82840000D03*
%TO.P,U11,M15,VDDIO2_M15*%
X140650000Y-82840000D03*
%TO.P,U11,M16,PO3_M16*%
%TO.N,unconnected-(U11E-PO3-PadM16)*%
X139850000Y-82840000D03*
%TO.P,U11,M17,PO0_M17*%
%TO.N,unconnected-(U11E-PO0-PadM17)*%
X139050000Y-82840000D03*
%TO.P,U11,N1,PF15_N1*%
%TO.N,unconnected-(U11D-PF15-PadN1)*%
X151850000Y-82040000D03*
%TO.P,U11,N2,PF14_N2*%
%TO.N,unconnected-(U11D-PF14-PadN2)*%
X151050000Y-82040000D03*
%TO.P,U11,N3,PF8_N3*%
%TO.N,unconnected-(U11D-PF8-PadN3)*%
X150250000Y-82040000D03*
%TO.P,U11,N4,PF2_N4*%
%TO.N,unconnected-(U11D-PF2-PadN4)*%
X149450000Y-82040000D03*
%TO.P,U11,N5,VSS_N5*%
%TO.N,GND*%
X148650000Y-82040000D03*
%TO.P,U11,N6,VDDA18ADC_N6*%
%TO.N,VDDA1V8_AON*%
X147850000Y-82040000D03*
%TO.P,U11,N7,VSS_N7*%
%TO.N,GND*%
X147050000Y-82040000D03*
%TO.P,U11,N8,VDDCORE_N8*%
%TO.N,VDDCORE*%
X146250000Y-82040000D03*
%TO.P,U11,N9,VSS_N9*%
%TO.N,GND*%
X145450000Y-82040000D03*
%TO.P,U11,N10,VDDCORE_N10*%
%TO.N,VDDCORE*%
X144650000Y-82040000D03*
%TO.P,U11,N11,VSS_N11*%
%TO.N,GND*%
X143850000Y-82040000D03*
%TO.P,U11,N12,VDDCORE_N12*%
%TO.N,VDDCORE*%
X143050000Y-82040000D03*
%TO.P,U11,N13,VDDIO3_N13*%
%TO.N,VDDA1V8*%
X142250000Y-82040000D03*
%TO.P,U11,N14,PP9_N14*%
%TO.N,unconnected-(U11E-PP9-PadN14)*%
X141450000Y-82040000D03*
%TO.P,U11,N15,PP10_N15*%
%TO.N,unconnected-(U11E-PP10-PadN15)*%
X140650000Y-82040000D03*
%TO.P,U11,N16,PO4_N16*%
%TO.N,unconnected-(U11E-PO4-PadN16)*%
X139850000Y-82040000D03*
%TO.P,U11,N17,PN4_N17*%
%TO.N,/OCTOSPI_IO2*%
X139050000Y-82040000D03*
%TO.P,U11,P1,PF9_P1*%
%TO.N,unconnected-(U11D-PF9-PadP1)*%
X151850000Y-81240000D03*
%TO.P,U11,P2,PG4_P2*%
%TO.N,unconnected-(U11E-PG4-PadP2)*%
X151050000Y-81240000D03*
%TO.P,U11,P3,PF11_P3*%
%TO.N,unconnected-(U11D-PF11-PadP3)*%
X150250000Y-81240000D03*
%TO.P,U11,P4,PF1_P4*%
%TO.N,unconnected-(U11D-PF1-PadP4)*%
X149450000Y-81240000D03*
%TO.P,U11,P5,CSI_REXT_P5*%
%TO.N,Net-(U11B-CSI_REXT)*%
X148650000Y-81240000D03*
%TO.P,U11,P6,PG14_P6*%
%TO.N,/LED2*%
X147850000Y-81240000D03*
%TO.P,U11,P7,PA9_P7*%
%TO.N,/CAM_SDA*%
X147050000Y-81240000D03*
%TO.P,U11,P8,PA6_P8*%
%TO.N,unconnected-(U11C-PA6-PadP8)*%
X146250000Y-81240000D03*
%TO.P,U11,P9,PA1_P9*%
%TO.N,/V_ADC2*%
X145450000Y-81240000D03*
%TO.P,U11,P10,PB11_P10*%
%TO.N,/SDA2*%
X144650000Y-81240000D03*
%TO.P,U11,P11,VDDCORE_P11*%
%TO.N,VDDCORE*%
X143850000Y-81240000D03*
%TO.P,U11,P12,PA15_P12*%
%TO.N,unconnected-(U11C-PA15-PadP12)*%
X143050000Y-81240000D03*
%TO.P,U11,P13,VDDIO3_P13*%
%TO.N,VDDA1V8*%
X142250000Y-81240000D03*
%TO.P,U11,P14,PN12_P14*%
%TO.N,/RAM_CS*%
X141450000Y-81240000D03*
%TO.P,U11,P15,PN6_P15*%
%TO.N,/OCTOSPI_CLK*%
X140650000Y-81240000D03*
%TO.P,U11,P16,PN8_P16*%
%TO.N,/OCTOSPI_IO4*%
X139850000Y-81240000D03*
%TO.P,U11,P17,PN0_P17*%
%TO.N,/OCTOSPI_DQS*%
X139050000Y-81240000D03*
%TO.P,U11,R1,PG3_R1*%
%TO.N,unconnected-(U11E-PG3-PadR1)*%
X151850000Y-80440000D03*
%TO.P,U11,R2,PF13_R2*%
%TO.N,unconnected-(U11D-PF13-PadR2)*%
X151050000Y-80440000D03*
%TO.P,U11,R3,PF0_R3*%
%TO.N,unconnected-(U11D-PF0-PadR3)*%
X150250000Y-80440000D03*
%TO.P,U11,R4,VDDCSI_R4*%
%TO.N,VDDCORE*%
X149450000Y-80440000D03*
%TO.P,U11,R5,VDDA18CSI_R5*%
%TO.N,VDDA1V8*%
X148650000Y-80440000D03*
%TO.P,U11,R6,PG15_R6*%
%TO.N,/LED3*%
X147850000Y-80440000D03*
%TO.P,U11,R7,PA10_R7*%
%TO.N,/CAM_IO0*%
X147050000Y-80440000D03*
%TO.P,U11,R8,PA5_R8*%
%TO.N,unconnected-(U11C-PA5-PadR8)*%
X146250000Y-80440000D03*
%TO.P,U11,R9,PG1_R9*%
%TO.N,unconnected-(U11E-PG1-PadR9)*%
X145450000Y-80440000D03*
%TO.P,U11,R10,PB12_R10*%
%TO.N,/UART_RX2*%
X144650000Y-80440000D03*
%TO.P,U11,R11,PB1_R11*%
%TO.N,unconnected-(U11C-PB1-PadR11)*%
X143850000Y-80440000D03*
%TO.P,U11,R12,PA7_R12*%
%TO.N,unconnected-(U11C-PA7-PadR12)*%
X143050000Y-80440000D03*
%TO.P,U11,R13,PG0_R13*%
%TO.N,unconnected-(U11E-PG0-PadR13)*%
X142250000Y-80440000D03*
%TO.P,U11,R14,PA3_R14*%
%TO.N,unconnected-(U11C-PA3-PadR14)*%
X141450000Y-80440000D03*
%TO.P,U11,R15,PN3_R15*%
%TO.N,/OCTOSPI_IO1*%
X140650000Y-80440000D03*
%TO.P,U11,R16,PN5_R16*%
%TO.N,/OCTOSPI_IO3*%
X139850000Y-80440000D03*
%TO.P,U11,R17,PN1_R17*%
%TO.N,/FLASH_CS*%
X139050000Y-80440000D03*
%TO.P,U11,T1,PF12_T1*%
%TO.N,unconnected-(U11D-PF12-PadT1)*%
X151850000Y-79640000D03*
%TO.P,U11,T2,VREF-_T2*%
%TO.N,GND*%
X151050000Y-79640000D03*
%TO.P,U11,T3,CSI_CKP_T3*%
%TO.N,/CAM_CK_P*%
X150250000Y-79640000D03*
%TO.P,U11,T4,CSI_D1P_T4*%
%TO.N,/CAM_D1_P*%
X149450000Y-79640000D03*
%TO.P,U11,T5,CSI_D0P_T5*%
%TO.N,/CAM_D0_P*%
X148650000Y-79640000D03*
%TO.P,U11,T6,PA14_T6*%
%TO.N,unconnected-(U11C-PA14-PadT6)*%
X147850000Y-79640000D03*
%TO.P,U11,T7,PA11_T7*%
%TO.N,/CAM_IO1*%
X147050000Y-79640000D03*
%TO.P,U11,T8,PA2_T8*%
%TO.N,unconnected-(U11C-PA2-PadT8)*%
X146250000Y-79640000D03*
%TO.P,U11,T9,PG12_T9*%
%TO.N,unconnected-(U11E-PG12-PadT9)*%
X145450000Y-79640000D03*
%TO.P,U11,T10,PG10_T10*%
%TO.N,unconnected-(U11E-PG10-PadT10)*%
X144650000Y-79640000D03*
%TO.P,U11,T11,PG2_T11*%
%TO.N,unconnected-(U11E-PG2-PadT11)*%
X143850000Y-79640000D03*
%TO.P,U11,T12,PB4_T12*%
%TO.N,unconnected-(U11C-PB4-PadT12)*%
X143050000Y-79640000D03*
%TO.P,U11,T13,PG9_T13*%
%TO.N,unconnected-(U11E-PG9-PadT13)*%
X142250000Y-79640000D03*
%TO.P,U11,T14,PG8_T14*%
%TO.N,unconnected-(U11E-PG8-PadT14)*%
X141450000Y-79640000D03*
%TO.P,U11,T15,PN9_T15*%
%TO.N,/OCTOSPI_IO5*%
X140650000Y-79640000D03*
%TO.P,U11,T16,PN7_T16*%
%TO.N,unconnected-(U11E-PN7-PadT16)*%
X139850000Y-79640000D03*
%TO.P,U11,T17,PN2_T17*%
%TO.N,/OCTOSPI_IO0*%
X139050000Y-79640000D03*
%TO.P,U11,U1,VSS_U1*%
%TO.N,GND*%
X151850000Y-78840000D03*
%TO.P,U11,U2,VREF+_U2*%
%TO.N,VDDA1V8*%
X151050000Y-78840000D03*
%TO.P,U11,U3,CSI_CKN_U3*%
%TO.N,/CAM_CK_N*%
X150250000Y-78840000D03*
%TO.P,U11,U4,CSI_D1N_U4*%
%TO.N,/CAM_D1_N*%
X149450000Y-78840000D03*
%TO.P,U11,U5,CSI_D0N_U5*%
%TO.N,/CAM_D0_N*%
X148650000Y-78840000D03*
%TO.P,U11,U6,PA13_U6*%
%TO.N,unconnected-(U11C-PA13-PadU6)*%
X147850000Y-78840000D03*
%TO.P,U11,U7,PA12_U7*%
%TO.N,unconnected-(U11C-PA12-PadU7)*%
X147050000Y-78840000D03*
%TO.P,U11,U8,PA8_U8*%
%TO.N,/CAM_SCL*%
X146250000Y-78840000D03*
%TO.P,U11,U9,PG13_U9*%
%TO.N,/LED1*%
X145450000Y-78840000D03*
%TO.P,U11,U10,PA0_U10*%
%TO.N,/V_ADC*%
X144650000Y-78840000D03*
%TO.P,U11,U11,PB10_U11*%
%TO.N,/SCL2*%
X143850000Y-78840000D03*
%TO.P,U11,U12,PB5_U12*%
%TO.N,unconnected-(U11C-PB5-PadU12)*%
X143050000Y-78840000D03*
%TO.P,U11,U13,PG11_U13*%
%TO.N,unconnected-(U11E-PG11-PadU13)*%
X142250000Y-78840000D03*
%TO.P,U11,U14,PA4_U14*%
%TO.N,unconnected-(U11C-PA4-PadU14)*%
X141450000Y-78840000D03*
%TO.P,U11,U15,PN10_U15*%
%TO.N,/OCTOSPI_IO6*%
X140650000Y-78840000D03*
%TO.P,U11,U16,PN11_U16*%
%TO.N,/OCTOSPI_IO7*%
X139850000Y-78840000D03*
%TO.P,U11,U17,VSS_U17*%
%TO.N,GND*%
X139050000Y-78840000D03*
%TD*%
D15*
%TO.P,C50,1,1_1*%
%TO.N,GND*%
X154815000Y-87315700D03*
%TO.P,C50,2,2_2*%
%TO.N,/OSC32_IN*%
X153975000Y-87315700D03*
%TD*%
D10*
%TO.P,C3,1,1_1*%
%TO.N,GND*%
X148425000Y-97350000D03*
%TO.P,C3,2,2_2*%
%TO.N,VCC*%
X148425000Y-98750000D03*
%TD*%
D11*
%TO.P,C18,1,1_1*%
%TO.N,GND*%
X140400000Y-95075000D03*
%TO.P,C18,2,2_2*%
%TO.N,VDDCORE*%
X140400000Y-97075000D03*
%TD*%
D18*
%TO.P,C8,1,1_1*%
%TO.N,GND*%
X163450000Y-116825000D03*
%TO.P,C8,2,2_2*%
%TO.N,+BATT*%
X162050000Y-116825000D03*
%TD*%
D19*
%TO.P,R6,1,1_1*%
%TO.N,GND*%
X138800000Y-112675000D03*
%TO.P,R6,2,2_2*%
%TO.N,/OV2*%
X138800000Y-111175000D03*
%TD*%
D10*
%TO.P,C19,1,1_1*%
%TO.N,GND*%
X140200000Y-103725000D03*
%TO.P,C19,2,2_2*%
%TO.N,Net-(U6-SS)*%
X140200000Y-105125000D03*
%TD*%
D18*
%TO.P,C37,1,1_1*%
%TO.N,GND*%
X137050000Y-67640000D03*
%TO.P,C37,2,2_2*%
%TO.N,VDD3V3*%
X138450000Y-67640000D03*
%TD*%
D52*
%TO.P,X2,1,1_1*%
%TO.N,/OSC48_IN*%
X147425000Y-94265000D03*
%TO.P,X2,2,GND_2*%
%TO.N,GND*%
X147425000Y-93165000D03*
%TO.P,X2,3,3_3*%
%TO.N,/OSC48_OUT*%
X146625000Y-93165000D03*
%TO.P,X2,4,GND_4*%
%TO.N,GND*%
X146625000Y-94265000D03*
%TD*%
D18*
%TO.P,C41,1,1_1*%
%TO.N,GND*%
X155450000Y-85715000D03*
%TO.P,C41,2,2_2*%
%TO.N,Net-(U11A-V08CAP)*%
X154050000Y-85715000D03*
%TD*%
D53*
%TO.P,L2,1,1_1*%
%TO.N,Net-(U7-SW)*%
X155000000Y-113225000D03*
%TO.P,L2,2,2_2*%
%TO.N,+5V*%
X155000000Y-107625000D03*
%TD*%
D10*
%TO.P,C93,1,1_1*%
%TO.N,GND*%
X128750000Y-85565000D03*
%TO.P,C93,2,2_2*%
%TO.N,VDDA1V8*%
X128750000Y-84165000D03*
%TD*%
D54*
%TO.P,REF\u002A\u002A,1*%
%TO.N,N/C*%
X133100000Y-63625000D03*
X132397056Y-65322056D03*
X132397056Y-61927944D03*
X130700000Y-66025000D03*
D55*
X130700000Y-63625000D03*
D54*
X130700000Y-61225000D03*
X129002944Y-65322056D03*
X129002944Y-61927944D03*
X128300000Y-63625000D03*
%TD*%
D11*
%TO.P,C38,1,1_1*%
%TO.N,GND*%
X150500000Y-109625000D03*
%TO.P,C38,2,2_2*%
%TO.N,+5V*%
X150500000Y-107625000D03*
%TD*%
D18*
%TO.P,C53,1,1_1*%
%TO.N,GND*%
X130625000Y-74775000D03*
%TO.P,C53,2,2_2*%
%TO.N,/NRST*%
X132025000Y-74775000D03*
%TD*%
D10*
%TO.P,C85,1,1_1*%
%TO.N,GND*%
X155225000Y-79015000D03*
%TO.P,C85,2,2_2*%
%TO.N,VDDCORE*%
X155225000Y-80415000D03*
%TD*%
D54*
%TO.P,REF\u002A\u002A,1*%
%TO.N,N/C*%
X162600000Y-63625000D03*
X161897056Y-65322056D03*
X161897056Y-61927944D03*
X160200000Y-66025000D03*
D55*
X160200000Y-63625000D03*
D54*
X160200000Y-61225000D03*
X158502944Y-65322056D03*
X158502944Y-61927944D03*
X157800000Y-63625000D03*
%TD*%
D19*
%TO.P,R14,1,1_1*%
%TO.N,/V_ADC*%
X129500000Y-105250000D03*
%TO.P,R14,2,2_2*%
%TO.N,GND*%
X129500000Y-106750000D03*
%TD*%
%TO.P,R4,1,1_1*%
%TO.N,GND*%
X140300000Y-112675000D03*
%TO.P,R4,2,2_2*%
%TO.N,/OV1*%
X140300000Y-111175000D03*
%TD*%
D18*
%TO.P,C56,1,1_1*%
%TO.N,GND*%
X155450000Y-82290000D03*
%TO.P,C56,2,2_2*%
%TO.N,VDDCORE*%
X154050000Y-82290000D03*
%TD*%
D19*
%TO.P,R5,1,1_1*%
%TO.N,+5V*%
X137300000Y-112675000D03*
%TO.P,R5,2,2_2*%
%TO.N,/OV2*%
X137300000Y-111175000D03*
%TD*%
D56*
%TO.P,LED2,1,A_1*%
%TO.N,Net-(LED2-A)*%
X161900000Y-113400000D03*
%TO.P,LED2,2,K_2*%
%TO.N,GND*%
X160400000Y-113400000D03*
%TD*%
D11*
%TO.P,C12,1,1_1*%
%TO.N,GND*%
X160100000Y-120775000D03*
%TO.P,C12,2,2_2*%
%TO.N,+BATT*%
X160100000Y-118775000D03*
%TD*%
D15*
%TO.P,C52,1,1_1*%
%TO.N,GND*%
X147400000Y-95815000D03*
%TO.P,C52,2,2_2*%
%TO.N,/OSC48_OUT*%
X146560000Y-95815000D03*
%TD*%
D57*
%TO.P,R37,1,1_1*%
%TO.N,/XSPI_RESET*%
X131825000Y-87190000D03*
%TO.P,R37,2,2_2*%
%TO.N,VDDA1V8*%
X130325000Y-87190000D03*
%TD*%
D19*
%TO.P,R12,1,1_1*%
%TO.N,+5V*%
X151550000Y-119775000D03*
%TO.P,R12,2,2_2*%
%TO.N,Net-(U7-~{RESET})*%
X151550000Y-121275000D03*
%TD*%
D58*
%TO.P,U5,1,VCC_1*%
%TO.N,VBUS*%
X135755000Y-116025000D03*
%TO.P,U5,2,NC_2*%
%TO.N,unconnected-(U5-NC-Pad2)*%
X136255000Y-116025000D03*
%TO.P,U5,3,IO1_3*%
%TO.N,/D+*%
X136755000Y-116025000D03*
%TO.P,U5,4,GND_4*%
%TO.N,GND*%
X136755000Y-115245000D03*
%TO.P,U5,5,NC_5*%
%TO.N,unconnected-(U5-NC-Pad5)*%
X136255000Y-115245000D03*
%TO.P,U5,6,IO2_6*%
%TO.N,/D-*%
X135755000Y-115245000D03*
%TD*%
D18*
%TO.P,C55,1,1_1*%
%TO.N,GND*%
X143625000Y-93390000D03*
%TO.P,C55,2,2_2*%
%TO.N,VDDIO*%
X145025000Y-93390000D03*
%TD*%
D11*
%TO.P,C9,1,1_1*%
%TO.N,GND*%
X144725000Y-106475000D03*
%TO.P,C9,2,2_2*%
%TO.N,VBUS*%
X144725000Y-108475000D03*
%TD*%
D10*
%TO.P,C89,1,1_1*%
%TO.N,GND*%
X153500000Y-79015000D03*
%TO.P,C89,2,2_2*%
%TO.N,VDDCORE*%
X153500000Y-80415000D03*
%TD*%
D41*
%TO.P,C2,1,1_1*%
%TO.N,GND*%
X136300000Y-95025000D03*
%TO.P,C2,2,2_2*%
%TO.N,VCC*%
X134300000Y-95025000D03*
%TD*%
D18*
%TO.P,C86,1,1_1*%
%TO.N,GND*%
X130500000Y-77165000D03*
%TO.P,C86,2,2_2*%
%TO.N,VDDA1V8*%
X131900000Y-77165000D03*
%TD*%
D10*
%TO.P,C14,1,1_1*%
%TO.N,GND*%
X143300000Y-98750000D03*
%TO.P,C14,2,2_2*%
%TO.N,VDDIO*%
X143300000Y-97350000D03*
%TD*%
D56*
%TO.P,LED5,1,K_1*%
%TO.N,GND*%
X156530000Y-69000000D03*
%TO.P,LED5,2,A_2*%
%TO.N,Net-(LED5-A)*%
X155030000Y-69000000D03*
%TD*%
D10*
%TO.P,C1,1,1_1*%
%TO.N,GND*%
X156250000Y-91215000D03*
%TO.P,C1,2,2_2*%
%TO.N,VCC*%
X156250000Y-92615000D03*
%TD*%
%TO.P,C82,1,1_1*%
%TO.N,GND*%
X147325000Y-75015000D03*
%TO.P,C82,2,2_2*%
%TO.N,VDDA1V8*%
X147325000Y-73615000D03*
%TD*%
D59*
%TO.P,D2,1,K_1*%
%TO.N,/NRST*%
X134225000Y-87215000D03*
D60*
%TO.P,D2,2,A_2*%
%TO.N,/XSPI_RESET*%
X133465000Y-87215000D03*
%TD*%
D11*
%TO.P,C15,1,1_1*%
%TO.N,GND*%
X147237500Y-104362500D03*
%TO.P,C15,2,2_2*%
%TO.N,VDDA1V8*%
X147237500Y-102362500D03*
%TD*%
D45*
%TO.P,C28,1,1_1*%
%TO.N,VCC*%
X137600000Y-106775000D03*
%TO.P,C28,2,2_2*%
%TO.N,GND*%
X137600000Y-103735000D03*
%TD*%
D18*
%TO.P,C58,1,1_1*%
%TO.N,GND*%
X143625000Y-95115000D03*
%TO.P,C58,2,2_2*%
%TO.N,VDDIO*%
X145025000Y-95115000D03*
%TD*%
D19*
%TO.P,R10,1,1_1*%
%TO.N,GND*%
X129000000Y-101600000D03*
%TO.P,R10,2,2_2*%
%TO.N,Net-(U4-FB)*%
X129000000Y-100100000D03*
%TD*%
D12*
%TO.P,CN6,1,1_1*%
%TO.N,+5V*%
X159550000Y-102675000D03*
%TO.P,CN6,2,2_2*%
%TO.N,+3V3*%
X159550000Y-101175000D03*
%TO.P,CN6,3,3_3*%
%TO.N,GND*%
X159550000Y-99675000D03*
D61*
%TO.P,CN6,4,4_4*%
X163300000Y-97725000D03*
%TO.P,CN6,5,5_5*%
X163310000Y-104625000D03*
%TD*%
D18*
%TO.P,C35,1,1_1*%
%TO.N,GND*%
X137050000Y-65940000D03*
%TO.P,C35,2,2_2*%
%TO.N,VDD3V3*%
X138450000Y-65940000D03*
%TD*%
D50*
%TO.P,R7,1,1_1*%
%TO.N,/CC1*%
X135000000Y-113295000D03*
%TO.P,R7,2,2_2*%
%TO.N,GND*%
X135000000Y-111295000D03*
%TD*%
D62*
%TO.P,U4,A1,EN_A1*%
%TO.N,/PWR_ON*%
X131975000Y-99300000D03*
%TO.P,U4,A2,VIN_A2*%
%TO.N,VCC*%
X132375000Y-99300000D03*
%TO.P,U4,B1,PG_B1*%
%TO.N,unconnected-(U4-PG-PadB1)*%
X131975000Y-99700000D03*
%TO.P,U4,B2,SW_B2*%
%TO.N,Net-(U4-SW)*%
X132375000Y-99700000D03*
%TO.P,U4,C1,FB_C1*%
%TO.N,Net-(U4-FB)*%
X131975000Y-100100000D03*
%TO.P,U4,C2,GND_C2*%
%TO.N,GND*%
X132375000Y-100100000D03*
%TD*%
D63*
%TO.P,SW2,1,1_1*%
%TO.N,GND*%
X127600000Y-70125000D03*
%TO.P,SW2,2,2_2*%
%TO.N,unconnected-(SW2-Pad2)*%
X132000000Y-70125000D03*
%TO.P,SW2,3,3_3*%
%TO.N,unconnected-(SW2-Pad3)*%
X127600000Y-72325000D03*
%TO.P,SW2,4,4_4*%
%TO.N,/NRST*%
X132000000Y-72325000D03*
%TD*%
D18*
%TO.P,C7,1,1_1*%
%TO.N,GND*%
X158800000Y-116825000D03*
%TO.P,C7,2,2_2*%
%TO.N,+BATT*%
X160200000Y-116825000D03*
%TD*%
D10*
%TO.P,C17,1,1_1*%
%TO.N,GND*%
X145025000Y-98750000D03*
%TO.P,C17,2,2_2*%
%TO.N,VDDIO*%
X145025000Y-97350000D03*
%TD*%
D64*
%TO.P,X1,1,1_1*%
%TO.N,/OSC32_IN*%
X153975000Y-88866400D03*
%TO.P,X1,2,2_2*%
%TO.N,/OSC32_OUT*%
X153975000Y-90365000D03*
%TD*%
D10*
%TO.P,C10,1,1_1*%
%TO.N,GND*%
X158150000Y-122025000D03*
%TO.P,C10,2,2_2*%
%TO.N,/RT*%
X158150000Y-120625000D03*
%TD*%
D65*
%TO.P,USB1,*%
%TO.N,*%
X131780000Y-112655000D03*
X131780000Y-118435000D03*
D66*
%TO.P,USB1,1,SHELL_1*%
%TO.N,GND*%
X132280000Y-111225000D03*
%TO.P,USB1,2,SHELL_2*%
X132280000Y-119865000D03*
D67*
%TO.P,USB1,3,SHELL_3*%
X128100000Y-119865000D03*
%TO.P,USB1,4,SHELL_4*%
X128100000Y-111225000D03*
D68*
%TO.P,USB1,A1B12,GND_A1B12*%
X132860000Y-112345000D03*
%TO.P,USB1,A4B9,VBUS_A4B9*%
%TO.N,VBUS*%
X132860000Y-113145000D03*
D69*
%TO.P,USB1,A5,CC1_A5*%
%TO.N,/CC1*%
X132860000Y-114295000D03*
%TO.P,USB1,A6,D+_A6*%
%TO.N,/D+*%
X132860000Y-115295000D03*
%TO.P,USB1,A7,D-_A7*%
%TO.N,/D-*%
X132860000Y-115795000D03*
%TO.P,USB1,A8,SBU1_A8*%
%TO.N,unconnected-(USB1-SBU1-PadA8)*%
X132860000Y-116795000D03*
D68*
%TO.P,USB1,B1A12,GND_B1A12*%
%TO.N,GND*%
X132860000Y-118745000D03*
%TO.P,USB1,B4A9,VBUS_B4A9*%
%TO.N,VBUS*%
X132860000Y-117945000D03*
D69*
%TO.P,USB1,B5,CC2_B5*%
%TO.N,/CC2*%
X132860000Y-117295000D03*
%TO.P,USB1,B6,D+_B6*%
%TO.N,/D+*%
X132860000Y-116295000D03*
%TO.P,USB1,B7,D-_B7*%
%TO.N,/D-*%
X132860000Y-114795000D03*
%TO.P,USB1,B8,SBU2_B8*%
%TO.N,unconnected-(USB1-SBU2-PadB8)*%
X132860000Y-113795000D03*
%TD*%
D70*
%TO.P,FPC1,1,1_1*%
%TO.N,GND*%
X152450000Y-64030000D03*
%TO.P,FPC1,2,2_2*%
%TO.N,/CAM_D0_N*%
X151450000Y-64040000D03*
%TO.P,FPC1,3,3_3*%
%TO.N,/CAM_D0_P*%
X150450000Y-64040000D03*
%TO.P,FPC1,4,4_4*%
%TO.N,GND*%
X149450000Y-64040000D03*
%TO.P,FPC1,5,5_5*%
%TO.N,/CAM_D1_N*%
X148450000Y-64040000D03*
%TO.P,FPC1,6,6_6*%
%TO.N,/CAM_D1_P*%
X147450000Y-64040000D03*
%TO.P,FPC1,7,7_7*%
%TO.N,GND*%
X146450000Y-64040000D03*
%TO.P,FPC1,8,8_8*%
%TO.N,/CAM_CK_N*%
X145450000Y-64040000D03*
%TO.P,FPC1,9,9_9*%
%TO.N,/CAM_CK_P*%
X144450000Y-64040000D03*
%TO.P,FPC1,10,10_10*%
%TO.N,GND*%
X143450000Y-64040000D03*
%TO.P,FPC1,11,11_11*%
%TO.N,/CAM_IO0*%
X142450000Y-64040000D03*
%TO.P,FPC1,12,12_12*%
%TO.N,/CAM_IO1*%
X141450000Y-64040000D03*
%TO.P,FPC1,13,13_13*%
%TO.N,/CAM_SCL*%
X140450000Y-64040000D03*
%TO.P,FPC1,14,14_14*%
%TO.N,/CAM_SDA*%
X139450000Y-64040000D03*
%TO.P,FPC1,15,15_15*%
%TO.N,VDD3V3*%
X138450000Y-64040000D03*
D71*
%TO.P,FPC1,16,16_16*%
%TO.N,GND*%
X136050000Y-60780000D03*
%TO.P,FPC1,17,17_17*%
X154850000Y-60780000D03*
%TD*%
D41*
%TO.P,C6,1,1_1*%
%TO.N,GND*%
X136300000Y-97050000D03*
%TO.P,C6,2,2_2*%
%TO.N,VCC*%
X134300000Y-97050000D03*
%TD*%
D14*
%TO.P,R31,1,1_1*%
%TO.N,Net-(LED1-A)*%
X153380000Y-72370000D03*
%TO.P,R31,2,2_2*%
%TO.N,/LED1*%
X152520000Y-72370000D03*
%TD*%
D16*
%TO.P,CN3,0,0_0*%
%TO.N,GND*%
X162690000Y-75000000D03*
X162690000Y-69600000D03*
D17*
%TO.P,CN3,1,1_1*%
%TO.N,/SCL2*%
X159330000Y-73050000D03*
%TO.P,CN3,2,2_2*%
%TO.N,/SDA2*%
X159330000Y-71550000D03*
%TD*%
D11*
%TO.P,C26,1,1_1*%
%TO.N,GND*%
X163600000Y-109675000D03*
%TO.P,C26,2,2_2*%
%TO.N,+5V*%
X163600000Y-107675000D03*
%TD*%
D19*
%TO.P,R9,1,1_1*%
%TO.N,Net-(U4-FB)*%
X130500000Y-100100000D03*
%TO.P,R9,2,2_2*%
%TO.N,VDDCORE*%
X130500000Y-101600000D03*
%TD*%
D10*
%TO.P,C27,1,1_1*%
%TO.N,GND*%
X127900000Y-106700000D03*
%TO.P,C27,2,2_2*%
%TO.N,/V_ADC*%
X127900000Y-105300000D03*
%TD*%
%TO.P,C76,1,1_1*%
%TO.N,GND*%
X154225000Y-75815000D03*
%TO.P,C76,2,2_2*%
%TO.N,VDDA1V8*%
X154225000Y-77215000D03*
%TD*%
D11*
%TO.P,C5,1,1_1*%
%TO.N,GND*%
X162200000Y-120775000D03*
%TO.P,C5,2,2_2*%
%TO.N,+BATT*%
X162200000Y-118775000D03*
%TD*%
D16*
%TO.P,CN5,0,0_0*%
%TO.N,GND*%
X162700000Y-88300000D03*
X162700000Y-82900000D03*
D17*
%TO.P,CN5,1,1_1*%
%TO.N,/UART_RX2*%
X159340000Y-86350000D03*
%TO.P,CN5,2,2_2*%
%TO.N,/UART_TX2*%
X159340000Y-84850000D03*
%TD*%
D56*
%TO.P,LED4,1,A_1*%
%TO.N,Net-(LED4-A)*%
X143230000Y-116600000D03*
%TO.P,LED4,2,K_2*%
%TO.N,GND*%
X144730000Y-116600000D03*
%TD*%
D11*
%TO.P,C22,1,1_1*%
%TO.N,GND*%
X138400000Y-95075000D03*
%TO.P,C22,2,2_2*%
%TO.N,VDDCORE*%
X138400000Y-97075000D03*
%TD*%
D10*
%TO.P,C48,1,1_1*%
%TO.N,GND*%
X150450000Y-94915000D03*
%TO.P,C48,2,2_2*%
%TO.N,VDD3V3*%
X150450000Y-93515000D03*
%TD*%
D54*
%TO.P,REF\u002A\u002A,1*%
%TO.N,N/C*%
X157800000Y-128125000D03*
X158502944Y-126427944D03*
X158502944Y-129822056D03*
X160200000Y-125725000D03*
D55*
X160200000Y-128125000D03*
D54*
X160200000Y-130525000D03*
X161897056Y-126427944D03*
X161897056Y-129822056D03*
X162600000Y-128125000D03*
%TD*%
%TO.P,REF\u002A\u002A,1*%
%TO.N,N/C*%
X128300000Y-128125000D03*
X129002944Y-126427944D03*
X129002944Y-129822056D03*
X130700000Y-125725000D03*
D55*
X130700000Y-128125000D03*
D54*
X130700000Y-130525000D03*
X132397056Y-126427944D03*
X132397056Y-129822056D03*
X133100000Y-128125000D03*
%TD*%
D18*
%TO.P,C87,1,1_1*%
%TO.N,GND*%
X142250000Y-68740000D03*
%TO.P,C87,2,2_2*%
%TO.N,VDDA1V8*%
X140850000Y-68740000D03*
%TD*%
D56*
%TO.P,LED1,1,K_1*%
%TO.N,GND*%
X156530000Y-72370000D03*
%TO.P,LED1,2,A_2*%
%TO.N,Net-(LED1-A)*%
X155030000Y-72370000D03*
%TD*%
D36*
%TO.P,U3,1,OUT_1*%
%TO.N,VDDA1V8*%
X148602500Y-103037500D03*
D37*
%TO.P,U3,2,GND_2*%
%TO.N,GND*%
X148612500Y-103677500D03*
D38*
%TO.P,U3,3,EN_3*%
%TO.N,/PWR_ON*%
X149562500Y-103677500D03*
D39*
%TO.P,U3,4,IN_4*%
%TO.N,VDD3V3*%
X149562500Y-103037500D03*
D40*
%TO.P,U3,5,EP_5*%
%TO.N,GND*%
X149082500Y-103357500D03*
%TD*%
D11*
%TO.P,C34,1,1_1*%
%TO.N,GND*%
X161550000Y-109675000D03*
%TO.P,C34,2,2_2*%
%TO.N,+5V*%
X161550000Y-107675000D03*
%TD*%
D72*
%TO.P,SW1,1,1_1*%
%TO.N,VDDIO*%
X154725000Y-104925000D03*
%TO.P,SW1,2,2_2*%
%TO.N,unconnected-(SW1-Pad2)*%
X154725000Y-100525000D03*
%TO.P,SW1,3,3_3*%
%TO.N,unconnected-(SW1-Pad3)*%
X156925000Y-104925000D03*
%TO.P,SW1,4,4_4*%
%TO.N,/BOOT0*%
X156925000Y-100525000D03*
%TD*%
D16*
%TO.P,CN4,0,0_0*%
%TO.N,GND*%
X162690000Y-81650000D03*
X162690000Y-76250000D03*
D17*
%TO.P,CN4,1,1_1*%
%TO.N,/UART_RX1*%
X159330000Y-79700000D03*
%TO.P,CN4,2,2_2*%
%TO.N,/UART_TX1*%
X159330000Y-78200000D03*
%TD*%
D73*
%TO.P,U13,A2,NC_A2*%
%TO.N,unconnected-(U13-NC-PadA2)*%
X140350000Y-73690000D03*
%TO.P,U13,A3,~{CS}_A3*%
%TO.N,/RAM_CS*%
X140350000Y-72690000D03*
%TO.P,U13,A4,~{RESET}_A4*%
%TO.N,/XSPI_RESET*%
X140350000Y-71690000D03*
%TO.P,U13,A5,RFU_A5*%
%TO.N,unconnected-(U13-RFU-PadA5)*%
X140350000Y-70690000D03*
%TO.P,U13,B1,RFU_B1*%
%TO.N,unconnected-(U13-RFU-PadB1)*%
X141350000Y-74690000D03*
%TO.P,U13,B2,SCLK_B2*%
%TO.N,/OCTOSPI_CLK*%
X141350000Y-73690000D03*
%TO.P,U13,B3,VSS_B3*%
%TO.N,GND*%
X141350000Y-72690000D03*
%TO.P,U13,B4,VCC_B4*%
%TO.N,VDDA1V8*%
X141350000Y-71690000D03*
%TO.P,U13,B5,RFU_B5*%
%TO.N,unconnected-(U13-RFU-PadB5)*%
X141350000Y-70690000D03*
%TO.P,U13,C1,VSSQ_C1*%
%TO.N,GND*%
X142350000Y-74690000D03*
%TO.P,U13,C2,RFU_C2*%
%TO.N,unconnected-(U13-RFU-PadC2)*%
X142350000Y-73690000D03*
%TO.P,U13,C3,DQSM_C3*%
%TO.N,/OCTOSPI_DQS*%
X142350000Y-72690000D03*
%TO.P,U13,C4,SIO2_C4*%
%TO.N,/OCTOSPI_IO2*%
X142350000Y-71690000D03*
%TO.P,U13,C5,RFU_C5*%
%TO.N,unconnected-(U13-RFU-PadC5)*%
X142350000Y-70690000D03*
%TO.P,U13,D1,VCCQ_D1*%
%TO.N,VDDA1V8*%
X143350000Y-74690000D03*
%TO.P,U13,D2,SIO1_D2*%
%TO.N,/OCTOSPI_IO1*%
X143350000Y-73690000D03*
%TO.P,U13,D3,SIO0_D3*%
%TO.N,/OCTOSPI_IO0*%
X143350000Y-72690000D03*
%TO.P,U13,D4,SIO3_D4*%
%TO.N,/OCTOSPI_IO3*%
X143350000Y-71690000D03*
%TO.P,U13,D5,SIO4_D5*%
%TO.N,/OCTOSPI_IO4*%
X143350000Y-70690000D03*
%TO.P,U13,E1,SIO7_E1*%
%TO.N,/OCTOSPI_IO7*%
X144350000Y-74690000D03*
%TO.P,U13,E2,SIO6_E2*%
%TO.N,/OCTOSPI_IO6*%
X144350000Y-73690000D03*
%TO.P,U13,E3,SIO5_E3*%
%TO.N,/OCTOSPI_IO5*%
X144350000Y-72690000D03*
%TO.P,U13,E4,VCCQ_E4*%
%TO.N,VDDA1V8*%
X144350000Y-71690000D03*
%TO.P,U13,E5,VSSQ_E5*%
%TO.N,GND*%
X144350000Y-70690000D03*
%TD*%
D19*
%TO.P,R3,1,1_1*%
%TO.N,VBUS*%
X141800000Y-112675000D03*
%TO.P,R3,2,2_2*%
%TO.N,/OV1*%
X141800000Y-111175000D03*
%TD*%
D56*
%TO.P,LED3,1,K_1*%
%TO.N,GND*%
X156530000Y-70690000D03*
%TO.P,LED3,2,A_2*%
%TO.N,Net-(LED3-A)*%
X155030000Y-70690000D03*
%TD*%
D74*
%TO.N,GND*%
X137600000Y-103735000D03*
X163600000Y-109675000D03*
D75*
X153500000Y-79015000D03*
X147850000Y-84440000D03*
X128750000Y-81090000D03*
X147425000Y-93165000D03*
X143300000Y-98750000D03*
X144350000Y-70690000D03*
D74*
X132860000Y-112345000D03*
D75*
X155350000Y-61240000D03*
X148600000Y-104250000D03*
D74*
X160100000Y-120775000D03*
D75*
X152175000Y-94915000D03*
X160400000Y-113400000D03*
X162690000Y-94950000D03*
X130850000Y-80240000D03*
X140165000Y-106245000D03*
X129000000Y-101600000D03*
X136550000Y-61240000D03*
X159550000Y-99675000D03*
X135975000Y-102175000D03*
X149450000Y-64040000D03*
X128750000Y-85565000D03*
D76*
X142250000Y-68740000D03*
D75*
X141430000Y-114300000D03*
X157840000Y-69990000D03*
X147050000Y-87640000D03*
X135550000Y-61240000D03*
X137680000Y-91800000D03*
X137475000Y-115165000D03*
X163310000Y-104625000D03*
X136525000Y-87725000D03*
X162690000Y-89550000D03*
X143625000Y-93390000D03*
X137200000Y-90500000D03*
X156700000Y-98875000D03*
D74*
X130625000Y-74775000D03*
X159500000Y-109675000D03*
X150500000Y-109625000D03*
X142450000Y-106575000D03*
D75*
X147850000Y-86040000D03*
X140250000Y-83215000D03*
X129500000Y-106750000D03*
X132500000Y-100700000D03*
X134800000Y-72750000D03*
X136300000Y-97050000D03*
D74*
X139790000Y-109710000D03*
X153620000Y-116345000D03*
D75*
X152450000Y-62715000D03*
X148925000Y-93225000D03*
X162700000Y-82900000D03*
X127550000Y-89375000D03*
X137500000Y-76000000D03*
X144175000Y-87015000D03*
X149275000Y-96525000D03*
X144730000Y-116600000D03*
X146220000Y-97790000D03*
X143850000Y-82040000D03*
D74*
X156370000Y-116345000D03*
D75*
X135550000Y-60240000D03*
X146800000Y-69500000D03*
D74*
X162200000Y-120775000D03*
D75*
X154225000Y-75815000D03*
X154350000Y-60240000D03*
X126500000Y-70125000D03*
X148650000Y-82040000D03*
X153900000Y-94915000D03*
X162690000Y-75000000D03*
X155950000Y-75790000D03*
X133500000Y-71700000D03*
X154350000Y-61240000D03*
X156285000Y-79015000D03*
X163300000Y-97725000D03*
X129525000Y-77175000D03*
X136300000Y-95025000D03*
X144925000Y-72365000D03*
X144650000Y-82840000D03*
X136550000Y-60240000D03*
X145220000Y-86100000D03*
X151850000Y-78840000D03*
X133100000Y-68450000D03*
X137050000Y-65940000D03*
X142650000Y-94275000D03*
D76*
X147325000Y-75015000D03*
D75*
X145800000Y-104100000D03*
X157420000Y-73180000D03*
X141770000Y-101200000D03*
X155450000Y-84015000D03*
X155110000Y-94530000D03*
X162690000Y-76250000D03*
X141350000Y-72690000D03*
D74*
X158150000Y-122025000D03*
D75*
X158250000Y-97600000D03*
D74*
X154800000Y-121325000D03*
D75*
X147400000Y-95815000D03*
D74*
X143250000Y-112675000D03*
D75*
X155580000Y-94210000D03*
X140400000Y-95075000D03*
X132850000Y-83240000D03*
D74*
X163450000Y-116825000D03*
D75*
X156490000Y-82290000D03*
X151850000Y-86840000D03*
X152375000Y-83290000D03*
D74*
X135000000Y-111295000D03*
D75*
X151050000Y-87640000D03*
X127900000Y-106700000D03*
X156250000Y-91215000D03*
X152450000Y-75470000D03*
X143450000Y-64040000D03*
X156050000Y-87315000D03*
X144725000Y-106475000D03*
X137020000Y-101790000D03*
X150950000Y-105550000D03*
X162690000Y-69600000D03*
X136375000Y-78890000D03*
X146625000Y-94265000D03*
X146610000Y-84380000D03*
D74*
X132860000Y-118745000D03*
X141850000Y-103675000D03*
D75*
X162690000Y-81650000D03*
D74*
X161550000Y-109675000D03*
D75*
X136050000Y-60740000D03*
X154850000Y-60740000D03*
D74*
X137505000Y-120095000D03*
D75*
X146450000Y-64040000D03*
X159850000Y-97550000D03*
X134850000Y-82240000D03*
X140200000Y-93475000D03*
D74*
X135700000Y-109175000D03*
X148450000Y-109625000D03*
D75*
X155350000Y-60240000D03*
X139490000Y-88790000D03*
X126850000Y-75000000D03*
X156300000Y-90015000D03*
X152450000Y-77190000D03*
X137900000Y-69550000D03*
X156530000Y-69000000D03*
X146250000Y-82840000D03*
X151100000Y-84440000D03*
X146700000Y-97460000D03*
X127550000Y-97775000D03*
X162700000Y-88300000D03*
D74*
X158800000Y-116825000D03*
D75*
X161700000Y-100600000D03*
D74*
X134755000Y-119895000D03*
D75*
X145450000Y-82040000D03*
%TO.N,VDDIO*%
X146250000Y-87640000D03*
X151850000Y-88440000D03*
X145025000Y-97350000D03*
X150675000Y-91240000D03*
X141310000Y-62390000D03*
X140225000Y-89640000D03*
X152975000Y-84865000D03*
X137200000Y-89100000D03*
X154725000Y-104925000D03*
X146250000Y-88440000D03*
%TO.N,+5V*%
X137300000Y-112675000D03*
X138037500Y-108837500D03*
X137700000Y-109175000D03*
X147800000Y-107625000D03*
X148450000Y-107625000D03*
X147200000Y-107625000D03*
%TO.N,/MOSI*%
X131100000Y-94325000D03*
X143500000Y-91225000D03*
%TO.N,/CS*%
X131100000Y-95825000D03*
X141060000Y-88850000D03*
%TO.N,VDDA1V8*%
X128750000Y-82490000D03*
X134850000Y-81240000D03*
X131850000Y-83265000D03*
X143675000Y-75765000D03*
X148650000Y-80440000D03*
X151050000Y-78840000D03*
X144350000Y-71690000D03*
X148650000Y-82840000D03*
X130325000Y-87190000D03*
X137225000Y-85615000D03*
X142250000Y-82040000D03*
X147700000Y-100950000D03*
X131900000Y-77165000D03*
X145210000Y-84380000D03*
X131850000Y-80265000D03*
X147325000Y-73615000D03*
X149870000Y-89650000D03*
X147325000Y-71890000D03*
X154225000Y-77215000D03*
X149900000Y-68000000D03*
%TO.N,VDDCORE*%
X153500000Y-80415000D03*
X154050000Y-84015000D03*
X141875000Y-88825000D03*
X143850000Y-81240000D03*
X140400000Y-97075000D03*
X143050000Y-83640000D03*
X146250000Y-82040000D03*
X148275000Y-83940000D03*
X149450000Y-80440000D03*
%TO.N,/LED3*%
X147850000Y-80440000D03*
X152530000Y-69000000D03*
%TO.N,/SCL1*%
X159330000Y-93000000D03*
X143850000Y-90040000D03*
%TO.N,/SDA1*%
X159330000Y-91500000D03*
X143850000Y-89240000D03*
%TO.N,VDD3V3*%
X149450000Y-91640000D03*
X150937500Y-101012500D03*
X138450000Y-67640000D03*
X126330000Y-91540000D03*
%TO.N,/LED2*%
X152520000Y-70700000D03*
X147850000Y-81240000D03*
%TO.N,+BATT*%
X152875000Y-100225000D03*
D74*
X153580000Y-117705000D03*
D75*
X156750000Y-97600000D03*
X152875000Y-101125000D03*
X152875000Y-102725000D03*
D74*
X156420000Y-117705000D03*
D75*
X152875000Y-101925000D03*
%TO.N,VBUS*%
X135110000Y-116025000D03*
X144725000Y-108475000D03*
D74*
X132860000Y-117945000D03*
X132860000Y-113145000D03*
X144750000Y-112675000D03*
X141800000Y-112725000D03*
D75*
%TO.N,VCC*%
X134300000Y-95025000D03*
X135600000Y-76300000D03*
X134300000Y-97050000D03*
X134300000Y-97550000D03*
X134170000Y-106300000D03*
X134300000Y-96550000D03*
X134170000Y-106800000D03*
X134170000Y-107300000D03*
%TO.N,VDDA1V8_AON*%
X146620000Y-86100000D03*
X151850000Y-91640000D03*
X147850000Y-82040000D03*
X147850000Y-87640000D03*
%TO.N,/OCTOSPI_CLK*%
X140650000Y-81240000D03*
X133850000Y-83240000D03*
X141350000Y-73690000D03*
%TO.N,/FLASH_CS*%
X134335660Y-85450660D03*
X139050000Y-80440000D03*
X133850000Y-82240000D03*
%TO.N,/OCTOSPI_DQS*%
X143350000Y-80040000D03*
X141790000Y-81677000D03*
%TO.N,/OCTOSPI_IO1*%
X133850000Y-81240000D03*
X140650000Y-80440000D03*
D76*
X143350000Y-73690000D03*
D75*
%TO.N,/OCTOSPI_IO0*%
X143350000Y-72690000D03*
X132850000Y-81240000D03*
X141918000Y-77622000D03*
%TO.N,/OCTOSPI_IO3*%
X143350000Y-71690000D03*
X131850000Y-81240000D03*
X139850000Y-80440000D03*
%TO.N,/OCTOSPI_IO4*%
X130850000Y-81240000D03*
X143350000Y-70690000D03*
X139850000Y-81240000D03*
%TO.N,/OCTOSPI_IO7*%
X144350000Y-74690000D03*
X140175000Y-78515000D03*
%TO.N,/OCTOSPI_IO6*%
X144350000Y-73690000D03*
X141170000Y-77000000D03*
%TO.N,/OCTOSPI_IO5*%
X140650000Y-79640000D03*
X132850000Y-80240000D03*
X144350000Y-72690000D03*
%TO.N,/V_ADC*%
X131000000Y-105250000D03*
X145050000Y-79340000D03*
%TO.N,/D-*%
X139065000Y-114385000D03*
X148709529Y-91981837D03*
%TO.N,/D+*%
X149000000Y-91200000D03*
X137910000Y-115620000D03*
%TO.N,Net-(U11B-OTG1_TXRTUNE)*%
X147850000Y-90040000D03*
%TO.N,/UART_TX2*%
X146600000Y-89700000D03*
X159340000Y-84850000D03*
%TO.N,/PWR_ON*%
X149570000Y-104350000D03*
X150650000Y-90400000D03*
X133850000Y-72500000D03*
X131500000Y-99450000D03*
%TO.N,/UART_TX1*%
X152490000Y-79900000D03*
X138539000Y-87700000D03*
X159330000Y-78200000D03*
%TO.N,/NRST*%
X134225000Y-87215000D03*
X150250000Y-86840000D03*
X132025000Y-74775000D03*
%TO.N,/BOOT0*%
X157525000Y-99075000D03*
X150625000Y-88075000D03*
%TO.N,/UART_RX1*%
X138060000Y-88060000D03*
X159330000Y-79700000D03*
%TO.N,Net-(U11B-CSI_REXT)*%
X148650000Y-81240000D03*
%TO.N,/CAM_SDA*%
X139450000Y-64040000D03*
X147050000Y-81240000D03*
%TO.N,/V_ADC2*%
X145750000Y-81500000D03*
X158250000Y-96100000D03*
X152900000Y-85600000D03*
%TO.N,/SDA2*%
X159330000Y-71550000D03*
X145025000Y-80900000D03*
%TO.N,/UART_RX2*%
X159340000Y-86350000D03*
X145025000Y-80100000D03*
%TO.N,/CAM_D1_P*%
X149050000Y-79265000D03*
X147450000Y-64040000D03*
%TO.N,/CAM_D0_P*%
X148405000Y-79395000D03*
X150450000Y-64040000D03*
%TO.N,/CAM_D1_N*%
X149205000Y-78595000D03*
X148450000Y-64040000D03*
%TO.N,/CAM_D0_N*%
X148050000Y-78290000D03*
X151450000Y-64040000D03*
%TO.N,/CAM_SCL*%
X140450000Y-64040000D03*
%TO.N,/LED1*%
X152520000Y-72370000D03*
X144800000Y-77700000D03*
%TO.N,/SCL2*%
X159330000Y-73050000D03*
X143850000Y-78840000D03*
%TO.N,+3V3*%
X159550000Y-101175000D03*
X158950000Y-101175000D03*
X160150000Y-101175000D03*
%TD*%
%TO.N,GND*%
D77*
X147850000Y-82840000D02*
X147050000Y-82040000D01*
X149450000Y-84440000D02*
X151050000Y-84440000D01*
X162690000Y-82890000D02*
X162700000Y-82900000D01*
X137680000Y-91800000D02*
X137710000Y-91830000D01*
X157840000Y-69990000D02*
X157860000Y-69970000D01*
X150450000Y-94915000D02*
X152175000Y-94915000D01*
X137225000Y-87025000D02*
X136525000Y-87725000D01*
X138375000Y-101200000D02*
X140375000Y-101200000D01*
X148612500Y-104237500D02*
X148600000Y-104250000D01*
X137050000Y-67640000D02*
X137050000Y-65940000D01*
X137710000Y-91830000D02*
X138860000Y-91830000D01*
X154815000Y-87315700D02*
X156049300Y-87315700D01*
X141829000Y-74169000D02*
X141829000Y-73169000D01*
X137395000Y-115245000D02*
X137475000Y-115165000D01*
X147325000Y-70490000D02*
X147325000Y-70025000D01*
X145220000Y-86100000D02*
X144910000Y-86100000D01*
X147237500Y-104362500D02*
X146062500Y-104362500D01*
X132500000Y-100700000D02*
X132500000Y-100225000D01*
X151850000Y-84440000D02*
X152375000Y-83915000D01*
X147850000Y-86040000D02*
X148643000Y-86040000D01*
X150937500Y-104362500D02*
X150937500Y-105537500D01*
X141770000Y-101200000D02*
X141790000Y-101200000D01*
X140270000Y-106350000D02*
X140165000Y-106245000D01*
X149275000Y-96525000D02*
X149300000Y-96500000D01*
X155450000Y-82290000D02*
X156490000Y-82290000D01*
X141770000Y-106975000D02*
X142050000Y-106975000D01*
X135975000Y-102175000D02*
X136000000Y-102150000D01*
X141829000Y-73169000D02*
X141350000Y-72690000D01*
X143125000Y-84440000D02*
X143529000Y-84036000D01*
X138860000Y-91830000D02*
X139050000Y-91640000D01*
X147325000Y-70025000D02*
X146800000Y-69500000D01*
X162700000Y-89540000D02*
X162690000Y-89550000D01*
X127600000Y-70125000D02*
X126500000Y-70125000D01*
X151850000Y-86040000D02*
X152300000Y-85590000D01*
X146062500Y-104362500D02*
X145800000Y-104100000D01*
X146250000Y-82840000D02*
X147050000Y-82040000D01*
X132500000Y-100225000D02*
X132375000Y-100100000D01*
X162690000Y-75000000D02*
X162690000Y-76250000D01*
X151050000Y-87640000D02*
X151050000Y-86040000D01*
X148450000Y-97350000D02*
X149275000Y-96525000D01*
X139890000Y-109710000D02*
X140270000Y-109330000D01*
X138825000Y-79065000D02*
X136550000Y-79065000D01*
X144910000Y-86100000D02*
X143250000Y-84440000D01*
X136755000Y-115245000D02*
X137395000Y-115245000D01*
X127550000Y-97775000D02*
X127550000Y-89375000D01*
X148932500Y-103357500D02*
X148612500Y-103677500D01*
X143050000Y-84440000D02*
X143125000Y-84440000D01*
X140375000Y-101200000D02*
X141770000Y-101200000D01*
X152300000Y-84890000D02*
X151850000Y-84440000D01*
X148650000Y-82040000D02*
X147850000Y-82840000D01*
X158600000Y-119275000D02*
X160100000Y-120775000D01*
X140300000Y-113170000D02*
X141430000Y-114300000D01*
X156550000Y-119275000D02*
X158600000Y-119275000D01*
X140200000Y-103725000D02*
X141800000Y-103725000D01*
X139790000Y-109710000D02*
X139890000Y-109710000D01*
X140300000Y-112675000D02*
X140300000Y-113170000D01*
X142050000Y-106975000D02*
X142450000Y-106575000D01*
X149082500Y-103357500D02*
X148932500Y-103357500D01*
X138400000Y-95075000D02*
X140400000Y-95075000D01*
X138400000Y-95075000D02*
X136350000Y-95075000D01*
X162700000Y-88300000D02*
X162700000Y-89540000D01*
X155000000Y-121125000D02*
X154800000Y-121325000D01*
X156530000Y-72370000D02*
X156610000Y-72370000D01*
X134170000Y-103755000D02*
X137580000Y-103755000D01*
X152450000Y-64030000D02*
X152450000Y-62715000D01*
X151050000Y-79640000D02*
X151850000Y-78840000D01*
X134395000Y-103755000D02*
X135975000Y-102175000D01*
X144650000Y-87640000D02*
X143050000Y-87640000D01*
X137785000Y-101790000D02*
X137020000Y-101790000D01*
X148612500Y-103677500D02*
X148612500Y-104237500D01*
X156610000Y-72370000D02*
X157420000Y-73180000D01*
X140270000Y-106975000D02*
X140270000Y-106350000D01*
X143250000Y-84440000D02*
X143050000Y-84440000D01*
X134170000Y-103755000D02*
X134395000Y-103755000D01*
X145025000Y-98750000D02*
X143300000Y-98750000D01*
X141790000Y-101200000D02*
X141800000Y-101190000D01*
X138375000Y-101200000D02*
X137785000Y-101790000D01*
X137580000Y-103755000D02*
X137600000Y-103735000D01*
X156250000Y-91215000D02*
X155515700Y-91215000D01*
X155450000Y-85715000D02*
X155450000Y-84015000D01*
X143050000Y-86840000D02*
X143050000Y-87640000D01*
X129535000Y-77165000D02*
X129525000Y-77175000D01*
X156049300Y-87315700D02*
X156050000Y-87315000D01*
X139050000Y-78840000D02*
X138825000Y-79065000D01*
X144175000Y-87065000D02*
X144650000Y-87540000D01*
X147850000Y-84440000D02*
X148643000Y-84440000D01*
X150937500Y-105537500D02*
X150950000Y-105550000D01*
X143050000Y-82840000D02*
X142250000Y-82840000D01*
X140300000Y-112675000D02*
X138800000Y-112675000D01*
X151100000Y-84440000D02*
X151850000Y-84440000D01*
X147375000Y-85565000D02*
X147375000Y-84915000D01*
X144175000Y-87015000D02*
X144175000Y-87065000D01*
X136550000Y-79065000D02*
X136375000Y-78890000D01*
X151050000Y-84440000D02*
X151100000Y-84440000D01*
X156530000Y-70690000D02*
X157140000Y-70690000D01*
X157140000Y-70690000D02*
X157840000Y-69990000D01*
X147850000Y-86040000D02*
X147375000Y-85565000D01*
X137225000Y-87015000D02*
X137225000Y-87025000D01*
X148425000Y-97350000D02*
X148450000Y-97350000D01*
X143625000Y-93390000D02*
X143625000Y-95115000D01*
X152375000Y-83915000D02*
X152375000Y-83290000D01*
X136350000Y-95075000D02*
X136300000Y-95025000D01*
X151850000Y-86840000D02*
X151050000Y-86840000D01*
X147850000Y-86840000D02*
X147050000Y-87640000D01*
X130500000Y-77165000D02*
X129535000Y-77165000D01*
X143529000Y-84036000D02*
X143529000Y-83319000D01*
X140165000Y-106245000D02*
X140160000Y-106240000D01*
X152300000Y-85590000D02*
X152300000Y-84890000D01*
X141800000Y-103725000D02*
X141850000Y-103675000D01*
X144650000Y-87540000D02*
X144650000Y-87640000D01*
X155000000Y-120305000D02*
X155000000Y-121125000D01*
X142350000Y-74690000D02*
X141829000Y-74169000D01*
X140270000Y-109330000D02*
X140270000Y-109275000D01*
X147375000Y-84915000D02*
X147850000Y-84440000D01*
X155515700Y-91215000D02*
X154815000Y-91915700D01*
X155225000Y-79015000D02*
X156285000Y-79015000D01*
X149450000Y-86040000D02*
X151850000Y-86040000D01*
X162690000Y-81650000D02*
X162690000Y-82890000D01*
X137475000Y-115165000D02*
X137500000Y-115140000D01*
X143529000Y-83319000D02*
X143050000Y-82840000D01*
%TO.N,VDDIO*%
X142378916Y-89640000D02*
X140225000Y-89640000D01*
D78*
X146220000Y-97130000D02*
X145245000Y-97130000D01*
D77*
X142650000Y-89368916D02*
X142378916Y-89640000D01*
X142250000Y-86840000D02*
X142650000Y-87240000D01*
X142650000Y-87240000D02*
X142650000Y-89368916D01*
X145824000Y-92591000D02*
X145824000Y-88866000D01*
X137740000Y-89640000D02*
X140225000Y-89640000D01*
X140650000Y-82840000D02*
X141450000Y-82840000D01*
X145025000Y-95115000D02*
X145025000Y-93390000D01*
X144125000Y-86040000D02*
X145450000Y-87365000D01*
X146250000Y-88440000D02*
X146250000Y-87640000D01*
X142250000Y-83640000D02*
X141450000Y-83640000D01*
X145450000Y-87365000D02*
X145450000Y-87640000D01*
X141450000Y-82840000D02*
X141450000Y-83640000D01*
X137200000Y-89100000D02*
X137740000Y-89640000D01*
X143050000Y-86040000D02*
X144125000Y-86040000D01*
X142250000Y-86840000D02*
X142250000Y-83640000D01*
X143300000Y-97350000D02*
X145025000Y-97350000D01*
X146250000Y-87640000D02*
X145450000Y-87640000D01*
X145025000Y-93390000D02*
X145824000Y-92591000D01*
X142250000Y-86040000D02*
X143050000Y-86040000D01*
X145824000Y-88866000D02*
X146250000Y-88440000D01*
X145450000Y-88440000D02*
X145450000Y-87640000D01*
X143050000Y-86040000D02*
X143050000Y-85240000D01*
X145025000Y-97350000D02*
X145025000Y-95115000D01*
X146250000Y-88440000D02*
X145450000Y-88440000D01*
X143050000Y-85240000D02*
X142250000Y-85240000D01*
D78*
X145245000Y-97130000D02*
X145025000Y-97350000D01*
%TO.N,+5V*%
D79*
X147500000Y-107625000D02*
X146650000Y-108475000D01*
X146650000Y-108475000D02*
X146650000Y-114225000D01*
X139075000Y-109175000D02*
X139775000Y-108475000D01*
X159500000Y-107675000D02*
X155050000Y-107675000D01*
X150500000Y-107625000D02*
X155000000Y-107625000D01*
D77*
X154275000Y-119775000D02*
X154500000Y-120000000D01*
D79*
X155000000Y-108100000D02*
X155000000Y-107625000D01*
X139775000Y-108475000D02*
X140350000Y-108475000D01*
X161100000Y-111900000D02*
X158800000Y-111900000D01*
X146650000Y-114225000D02*
X151550000Y-119125000D01*
X161550000Y-107675000D02*
X159500000Y-107675000D01*
D80*
X159550000Y-107625000D02*
X159500000Y-107675000D01*
D79*
X148450000Y-107625000D02*
X147500000Y-107625000D01*
X137700000Y-109175000D02*
X139075000Y-109175000D01*
D77*
X153450000Y-119775000D02*
X151550000Y-119775000D01*
D79*
X158800000Y-111900000D02*
X155000000Y-108100000D01*
D77*
X153450000Y-119775000D02*
X154275000Y-119775000D01*
D79*
X151550000Y-119125000D02*
X151550000Y-119775000D01*
X148450000Y-107625000D02*
X150500000Y-107625000D01*
D80*
X159550000Y-102675000D02*
X159550000Y-107625000D01*
D79*
X155050000Y-107675000D02*
X155000000Y-107625000D01*
D77*
X154500000Y-120000000D02*
X154500000Y-120375000D01*
%TO.N,/SCK*%
X142631000Y-91259000D02*
X143050000Y-90840000D01*
X131100000Y-91325000D02*
X131166000Y-91259000D01*
X131166000Y-91259000D02*
X142631000Y-91259000D01*
%TO.N,/MISO*%
X131175000Y-92900000D02*
X142590000Y-92900000D01*
X131100000Y-92825000D02*
X131175000Y-92900000D01*
X142590000Y-92900000D02*
X143850000Y-91640000D01*
%TO.N,/MOSI*%
X143500000Y-91190000D02*
X143500000Y-91225000D01*
X143850000Y-90840000D02*
X143500000Y-91190000D01*
%TO.N,/CS*%
X140650000Y-88440000D02*
X141060000Y-88850000D01*
%TO.N,VDDA1V8*%
X149024000Y-83214000D02*
X148650000Y-82840000D01*
X143871000Y-71211000D02*
X144350000Y-71690000D01*
X148650000Y-90040000D02*
X149024000Y-89666000D01*
X140850000Y-71190000D02*
X141350000Y-71690000D01*
X141350000Y-71690000D02*
X141829000Y-71211000D01*
X155950000Y-77190000D02*
X154250000Y-77190000D01*
X151050000Y-75470000D02*
X151050000Y-77190000D01*
X151500000Y-75000000D02*
X151500000Y-69600000D01*
X151050000Y-77190000D02*
X151050000Y-78840000D01*
X143350000Y-74690000D02*
X143350000Y-75440000D01*
X151500000Y-69600000D02*
X149900000Y-68000000D01*
X143350000Y-75440000D02*
X143675000Y-75765000D01*
X141829000Y-71211000D02*
X143871000Y-71211000D01*
X140850000Y-68740000D02*
X140325000Y-68740000D01*
D79*
X147237500Y-101412500D02*
X147700000Y-100950000D01*
D77*
X149024000Y-89666000D02*
X149024000Y-83214000D01*
D81*
X142250000Y-81240000D02*
X142250000Y-82040000D01*
D77*
X151050000Y-75470000D02*
X151050000Y-75450000D01*
X147325000Y-71890000D02*
X147325000Y-73615000D01*
D79*
X147237500Y-102362500D02*
X147237500Y-101412500D01*
D77*
X147300000Y-71690000D02*
X147325000Y-71715000D01*
X140325000Y-68740000D02*
X131900000Y-77165000D01*
X147237500Y-102362500D02*
X147927500Y-102362500D01*
X149040000Y-89650000D02*
X149024000Y-89666000D01*
X128750000Y-84165000D02*
X128750000Y-82490000D01*
X151050000Y-75450000D02*
X151500000Y-75000000D01*
X140850000Y-68740000D02*
X140850000Y-71190000D01*
X154250000Y-77190000D02*
X154225000Y-77215000D01*
X147927500Y-102362500D02*
X148602500Y-103037500D01*
X149870000Y-89650000D02*
X149040000Y-89650000D01*
%TO.N,VDDCORE*%
D79*
X135250000Y-101725000D02*
X136425000Y-100550000D01*
D77*
X138375000Y-99200000D02*
X136925000Y-99200000D01*
X153500000Y-81740000D02*
X154050000Y-82290000D01*
X138400000Y-97075000D02*
X138400000Y-99175000D01*
X144375000Y-83365000D02*
X145925000Y-83365000D01*
X143850000Y-82840000D02*
X144375000Y-83365000D01*
D78*
X143050000Y-82040000D02*
X143850000Y-81240000D01*
D79*
X130500000Y-101600000D02*
X130625000Y-101725000D01*
D77*
X145450000Y-82840000D02*
X145950000Y-83340000D01*
X145450000Y-82840000D02*
X146250000Y-82040000D01*
X154050000Y-82290000D02*
X154050000Y-84015000D01*
X148150000Y-83940000D02*
X147850000Y-83640000D01*
X146550000Y-83340000D02*
X147050000Y-82840000D01*
X145950000Y-83340000D02*
X146550000Y-83340000D01*
X140400000Y-97075000D02*
X140400000Y-99175000D01*
X153500000Y-80415000D02*
X153500000Y-81740000D01*
X140400000Y-97075000D02*
X138400000Y-97075000D01*
D79*
X136425000Y-100550000D02*
X136425000Y-99700000D01*
D77*
X147850000Y-83640000D02*
X147050000Y-82840000D01*
X136925000Y-99200000D02*
X136425000Y-99700000D01*
X140400000Y-99175000D02*
X140375000Y-99200000D01*
X138400000Y-99175000D02*
X138375000Y-99200000D01*
X145925000Y-83365000D02*
X145950000Y-83340000D01*
D79*
X130625000Y-101725000D02*
X135250000Y-101725000D01*
D77*
X144650000Y-82040000D02*
X145450000Y-82840000D01*
X148275000Y-83940000D02*
X148150000Y-83940000D01*
X155225000Y-80415000D02*
X153500000Y-80415000D01*
X140375000Y-99200000D02*
X138375000Y-99200000D01*
%TO.N,Net-(LED5-A)*%
D79*
X153390000Y-69000000D02*
X155030000Y-69000000D01*
%TO.N,/OSC32_OUT*%
D77*
X152175000Y-90365000D02*
X153975000Y-90365000D01*
X151850000Y-90040000D02*
X152175000Y-90365000D01*
X153975000Y-91915700D02*
X153975000Y-90365000D01*
%TO.N,VDD3V3*%
X138450000Y-64040000D02*
X138450000Y-67640000D01*
D79*
X149450000Y-92350000D02*
X150450000Y-93350000D01*
X150450000Y-93350000D02*
X150450000Y-93515000D01*
D77*
X149562500Y-103037500D02*
X150262500Y-103037500D01*
X150262500Y-103037500D02*
X150937500Y-102362500D01*
D79*
X149450000Y-91640000D02*
X149450000Y-92350000D01*
X150937500Y-102362500D02*
X150937500Y-101012500D01*
%TO.N,Net-(LED3-A)*%
X155020000Y-70700000D02*
X155030000Y-70690000D01*
X153380000Y-70700000D02*
X155020000Y-70700000D01*
%TO.N,/PR1*%
D77*
X143250000Y-111175000D02*
X144750000Y-111175000D01*
X143250000Y-110755000D02*
X141770000Y-109275000D01*
X143250000Y-111175000D02*
X143250000Y-110755000D01*
%TO.N,+BATT*%
D82*
X160073000Y-118748000D02*
X156577000Y-118748000D01*
D79*
X162200000Y-118775000D02*
X160100000Y-118775000D01*
X160200000Y-118675000D02*
X160100000Y-118775000D01*
D82*
X156420000Y-117705000D02*
X156420000Y-118645000D01*
D79*
X162050000Y-116825000D02*
X160200000Y-116825000D01*
X162050000Y-118625000D02*
X162200000Y-118775000D01*
X160200000Y-116825000D02*
X160200000Y-118675000D01*
D82*
X156420000Y-118645000D02*
X156550000Y-118775000D01*
D79*
X162050000Y-116825000D02*
X162050000Y-118625000D01*
D82*
X160100000Y-118775000D02*
X160073000Y-118748000D01*
X156577000Y-118748000D02*
X156550000Y-118775000D01*
%TO.N,/CB*%
D77*
X153000000Y-118775000D02*
X150650000Y-116425000D01*
X153450000Y-119275000D02*
X153450000Y-118775000D01*
X153450000Y-118775000D02*
X153000000Y-118775000D01*
X150650000Y-116425000D02*
X150650000Y-114575000D01*
%TO.N,/RT*%
X155725000Y-119775000D02*
X156550000Y-119775000D01*
X156550000Y-119775000D02*
X157500000Y-119775000D01*
X155500000Y-121525000D02*
X155100000Y-121925000D01*
X158150000Y-120425000D02*
X158150000Y-120625000D01*
X157500000Y-119775000D02*
X158150000Y-120425000D01*
X155500000Y-120000000D02*
X155725000Y-119775000D01*
X155500000Y-120375000D02*
X155500000Y-121525000D01*
X155100000Y-121925000D02*
X154250000Y-121925000D01*
X153600000Y-121275000D02*
X153600000Y-120425000D01*
X154250000Y-121925000D02*
X153600000Y-121275000D01*
X155500000Y-120375000D02*
X155500000Y-120000000D01*
%TO.N,Net-(U7-~{RESET})*%
X156400000Y-120425000D02*
X156400000Y-121625000D01*
X155600000Y-122425000D02*
X152700000Y-122425000D01*
X152700000Y-122425000D02*
X151550000Y-121275000D01*
X156400000Y-121625000D02*
X155600000Y-122425000D01*
%TO.N,Net-(U7-SW)*%
D79*
X150700000Y-113225000D02*
X150650000Y-113175000D01*
X155000000Y-113225000D02*
X155000000Y-117295000D01*
X155000000Y-113225000D02*
X150700000Y-113225000D01*
%TO.N,Net-(LED4-A)*%
X143270000Y-116560000D02*
X143230000Y-116600000D01*
X143270000Y-115100000D02*
X143270000Y-116560000D01*
%TO.N,VBUS*%
D82*
X131255000Y-116849340D02*
X132350660Y-117945000D01*
D79*
X144130000Y-115100000D02*
X144130000Y-113855000D01*
D82*
X132355000Y-113145000D02*
X131255000Y-114245000D01*
D79*
X141800000Y-112675000D02*
X141800000Y-112725000D01*
X144130000Y-113855000D02*
X144100000Y-113825000D01*
X141700000Y-108475000D02*
X144725000Y-108475000D01*
D82*
X132350660Y-117945000D02*
X132860000Y-117945000D01*
D79*
X141800000Y-112725000D02*
X141800000Y-113225000D01*
X141800000Y-113225000D02*
X142400000Y-113825000D01*
X142400000Y-113825000D02*
X144100000Y-113825000D01*
D77*
X135110000Y-116025000D02*
X135075000Y-116025000D01*
D82*
X134755000Y-118395000D02*
X134305000Y-117945000D01*
D79*
X144750000Y-113175000D02*
X144750000Y-112675000D01*
D82*
X131255000Y-114245000D02*
X131255000Y-116849340D01*
X132860000Y-113145000D02*
X132355000Y-113145000D01*
D79*
X144100000Y-113825000D02*
X144750000Y-113175000D01*
D77*
X135755000Y-116025000D02*
X135110000Y-116025000D01*
D82*
X134305000Y-117945000D02*
X132860000Y-117945000D01*
%TO.N,Net-(U4-SW)*%
D77*
X132375000Y-99700000D02*
X134125000Y-99700000D01*
%TO.N,Net-(U6-ILM)*%
X141850000Y-105175000D02*
X141270000Y-105755000D01*
X141270000Y-105755000D02*
X141270000Y-106975000D01*
%TO.N,VCC*%
D79*
X134170000Y-106795000D02*
X137580000Y-106795000D01*
X141700000Y-107775000D02*
X142325000Y-107775000D01*
X143350000Y-106750000D02*
X143350000Y-103825000D01*
X148425000Y-98750000D02*
X148130000Y-98750000D01*
D77*
X156060000Y-94530000D02*
X156220025Y-94369975D01*
D78*
X147339976Y-97289976D02*
X147339976Y-97620024D01*
X147339976Y-97620024D02*
X147170000Y-97790000D01*
D79*
X134125000Y-106750000D02*
X134170000Y-106795000D01*
D77*
X156250000Y-93700000D02*
X156060000Y-93890000D01*
D79*
X139795000Y-107775000D02*
X140350000Y-107775000D01*
D77*
X133650000Y-97050000D02*
X134300000Y-97050000D01*
X134300000Y-95025000D02*
X134300000Y-97050000D01*
D79*
X138795000Y-106775000D02*
X139795000Y-107775000D01*
D78*
X147180000Y-97130000D02*
X147339976Y-97289976D01*
D77*
X132375000Y-98325000D02*
X133650000Y-97050000D01*
D79*
X152900000Y-98750000D02*
X156050000Y-95600000D01*
X142325000Y-107775000D02*
X143350000Y-106750000D01*
X137580000Y-106795000D02*
X137600000Y-106775000D01*
X140350000Y-107775000D02*
X141700000Y-107775000D01*
X131000000Y-106750000D02*
X134125000Y-106750000D01*
X137600000Y-106775000D02*
X138795000Y-106775000D01*
X148425000Y-98750000D02*
X152900000Y-98750000D01*
X156050000Y-94612570D02*
X156096285Y-94566285D01*
D77*
X132375000Y-99300000D02*
X132375000Y-98325000D01*
X156250000Y-92615000D02*
X156250000Y-93700000D01*
D79*
X156050000Y-95600000D02*
X156050000Y-94612570D01*
D77*
X156220025Y-94050025D02*
X156060000Y-93890000D01*
D79*
X148130000Y-98750000D02*
X147195678Y-97815678D01*
X143350000Y-103825000D02*
X148425000Y-98750000D01*
D77*
X156220025Y-94369975D02*
X156220025Y-94050025D01*
%TO.N,VDDA1V8_AON*%
D79*
X151850000Y-91640000D02*
X151850000Y-93190000D01*
X153900000Y-93515000D02*
X154725000Y-93515000D01*
X151850000Y-93190000D02*
X152175000Y-93515000D01*
X154725000Y-93515000D02*
X155063715Y-93853715D01*
X152175000Y-93515000D02*
X153900000Y-93515000D01*
%TO.N,Net-(LED2-A)*%
X161960000Y-113340000D02*
X161900000Y-113400000D01*
X161960000Y-111900000D02*
X161960000Y-113340000D01*
%TO.N,/OSC48_IN*%
D77*
X147050000Y-91640000D02*
X148050000Y-92640000D01*
X148050000Y-92640000D02*
X148050000Y-93640000D01*
X148725000Y-94265000D02*
X148925000Y-94065000D01*
X147425000Y-94265000D02*
X148725000Y-94265000D01*
X148050000Y-93640000D02*
X147425000Y-94265000D01*
%TO.N,/XSPI_RESET*%
X131835000Y-87200000D02*
X131825000Y-87190000D01*
X139260000Y-71690000D02*
X140350000Y-71690000D01*
X131825000Y-87190000D02*
X133440000Y-87190000D01*
X131371000Y-83761000D02*
X131371000Y-79579000D01*
X131825000Y-87190000D02*
X131825000Y-84265000D01*
X133440000Y-87190000D02*
X133465000Y-87215000D01*
X131371000Y-79579000D02*
X139260000Y-71690000D01*
X131850000Y-84240000D02*
X131371000Y-83761000D01*
X131825000Y-84265000D02*
X131850000Y-84240000D01*
%TO.N,/OCTOSPI_DQS*%
D81*
X135866237Y-81790000D02*
X135495410Y-81790000D01*
X132850000Y-82195000D02*
X132850000Y-82240000D01*
X143781200Y-77136363D02*
X143508800Y-77136363D01*
X137232437Y-81458800D02*
X137232437Y-81790000D01*
X136222637Y-81340000D02*
X136163237Y-81340000D01*
X137529437Y-81908800D02*
X137529437Y-81790000D01*
X139487000Y-81677000D02*
X141790000Y-81677000D01*
X142998800Y-76839363D02*
X143271200Y-76839363D01*
X143508800Y-77433363D02*
X143781200Y-77433363D01*
X135495410Y-81790000D02*
X133255000Y-81790000D01*
X137529437Y-82121200D02*
X137529437Y-81908800D01*
X136341437Y-82121200D02*
X136341437Y-81790000D01*
X143390000Y-76720563D02*
X143390000Y-76661163D01*
X137529437Y-81790000D02*
X137529437Y-81458800D01*
X136935437Y-82121200D02*
X136935437Y-81790000D01*
X136638437Y-81458800D02*
X136638437Y-81790000D01*
X142787000Y-75702000D02*
X142787000Y-73127000D01*
X141790000Y-81677000D02*
X141817000Y-81677000D01*
X137113637Y-82240000D02*
X137054237Y-82240000D01*
X143390000Y-76661163D02*
X143390000Y-76442611D01*
X133255000Y-81790000D02*
X132850000Y-82195000D01*
X143390000Y-80000000D02*
X143390000Y-78146163D01*
X135925637Y-81790000D02*
X135866237Y-81790000D01*
X136816637Y-81340000D02*
X136757237Y-81340000D01*
X143271200Y-77136363D02*
X142998800Y-77136363D01*
X136044437Y-81458800D02*
X136044437Y-81671200D01*
X136341437Y-81671200D02*
X136341437Y-81458800D01*
X137410637Y-81340000D02*
X137351237Y-81340000D01*
X143900000Y-77314563D02*
X143900000Y-77255163D01*
X137707637Y-82240000D02*
X137648237Y-82240000D01*
X143508800Y-77136363D02*
X143271200Y-77136363D01*
X136341437Y-81790000D02*
X136341437Y-81671200D01*
X139050000Y-81350000D02*
X138610000Y-81790000D01*
X143390000Y-76442611D02*
X143390000Y-76305000D01*
X143508800Y-78027363D02*
X143781200Y-78027363D01*
X136519637Y-82240000D02*
X136460237Y-82240000D01*
X141817000Y-81677000D02*
X141820000Y-81680000D01*
X143390000Y-76305000D02*
X142787000Y-75702000D01*
X137826437Y-81908800D02*
X137826437Y-82121200D01*
X143900000Y-77908563D02*
X143900000Y-77849163D01*
X142787000Y-73127000D02*
X142350000Y-72690000D01*
X142880000Y-77017563D02*
X142880000Y-76958163D01*
X139050000Y-81240000D02*
X139487000Y-81677000D01*
X143350000Y-80040000D02*
X143390000Y-80000000D01*
X143781200Y-77730363D02*
X143508800Y-77730363D01*
X138610000Y-81790000D02*
X137945237Y-81790000D01*
X137232437Y-81790000D02*
X137232437Y-82121200D01*
X139050000Y-81350000D02*
X139050000Y-81240000D01*
X143390000Y-77611563D02*
X143390000Y-77552163D01*
X136935437Y-81790000D02*
X136935437Y-81458800D01*
X136638437Y-81790000D02*
X136638437Y-82121200D01*
X137351237Y-81340000D02*
G75*
G03*
X137232400Y-81458800I-37J-118800D01*
G01*
X136163237Y-81340000D02*
G75*
G03*
X136044400Y-81458800I-37J-118800D01*
G01*
X137529437Y-81458800D02*
G75*
G03*
X137410637Y-81339963I-118837J0D01*
G01*
X143271200Y-76839363D02*
G75*
G03*
X143389963Y-76720563I0J118763D01*
G01*
X137648237Y-82240000D02*
G75*
G02*
X137529400Y-82121200I-37J118800D01*
G01*
X136757237Y-81340000D02*
G75*
G03*
X136638400Y-81458800I-37J-118800D01*
G01*
X143390000Y-78146163D02*
G75*
G02*
X143508800Y-78027400I118800J-37D01*
G01*
X136638437Y-82121200D02*
G75*
G02*
X136519637Y-82240037I-118837J0D01*
G01*
X143900000Y-77255163D02*
G75*
G03*
X143781200Y-77136400I-118800J-37D01*
G01*
X143390000Y-77552163D02*
G75*
G02*
X143508800Y-77433400I118800J-37D01*
G01*
X142998800Y-77136363D02*
G75*
G02*
X142880037Y-77017563I0J118763D01*
G01*
X143781200Y-77433363D02*
G75*
G03*
X143899963Y-77314563I0J118763D01*
G01*
X143781200Y-78027363D02*
G75*
G03*
X143899963Y-77908563I0J118763D01*
G01*
X137826437Y-82121200D02*
G75*
G02*
X137707637Y-82240037I-118837J0D01*
G01*
X136935437Y-81458800D02*
G75*
G03*
X136816637Y-81339963I-118837J0D01*
G01*
X136341437Y-81458800D02*
G75*
G03*
X136222637Y-81339963I-118837J0D01*
G01*
X137945237Y-81790000D02*
G75*
G03*
X137826400Y-81908800I-37J-118800D01*
G01*
X136460237Y-82240000D02*
G75*
G02*
X136341400Y-82121200I-37J118800D01*
G01*
X136044437Y-81671200D02*
G75*
G02*
X135925637Y-81790037I-118837J0D01*
G01*
X143508800Y-77730363D02*
G75*
G02*
X143390037Y-77611563I0J118763D01*
G01*
X137232437Y-82121200D02*
G75*
G02*
X137113637Y-82240037I-118837J0D01*
G01*
X137054237Y-82240000D02*
G75*
G02*
X136935400Y-82121200I-37J118800D01*
G01*
X142880000Y-76958163D02*
G75*
G02*
X142998800Y-76839400I118800J-37D01*
G01*
X143900000Y-77849163D02*
G75*
G03*
X143781200Y-77730400I-118800J-37D01*
G01*
%TO.N,/OCTOSPI_IO2*%
X137042573Y-82834300D02*
X137042573Y-83071200D01*
X135973373Y-83190000D02*
X135769498Y-83190000D01*
X137042573Y-83190000D02*
X137042573Y-83545700D01*
X144050000Y-82490000D02*
X144300000Y-82240000D01*
X136745573Y-83545700D02*
X136745573Y-83190000D01*
X134987000Y-82677000D02*
X132487000Y-82677000D01*
X136745573Y-83190000D02*
X136745573Y-82834300D01*
X132050000Y-82240000D02*
X131850000Y-82240000D01*
X143475000Y-72190000D02*
X142850000Y-72190000D01*
X137220773Y-82715500D02*
X137161373Y-82715500D01*
X139500000Y-82490000D02*
X144050000Y-82490000D01*
X137042573Y-83071200D02*
X137042573Y-83190000D01*
X137700000Y-83190000D02*
X137458373Y-83190000D01*
X136448573Y-82834300D02*
X136448573Y-83190000D01*
X136448573Y-83190000D02*
X136448573Y-83308800D01*
X143900000Y-74940000D02*
X143900000Y-72615000D01*
X144300000Y-75340000D02*
X143900000Y-74940000D01*
X138850000Y-82040000D02*
X139050000Y-82040000D01*
X136626773Y-82715500D02*
X136567373Y-82715500D01*
X137339573Y-83071200D02*
X137339573Y-82834300D01*
X136329773Y-83664500D02*
X136270373Y-83664500D01*
X135500000Y-83190000D02*
X134987000Y-82677000D01*
X135769498Y-83190000D02*
X135500000Y-83190000D01*
X136923773Y-83664500D02*
X136864373Y-83664500D01*
X143900000Y-72615000D02*
X143475000Y-72190000D01*
X142850000Y-72190000D02*
X142350000Y-71690000D01*
X138850000Y-82040000D02*
X137700000Y-83190000D01*
X144300000Y-82240000D02*
X144300000Y-75340000D01*
X132487000Y-82677000D02*
X132050000Y-82240000D01*
X136448573Y-83308800D02*
X136448573Y-83545700D01*
X136032773Y-83190000D02*
X135973373Y-83190000D01*
X136151573Y-83545700D02*
X136151573Y-83308800D01*
X139050000Y-82040000D02*
X139500000Y-82490000D01*
X136448573Y-83545700D02*
G75*
G02*
X136329773Y-83664473I-118773J0D01*
G01*
X136864373Y-83664500D02*
G75*
G02*
X136745600Y-83545700I27J118800D01*
G01*
X136151573Y-83308800D02*
G75*
G03*
X136032773Y-83190027I-118773J0D01*
G01*
X137161373Y-82715500D02*
G75*
G03*
X137042600Y-82834300I27J-118800D01*
G01*
X136270373Y-83664500D02*
G75*
G02*
X136151600Y-83545700I27J118800D01*
G01*
X136567373Y-82715500D02*
G75*
G03*
X136448600Y-82834300I27J-118800D01*
G01*
X137458373Y-83190000D02*
G75*
G02*
X137339600Y-83071200I27J118800D01*
G01*
X137339573Y-82834300D02*
G75*
G03*
X137220773Y-82715527I-118773J0D01*
G01*
X137042573Y-83545700D02*
G75*
G02*
X136923773Y-83664473I-118773J0D01*
G01*
X136745573Y-82834300D02*
G75*
G03*
X136626773Y-82715527I-118773J0D01*
G01*
%TO.N,/OCTOSPI_IO0*%
X136399002Y-80596200D02*
X136399002Y-80169800D01*
X137587002Y-80596200D02*
X137587002Y-80169800D01*
X141569519Y-79190000D02*
X141918000Y-78841519D01*
X139500000Y-79190000D02*
X141569519Y-79190000D01*
X136696002Y-80169800D02*
X136696002Y-80596200D01*
X135508002Y-80169800D02*
X135508002Y-80596200D01*
X137171202Y-80715000D02*
X137111802Y-80715000D01*
X137468202Y-80051000D02*
X137408802Y-80051000D01*
X137290002Y-80169800D02*
X137290002Y-80596200D01*
X135389202Y-80715000D02*
X135329802Y-80715000D01*
X136102002Y-80169800D02*
X136102002Y-80596200D01*
X137975000Y-80715000D02*
X137705802Y-80715000D01*
X135263917Y-80715000D02*
X133375000Y-80715000D01*
X136577202Y-80715000D02*
X136517802Y-80715000D01*
X135329802Y-80715000D02*
X135263917Y-80715000D01*
X136280202Y-80051000D02*
X136220802Y-80051000D01*
X136993002Y-80596200D02*
X136993002Y-80169800D01*
X135805002Y-80596200D02*
X135805002Y-80169800D01*
X133375000Y-80715000D02*
X132850000Y-81240000D01*
X136874202Y-80051000D02*
X136814802Y-80051000D01*
X139050000Y-79640000D02*
X139500000Y-79190000D01*
X137975000Y-80715000D02*
X139050000Y-79640000D01*
X141918000Y-78841519D02*
X141918000Y-77622000D01*
X135686202Y-80051000D02*
X135626802Y-80051000D01*
X135983202Y-80715000D02*
X135923802Y-80715000D01*
X136220802Y-80051000D02*
G75*
G03*
X136102000Y-80169800I-2J-118800D01*
G01*
X136814802Y-80051000D02*
G75*
G03*
X136696000Y-80169800I-2J-118800D01*
G01*
X135923802Y-80715000D02*
G75*
G02*
X135805000Y-80596200I-2J118800D01*
G01*
X137587002Y-80169800D02*
G75*
G03*
X137468202Y-80050998I-118802J0D01*
G01*
X137111802Y-80715000D02*
G75*
G02*
X136993000Y-80596200I-2J118800D01*
G01*
X136993002Y-80169800D02*
G75*
G03*
X136874202Y-80050998I-118802J0D01*
G01*
X137705802Y-80715000D02*
G75*
G02*
X137587000Y-80596200I-2J118800D01*
G01*
X136102002Y-80596200D02*
G75*
G02*
X135983202Y-80715002I-118802J0D01*
G01*
X135508002Y-80596200D02*
G75*
G02*
X135389202Y-80715002I-118802J0D01*
G01*
X136517802Y-80715000D02*
G75*
G02*
X136399000Y-80596200I-2J118800D01*
G01*
X137408802Y-80051000D02*
G75*
G03*
X137290000Y-80169800I-2J-118800D01*
G01*
X136399002Y-80169800D02*
G75*
G03*
X136280202Y-80050998I-118802J0D01*
G01*
X137290002Y-80596200D02*
G75*
G02*
X137171202Y-80715002I-118802J0D01*
G01*
X135626802Y-80051000D02*
G75*
G03*
X135508000Y-80169800I-2J-118800D01*
G01*
X135805002Y-80169800D02*
G75*
G03*
X135686202Y-80050998I-118802J0D01*
G01*
X136696002Y-80596200D02*
G75*
G02*
X136577202Y-80715002I-118802J0D01*
G01*
%TO.N,/OCTOSPI_IO7*%
X136221698Y-78090000D02*
X135300000Y-78090000D01*
X138086716Y-78371200D02*
X138086716Y-78208800D01*
X138086716Y-78090000D02*
X138086716Y-77808800D01*
X136898716Y-78090000D02*
X136898716Y-77971200D01*
X136601716Y-77808800D02*
X136601716Y-77971200D01*
X137789716Y-78090000D02*
X137789716Y-78371200D01*
X139850000Y-78715000D02*
X139225000Y-78090000D01*
X137670916Y-78490000D02*
X137611516Y-78490000D01*
X138264916Y-78490000D02*
X138205516Y-78490000D01*
X137195716Y-78090000D02*
X137195716Y-78371200D01*
X135300000Y-78090000D02*
X134850000Y-78540000D01*
X136779916Y-77690000D02*
X136720516Y-77690000D01*
X136898716Y-78371200D02*
X136898716Y-78090000D01*
X136898716Y-77971200D02*
X136898716Y-77808800D01*
X137789716Y-77808800D02*
X137789716Y-78090000D01*
X136482916Y-78090000D02*
X136423516Y-78090000D01*
X136423516Y-78090000D02*
X136221698Y-78090000D01*
X137492716Y-78371200D02*
X137492716Y-78090000D01*
X134850000Y-78540000D02*
X134850000Y-80240000D01*
X137373916Y-77690000D02*
X137314516Y-77690000D01*
X138383716Y-78208800D02*
X138383716Y-78371200D01*
X139850000Y-78715000D02*
X139850000Y-78840000D01*
X137492716Y-78090000D02*
X137492716Y-77808800D01*
X137195716Y-77808800D02*
X137195716Y-78090000D01*
X139225000Y-78090000D02*
X138502516Y-78090000D01*
X137967916Y-77690000D02*
X137908516Y-77690000D01*
X137076916Y-78490000D02*
X137017516Y-78490000D01*
X138086716Y-78208800D02*
X138086716Y-78090000D01*
X139850000Y-78840000D02*
X140175000Y-78515000D01*
X138086716Y-77808800D02*
G75*
G03*
X137967916Y-77689984I-118816J0D01*
G01*
X137195716Y-78371200D02*
G75*
G02*
X137076916Y-78490016I-118816J0D01*
G01*
X137314516Y-77690000D02*
G75*
G03*
X137195700Y-77808800I-16J-118800D01*
G01*
X137789716Y-78371200D02*
G75*
G02*
X137670916Y-78490016I-118816J0D01*
G01*
X137017516Y-78490000D02*
G75*
G02*
X136898700Y-78371200I-16J118800D01*
G01*
X137611516Y-78490000D02*
G75*
G02*
X137492700Y-78371200I-16J118800D01*
G01*
X136720516Y-77690000D02*
G75*
G03*
X136601700Y-77808800I-16J-118800D01*
G01*
X138383716Y-78371200D02*
G75*
G02*
X138264916Y-78490016I-118816J0D01*
G01*
X136898716Y-77808800D02*
G75*
G03*
X136779916Y-77689984I-118816J0D01*
G01*
X136601716Y-77971200D02*
G75*
G02*
X136482916Y-78090016I-118816J0D01*
G01*
X138502516Y-78090000D02*
G75*
G03*
X138383700Y-78208800I-16J-118800D01*
G01*
X137492716Y-77808800D02*
G75*
G03*
X137373916Y-77689984I-118816J0D01*
G01*
X138205516Y-78490000D02*
G75*
G02*
X138086700Y-78371200I-16J118800D01*
G01*
X137908516Y-77690000D02*
G75*
G03*
X137789700Y-77808800I-16J-118800D01*
G01*
%TO.N,/OCTOSPI_IO6*%
X141170000Y-78320000D02*
X140650000Y-78840000D01*
X135524557Y-77140000D02*
X135465157Y-77140000D01*
X135465157Y-77140000D02*
X135336017Y-77140000D01*
X135940357Y-77258800D02*
X135940357Y-77521200D01*
X135821557Y-77640000D02*
X135762157Y-77640000D01*
X136059157Y-77140000D02*
X139825000Y-77140000D01*
X133850000Y-78090000D02*
X133850000Y-80240000D01*
X135643357Y-77521200D02*
X135643357Y-77258800D01*
X135336017Y-77140000D02*
X134800000Y-77140000D01*
X139825000Y-77140000D02*
X140650000Y-77965000D01*
X140650000Y-77965000D02*
X140650000Y-78840000D01*
X134800000Y-77140000D02*
X133850000Y-78090000D01*
X141170000Y-77000000D02*
X141170000Y-78320000D01*
X135643357Y-77258800D02*
G75*
G03*
X135524557Y-77140043I-118757J0D01*
G01*
X135940357Y-77521200D02*
G75*
G02*
X135821557Y-77639957I-118757J0D01*
G01*
X136059157Y-77140000D02*
G75*
G03*
X135940400Y-77258800I43J-118800D01*
G01*
X135762157Y-77640000D02*
G75*
G02*
X135643400Y-77521200I43J118800D01*
G01*
%TO.N,/V_ADC*%
D77*
X145050000Y-79340000D02*
X145050000Y-79240000D01*
X145050000Y-79240000D02*
X144650000Y-78840000D01*
X131000000Y-105250000D02*
X127950000Y-105250000D01*
X127950000Y-105250000D02*
X127900000Y-105300000D01*
%TO.N,/OV2*%
X138800000Y-110880000D02*
X138800000Y-111175000D01*
X140770000Y-109680000D02*
X140090000Y-110360000D01*
X138800000Y-111175000D02*
X137300000Y-111175000D01*
X139320000Y-110360000D02*
X138800000Y-110880000D01*
X140770000Y-109275000D02*
X140770000Y-109680000D01*
X140090000Y-110360000D02*
X139320000Y-110360000D01*
%TO.N,/OV1*%
X141270000Y-110645000D02*
X141270000Y-109275000D01*
X140300000Y-111175000D02*
X141800000Y-111175000D01*
X141800000Y-111175000D02*
X141270000Y-110645000D01*
%TO.N,Net-(U6-SS)*%
X140770000Y-106975000D02*
X140770000Y-105695000D01*
X140770000Y-105695000D02*
X140200000Y-105125000D01*
%TO.N,/CC2*%
X136705000Y-117295000D02*
X137505000Y-118095000D01*
X132860000Y-117295000D02*
X136705000Y-117295000D01*
%TO.N,/D-*%
X131805000Y-115117000D02*
X132127000Y-114795000D01*
X135305000Y-114795000D02*
X132860000Y-114795000D01*
X132127000Y-115795000D02*
X131805000Y-115473000D01*
X148671837Y-91981837D02*
X148650000Y-91960000D01*
X136100000Y-114600000D02*
X138850000Y-114600000D01*
X135755000Y-115245000D02*
X135755000Y-114945000D01*
X135755000Y-114945000D02*
X136100000Y-114600000D01*
X132127000Y-114795000D02*
X132860000Y-114795000D01*
X138850000Y-114600000D02*
X139065000Y-114385000D01*
X131805000Y-115473000D02*
X131805000Y-115117000D01*
X148709529Y-91981837D02*
X148671837Y-91981837D01*
X132860000Y-115795000D02*
X132127000Y-115795000D01*
X135755000Y-115245000D02*
X135305000Y-114795000D01*
X148650000Y-91960000D02*
X148650000Y-91640000D01*
X139065000Y-114385000D02*
X139070000Y-114380000D01*
%TO.N,/D+*%
X136755000Y-116443000D02*
X136453000Y-116745000D01*
X133555000Y-115295000D02*
X133805000Y-115545000D01*
X149000000Y-91190000D02*
X148650000Y-90840000D01*
X133805000Y-115545000D02*
X133805000Y-116083000D01*
X133805000Y-116083000D02*
X133593000Y-116295000D01*
X133655000Y-116295000D02*
X132860000Y-116295000D01*
X136453000Y-116745000D02*
X134105000Y-116745000D01*
X132860000Y-115295000D02*
X133555000Y-115295000D01*
X134105000Y-116745000D02*
X133655000Y-116295000D01*
X136755000Y-116025000D02*
X136755000Y-116443000D01*
X133593000Y-116295000D02*
X132860000Y-116295000D01*
X149000000Y-91200000D02*
X149000000Y-91190000D01*
X136755000Y-116025000D02*
X137505000Y-116025000D01*
X137505000Y-116025000D02*
X137910000Y-115620000D01*
%TO.N,/OSC48_OUT*%
X146025000Y-95280000D02*
X146025000Y-93765000D01*
X146650000Y-91240000D02*
X147050000Y-90840000D01*
X146650000Y-93140000D02*
X146650000Y-91240000D01*
X146625000Y-93165000D02*
X146650000Y-93140000D01*
X146560000Y-95815000D02*
X146025000Y-95280000D01*
X146025000Y-93765000D02*
X146625000Y-93165000D01*
%TO.N,/UART_TX2*%
X146590000Y-89700000D02*
X146600000Y-89700000D01*
X146250000Y-90040000D02*
X146590000Y-89700000D01*
%TO.N,/OSC32_IN*%
X153975000Y-87315700D02*
X153975000Y-88866400D01*
X152223600Y-88866400D02*
X153975000Y-88866400D01*
X151850000Y-89240000D02*
X152223600Y-88866400D01*
%TO.N,/PWR_ON*%
X131975000Y-99300000D02*
X131650000Y-99300000D01*
X150650000Y-88840000D02*
X150650000Y-90400000D01*
X149562500Y-104342500D02*
X149570000Y-104350000D01*
X131650000Y-99300000D02*
X131500000Y-99450000D01*
X151050000Y-88440000D02*
X150650000Y-88840000D01*
X149562500Y-103677500D02*
X149562500Y-104342500D01*
%TO.N,/UART_TX1*%
X138539000Y-87700000D02*
X138539000Y-87782034D01*
X141024000Y-88014000D02*
X141450000Y-88440000D01*
X138770966Y-88014000D02*
X141024000Y-88014000D01*
X138539000Y-87782034D02*
X138770966Y-88014000D01*
%TO.N,Net-(U11A-V08CAP)*%
X153950000Y-85715000D02*
X152025000Y-87640000D01*
X154050000Y-85715000D02*
X153950000Y-85715000D01*
X152025000Y-87640000D02*
X151850000Y-87640000D01*
%TO.N,/NRST*%
X132000000Y-72325000D02*
X132000000Y-74750000D01*
X132000000Y-74750000D02*
X132025000Y-74775000D01*
%TO.N,/BOOT0*%
X149824000Y-87214000D02*
X149824000Y-87759458D01*
X149450000Y-86840000D02*
X149824000Y-87214000D01*
X157525000Y-99075000D02*
X157525000Y-99300000D01*
X150130542Y-88066000D02*
X150616000Y-88066000D01*
X149824000Y-87759458D02*
X150130542Y-88066000D01*
X157525000Y-99300000D02*
X156925000Y-99900000D01*
X150616000Y-88066000D02*
X150625000Y-88075000D01*
X156925000Y-99900000D02*
X156925000Y-100525000D01*
%TO.N,/UART_RX1*%
X141076000Y-86414000D02*
X141450000Y-86040000D01*
X138060000Y-87010000D02*
X138656000Y-86414000D01*
X138060000Y-88060000D02*
X138060000Y-87010000D01*
X138656000Y-86414000D02*
X141076000Y-86414000D01*
%TO.N,/V_ADC2*%
X145450000Y-81240000D02*
X145710000Y-81500000D01*
X145710000Y-81500000D02*
X145750000Y-81500000D01*
%TO.N,/SDA2*%
X144990000Y-80900000D02*
X145025000Y-80900000D01*
X144650000Y-81240000D02*
X144990000Y-80900000D01*
%TO.N,/RAM_CS*%
D81*
X141084171Y-75949171D02*
X141421036Y-75612306D01*
X140244128Y-75109126D02*
X140244127Y-75109127D01*
X142387519Y-80772000D02*
X142675000Y-80484519D01*
X140664150Y-75529148D02*
X140664149Y-75529149D01*
X140874160Y-75739160D02*
X140537295Y-76076025D01*
X140789310Y-76496048D02*
X140747307Y-76454044D01*
X139908109Y-74773110D02*
X139774816Y-74639816D01*
X139949263Y-75656002D02*
X139907262Y-75614000D01*
X139907262Y-75445992D02*
X140244128Y-75109126D01*
X140454137Y-75319139D02*
X140454138Y-75319138D01*
X140328131Y-75025123D02*
X140580992Y-74772262D01*
X140327284Y-75866014D02*
X140664150Y-75529148D01*
X139950111Y-74815113D02*
X139908109Y-74773110D01*
X140580992Y-74604253D02*
X140538989Y-74562251D01*
X141000169Y-76033174D02*
X141084173Y-75949170D01*
X140454138Y-75319138D02*
X140117273Y-75656003D01*
X141421036Y-75444297D02*
X141379033Y-75402295D01*
X142675000Y-80484519D02*
X142675000Y-77540000D01*
X140664149Y-75529149D02*
X141001014Y-75192284D01*
X141918000Y-80772000D02*
X142387519Y-80772000D01*
X139774816Y-74639816D02*
X139700000Y-74565000D01*
X141211025Y-75402295D02*
X140874159Y-75739161D01*
X140369285Y-76076024D02*
X140327284Y-76034022D01*
X140747307Y-76286036D02*
X141000169Y-76033174D01*
X140370981Y-74562251D02*
X140118119Y-74815113D01*
X142675000Y-77540000D02*
X141378187Y-76243187D01*
X140791003Y-74982273D02*
X140454137Y-75319139D01*
X140874159Y-75739161D02*
X140874160Y-75739160D01*
X141210179Y-76243187D02*
X140957318Y-76496048D01*
X141001014Y-75024275D02*
X140959011Y-74982273D01*
X141084173Y-75949170D02*
X141084171Y-75949171D01*
X139700000Y-73340000D02*
X140350000Y-72690000D01*
X140244127Y-75109127D02*
X140328131Y-75025123D01*
X141450000Y-81240000D02*
X141918000Y-80772000D01*
X139700000Y-74565000D02*
X139700000Y-73340000D01*
X141001014Y-75192284D02*
G75*
G03*
X141000994Y-75024296I-84014J83984D01*
G01*
X140957318Y-76496048D02*
G75*
G02*
X140789310Y-76496048I-84004J84003D01*
G01*
X140538989Y-74562251D02*
G75*
G03*
X140370981Y-74562251I-84004J-84003D01*
G01*
X140117273Y-75656003D02*
G75*
G02*
X139949295Y-75655971I-83973J84003D01*
G01*
X140580992Y-74772262D02*
G75*
G03*
X140580950Y-74604296I-83992J83962D01*
G01*
X140327284Y-76034022D02*
G75*
G02*
X140327266Y-75865996I84016J84022D01*
G01*
X140118119Y-74815113D02*
G75*
G02*
X139950111Y-74815113I-84004J84003D01*
G01*
X140537295Y-76076025D02*
G75*
G02*
X140369294Y-76076015I-83995J84025D01*
G01*
X141421036Y-75612306D02*
G75*
G03*
X141421038Y-75444296I-84036J84006D01*
G01*
X139907262Y-75614000D02*
G75*
G02*
X139907266Y-75445996I84038J84000D01*
G01*
X141378187Y-76243187D02*
G75*
G03*
X141210179Y-76243187I-84004J-84003D01*
G01*
X141379033Y-75402295D02*
G75*
G03*
X141211025Y-75402295I-84004J-84003D01*
G01*
X140747307Y-76454044D02*
G75*
G02*
X140747267Y-76285996I83993J84044D01*
G01*
X140959011Y-74982273D02*
G75*
G03*
X140791003Y-74982273I-84004J-84003D01*
G01*
%TO.N,/CAM_IO0*%
D77*
X148200000Y-70140000D02*
X142450000Y-64390000D01*
X148200000Y-75765000D02*
X148200000Y-70140000D01*
X147431000Y-76534000D02*
X148200000Y-75765000D01*
X142450000Y-64040000D02*
X142450000Y-64565000D01*
X147050000Y-80440000D02*
X147431000Y-80059000D01*
X142450000Y-64390000D02*
X142450000Y-64040000D01*
X147431000Y-80059000D02*
X147431000Y-76534000D01*
%TO.N,/UART_RX2*%
X144990000Y-80100000D02*
X145025000Y-80100000D01*
X144650000Y-80440000D02*
X144990000Y-80100000D01*
X145025000Y-80100000D02*
X145050000Y-80100000D01*
%TO.N,/CAM_CK_P*%
X144450000Y-64040000D02*
X144450000Y-64390000D01*
X144450000Y-64390000D02*
X149850000Y-69790000D01*
X149850000Y-79240000D02*
X150250000Y-79640000D01*
X149850000Y-69790000D02*
X149850000Y-79240000D01*
%TO.N,/CAM_D1_P*%
X149075000Y-79265000D02*
X149050000Y-79265000D01*
X149450000Y-79640000D02*
X149075000Y-79265000D01*
%TO.N,/CAM_D0_P*%
X148650000Y-79640000D02*
X148405000Y-79395000D01*
%TO.N,/CAM_IO1*%
X146225000Y-75590000D02*
X146225000Y-69625000D01*
X146631000Y-75996000D02*
X146225000Y-75590000D01*
X147050000Y-79640000D02*
X146631000Y-79221000D01*
X146631000Y-79221000D02*
X146631000Y-75996000D01*
X141450000Y-64850000D02*
X141450000Y-64040000D01*
X146225000Y-69625000D02*
X141450000Y-64850000D01*
%TO.N,/CAM_CK_N*%
X150300000Y-69540000D02*
X150300000Y-78790000D01*
X145450000Y-64040000D02*
X145450000Y-64690000D01*
X145450000Y-64690000D02*
X150300000Y-69540000D01*
X150300000Y-78790000D02*
X150250000Y-78840000D01*
%TO.N,/CAM_D1_N*%
X149205000Y-78595000D02*
X149450000Y-78840000D01*
%TO.N,/CAM_D0_N*%
X148100000Y-78290000D02*
X148050000Y-78290000D01*
X148650000Y-78840000D02*
X148100000Y-78290000D01*
%TO.N,/CAM_SCL*%
X140450000Y-64740000D02*
X140450000Y-64040000D01*
X146250000Y-78840000D02*
X145575000Y-78165000D01*
X145575000Y-69865000D02*
X140450000Y-64740000D01*
X145575000Y-78165000D02*
X145575000Y-69865000D01*
%TO.N,/LED1*%
X144800000Y-78190000D02*
X144800000Y-77700000D01*
X145450000Y-78840000D02*
X144800000Y-78190000D01*
%TO.N,Net-(U4-FB)*%
X131975000Y-100100000D02*
X130500000Y-100100000D01*
X129000000Y-100100000D02*
X130500000Y-100100000D01*
%TO.N,/CC1*%
X135000000Y-113295000D02*
X134000000Y-114295000D01*
X134000000Y-114295000D02*
X132860000Y-114295000D01*
%TO.N,Net-(LED1-A)*%
D79*
X153380000Y-72370000D02*
X155030000Y-72370000D01*
%TD*%
%TA.AperFunction,Conductor*%
%TO.N,Net-(U4-SW)*%
G36*
X134543039Y-98319685D02*
G01*
X134588794Y-98372489D01*
X134600000Y-98424000D01*
X134600000Y-100976000D01*
X134580315Y-101043039D01*
X134527511Y-101088794D01*
X134476000Y-101100000D01*
X133664970Y-101100000D01*
X133597931Y-101080315D01*
X133563018Y-101046582D01*
X132722048Y-99831847D01*
X132715786Y-99812948D01*
X132705023Y-99796200D01*
X132701025Y-99768398D01*
X132700073Y-99765523D01*
X132700000Y-99761265D01*
X132700000Y-99638734D01*
X132719685Y-99571695D01*
X132722031Y-99568176D01*
X133563018Y-98353417D01*
X133617362Y-98309503D01*
X133664970Y-98300000D01*
X134476000Y-98300000D01*
X134543039Y-98319685D01*
G37*
%TD.AperFunction*%
%TD*%
%TA.AperFunction,Conductor*%
%TO.N,+BATT*%
G36*
X157027301Y-117544685D02*
G01*
X157032332Y-117548094D01*
X157700000Y-118025000D01*
X162776000Y-118025000D01*
X162843039Y-118044685D01*
X162888794Y-118097489D01*
X162900000Y-118149000D01*
X162900000Y-119401000D01*
X162880315Y-119468039D01*
X162827511Y-119513794D01*
X162776000Y-119525000D01*
X159524000Y-119525000D01*
X159456961Y-119505315D01*
X159411206Y-119452511D01*
X159400000Y-119401000D01*
X159400000Y-118925000D01*
X156024000Y-118925000D01*
X155956961Y-118905315D01*
X155911206Y-118852511D01*
X155900000Y-118801000D01*
X155900000Y-117649000D01*
X155919685Y-117581961D01*
X155972489Y-117536206D01*
X156024000Y-117525000D01*
X156960262Y-117525000D01*
X157027301Y-117544685D01*
G37*
%TD.AperFunction*%
%TD*%
%TA.AperFunction,Conductor*%
%TO.N,+5V*%
G36*
X164193106Y-106330023D02*
G01*
X164208104Y-106334427D01*
X164223094Y-106344057D01*
X164240175Y-106349067D01*
X164266855Y-106372172D01*
X164268042Y-106373541D01*
X164295518Y-106428402D01*
X164297163Y-106435960D01*
X164300000Y-106462331D01*
X164300000Y-108183170D01*
X164294975Y-108218114D01*
X164290570Y-108233112D01*
X164280939Y-108248101D01*
X164275932Y-108265175D01*
X164252827Y-108291855D01*
X164251458Y-108293042D01*
X164196597Y-108320518D01*
X164189039Y-108322163D01*
X164162668Y-108325000D01*
X147699998Y-108325000D01*
X147300000Y-108724998D01*
X147300000Y-114125000D01*
X152063681Y-118888682D01*
X152065285Y-118891620D01*
X151920000Y-118751923D01*
X151920000Y-120125000D01*
X151041830Y-120125000D01*
X151041825Y-120124999D01*
X151041823Y-120125000D01*
X151006889Y-120119975D01*
X150991890Y-120115570D01*
X150933144Y-120077827D01*
X150933115Y-120077793D01*
X150933114Y-120077793D01*
X150933113Y-120077791D01*
X150931957Y-120076458D01*
X150904477Y-120021583D01*
X150902832Y-120014021D01*
X150900000Y-119987668D01*
X150900000Y-119325000D01*
X146148926Y-114573926D01*
X146148921Y-114573921D01*
X146127774Y-114545670D01*
X146115167Y-114522581D01*
X146100000Y-114463156D01*
X146100000Y-108194191D01*
X146105022Y-108159258D01*
X146112434Y-108134013D01*
X146143728Y-108081271D01*
X147851076Y-106373923D01*
X147879326Y-106352775D01*
X147902418Y-106340167D01*
X147961843Y-106325000D01*
X164158170Y-106325000D01*
X164193106Y-106330023D01*
G37*
%TD.AperFunction*%
%TD*%
%TA.AperFunction,Conductor*%
%TO.N,VDDCORE*%
G36*
X141043039Y-96419685D02*
G01*
X141088794Y-96472489D01*
X141100000Y-96524000D01*
X141100000Y-99776000D01*
X141080315Y-99843039D01*
X141027511Y-99888794D01*
X140976000Y-99900000D01*
X136024000Y-99900000D01*
X135956961Y-99880315D01*
X135911206Y-99827511D01*
X135900000Y-99776000D01*
X135900000Y-98424000D01*
X135919685Y-98356961D01*
X135972489Y-98311206D01*
X136024000Y-98300000D01*
X137700000Y-98300000D01*
X137700000Y-96524000D01*
X137719685Y-96456961D01*
X137772489Y-96411206D01*
X137824000Y-96400000D01*
X140976000Y-96400000D01*
X141043039Y-96419685D01*
G37*
%TD.AperFunction*%
%TD*%
%TA.AperFunction,Conductor*%
%TO.N,Net-(U7-SW)*%
G36*
X156793106Y-112030023D02*
G01*
X156808104Y-112034427D01*
X156823094Y-112044057D01*
X156840175Y-112049067D01*
X156866855Y-112072172D01*
X156868042Y-112073541D01*
X156895518Y-112128402D01*
X156897163Y-112135960D01*
X156900000Y-112162331D01*
X156900000Y-114283170D01*
X156894975Y-114318114D01*
X156890570Y-114333112D01*
X156880939Y-114348101D01*
X156875932Y-114365175D01*
X156852827Y-114391855D01*
X156851458Y-114393042D01*
X156796597Y-114420518D01*
X156789039Y-114422163D01*
X156762668Y-114425000D01*
X155700000Y-114425000D01*
X155300000Y-115625000D01*
X155300000Y-117083170D01*
X155299999Y-117083176D01*
X155300000Y-117083179D01*
X155294975Y-117118114D01*
X155290570Y-117133112D01*
X155252827Y-117191855D01*
X155252792Y-117191885D01*
X155252791Y-117191887D01*
X155252789Y-117191887D01*
X155251458Y-117193042D01*
X155196597Y-117220518D01*
X155189039Y-117222163D01*
X155162668Y-117225000D01*
X154841830Y-117225000D01*
X154841825Y-117224999D01*
X154841823Y-117225000D01*
X154806889Y-117219975D01*
X154791890Y-117215570D01*
X154733144Y-117177827D01*
X154733115Y-117177793D01*
X154733114Y-117177793D01*
X154733113Y-117177791D01*
X154731957Y-117176458D01*
X154704477Y-117121583D01*
X154702832Y-117114021D01*
X154700000Y-117087668D01*
X154700000Y-115625000D01*
X154300000Y-114425000D01*
X153241830Y-114425000D01*
X153241825Y-114424999D01*
X153241823Y-114425000D01*
X153206889Y-114419975D01*
X153191890Y-114415570D01*
X153133144Y-114377827D01*
X153133115Y-114377793D01*
X153133114Y-114377793D01*
X153133113Y-114377791D01*
X153131957Y-114376458D01*
X153104477Y-114321583D01*
X153102832Y-114314021D01*
X153100000Y-114287668D01*
X153100000Y-112166829D01*
X153105023Y-112131893D01*
X153109427Y-112116895D01*
X153147172Y-112058144D01*
X153147200Y-112058119D01*
X153147199Y-112058119D01*
X153148541Y-112056956D01*
X153203420Y-112029477D01*
X153210979Y-112027833D01*
X153237332Y-112025000D01*
X156758170Y-112025000D01*
X156793106Y-112030023D01*
G37*
%TD.AperFunction*%
%TD*%
%TA.AperFunction,Conductor*%
%TO.N,+5V*%
G36*
X152099972Y-118924973D02*
G01*
X152100005Y-118925006D01*
X152730634Y-119531379D01*
X152750000Y-119550000D01*
X153326000Y-119550000D01*
X153334685Y-119552550D01*
X153343647Y-119551262D01*
X153367687Y-119562240D01*
X153393039Y-119569685D01*
X153398966Y-119576525D01*
X153407203Y-119580287D01*
X153421492Y-119602521D01*
X153438794Y-119622489D01*
X153441081Y-119633003D01*
X153444977Y-119639065D01*
X153450000Y-119674000D01*
X153450000Y-119813501D01*
X153430315Y-119880540D01*
X153377511Y-119926295D01*
X153326000Y-119937501D01*
X153030047Y-119937501D01*
X152979192Y-119947617D01*
X152955000Y-119950000D01*
X152750000Y-119950000D01*
X152749620Y-120047629D01*
X152729675Y-120114592D01*
X152676693Y-120160141D01*
X152625139Y-120171146D01*
X152014655Y-120168774D01*
X151991058Y-120166415D01*
X151920000Y-120152348D01*
X151920000Y-120125000D01*
X151920000Y-118751923D01*
X152099972Y-118924973D01*
G37*
%TD.AperFunction*%
%TD*%
%TA.AperFunction,Conductor*%
%TO.N,VCC*%
G36*
X134858177Y-94299995D02*
G01*
X134893109Y-94305019D01*
X134908109Y-94309424D01*
X134923112Y-94319067D01*
X134940226Y-94324095D01*
X134966875Y-94347194D01*
X134966886Y-94347201D01*
X134966896Y-94347212D01*
X134968081Y-94348580D01*
X134995519Y-94403400D01*
X134997164Y-94410959D01*
X135000000Y-94437327D01*
X135000000Y-97658170D01*
X134994975Y-97693114D01*
X134990570Y-97708112D01*
X134980939Y-97723101D01*
X134975932Y-97740175D01*
X134952827Y-97766855D01*
X134951458Y-97768042D01*
X134896597Y-97795518D01*
X134889039Y-97797163D01*
X134862668Y-97800000D01*
X133499998Y-97800000D01*
X132700000Y-98599998D01*
X132700000Y-99200237D01*
X132694390Y-99219339D01*
X132693707Y-99239237D01*
X132681167Y-99264374D01*
X132680315Y-99267276D01*
X132677952Y-99270819D01*
X132644539Y-99319082D01*
X132590195Y-99362997D01*
X132542587Y-99372500D01*
X132444296Y-99372500D01*
X132409355Y-99367475D01*
X132394356Y-99363070D01*
X132378260Y-99352727D01*
X132373068Y-99351947D01*
X132362201Y-99342408D01*
X132335597Y-99325313D01*
X132333534Y-99322933D01*
X132331600Y-99320702D01*
X132326272Y-99310869D01*
X132320558Y-99305854D01*
X132306103Y-99273656D01*
X132306060Y-99273506D01*
X132302967Y-99258630D01*
X132302500Y-99256887D01*
X132302500Y-99256884D01*
X132280181Y-99173590D01*
X132237065Y-99098910D01*
X132237064Y-99098909D01*
X132233001Y-99091871D01*
X132233140Y-99091790D01*
X132231281Y-99088939D01*
X132215166Y-99059424D01*
X132200000Y-99000001D01*
X132200000Y-98369191D01*
X132205022Y-98334258D01*
X132212434Y-98309013D01*
X132243728Y-98256271D01*
X132824000Y-97676000D01*
X133600000Y-96900000D01*
X133600072Y-94441782D01*
X133602228Y-94426798D01*
X133605097Y-94406849D01*
X133609502Y-94391850D01*
X133647253Y-94333097D01*
X133648625Y-94331907D01*
X133703490Y-94304439D01*
X133711050Y-94302795D01*
X133737403Y-94299962D01*
X134858177Y-94299995D01*
G37*
%TD.AperFunction*%
%TD*%
M02*
